# onset,offset,note,velocity
10.304545	10.495455	45.000000	39.000000
10.304545	10.815909	65.000000	58.000000
10.625000	10.879545	52.000000	48.000000
10.752273	11.552273	67.000000	56.000000
10.784091	11.584091	53.000000	46.000000
10.911364	11.552273	60.000000	48.000000
11.104545	11.679545	52.000000	41.000000
11.136364	11.552273	69.000000	64.000000
11.488636	11.743182	45.000000	48.000000
11.520455	12.384091	72.000000	64.000000
11.679545	11.840909	50.000000	48.000000
11.809091	11.904545	51.000000	46.000000
11.904545	12.127273	57.000000	47.000000
12.031818	12.320455	56.000000	52.000000
12.127273	12.288636	57.000000	44.000000
12.225000	12.352273	62.000000	53.000000
12.320455	13.025000	70.000000	61.000000
12.352273	13.025000	67.000000	48.000000
12.384091	13.056818	63.000000	46.000000
12.831818	13.025000	66.000000	47.000000
12.831818	13.056818	69.000000	53.000000
13.025000	13.120455	46.000000	41.000000
13.025000	14.209091	70.000000	58.000000
13.152273	13.504545	52.000000	51.000000
13.247727	14.209091	53.000000	53.000000
13.343182	14.209091	72.000000	65.000000
13.375000	14.209091	57.000000	43.000000
13.472727	14.209091	58.000000	56.000000
13.568182	14.240909	62.000000	64.000000
13.695455	14.209091	74.000000	72.000000
13.727273	14.209091	65.000000	66.000000
13.952273	14.209091	67.000000	73.000000
14.175000	14.815909	77.000000	71.000000
14.209091	14.815909	59.000000	56.000000
14.209091	14.847727	65.000000	59.000000
14.209091	14.304545	69.000000	66.000000
14.209091	14.784091	74.000000	67.000000
14.463636	15.679545	73.000000	73.000000
14.463636	14.784091	76.000000	70.000000
14.784091	17.825000	62.000000	51.000000
14.784091	15.679545	66.000000	57.000000
14.784091	15.647727	76.000000	58.000000
15.136364	15.679545	75.000000	60.000000
15.168182	15.679545	72.000000	51.000000
15.584091	16.159091	52.000000	40.000000
15.584091	16.927273	56.000000	43.000000
15.584091	16.768182	74.000000	57.000000
15.615909	16.575000	71.000000	53.000000
16.063636	16.609091	65.000000	40.000000
16.543182	16.927273	75.000000	67.000000
16.575000	18.752273	50.000000	44.000000
16.575000	17.825000	55.000000	40.000000
16.575000	17.025000	63.000000	50.000000
16.575000	16.927273	72.000000	57.000000
16.768182	16.959091	71.000000	55.000000
16.768182	16.927273	74.000000	60.000000
16.959091	17.056818	73.000000	63.000000
16.990909	17.375000	70.000000	52.000000
17.343182	17.790909	69.000000	50.000000
17.343182	17.825000	72.000000	56.000000
17.759091	18.752273	60.000000	47.000000
17.759091	18.015909	68.000000	48.000000
17.759091	18.175000	71.000000	51.000000
18.175000	19.552273	72.000000	56.000000
18.209091	18.752273	69.000000	48.000000
18.400000	18.784091	54.000000	44.000000
18.656818	18.752273	62.000000	51.000000
18.752273	18.879545	63.000000	60.000000
18.847727	18.943182	62.000000	52.000000
19.009091	19.743182	61.000000	57.000000
19.359091	19.743182	73.000000	62.000000
19.390909	20.672727	48.000000	35.000000
19.390909	20.190909	53.000000	39.000000
19.390909	19.743182	70.000000	50.000000
19.552273	19.775000	69.000000	57.000000
19.552273	19.743182	72.000000	60.000000
19.743182	20.225000	71.000000	60.000000
19.775000	20.225000	68.000000	50.000000
20.159091	20.672727	70.000000	53.000000
20.190909	20.672727	67.000000	43.000000
20.609091	21.888636	66.000000	50.000000
20.640909	21.247727	69.000000	53.000000
20.672727	21.888636	58.000000	37.000000
21.120455	21.920455	67.000000	40.000000
21.152273	21.888636	52.000000	39.000000
21.152273	21.759091	70.000000	46.000000
21.727273	21.888636	69.000000	50.000000
21.759091	22.079545	70.000000	55.000000
21.790909	22.879545	73.000000	62.000000
21.825000	22.752273	79.000000	67.000000
21.856818	22.336364	48.000000	52.000000
22.079545	22.304545	49.000000	50.000000
22.143182	22.336364	53.000000	49.000000
22.240909	22.336364	58.000000	56.000000
22.336364	22.911364	53.000000	54.000000
22.400000	22.815909	55.000000	46.000000
22.463636	22.879545	56.000000	51.000000
22.527273	22.879545	58.000000	52.000000
22.590909	22.879545	60.000000	57.000000
22.656818	22.879545	61.000000	65.000000
22.752273	22.879545	63.000000	70.000000
22.847727	23.743182	65.000000	70.000000
22.911364	23.520455	77.000000	74.000000
23.072727	23.647727	73.000000	66.000000
23.200000	23.743182	70.000000	57.000000
23.359091	23.809091	67.000000	60.000000
23.488636	24.543182	63.000000	61.000000
23.520455	23.936364	77.000000	73.000000
23.647727	24.031818	73.000000	69.000000
23.743182	24.159091	70.000000	58.000000
23.809091	24.543182	67.000000	68.000000
23.936364	24.543182	61.000000	59.000000
23.936364	24.447727	77.000000	72.000000
24.031818	24.543182	73.000000	67.000000
24.159091	24.543182	70.000000	57.000000
24.256818	24.543182	65.000000	51.000000
24.447727	25.152273	77.000000	62.000000
24.479545	25.247727	60.000000	48.000000
24.609091	25.247727	73.000000	47.000000
24.768182	25.247727	70.000000	43.000000
24.927273	25.279545	65.000000	41.000000
25.152273	26.015909	77.000000	51.000000
25.215909	26.111364	58.000000	37.000000
25.375000	26.111364	73.000000	43.000000
25.600000	26.143182	70.000000	39.000000
25.790909	26.143182	65.000000	37.000000
26.015909	27.390909	77.000000	47.000000
26.047727	27.872727	53.000000	30.000000
26.304545	27.390909	73.000000	44.000000
26.559091	27.390909	70.000000	34.000000
26.847727	27.456818	65.000000	36.000000
27.295455	29.184091	41.000000	36.000000
27.295455	28.704545	64.000000	51.000000
27.743182	28.609091	48.000000	35.000000
27.743182	29.152273	57.000000	31.000000
28.063636	29.152273	60.000000	47.000000
28.127273	29.152273	55.000000	33.000000
28.320455	29.184091	53.000000	40.000000
28.575000	29.152273	67.000000	65.000000
28.609091	29.152273	48.000000	48.000000
28.800000	29.184091	65.000000	62.000000
29.056818	30.527273	64.000000	61.000000
29.120455	29.440909	46.000000	39.000000
29.120455	29.152273	58.000000	43.000000
29.343182	29.695455	56.000000	46.000000
29.663636	30.943182	60.000000	46.000000
29.695455	30.784091	56.000000	40.000000
29.984091	30.720455	55.000000	38.000000
30.368182	30.943182	67.000000	63.000000
30.400000	30.943182	50.000000	46.000000
30.559091	30.943182	65.000000	63.000000
30.784091	30.975000	45.000000	48.000000
30.784091	31.840909	64.000000	64.000000
31.009091	31.520455	54.000000	42.000000
31.200000	31.809091	55.000000	40.000000
31.425000	31.809091	57.000000	41.000000
31.520455	31.809091	59.000000	50.000000
31.647727	31.809091	60.000000	59.000000
31.743182	32.927273	54.000000	47.000000
31.840909	32.447727	62.000000	59.000000
32.000000	32.384091	57.000000	45.000000
32.127273	32.959091	64.000000	67.000000
32.190909	32.511364	60.000000	51.000000
32.384091	32.927273	57.000000	46.000000
32.384091	32.927273	66.000000	69.000000
32.511364	32.895455	60.000000	45.000000
32.672727	32.927273	63.000000	57.000000
32.895455	33.984091	60.000000	53.000000
32.927273	35.168182	71.000000	60.000000
33.184091	33.984091	66.000000	48.000000
33.440909	35.168182	63.000000	40.000000
33.727273	35.168182	64.000000	45.000000
33.952273	35.168182	69.000000	51.000000
33.984091	35.263636	60.000000	33.000000
33.984091	35.168182	66.000000	44.000000
35.072727	35.615909	67.000000	60.000000
35.104545	35.968182	43.000000	43.000000
35.263636	35.968182	50.000000	38.000000
35.425000	35.936364	58.000000	43.000000
35.425000	35.968182	60.000000	46.000000
35.520455	35.968182	57.000000	39.000000
35.615909	36.447727	67.000000	46.000000
35.711364	35.936364	53.000000	45.000000
35.872727	36.447727	48.000000	50.000000
36.063636	36.479545	60.000000	62.000000
36.415909	37.184091	65.000000	53.000000
36.415909	37.184091	72.000000	63.000000
36.609091	37.184091	60.000000	56.000000
36.800000	37.184091	70.000000	66.000000
37.152273	38.175000	48.000000	43.000000
37.152273	37.727273	69.000000	64.000000
37.311364	38.209091	58.000000	53.000000
37.440909	38.209091	65.000000	59.000000
37.472727	38.209091	63.000000	50.000000
37.727273	38.209091	69.000000	60.000000
38.143182	40.063636	41.000000	48.000000
38.175000	39.136364	70.000000	62.000000
38.400000	40.031818	51.000000	46.000000
38.656818	40.031818	71.000000	56.000000
39.040909	40.031818	57.000000	34.000000
39.456818	40.063636	72.000000	55.000000
39.743182	40.031818	70.000000	54.000000
39.968182	40.063636	46.000000	45.000000
39.968182	40.768182	69.000000	56.000000
40.190909	40.640909	53.000000	53.000000
40.352273	40.768182	65.000000	59.000000
40.384091	40.736364	57.000000	45.000000
40.384091	40.768182	60.000000	46.000000
40.384091	40.768182	62.000000	53.000000
40.543182	40.704545	55.000000	54.000000
40.543182	40.768182	67.000000	52.000000
40.640909	40.768182	53.000000	50.000000
40.704545	40.768182	55.000000	52.000000
40.736364	41.343182	72.000000	65.000000
40.768182	41.279545	57.000000	48.000000
40.768182	41.343182	62.000000	49.000000
40.768182	41.343182	67.000000	50.000000
40.990909	41.343182	55.000000	59.000000
40.990909	41.343182	70.000000	67.000000
41.247727	42.336364	39.000000	65.000000
41.279545	42.304545	69.000000	60.000000
41.440909	42.336364	46.000000	57.000000
41.600000	42.336364	49.000000	58.000000
41.695455	42.304545	53.000000	58.000000
41.695455	42.209091	61.000000	64.000000
41.695455	42.304545	65.000000	68.000000
41.856818	42.304545	55.000000	58.000000
41.856818	42.304545	67.000000	59.000000
42.015909	42.336364	60.000000	71.000000
42.209091	42.336364	61.000000	68.000000
42.272727	42.431818	62.000000	60.000000
42.336364	42.879545	63.000000	62.000000
42.336364	42.911364	72.000000	69.000000
42.495455	42.911364	62.000000	60.000000
42.590909	42.911364	70.000000	68.000000
42.656818	42.911364	60.000000	57.000000
42.847727	43.743182	69.000000	64.000000
42.879545	43.072727	45.000000	54.000000
42.879545	43.743182	52.000000	52.000000
43.009091	43.743182	55.000000	52.000000
43.040909	43.743182	67.000000	53.000000
43.200000	43.520455	60.000000	64.000000
43.520455	43.743182	60.000000	54.000000
43.679545	43.904545	61.000000	62.000000
43.775000	44.127273	38.000000	64.000000
43.872727	44.127273	62.000000	61.000000
44.031818	44.352273	53.000000	54.000000
44.031818	45.184091	63.000000	65.000000
44.288636	45.184091	70.000000	59.000000
44.320455	45.184091	54.000000	50.000000
44.736364	45.184091	69.000000	59.000000
45.152273	45.536364	43.000000	55.000000
45.215909	45.568182	67.000000	56.000000
45.311364	45.600000	50.000000	48.000000
45.409091	45.568182	53.000000	46.000000
45.536364	46.209091	58.000000	48.000000
45.536364	46.209091	62.000000	55.000000
45.825000	46.111364	61.000000	54.000000
46.079545	46.175000	60.000000	48.000000
46.111364	46.209091	61.000000	55.000000
46.175000	47.295455	48.000000	50.000000
46.175000	47.295455	53.000000	47.000000
46.175000	47.295455	60.000000	56.000000
46.336364	47.327273	58.000000	56.000000
46.527273	47.327273	69.000000	59.000000
46.879545	47.327273	67.000000	56.000000
47.295455	47.743182	60.000000	61.000000
47.488636	48.256818	48.000000	55.000000
47.647727	48.320455	61.000000	61.000000
47.679545	49.088636	54.000000	53.000000
47.679545	48.320455	56.000000	54.000000
47.840909	48.225000	36.000000	61.000000
48.031818	48.320455	59.000000	55.000000
48.031818	48.320455	62.000000	57.000000
48.225000	48.768182	36.000000	60.000000
48.256818	49.088636	58.000000	61.000000
48.479545	49.088636	62.000000	55.000000
48.768182	49.311364	36.000000	61.000000
49.025000	49.727273	63.000000	62.000000
49.056818	49.695455	59.000000	46.000000
49.311364	49.759091	36.000000	65.000000
49.568182	49.727273	49.000000	59.000000
49.631818	51.488636	64.000000	70.000000
49.695455	50.079545	52.000000	60.000000
49.695455	51.456818	59.000000	56.000000
50.209091	51.488636	50.000000	50.000000
51.390909	52.190909	67.000000	56.000000
51.425000	52.127273	52.000000	47.000000
51.425000	52.159091	60.000000	47.000000
51.775000	52.159091	50.000000	47.000000
51.775000	52.190909	65.000000	59.000000
52.127273	52.800000	64.000000	60.000000
52.159091	52.800000	41.000000	44.000000
52.447727	52.768182	48.000000	48.000000
52.768182	53.472727	60.000000	52.000000
52.831818	53.440909	52.000000	42.000000
52.831818	53.504545	57.000000	33.000000
53.343182	53.504545	50.000000	59.000000
53.343182	53.472727	51.000000	59.000000
53.440909	53.695455	52.000000	61.000000
53.472727	54.047727	60.000000	59.000000
53.472727	53.631818	64.000000	61.000000
53.472727	54.431818	67.000000	70.000000
53.695455	54.047727	50.000000	55.000000
53.695455	54.079545	65.000000	66.000000
54.015909	55.488636	64.000000	66.000000
54.209091	54.911364	41.000000	62.000000
54.368182	55.136364	48.000000	51.000000
54.559091	55.520455	56.000000	52.000000
54.559091	55.425000	60.000000	60.000000
54.911364	55.520455	41.000000	41.000000
55.136364	55.488636	48.000000	44.000000
55.327273	55.488636	50.000000	56.000000
55.390909	55.520455	51.000000	61.000000
55.425000	55.520455	60.000000	64.000000
55.456818	55.552273	52.000000	59.000000
55.456818	55.584091	67.000000	68.000000
55.647727	55.968182	50.000000	56.000000
55.647727	55.968182	65.000000	67.000000
55.904545	56.000000	33.000000	57.000000
55.904545	56.609091	64.000000	66.000000
56.095455	56.609091	43.000000	70.000000
56.320455	56.640909	48.000000	55.000000
56.320455	56.609091	60.000000	61.000000
56.352273	56.384091	67.000000	51.000000
56.575000	57.056818	49.000000	54.000000
56.609091	56.927273	60.000000	55.000000
56.800000	57.120455	46.000000	42.000000
56.800000	57.056818	58.000000	43.000000
56.927273	57.920455	60.000000	61.000000
56.959091	57.247727	54.000000	48.000000
57.088636	57.279545	38.000000	63.000000
57.279545	57.504545	45.000000	54.000000
57.504545	57.952273	45.000000	50.000000
57.695455	57.952273	48.000000	54.000000
57.888636	58.495455	69.000000	63.000000
57.920455	58.431818	54.000000	50.000000
57.920455	58.463636	60.000000	48.000000
57.920455	57.952273	66.000000	55.000000
58.336364	59.231818	43.000000	66.000000
58.431818	59.231818	67.000000	68.000000
58.590909	59.231818	50.000000	54.000000
58.752273	59.168182	60.000000	61.000000
58.784091	59.200000	58.000000	49.000000
58.975000	59.231818	57.000000	54.000000
59.168182	59.809091	53.000000	61.000000
59.168182	59.615909	60.000000	70.000000
59.295455	59.809091	48.000000	62.000000
59.425000	59.809091	65.000000	65.000000
59.425000	59.809091	72.000000	71.000000
59.615909	59.809091	60.000000	66.000000
59.809091	60.288636	70.000000	65.000000
60.031818	60.320455	58.000000	48.000000
60.225000	61.152273	69.000000	65.000000
60.415909	61.025000	63.000000	58.000000
60.543182	60.768182	65.000000	63.000000
60.768182	61.120455	65.000000	60.000000
61.025000	61.856818	57.000000	40.000000
61.025000	61.184091	63.000000	47.000000
61.120455	62.400000	65.000000	57.000000
61.247727	62.400000	74.000000	63.000000
61.472727	62.400000	72.000000	56.000000
61.727273	62.400000	70.000000	58.000000
61.856818	62.400000	57.000000	44.000000
61.984091	62.368182	69.000000	61.000000
62.240909	63.168182	46.000000	49.000000
62.368182	63.168182	69.000000	59.000000
62.527273	63.136364	57.000000	46.000000
62.656818	63.168182	56.000000	50.000000
62.815909	63.136364	55.000000	48.000000
62.943182	63.168182	54.000000	53.000000
63.104545	63.200000	53.000000	54.000000
63.136364	64.190909	62.000000	57.000000
63.136364	63.584091	65.000000	64.000000
63.168182	63.615909	60.000000	47.000000
63.488636	63.615909	55.000000	46.000000
63.584091	64.159091	57.000000	51.000000
63.584091	64.190909	65.000000	55.000000
63.584091	64.190909	72.000000	67.000000
63.904545	64.225000	70.000000	65.000000
63.936364	64.190909	55.000000	50.000000
64.159091	64.575000	39.000000	63.000000
64.159091	64.575000	69.000000	67.000000
64.352273	64.575000	46.000000	57.000000
64.511364	65.631818	65.000000	67.000000
64.543182	64.640909	49.000000	58.000000
64.543182	65.568182	61.000000	62.000000
64.768182	65.663636	55.000000	52.000000
64.990909	65.856818	63.000000	56.000000
64.990909	65.856818	72.000000	66.000000
65.279545	65.856818	62.000000	55.000000
65.568182	65.888636	61.000000	59.000000
65.600000	65.888636	70.000000	65.000000
65.825000	66.815909	45.000000	52.000000
65.920455	67.456818	69.000000	67.000000
66.175000	66.559091	60.000000	51.000000
66.559091	66.847727	60.000000	50.000000
66.720455	66.911364	61.000000	55.000000
66.815909	67.425000	38.000000	55.000000
66.911364	67.425000	62.000000	56.000000
67.104545	67.425000	53.000000	46.000000
67.104545	67.359091	63.000000	59.000000
67.359091	68.320455	63.000000	47.000000
67.359091	68.320455	70.000000	58.000000
67.390909	68.320455	54.000000	45.000000
68.063636	68.320455	69.000000	56.000000
68.256818	69.375000	43.000000	54.000000
68.352273	69.409091	67.000000	56.000000
68.479545	68.704545	50.000000	47.000000
68.609091	69.375000	62.000000	55.000000
68.640909	69.343182	53.000000	42.000000
68.895455	69.311364	61.000000	61.000000
69.215909	69.409091	60.000000	49.000000
69.311364	69.375000	61.000000	60.000000
69.343182	70.336364	48.000000	47.000000
69.343182	69.536364	53.000000	42.000000
69.472727	70.336364	58.000000	54.000000
69.600000	70.336364	69.000000	61.000000
69.952273	70.656818	67.000000	59.000000
70.272727	70.720455	41.000000	38.000000
70.368182	70.720455	65.000000	60.000000
70.495455	71.231818	58.000000	52.000000
70.656818	71.231818	67.000000	56.000000
70.688636	71.263636	63.000000	51.000000
70.943182	71.263636	65.000000	56.000000
71.168182	72.447727	68.000000	60.000000
71.200000	72.320455	59.000000	46.000000
71.456818	72.031818	65.000000	56.000000
71.711364	72.479545	60.000000	47.000000
71.711364	72.479545	69.000000	59.000000
72.031818	72.479545	65.000000	49.000000
72.415909	76.159091	61.000000	46.000000
72.415909	73.600000	70.000000	58.000000
72.831818	73.790909	65.000000	46.000000
73.311364	73.759091	71.000000	51.000000
73.790909	78.209091	65.000000	48.000000
73.984091	78.336364	60.000000	40.000000
74.304545	75.168182	72.000000	54.000000
74.336364	75.200000	63.000000	40.000000
75.168182	76.352273	72.000000	47.000000
75.200000	76.384091	63.000000	36.000000
76.352273	78.240909	72.000000	44.000000
76.384091	78.400000	63.000000	39.000000
78.209091	78.752273	65.000000	50.000000
78.240909	78.752273	48.000000	35.000000
78.400000	79.615909	55.000000	34.000000
78.527273	79.615909	66.000000	54.000000
78.559091	79.615909	58.000000	37.000000
78.752273	79.104545	64.000000	49.000000
78.911364	79.647727	63.000000	48.000000
78.943182	79.647727	67.000000	52.000000
79.040909	79.615909	62.000000	44.000000
79.168182	79.615909	61.000000	49.000000
79.168182	79.615909	68.000000	56.000000
79.295455	79.647727	59.000000	53.000000
79.520455	80.863636	69.000000	63.000000
79.552273	80.831818	41.000000	57.000000
79.679545	79.809091	48.000000	50.000000
79.840909	80.863636	70.000000	62.000000
79.872727	80.863636	51.000000	49.000000
80.159091	80.863636	57.000000	54.000000
80.190909	80.863636	71.000000	62.000000
80.320455	80.863636	62.000000	52.000000
80.447727	80.863636	63.000000	67.000000
80.575000	80.863636	72.000000	67.000000
80.800000	80.959091	46.000000	55.000000
80.831818	81.952273	65.000000	53.000000
80.927273	81.952273	74.000000	68.000000
81.056818	81.920455	41.000000	50.000000
81.056818	81.920455	53.000000	55.000000
81.215909	81.920455	55.000000	52.000000
81.215909	81.920455	67.000000	51.000000
81.279545	81.952273	75.000000	73.000000
81.375000	81.920455	57.000000	55.000000
81.504545	81.920455	77.000000	72.000000
81.790909	82.943182	43.000000	72.000000
81.790909	82.911364	69.000000	66.000000
81.888636	83.679545	79.000000	77.000000
81.984091	82.911364	53.000000	60.000000
82.111364	82.143182	77.000000	52.000000
82.175000	84.288636	81.000000	71.000000
82.559091	82.911364	82.000000	67.000000
82.911364	84.384091	82.000000	59.000000
82.943182	84.736364	59.000000	40.000000
82.943182	84.768182	63.000000	42.000000
82.943182	84.479545	68.000000	44.000000
83.009091	83.456818	80.000000	57.000000
83.168182	83.872727	78.000000	60.000000
83.295455	83.584091	75.000000	46.000000
83.359091	83.679545	71.000000	44.000000
83.456818	84.895455	80.000000	64.000000
83.584091	84.768182	75.000000	53.000000
83.679545	83.968182	71.000000	58.000000
83.775000	84.031818	70.000000	50.000000
83.872727	84.768182	78.000000	72.000000
83.968182	84.768182	71.000000	57.000000
84.031818	84.800000	70.000000	59.000000
84.127273	84.736364	66.000000	62.000000
84.225000	85.152273	46.000000	53.000000
84.288636	86.336364	77.000000	64.000000
84.384091	85.025000	72.000000	65.000000
84.447727	84.927273	53.000000	50.000000
84.479545	84.990909	68.000000	64.000000
84.575000	84.895455	67.000000	60.000000
84.640909	86.590909	74.000000	67.000000
84.736364	85.184091	69.000000	56.000000
84.831818	85.152273	66.000000	62.000000
84.927273	85.888636	65.000000	51.000000
85.025000	86.590909	72.000000	62.000000
85.152273	86.590909	66.000000	60.000000
85.409091	86.590909	63.000000	58.000000
85.631818	86.111364	70.000000	64.000000
85.663636	86.590909	39.000000	56.000000
85.790909	86.590909	46.000000	60.000000
85.790909	86.304545	59.000000	60.000000
85.888636	86.590909	65.000000	64.000000
86.015909	86.590909	68.000000	67.000000
86.079545	86.590909	51.000000	65.000000
86.111364	86.590909	70.000000	68.000000
86.209091	86.590909	58.000000	57.000000
86.240909	86.590909	71.000000	67.000000
86.304545	86.590909	59.000000	58.000000
86.336364	86.590909	77.000000	68.000000
86.400000	86.590909	64.000000	60.000000
86.431818	86.590909	80.000000	73.000000
86.590909	87.743182	60.000000	66.000000
86.590909	87.647727	82.000000	74.000000
86.625000	87.168182	65.000000	67.000000
86.752273	87.743182	77.000000	71.000000
86.879545	87.743182	75.000000	71.000000
86.943182	87.072727	70.000000	66.000000
87.072727	87.456818	70.000000	66.000000
87.168182	87.743182	65.000000	67.000000
87.263636	87.647727	63.000000	63.000000
87.359091	87.743182	58.000000	63.000000
87.456818	87.647727	66.000000	67.000000
87.456818	88.352273	70.000000	72.000000
87.647727	87.775000	63.000000	60.000000
87.647727	88.384091	66.000000	67.000000
87.679545	88.447727	39.000000	58.000000
88.000000	88.479545	68.000000	59.000000
88.031818	88.190909	53.000000	47.000000
88.159091	88.704545	54.000000	51.000000
88.352273	88.736364	61.000000	58.000000
88.352273	88.736364	70.000000	65.000000
88.384091	88.672727	66.000000	49.000000
88.672727	89.856818	66.000000	58.000000
88.704545	89.856818	44.000000	45.000000
88.863636	89.856818	51.000000	42.000000
89.025000	89.888636	72.000000	59.000000
89.056818	89.888636	54.000000	42.000000
89.279545	89.888636	60.000000	53.000000
89.409091	89.888636	70.000000	60.000000
89.790909	90.079545	41.000000	57.000000
89.790909	90.368182	68.000000	58.000000
90.079545	90.784091	41.000000	52.000000
90.079545	90.975000	56.000000	51.000000
90.079545	91.136364	67.000000	52.000000
90.079545	91.136364	70.000000	61.000000
90.240909	91.136364	60.000000	56.000000
90.336364	90.625000	72.000000	67.000000
90.368182	91.040909	68.000000	54.000000
90.625000	91.136364	46.000000	46.000000
90.625000	91.263636	72.000000	64.000000
90.656818	91.136364	69.000000	55.000000
90.784091	91.295455	41.000000	50.000000
90.815909	91.615909	53.000000	54.000000
90.815909	91.520455	73.000000	69.000000
90.975000	91.615909	56.000000	62.000000
91.040909	91.615909	68.000000	60.000000
91.040909	91.647727	74.000000	68.000000
91.200000	91.647727	62.000000	66.000000
91.359091	91.647727	72.000000	65.000000
91.615909	92.575000	43.000000	57.000000
91.615909	92.575000	50.000000	56.000000
91.615909	92.575000	67.000000	56.000000
91.615909	92.575000	70.000000	63.000000
91.775000	92.575000	57.000000	46.000000
91.904545	92.575000	72.000000	64.000000
91.968182	92.575000	58.000000	52.000000
92.095455	92.575000	62.000000	55.000000
92.225000	92.543182	74.000000	66.000000
92.543182	97.440909	48.000000	50.000000
92.543182	92.863636	74.000000	65.000000
92.575000	93.472727	71.000000	57.000000
92.800000	96.609091	75.000000	66.000000
92.895455	97.536364	58.000000	45.000000
93.120455	96.768182	64.000000	55.000000
93.120455	97.759091	73.000000	63.000000
93.311364	97.440909	72.000000	60.000000
93.472727	96.320455	71.000000	57.000000
93.600000	97.409091	70.000000	58.000000
93.695455	97.440909	69.000000	56.000000
93.825000	97.504545	68.000000	53.000000
93.920455	97.025000	67.000000	54.000000
94.079545	96.609091	66.000000	55.000000
95.390909	97.472727	76.000000	54.000000
96.225000	96.895455	77.000000	46.000000
96.256818	96.927273	53.000000	38.000000
96.609091	97.759091	62.000000	44.000000
96.609091	97.472727	66.000000	47.000000
96.768182	97.184091	65.000000	48.000000
96.895455	97.343182	77.000000	58.000000
96.927273	97.920455	53.000000	44.000000
97.025000	97.536364	67.000000	57.000000
97.056818	97.727273	61.000000	52.000000
97.184091	97.695455	65.000000	55.000000
97.215909	97.695455	63.000000	53.000000
97.343182	97.888636	77.000000	64.000000
97.504545	98.175000	68.000000	60.000000
97.536364	98.111364	60.000000	48.000000
97.695455	98.272727	63.000000	52.000000
97.695455	98.079545	65.000000	54.000000
97.888636	98.463636	77.000000	63.000000
97.920455	100.704545	53.000000	48.000000
98.079545	101.247727	65.000000	43.000000
98.111364	101.568182	60.000000	44.000000
98.240909	99.968182	69.000000	56.000000
98.272727	101.247727	63.000000	54.000000
98.463636	98.656818	77.000000	51.000000
98.656818	100.704545	77.000000	46.000000
98.911364	102.527273	81.000000	48.000000
99.263636	101.952273	89.000000	52.000000
99.968182	102.111364	69.000000	33.000000
100.704545	101.409091	53.000000	37.000000
100.704545	101.409091	77.000000	51.000000
101.025000	102.527273	61.000000	44.000000
101.056818	102.527273	67.000000	45.000000
101.247727	101.759091	63.000000	39.000000
101.247727	101.727273	65.000000	48.000000
101.409091	101.920455	53.000000	43.000000
101.409091	101.920455	77.000000	55.000000
101.568182	102.527273	60.000000	46.000000
101.568182	102.527273	68.000000	52.000000
101.727273	102.272727	65.000000	46.000000
101.759091	102.304545	63.000000	49.000000
101.920455	102.495455	53.000000	48.000000
101.920455	102.495455	77.000000	65.000000
102.111364	102.527273	69.000000	60.000000
102.143182	102.527273	59.000000	44.000000
102.272727	102.527273	65.000000	53.000000
102.304545	102.527273	63.000000	52.000000
102.495455	105.727273	53.000000	45.000000
102.495455	103.168182	77.000000	66.000000
102.688636	107.136364	58.000000	46.000000
102.688636	105.472727	65.000000	48.000000
102.911364	105.504545	63.000000	50.000000
102.911364	103.809091	70.000000	56.000000
103.168182	103.488636	77.000000	61.000000
103.488636	104.959091	77.000000	58.000000
103.775000	103.840909	82.000000	45.000000
104.159091	107.136364	89.000000	50.000000
104.959091	105.727273	77.000000	49.000000
105.247727	107.136364	61.000000	40.000000
105.247727	107.136364	69.000000	43.000000
105.472727	106.079545	65.000000	37.000000
105.504545	106.111364	63.000000	40.000000
105.727273	106.368182	53.000000	35.000000
105.727273	106.368182	77.000000	51.000000
105.920455	107.136364	60.000000	40.000000
105.920455	107.136364	70.000000	51.000000
106.079545	106.847727	65.000000	46.000000
106.111364	106.847727	63.000000	48.000000
106.368182	107.136364	53.000000	41.000000
106.368182	107.136364	77.000000	60.000000
106.590909	107.168182	59.000000	40.000000
106.590909	107.136364	71.000000	51.000000
106.847727	107.136364	63.000000	46.000000
106.847727	107.136364	65.000000	48.000000
107.136364	108.768182	53.000000	43.000000
107.136364	108.256818	77.000000	60.000000
107.488636	109.343182	58.000000	38.000000
107.488636	112.415909	67.000000	56.000000
107.809091	112.095455	72.000000	51.000000
107.840909	109.727273	63.000000	42.000000
108.256818	109.790909	77.000000	58.000000
108.736364	109.790909	79.000000	48.000000
108.768182	112.609091	53.000000	35.000000
109.247727	109.790909	84.000000	46.000000
109.279545	112.575000	57.000000	30.000000
109.727273	112.609091	63.000000	33.000000
109.727273	112.288636	89.000000	42.000000
112.095455	112.543182	69.000000	46.000000
112.095455	112.609091	72.000000	47.000000
112.256818	112.609091	68.000000	48.000000
112.256818	112.609091	71.000000	52.000000
112.384091	112.609091	70.000000	59.000000
112.415909	112.609091	67.000000	52.000000
112.543182	113.631818	62.000000	52.000000
112.543182	112.640909	66.000000	57.000000
112.543182	112.831818	69.000000	60.000000
112.575000	113.631818	58.000000	52.000000
112.831818	113.279545	68.000000	50.000000
112.863636	113.631818	65.000000	46.000000
113.184091	113.568182	67.000000	59.000000
113.409091	114.752273	57.000000	44.000000
113.568182	113.952273	64.000000	67.000000
113.568182	114.752273	67.000000	67.000000
114.047727	114.304545	64.000000	48.000000
114.304545	114.752273	62.000000	49.000000
114.304545	114.752273	65.000000	52.000000
114.625000	115.936364	46.000000	39.000000
114.688636	116.225000	64.000000	61.000000
114.911364	116.225000	52.000000	46.000000
115.136364	116.256818	60.000000	54.000000
115.936364	116.225000	67.000000	59.000000
116.063636	116.256818	65.000000	64.000000
116.225000	117.056818	45.000000	52.000000
116.256818	117.056818	64.000000	64.000000
116.479545	117.056818	53.000000	42.000000
116.672727	117.056818	57.000000	41.000000
116.800000	117.056818	60.000000	60.000000
117.056818	118.175000	38.000000	51.000000
117.120455	118.175000	60.000000	55.000000
117.279545	118.175000	50.000000	51.000000
117.440909	118.175000	69.000000	59.000000
117.631818	118.175000	53.000000	44.000000
117.790909	118.175000	67.000000	61.000000
118.111364	119.009091	43.000000	54.000000
118.175000	119.009091	67.000000	54.000000
118.368182	119.009091	50.000000	39.000000
118.495455	119.009091	60.000000	48.000000
118.527273	119.009091	58.000000	46.000000
118.656818	119.009091	57.000000	51.000000
118.720455	119.009091	55.000000	55.000000
118.815909	119.009091	53.000000	51.000000
118.975000	119.904545	48.000000	58.000000
119.104545	119.904545	60.000000	64.000000
119.200000	119.904545	72.000000	71.000000
119.488636	120.000000	70.000000	67.000000
119.809091	120.990909	58.000000	45.000000
119.968182	120.990909	69.000000	61.000000
120.190909	120.736364	63.000000	47.000000
120.352273	120.575000	65.000000	60.000000
120.575000	122.400000	65.000000	62.000000
120.736364	122.400000	63.000000	62.000000
120.927273	121.343182	74.000000	68.000000
120.959091	121.631818	70.000000	63.000000
121.279545	122.400000	72.000000	63.000000
121.631818	122.400000	70.000000	62.000000
121.695455	122.400000	57.000000	38.000000
121.984091	122.368182	69.000000	62.000000
122.336364	123.168182	46.000000	50.000000
122.368182	123.425000	69.000000	66.000000
122.590909	122.975000	57.000000	56.000000
122.720455	123.009091	56.000000	60.000000
122.879545	123.136364	55.000000	54.000000
122.975000	123.136364	54.000000	52.000000
123.104545	123.168182	53.000000	54.000000
123.104545	123.425000	65.000000	63.000000
123.136364	124.031818	62.000000	52.000000
123.295455	123.390909	53.000000	58.000000
123.359091	123.425000	55.000000	62.000000
123.390909	123.456818	67.000000	61.000000
123.390909	124.031818	72.000000	63.000000
123.425000	124.000000	57.000000	57.000000
123.679545	124.031818	55.000000	55.000000
123.679545	124.031818	70.000000	68.000000
123.872727	124.031818	50.000000	55.000000
123.968182	124.415909	69.000000	68.000000
124.031818	124.415909	39.000000	56.000000
124.127273	124.415909	46.000000	55.000000
124.256818	124.415909	49.000000	61.000000
124.384091	124.736364	53.000000	55.000000
124.415909	125.663636	65.000000	63.000000
124.609091	125.663636	55.000000	54.000000
124.736364	125.663636	60.000000	56.000000
124.800000	125.663636	63.000000	67.000000
124.831818	125.504545	41.000000	53.000000
124.895455	125.663636	72.000000	70.000000
125.088636	125.663636	62.000000	56.000000
125.247727	125.663636	70.000000	68.000000
125.375000	125.663636	61.000000	69.000000
125.504545	125.695455	52.000000	61.000000
125.631818	127.040909	69.000000	68.000000
125.663636	125.888636	45.000000	47.000000
125.920455	126.240909	60.000000	63.000000
126.111364	126.463636	55.000000	48.000000
126.240909	126.463636	60.000000	55.000000
126.336364	126.559091	61.000000	64.000000
126.495455	126.688636	38.000000	60.000000
126.559091	126.815909	62.000000	57.000000
126.720455	126.975000	63.000000	63.000000
126.752273	127.009091	53.000000	51.000000
126.943182	127.647727	70.000000	61.000000
126.975000	127.009091	42.000000	45.000000
126.975000	127.615909	54.000000	44.000000
126.975000	127.647727	63.000000	50.000000
127.263636	127.615909	69.000000	61.000000
127.584091	128.384091	67.000000	58.000000
127.615909	128.352273	43.000000	52.000000
127.711364	128.384091	50.000000	42.000000
127.840909	128.352273	62.000000	58.000000
127.872727	129.247727	53.000000	49.000000
128.063636	128.320455	61.000000	62.000000
128.225000	129.247727	60.000000	58.000000
128.320455	128.384091	61.000000	59.000000
128.384091	129.215909	48.000000	49.000000
128.575000	129.247727	69.000000	69.000000
128.736364	129.215909	46.000000	47.000000
128.927273	129.247727	67.000000	70.000000
129.152273	129.311364	45.000000	52.000000
129.247727	129.856818	72.000000	67.000000
129.440909	130.047727	52.000000	56.000000
129.631818	130.175000	55.000000	51.000000
129.759091	131.168182	60.000000	65.000000
129.790909	130.175000	64.000000	70.000000
129.856818	130.209091	72.000000	76.000000
130.111364	131.136364	50.000000	61.000000
130.111364	130.431818	54.000000	60.000000
130.175000	130.590909	75.000000	76.000000
130.209091	130.304545	66.000000	67.000000
130.431818	130.559091	54.000000	52.000000
130.495455	131.136364	74.000000	72.000000
130.559091	133.920455	54.000000	53.000000
130.688636	131.136364	63.000000	62.000000
130.847727	131.168182	72.000000	65.000000
131.009091	131.136364	66.000000	60.000000
131.136364	131.679545	70.000000	63.000000
131.168182	131.711364	61.000000	52.000000
131.295455	131.552273	66.000000	56.000000
131.390909	132.063636	69.000000	65.000000
131.425000	132.095455	60.000000	53.000000
131.552273	131.840909	66.000000	60.000000
131.679545	132.063636	70.000000	65.000000
131.711364	132.063636	61.000000	51.000000
131.840909	132.063636	66.000000	53.000000
132.031818	133.088636	62.000000	54.000000
132.031818	133.088636	72.000000	60.000000
132.225000	132.511364	66.000000	46.000000
132.384091	133.056818	61.000000	43.000000
132.384091	133.025000	70.000000	52.000000
132.511364	132.831818	66.000000	41.000000
132.672727	133.088636	69.000000	54.000000
132.704545	133.088636	60.000000	42.000000
132.831818	133.088636	66.000000	43.000000
133.025000	133.472727	70.000000	57.000000
133.056818	133.504545	61.000000	46.000000
133.409091	133.888636	60.000000	41.000000
133.409091	133.888636	69.000000	52.000000
133.825000	134.527273	70.000000	50.000000
133.856818	134.527273	61.000000	38.000000
134.431818	136.609091	60.000000	36.000000
134.431818	135.359091	69.000000	45.000000
135.359091	136.127273	69.000000	46.000000
136.127273	137.409091	50.000000	36.000000
136.127273	137.343182	69.000000	50.000000
136.352273	137.343182	57.000000	37.000000
136.575000	137.375000	58.000000	35.000000
136.575000	136.895455	65.000000	43.000000
136.609091	137.409091	60.000000	30.000000
136.895455	137.375000	65.000000	45.000000
136.927273	137.409091	72.000000	51.000000
137.152273	137.472727	70.000000	56.000000
137.343182	138.143182	69.000000	59.000000
137.375000	138.431818	49.000000	40.000000
137.695455	138.400000	61.000000	41.000000
137.695455	137.984091	65.000000	50.000000
137.727273	138.625000	58.000000	36.000000
137.984091	139.359091	65.000000	48.000000
138.047727	138.847727	72.000000	63.000000
138.209091	138.688636	70.000000	61.000000
138.368182	139.327273	48.000000	46.000000
138.463636	139.390909	69.000000	66.000000
138.625000	139.359091	58.000000	50.000000
138.784091	139.104545	60.000000	56.000000
139.104545	139.390909	60.000000	44.000000
139.263636	139.809091	61.000000	54.000000
139.327273	140.609091	48.000000	42.000000
139.425000	140.640909	62.000000	61.000000
139.584091	140.640909	54.000000	52.000000
139.584091	140.640909	63.000000	61.000000
139.809091	140.640909	70.000000	62.000000
139.840909	140.640909	66.000000	52.000000
140.225000	140.640909	69.000000	60.000000
140.609091	141.152273	48.000000	50.000000
140.640909	142.240909	67.000000	55.000000
140.800000	141.440909	55.000000	38.000000
140.959091	141.311364	60.000000	41.000000
140.990909	141.120455	58.000000	31.000000
141.120455	141.409091	58.000000	35.000000
141.375000	145.600000	48.000000	36.000000
141.375000	145.600000	60.000000	42.000000
141.695455	142.175000	53.000000	31.000000
142.143182	145.663636	69.000000	51.000000
142.175000	145.631818	53.000000	33.000000
143.168182	145.631818	67.000000	39.000000
143.200000	145.600000	52.000000	34.000000
145.504545	146.240909	65.000000	45.000000
145.536364	145.663636	45.000000	36.000000
145.695455	146.590909	52.000000	47.000000
145.888636	146.590909	67.000000	54.000000
145.920455	146.559091	53.000000	46.000000
146.047727	146.590909	60.000000	48.000000
146.209091	146.590909	69.000000	59.000000
146.527273	146.720455	45.000000	44.000000
146.590909	147.456818	72.000000	62.000000
146.752273	147.390909	50.000000	41.000000
146.847727	147.390909	51.000000	52.000000
146.975000	147.168182	57.000000	49.000000
147.104545	147.390909	56.000000	46.000000
147.168182	147.390909	57.000000	42.000000
147.295455	147.456818	62.000000	47.000000
147.390909	148.640909	67.000000	54.000000
147.390909	148.095455	70.000000	58.000000
147.425000	148.543182	63.000000	51.000000
147.904545	148.511364	66.000000	47.000000
147.904545	148.543182	69.000000	59.000000
148.063636	148.511364	46.000000	44.000000
148.095455	149.279545	70.000000	62.000000
148.225000	149.279545	52.000000	54.000000
148.352273	148.640909	53.000000	55.000000
148.447727	148.640909	57.000000	47.000000
148.447727	149.247727	72.000000	65.000000
148.543182	149.279545	58.000000	63.000000
148.672727	149.279545	62.000000	62.000000
148.800000	149.311364	74.000000	72.000000
148.831818	149.247727	53.000000	57.000000
148.831818	149.247727	65.000000	62.000000
149.056818	149.279545	67.000000	71.000000
149.279545	149.920455	59.000000	56.000000
149.279545	149.952273	62.000000	61.000000
149.279545	149.888636	69.000000	66.000000
149.279545	149.952273	77.000000	70.000000
149.536364	149.952273	76.000000	72.000000
149.825000	150.625000	74.000000	61.000000
149.856818	151.552273	52.000000	48.000000
149.856818	150.720455	57.000000	47.000000
149.856818	150.752273	66.000000	55.000000
149.888636	149.952273	69.000000	50.000000
150.175000	150.720455	72.000000	52.000000
150.175000	150.720455	75.000000	59.000000
150.625000	151.552273	74.000000	52.000000
150.656818	151.615909	56.000000	37.000000
150.656818	151.520455	71.000000	46.000000
151.456818	153.790909	50.000000	47.000000
151.456818	152.990909	63.000000	56.000000
151.456818	151.647727	72.000000	54.000000
151.456818	151.679545	75.000000	68.000000
151.488636	152.990909	55.000000	44.000000
151.615909	151.775000	71.000000	63.000000
151.647727	151.809091	74.000000	60.000000
151.809091	152.990909	73.000000	61.000000
151.840909	152.990909	70.000000	51.000000
152.288636	152.990909	69.000000	47.000000
152.288636	152.990909	72.000000	53.000000
152.895455	153.952273	60.000000	42.000000
152.895455	153.727273	68.000000	45.000000
152.895455	153.759091	71.000000	54.000000
153.409091	154.559091	69.000000	52.000000
153.409091	154.559091	72.000000	54.000000
153.631818	154.495455	54.000000	48.000000
153.888636	154.047727	62.000000	56.000000
153.952273	154.527273	63.000000	58.000000
154.047727	154.559091	62.000000	44.000000
154.143182	154.559091	61.000000	56.000000
154.463636	155.968182	53.000000	43.000000
154.463636	154.688636	73.000000	61.000000
154.495455	157.120455	48.000000	43.000000
154.495455	154.752273	70.000000	50.000000
154.656818	154.879545	72.000000	57.000000
154.688636	154.879545	69.000000	49.000000
154.879545	155.711364	71.000000	51.000000
154.911364	155.968182	68.000000	48.000000
155.359091	155.968182	70.000000	51.000000
155.390909	156.000000	67.000000	43.000000
155.904545	157.215909	66.000000	53.000000
155.904545	157.120455	69.000000	50.000000
155.936364	157.600000	58.000000	39.000000
156.479545	157.056818	70.000000	59.000000
157.056818	158.272727	70.000000	57.000000
157.120455	158.304545	48.000000	55.000000
157.120455	158.336364	73.000000	67.000000
157.120455	158.336364	79.000000	71.000000
157.375000	157.600000	49.000000	47.000000
157.504545	157.759091	53.000000	52.000000
157.600000	157.920455	58.000000	61.000000
157.759091	159.200000	53.000000	58.000000
157.856818	158.272727	57.000000	56.000000
157.920455	158.304545	58.000000	66.000000
158.015909	158.272727	60.000000	61.000000
158.111364	158.304545	61.000000	72.000000
158.175000	158.304545	63.000000	69.000000
158.272727	158.720455	65.000000	70.000000
158.304545	158.720455	77.000000	73.000000
158.431818	158.879545	75.000000	65.000000
158.527273	158.943182	73.000000	61.000000
158.625000	159.136364	67.000000	58.000000
158.720455	159.968182	63.000000	64.000000
158.720455	159.295455	77.000000	70.000000
158.879545	159.390909	75.000000	64.000000
159.009091	159.647727	73.000000	56.000000
159.136364	160.000000	67.000000	52.000000
159.263636	160.000000	61.000000	56.000000
159.295455	160.000000	77.000000	61.000000
159.390909	160.000000	75.000000	57.000000
159.647727	160.000000	73.000000	49.000000
159.743182	160.000000	65.000000	42.000000
159.872727	163.584091	60.000000	42.000000
160.000000	160.704545	77.000000	57.000000
160.190909	160.831818	75.000000	39.000000
160.320455	161.025000	73.000000	44.000000
160.511364	161.184091	65.000000	36.000000
160.704545	161.440909	58.000000	39.000000
160.704545	161.375000	77.000000	53.000000
160.831818	161.472727	75.000000	47.000000
161.025000	161.440909	73.000000	47.000000
161.184091	161.472727	65.000000	39.000000
161.343182	163.552273	53.000000	38.000000
161.375000	162.559091	77.000000	49.000000
161.631818	162.143182	75.000000	38.000000
161.888636	163.584091	73.000000	42.000000
162.240909	163.295455	65.000000	34.000000
163.104545	163.552273	67.000000	53.000000
163.295455	163.584091	65.000000	51.000000
163.488636	164.959091	41.000000	41.000000
163.520455	164.959091	64.000000	59.000000
163.743182	164.990909	48.000000	43.000000
164.031818	164.990909	60.000000	54.000000
164.609091	164.990909	67.000000	52.000000
164.768182	165.088636	65.000000	59.000000
164.959091	166.304545	41.000000	56.000000
164.959091	166.336364	64.000000	69.000000
165.375000	166.368182	49.000000	47.000000
165.375000	166.304545	61.000000	50.000000
165.888636	166.336364	69.000000	59.000000
166.047727	166.336364	67.000000	56.000000
166.272727	167.679545	65.000000	64.000000
166.304545	167.615909	41.000000	48.000000
166.495455	167.711364	50.000000	46.000000
166.720455	167.647727	58.000000	51.000000
166.720455	167.679545	62.000000	55.000000
167.136364	167.679545	70.000000	63.000000
167.359091	167.679545	69.000000	63.000000
167.615909	168.736364	41.000000	59.000000
167.615909	168.352273	68.000000	67.000000
167.840909	167.904545	47.000000	56.000000
168.000000	170.015909	52.000000	57.000000
168.095455	170.015909	59.000000	57.000000
168.256818	168.609091	64.000000	61.000000
168.352273	169.152273	68.000000	57.000000
168.543182	170.047727	71.000000	53.000000
168.736364	169.056818	76.000000	53.000000
168.927273	170.079545	80.000000	54.000000
169.120455	169.279545	64.000000	40.000000
169.184091	170.047727	83.000000	54.000000
169.825000	170.111364	76.000000	53.000000
170.111364	171.168182	76.000000	54.000000
170.336364	170.625000	74.000000	53.000000
170.625000	171.168182	74.000000	60.000000
170.879545	171.263636	72.000000	61.000000
171.168182	173.279545	41.000000	49.000000
171.263636	171.872727	72.000000	59.000000
171.552273	173.440909	48.000000	43.000000
171.552273	171.840909	69.000000	56.000000
171.840909	173.504545	69.000000	57.000000
171.872727	173.440909	57.000000	42.000000
172.063636	172.352273	77.000000	57.000000
172.352273	173.440909	77.000000	57.000000
172.575000	172.831818	76.000000	56.000000
172.831818	173.440909	76.000000	64.000000
173.056818	173.311364	74.000000	59.000000
173.279545	175.040909	41.000000	58.000000
173.311364	174.240909	74.000000	64.000000
173.536364	174.656818	71.000000	59.000000
173.568182	175.040909	50.000000	50.000000
173.856818	174.111364	67.000000	50.000000
174.111364	175.456818	67.000000	48.000000
174.209091	175.231818	79.000000	66.000000
174.400000	174.625000	77.000000	62.000000
174.625000	175.584091	77.000000	59.000000
174.815909	175.040909	76.000000	61.000000
175.040909	176.225000	41.000000	51.000000
175.040909	175.520455	76.000000	58.000000
175.231818	175.425000	49.000000	46.000000
175.390909	176.575000	52.000000	50.000000
175.390909	175.647727	73.000000	66.000000
175.615909	176.447727	69.000000	58.000000
175.647727	176.256818	73.000000	58.000000
175.743182	176.288636	81.000000	67.000000
175.968182	176.575000	79.000000	70.000000
176.225000	176.640909	41.000000	56.000000
176.225000	176.704545	78.000000	72.000000
176.479545	180.415909	47.000000	55.000000
176.479545	177.472727	75.000000	71.000000
176.672727	177.759091	71.000000	66.000000
176.704545	180.352273	51.000000	55.000000
176.863636	182.975000	54.000000	62.000000
176.863636	177.568182	66.000000	67.000000
177.056818	177.409091	63.000000	64.000000
177.215909	180.863636	59.000000	59.000000
177.409091	181.504545	63.000000	65.000000
177.568182	178.656818	66.000000	60.000000
177.759091	178.559091	71.000000	61.000000
177.952273	178.625000	75.000000	65.000000
178.175000	178.720455	78.000000	70.000000
178.559091	181.343182	71.000000	52.000000
178.625000	181.472727	75.000000	60.000000
178.656818	181.440909	66.000000	55.000000
178.720455	179.904545	78.000000	59.000000
178.720455	181.409091	83.000000	56.000000
179.904545	181.440909	78.000000	54.000000
179.904545	182.879545	85.000000	62.000000
179.936364	181.952273	68.000000	48.000000
181.409091	183.040909	83.000000	55.000000
181.440909	182.879545	59.000000	38.000000
181.440909	182.879545	66.000000	46.000000
181.440909	182.911364	78.000000	53.000000
181.472727	182.911364	75.000000	42.000000
182.752273	183.327273	79.000000	54.000000
182.943182	183.711364	77.000000	55.000000
183.072727	183.168182	76.000000	63.000000
183.104545	184.063636	41.000000	50.000000
183.263636	184.190909	48.000000	50.000000
183.456818	187.936364	57.000000	43.000000
183.456818	184.352273	72.000000	63.000000
183.711364	184.640909	77.000000	61.000000
183.840909	184.031818	76.000000	61.000000
183.968182	187.936364	50.000000	52.000000
183.968182	184.736364	74.000000	62.000000
184.288636	185.952273	71.000000	53.000000
184.575000	184.990909	76.000000	56.000000
184.736364	185.568182	74.000000	55.000000
184.895455	185.759091	72.000000	55.000000
185.215909	187.390909	69.000000	51.000000
185.568182	187.936364	74.000000	51.000000
185.759091	186.879545	72.000000	50.000000
185.952273	187.168182	71.000000	53.000000
186.015909	187.936364	60.000000	26.000000
186.368182	187.936364	67.000000	44.000000
186.879545	188.031818	72.000000	50.000000
187.168182	187.809091	71.000000	52.000000
187.390909	187.936364	69.000000	52.000000
187.615909	188.575000	64.000000	52.000000
187.809091	188.127273	71.000000	53.000000
188.031818	188.736364	69.000000	50.000000
188.288636	189.025000	67.000000	44.000000
188.511364	190.975000	62.000000	43.000000
188.736364	197.152273	69.000000	48.000000
189.025000	189.984091	67.000000	44.000000
189.311364	191.679545	65.000000	49.000000
189.631818	193.888636	60.000000	41.000000
189.984091	195.647727	67.000000	44.000000
190.463636	192.479545	64.000000	49.000000
190.975000	192.288636	59.000000	47.000000
190.975000	192.288636	62.000000	50.000000
191.679545	192.927273	65.000000	55.000000
192.288636	197.825000	55.000000	37.000000
192.288636	196.000000	59.000000	45.000000
192.288636	197.856818	62.000000	50.000000
192.927273	196.063636	65.000000	51.000000
193.856818	196.127273	64.000000	57.000000
193.888636	198.015909	53.000000	37.000000
193.888636	198.047727	60.000000	38.000000
