# onset,offset,note,velocity
10.590909	13.663636	50.000000	62.000000
10.625000	12.447727	38.000000	62.000000
12.415909	14.656818	42.000000	45.000000
12.447727	13.695455	54.000000	43.000000
12.768182	13.888636	59.000000	41.000000
12.800000	13.727273	47.000000	39.000000
13.025000	13.440909	57.000000	40.000000
13.056818	13.472727	45.000000	42.000000
13.247727	13.663636	56.000000	48.000000
13.279545	13.759091	44.000000	44.000000
13.440909	14.656818	57.000000	52.000000
13.472727	14.656818	45.000000	54.000000
13.663636	14.656818	50.000000	58.000000
13.663636	14.656818	62.000000	60.000000
13.856818	14.656818	54.000000	56.000000
13.856818	14.656818	66.000000	64.000000
14.079545	14.656818	71.000000	62.000000
14.111364	14.656818	59.000000	53.000000
14.272727	14.656818	69.000000	65.000000
14.559091	15.840909	68.000000	64.000000
14.590909	15.840909	56.000000	57.000000
15.743182	16.672727	57.000000	42.000000
15.743182	16.575000	69.000000	56.000000
16.000000	16.640909	62.000000	41.000000
16.000000	16.575000	74.000000	51.000000
16.225000	16.672727	78.000000	59.000000
16.256818	16.736364	66.000000	47.000000
16.543182	18.495455	81.000000	49.000000
16.575000	18.463636	69.000000	40.000000
16.575000	16.672727	74.000000	34.000000
18.336364	20.190909	56.000000	40.000000
18.400000	20.256818	44.000000	33.000000
19.936364	20.447727	57.000000	30.000000
19.968182	20.288636	45.000000	34.000000
20.256818	20.640909	62.000000	34.000000
20.288636	21.025000	50.000000	32.000000
20.543182	21.056818	66.000000	43.000000
20.575000	21.025000	54.000000	36.000000
20.990909	22.590909	69.000000	45.000000
22.847727	24.063636	81.000000	49.000000
22.879545	23.359091	45.000000	33.000000
22.879545	23.968182	69.000000	36.000000
23.168182	24.095455	83.000000	50.000000
23.359091	24.127273	45.000000	41.000000
23.359091	23.711364	64.000000	44.000000
23.359091	24.095455	85.000000	60.000000
23.390909	23.936364	57.000000	37.000000
23.390909	23.711364	61.000000	37.000000
23.390909	23.775000	73.000000	48.000000
23.552273	24.190909	74.000000	43.000000
23.552273	24.190909	86.000000	59.000000
23.711364	24.225000	61.000000	48.000000
23.711364	24.190909	64.000000	53.000000
23.711364	24.095455	88.000000	59.000000
23.872727	24.225000	78.000000	63.000000
23.872727	24.190909	90.000000	64.000000
24.000000	24.225000	46.000000	43.000000
24.159091	24.704545	79.000000	49.000000
24.159091	24.736364	91.000000	65.000000
24.640909	25.025000	54.000000	39.000000
24.640909	24.990909	61.000000	37.000000
24.640909	24.990909	64.000000	47.000000
24.640909	25.343182	90.000000	60.000000
24.672727	25.343182	78.000000	49.000000
24.990909	25.343182	61.000000	44.000000
24.990909	25.343182	64.000000	49.000000
24.990909	25.056818	76.000000	50.000000
24.990909	25.343182	88.000000	60.000000
25.025000	25.343182	54.000000	35.000000
25.025000	25.311364	58.000000	34.000000
25.311364	26.143182	47.000000	46.000000
25.343182	26.495455	74.000000	51.000000
25.343182	26.495455	86.000000	63.000000
25.759091	26.111364	54.000000	32.000000
25.759091	26.111364	59.000000	35.000000
25.759091	26.495455	61.000000	41.000000
25.920455	26.495455	85.000000	56.000000
26.079545	26.495455	83.000000	59.000000
26.111364	26.527273	54.000000	37.000000
26.111364	26.495455	59.000000	42.000000
26.111364	26.495455	62.000000	39.000000
26.111364	26.175000	71.000000	48.000000
26.495455	27.552273	42.000000	44.000000
26.495455	27.679545	69.000000	48.000000
26.495455	27.552273	81.000000	56.000000
26.911364	27.552273	57.000000	33.000000
26.911364	27.552273	61.000000	42.000000
27.231818	27.552273	54.000000	38.000000
27.647727	28.736364	55.000000	45.000000
27.647727	28.736364	83.000000	58.000000
27.679545	27.809091	71.000000	42.000000
27.872727	28.736364	85.000000	58.000000
27.904545	28.736364	73.000000	46.000000
28.031818	28.736364	59.000000	34.000000
28.031818	28.768182	64.000000	43.000000
28.031818	28.736364	74.000000	41.000000
28.031818	28.736364	86.000000	59.000000
28.190909	28.736364	88.000000	58.000000
28.352273	28.736364	90.000000	63.000000
28.384091	28.768182	58.000000	48.000000
28.384091	28.736364	78.000000	60.000000
28.543182	28.768182	79.000000	52.000000
28.543182	28.736364	91.000000	58.000000
28.704545	29.856818	93.000000	67.000000
28.736364	29.120455	57.000000	44.000000
28.736364	29.856818	81.000000	54.000000
29.088636	29.856818	91.000000	59.000000
29.120455	29.856818	57.000000	38.000000
29.120455	29.856818	61.000000	41.000000
29.120455	29.472727	64.000000	44.000000
29.120455	29.856818	79.000000	52.000000
29.472727	29.856818	55.000000	43.000000
29.472727	29.856818	64.000000	39.000000
29.472727	29.888636	88.000000	56.000000
29.504545	29.856818	76.000000	47.000000
29.825000	30.752273	54.000000	52.000000
29.825000	30.304545	86.000000	61.000000
29.856818	29.920455	62.000000	43.000000
29.984091	30.752273	88.000000	55.000000
30.143182	30.431818	62.000000	44.000000
30.143182	30.784091	90.000000	64.000000
30.175000	30.463636	57.000000	43.000000
30.175000	30.784091	78.000000	49.000000
30.272727	30.784091	91.000000	60.000000
30.304545	30.752273	79.000000	53.000000
30.431818	30.815909	62.000000	39.000000
30.431818	30.752273	93.000000	67.000000
30.463636	30.752273	57.000000	39.000000
30.463636	30.752273	81.000000	50.000000
30.590909	30.784091	83.000000	61.000000
30.590909	30.752273	95.000000	67.000000
30.720455	31.200000	50.000000	63.000000
30.752273	30.879545	85.000000	69.000000
30.752273	30.911364	97.000000	76.000000
31.168182	32.000000	54.000000	64.000000
31.168182	31.743182	57.000000	51.000000
31.168182	31.711364	62.000000	62.000000
31.168182	31.711364	66.000000	70.000000
31.168182	31.775000	86.000000	68.000000
31.168182	31.809091	98.000000	75.000000
31.743182	31.809091	57.000000	38.000000
32.159091	33.279545	45.000000	43.000000
32.159091	33.247727	81.000000	55.000000
32.190909	33.247727	69.000000	41.000000
32.415909	33.279545	83.000000	50.000000
32.575000	32.895455	64.000000	43.000000
32.575000	33.279545	85.000000	58.000000
32.609091	33.279545	57.000000	34.000000
32.609091	32.895455	61.000000	38.000000
32.609091	33.247727	73.000000	45.000000
32.736364	33.279545	74.000000	39.000000
32.736364	33.279545	86.000000	58.000000
32.895455	33.279545	61.000000	48.000000
32.895455	33.279545	64.000000	51.000000
32.895455	33.215909	67.000000	45.000000
32.895455	33.247727	76.000000	53.000000
32.895455	33.279545	88.000000	63.000000
33.056818	33.279545	78.000000	55.000000
33.056818	33.279545	90.000000	64.000000
33.215909	33.375000	46.000000	46.000000
33.343182	33.409091	79.000000	50.000000
33.343182	34.240909	91.000000	61.000000
33.790909	34.143182	61.000000	39.000000
33.790909	34.111364	64.000000	39.000000
33.790909	34.559091	78.000000	52.000000
33.790909	34.559091	90.000000	57.000000
33.825000	34.143182	54.000000	34.000000
33.825000	34.527273	58.000000	30.000000
34.111364	34.527273	64.000000	43.000000
34.111364	34.527273	88.000000	62.000000
34.143182	34.527273	54.000000	38.000000
34.143182	34.527273	61.000000	43.000000
34.143182	34.527273	76.000000	48.000000
34.527273	35.584091	47.000000	46.000000
34.527273	35.584091	86.000000	62.000000
34.559091	35.584091	74.000000	47.000000
34.879545	35.200000	54.000000	31.000000
34.879545	35.200000	59.000000	33.000000
34.879545	35.584091	61.000000	42.000000
35.009091	35.584091	85.000000	57.000000
35.168182	35.584091	83.000000	59.000000
35.200000	35.647727	54.000000	41.000000
35.200000	35.584091	59.000000	40.000000
35.552273	36.640909	81.000000	58.000000
35.584091	36.609091	42.000000	49.000000
35.584091	36.640909	69.000000	48.000000
35.904545	36.640909	57.000000	33.000000
35.904545	36.640909	61.000000	46.000000
36.256818	36.640909	54.000000	43.000000
36.640909	37.600000	55.000000	48.000000
36.640909	37.600000	83.000000	59.000000
36.800000	37.631818	85.000000	60.000000
36.959091	37.631818	59.000000	39.000000
36.959091	37.631818	64.000000	46.000000
36.959091	37.600000	86.000000	59.000000
36.990909	37.600000	74.000000	44.000000
37.120455	37.600000	88.000000	57.000000
37.247727	37.600000	90.000000	63.000000
37.279545	37.631818	58.000000	48.000000
37.279545	37.600000	78.000000	51.000000
37.409091	37.600000	91.000000	61.000000
37.440909	37.631818	79.000000	52.000000
37.600000	38.720455	93.000000	66.000000
37.631818	38.015909	57.000000	46.000000
37.631818	38.431818	81.000000	49.000000
37.984091	38.720455	61.000000	42.000000
37.984091	38.720455	64.000000	43.000000
37.984091	38.720455	91.000000	58.000000
38.015909	38.720455	57.000000	37.000000
38.015909	38.720455	79.000000	47.000000
38.336364	38.720455	55.000000	47.000000
38.336364	38.720455	88.000000	57.000000
38.368182	38.431818	67.000000	44.000000
38.368182	38.720455	76.000000	48.000000
38.688636	39.390909	54.000000	49.000000
38.688636	39.647727	86.000000	59.000000
38.720455	39.647727	74.000000	47.000000
38.879545	39.647727	88.000000	57.000000
39.040909	39.359091	57.000000	45.000000
39.040909	39.327273	62.000000	43.000000
39.040909	39.647727	90.000000	63.000000
39.072727	39.679545	78.000000	52.000000
39.168182	39.679545	91.000000	62.000000
39.200000	39.679545	79.000000	48.000000
39.327273	39.679545	62.000000	40.000000
39.327273	39.647727	93.000000	67.000000
39.359091	39.679545	57.000000	42.000000
39.390909	39.679545	54.000000	30.000000
39.456818	39.647727	83.000000	60.000000
39.456818	39.647727	95.000000	68.000000
39.615909	40.159091	50.000000	66.000000
39.615909	39.711364	85.000000	73.000000
39.615909	39.711364	97.000000	78.000000
40.159091	40.990909	54.000000	65.000000
40.159091	40.959091	57.000000	51.000000
40.159091	40.990909	62.000000	65.000000
40.159091	40.990909	66.000000	69.000000
40.159091	40.959091	86.000000	71.000000
40.159091	40.959091	98.000000	75.000000
41.375000	42.463636	55.000000	50.000000
41.375000	42.463636	96.000000	66.000000
41.409091	41.440909	74.000000	53.000000
41.409091	41.825000	84.000000	57.000000
41.759091	42.111364	73.000000	50.000000
41.759091	42.495455	97.000000	65.000000
41.790909	42.111364	63.000000	37.000000
41.790909	42.111364	70.000000	42.000000
41.790909	42.463636	85.000000	58.000000
42.111364	42.495455	63.000000	46.000000
42.111364	42.463636	70.000000	50.000000
42.111364	42.463636	73.000000	54.000000
42.368182	42.463636	95.000000	65.000000
42.400000	42.720455	56.000000	51.000000
42.400000	42.495455	83.000000	59.000000
42.431818	42.495455	68.000000	48.000000
42.720455	43.040909	63.000000	41.000000
42.720455	43.040909	68.000000	46.000000
42.720455	43.040909	72.000000	44.000000
42.720455	43.390909	84.000000	56.000000
42.720455	43.359091	96.000000	65.000000
43.040909	43.359091	63.000000	45.000000
43.040909	43.359091	68.000000	46.000000
43.040909	43.359091	72.000000	44.000000
43.359091	43.743182	82.000000	55.000000
43.359091	43.840909	94.000000	61.000000
43.390909	44.672727	56.000000	41.000000
43.711364	44.704545	95.000000	54.000000
43.743182	44.672727	83.000000	52.000000
43.775000	44.190909	62.000000	36.000000
43.775000	44.190909	64.000000	44.000000
43.775000	44.190909	71.000000	42.000000
44.190909	44.704545	62.000000	33.000000
44.190909	44.704545	64.000000	36.000000
44.190909	44.672727	68.000000	29.000000
44.190909	44.704545	71.000000	36.000000
44.640909	45.920455	92.000000	56.000000
44.672727	45.920455	80.000000	48.000000
44.704545	45.920455	55.000000	31.000000
45.025000	45.920455	93.000000	53.000000
45.056818	45.472727	69.000000	38.000000
45.056818	45.888636	81.000000	45.000000
45.088636	45.472727	61.000000	34.000000
45.088636	45.472727	64.000000	37.000000
45.472727	45.920455	61.000000	37.000000
45.472727	45.920455	64.000000	41.000000
45.472727	45.920455	69.000000	37.000000
45.888636	46.911364	45.000000	41.000000
45.888636	45.952273	81.000000	53.000000
45.920455	47.040909	69.000000	39.000000
46.111364	47.040909	83.000000	51.000000
46.272727	47.040909	85.000000	61.000000
46.304545	46.625000	61.000000	38.000000
46.304545	46.590909	64.000000	41.000000
46.463636	47.040909	86.000000	59.000000
46.495455	47.040909	74.000000	40.000000
46.590909	47.040909	64.000000	48.000000
46.625000	47.072727	57.000000	40.000000
46.625000	47.040909	61.000000	46.000000
46.625000	47.040909	88.000000	55.000000
46.752273	47.040909	90.000000	61.000000
46.784091	47.040909	78.000000	57.000000
46.975000	47.936364	45.000000	51.000000
47.009091	47.456818	79.000000	55.000000
47.009091	47.615909	91.000000	63.000000
47.456818	47.840909	61.000000	41.000000
47.456818	47.840909	64.000000	44.000000
47.456818	48.225000	78.000000	53.000000
47.456818	48.225000	90.000000	56.000000
47.488636	47.584091	69.000000	38.000000
47.840909	48.225000	55.000000	48.000000
47.840909	48.225000	61.000000	48.000000
47.840909	48.256818	64.000000	54.000000
47.840909	48.225000	88.000000	60.000000
48.225000	48.320455	38.000000	62.000000
48.225000	48.736364	86.000000	64.000000
48.256818	48.352273	74.000000	57.000000
48.447727	48.927273	76.000000	55.000000
48.447727	49.215909	88.000000	60.000000
48.575000	48.895455	54.000000	48.000000
48.575000	48.895455	57.000000	44.000000
48.575000	48.895455	62.000000	45.000000
48.575000	49.247727	78.000000	62.000000
48.575000	49.247727	90.000000	64.000000
48.736364	49.247727	79.000000	60.000000
48.736364	49.247727	91.000000	64.000000
48.895455	49.247727	54.000000	49.000000
48.895455	49.215909	57.000000	48.000000
48.895455	49.247727	62.000000	49.000000
48.895455	49.215909	81.000000	58.000000
48.895455	49.215909	93.000000	65.000000
49.056818	49.247727	83.000000	60.000000
49.056818	49.247727	95.000000	64.000000
49.215909	49.311364	38.000000	67.000000
49.215909	50.015909	85.000000	71.000000
49.215909	49.759091	97.000000	75.000000
49.663636	50.752273	98.000000	75.000000
49.695455	50.752273	54.000000	61.000000
49.695455	50.720455	57.000000	52.000000
49.695455	50.752273	62.000000	63.000000
49.695455	50.752273	66.000000	66.000000
49.695455	50.720455	86.000000	70.000000
50.720455	51.743182	55.000000	49.000000
50.720455	50.784091	84.000000	58.000000
50.720455	51.327273	96.000000	65.000000
51.072727	51.456818	73.000000	52.000000
51.072727	51.743182	85.000000	64.000000
51.072727	51.775000	97.000000	71.000000
51.104545	51.456818	63.000000	43.000000
51.104545	51.456818	70.000000	47.000000
51.456818	51.809091	63.000000	43.000000
51.456818	51.775000	70.000000	46.000000
51.456818	51.775000	73.000000	55.000000
51.711364	52.000000	56.000000	51.000000
51.711364	51.809091	83.000000	60.000000
51.711364	51.809091	95.000000	61.000000
52.031818	52.415909	63.000000	41.000000
52.031818	52.415909	68.000000	42.000000
52.031818	52.704545	72.000000	45.000000
52.031818	52.736364	84.000000	60.000000
52.031818	52.704545	96.000000	66.000000
52.415909	52.704545	63.000000	43.000000
52.415909	52.704545	68.000000	44.000000
52.736364	53.952273	56.000000	50.000000
52.736364	52.800000	63.000000	37.000000
52.736364	53.215909	94.000000	55.000000
53.120455	53.952273	95.000000	55.000000
53.152273	53.536364	64.000000	45.000000
53.152273	53.536364	71.000000	45.000000
53.152273	53.952273	83.000000	54.000000
53.536364	53.984091	64.000000	46.000000
53.536364	53.952273	71.000000	42.000000
53.568182	53.984091	62.000000	33.000000
53.952273	55.584091	55.000000	40.000000
53.952273	55.584091	80.000000	51.000000
53.952273	55.584091	92.000000	57.000000
54.400000	55.009091	69.000000	39.000000
54.431818	55.009091	61.000000	35.000000
54.431818	55.009091	64.000000	32.000000
54.431818	55.520455	81.000000	45.000000
54.431818	55.584091	93.000000	54.000000
55.009091	55.584091	61.000000	33.000000
55.009091	55.584091	64.000000	36.000000
55.009091	55.584091	69.000000	38.000000
55.520455	56.031818	45.000000	44.000000
55.520455	55.584091	81.000000	52.000000
55.584091	55.615909	69.000000	39.000000
55.775000	56.768182	83.000000	55.000000
55.968182	56.768182	85.000000	60.000000
56.000000	56.320455	57.000000	35.000000
56.000000	56.288636	61.000000	42.000000
56.000000	56.288636	64.000000	42.000000
56.127273	56.768182	86.000000	57.000000
56.159091	56.768182	74.000000	41.000000
56.288636	56.768182	61.000000	51.000000
56.288636	56.768182	64.000000	50.000000
56.288636	56.768182	88.000000	58.000000
56.320455	56.768182	57.000000	44.000000
56.479545	56.768182	78.000000	47.000000
56.479545	56.768182	90.000000	60.000000
56.704545	56.863636	45.000000	49.000000
56.736364	57.504545	79.000000	53.000000
56.736364	57.952273	91.000000	62.000000
57.184091	57.600000	61.000000	37.000000
57.184091	57.600000	64.000000	46.000000
57.184091	57.952273	90.000000	55.000000
57.215909	57.536364	69.000000	37.000000
57.215909	57.952273	78.000000	52.000000
57.600000	57.952273	55.000000	46.000000
57.600000	57.952273	61.000000	46.000000
57.600000	57.952273	64.000000	52.000000
57.600000	57.952273	88.000000	59.000000
58.015909	58.368182	38.000000	62.000000
58.015909	58.527273	74.000000	59.000000
58.015909	58.431818	86.000000	66.000000
58.209091	59.009091	88.000000	59.000000
58.240909	58.975000	76.000000	53.000000
58.368182	59.072727	54.000000	50.000000
58.368182	58.688636	62.000000	46.000000
58.368182	58.688636	66.000000	53.000000
58.368182	59.040909	78.000000	63.000000
58.368182	59.040909	90.000000	67.000000
58.400000	59.009091	57.000000	44.000000
58.527273	59.072727	79.000000	60.000000
58.527273	59.040909	91.000000	67.000000
58.656818	59.009091	93.000000	69.000000
58.688636	59.040909	62.000000	42.000000
58.688636	59.040909	66.000000	43.000000
58.688636	58.720455	69.000000	47.000000
58.688636	59.040909	81.000000	58.000000
58.847727	59.072727	83.000000	61.000000
58.847727	59.040909	95.000000	65.000000
59.009091	59.104545	38.000000	67.000000
59.009091	59.456818	85.000000	71.000000
59.009091	59.136364	97.000000	76.000000
59.488636	60.831818	62.000000	65.000000
59.488636	60.831818	66.000000	68.000000
59.488636	60.831818	86.000000	71.000000
59.488636	60.831818	98.000000	74.000000
59.520455	60.831818	57.000000	58.000000
59.520455	59.584091	69.000000	64.000000
62.240909	62.847727	34.000000	68.000000
62.240909	62.847727	46.000000	68.000000
62.431818	62.847727	39.000000	60.000000
62.431818	62.879545	51.000000	65.000000
62.656818	62.847727	43.000000	63.000000
62.656818	62.879545	55.000000	69.000000
62.815909	62.911364	58.000000	70.000000
62.847727	64.159091	46.000000	62.000000
62.911364	63.327273	63.000000	72.000000
62.943182	64.159091	51.000000	63.000000
63.072727	63.456818	67.000000	73.000000
63.200000	64.159091	58.000000	63.000000
63.200000	63.584091	70.000000	69.000000
63.295455	63.711364	75.000000	69.000000
63.327273	64.159091	63.000000	68.000000
63.425000	63.840909	79.000000	76.000000
63.456818	64.190909	67.000000	65.000000
63.552273	63.968182	82.000000	71.000000
63.584091	64.159091	70.000000	71.000000
63.679545	64.190909	87.000000	73.000000
63.711364	64.159091	75.000000	74.000000
63.840909	64.159091	79.000000	68.000000
63.840909	64.159091	91.000000	72.000000
63.936364	64.190909	94.000000	74.000000
63.968182	64.190909	82.000000	72.000000
64.127273	64.225000	84.000000	67.000000
64.127273	64.190909	96.000000	73.000000
64.256818	65.152273	70.000000	71.000000
64.352273	64.800000	79.000000	72.000000
64.352273	64.609091	91.000000	72.000000
64.447727	64.895455	63.000000	66.000000
64.575000	65.025000	72.000000	65.000000
64.575000	65.152273	84.000000	66.000000
64.672727	65.120455	58.000000	66.000000
64.800000	65.120455	67.000000	71.000000
64.800000	65.152273	79.000000	71.000000
64.895455	65.247727	63.000000	69.000000
64.927273	65.247727	51.000000	60.000000
65.025000	65.247727	60.000000	67.000000
65.025000	65.247727	72.000000	72.000000
65.120455	65.279545	46.000000	59.000000
65.120455	65.279545	58.000000	65.000000
65.247727	65.343182	55.000000	64.000000
65.247727	65.409091	67.000000	72.000000
65.343182	65.727273	39.000000	71.000000
65.343182	65.727273	51.000000	72.000000
65.504545	65.727273	50.000000	66.000000
65.663636	66.527273	46.000000	67.000000
65.663636	65.727273	58.000000	64.000000
65.695455	66.527273	34.000000	67.000000
65.790909	65.920455	62.000000	71.000000
65.952273	66.047727	70.000000	69.000000
66.079545	66.143182	74.000000	73.000000
66.175000	66.559091	82.000000	72.000000
66.527273	66.559091	46.000000	50.000000
66.590909	67.072727	75.000000	63.000000
66.752273	67.072727	80.000000	66.000000
66.847727	67.072727	53.000000	41.000000
66.975000	67.104545	68.000000	57.000000
67.072727	67.456818	73.000000	67.000000
67.168182	67.456818	72.000000	57.000000
67.231818	67.872727	51.000000	49.000000
67.327273	67.840909	67.000000	59.000000
67.456818	67.872727	72.000000	63.000000
67.552273	67.840909	77.000000	63.000000
67.615909	67.872727	49.000000	48.000000
67.743182	67.872727	65.000000	56.000000
67.809091	67.904545	70.000000	65.000000
67.904545	68.479545	77.000000	68.000000
68.063636	68.447727	47.000000	40.000000
68.190909	68.447727	62.000000	58.000000
68.352273	68.511364	68.000000	61.000000
68.447727	68.479545	41.000000	38.000000
68.479545	68.895455	67.000000	57.000000
68.575000	68.895455	46.000000	45.000000
68.704545	68.895455	61.000000	57.000000
68.800000	68.959091	70.000000	64.000000
68.927273	69.409091	75.000000	68.000000
69.025000	69.375000	43.000000	61.000000
69.152273	69.409091	58.000000	58.000000
69.279545	69.409091	73.000000	62.000000
69.409091	69.825000	71.000000	63.000000
69.504545	69.790909	44.000000	48.000000
69.631818	69.825000	60.000000	52.000000
69.727273	69.825000	72.000000	60.000000
69.856818	70.336364	68.000000	57.000000
69.984091	70.304545	48.000000	53.000000
70.143182	70.336364	63.000000	51.000000
70.304545	70.752273	75.000000	55.000000
70.495455	71.040909	80.000000	53.000000
70.688636	71.040909	53.000000	42.000000
70.815909	71.072727	68.000000	46.000000
70.943182	71.072727	73.000000	47.000000
71.072727	71.327273	72.000000	54.000000
71.136364	71.390909	51.000000	42.000000
71.263636	71.390909	67.000000	50.000000
71.327273	71.488636	72.000000	50.000000
71.456818	71.743182	77.000000	56.000000
71.552273	71.743182	49.000000	40.000000
71.647727	71.743182	65.000000	53.000000
71.743182	72.288636	70.000000	63.000000
71.840909	72.288636	77.000000	67.000000
71.968182	72.288636	47.000000	48.000000
72.095455	72.288636	62.000000	50.000000
72.190909	72.384091	68.000000	60.000000
72.352273	72.768182	67.000000	55.000000
72.447727	72.768182	46.000000	40.000000
72.543182	72.768182	61.000000	53.000000
72.672727	72.768182	70.000000	62.000000
72.768182	73.311364	75.000000	64.000000
72.895455	73.311364	39.000000	58.000000
72.990909	73.311364	55.000000	47.000000
73.120455	73.311364	73.000000	60.000000
73.247727	73.504545	71.000000	57.000000
73.375000	74.209091	44.000000	52.000000
73.568182	74.209091	60.000000	54.000000
73.727273	73.825000	72.000000	54.000000
73.920455	74.943182	68.000000	49.000000
74.431818	75.040909	75.000000	62.000000
74.656818	75.040909	80.000000	64.000000
74.784091	75.040909	53.000000	45.000000
74.943182	75.072727	68.000000	59.000000
75.040909	75.295455	73.000000	66.000000
75.136364	75.390909	72.000000	59.000000
75.200000	75.809091	51.000000	50.000000
75.295455	75.809091	67.000000	59.000000
75.390909	75.809091	72.000000	61.000000
75.520455	75.809091	77.000000	61.000000
75.552273	75.809091	49.000000	52.000000
75.679545	75.809091	65.000000	58.000000
75.775000	75.872727	70.000000	65.000000
75.840909	76.479545	77.000000	68.000000
76.063636	76.447727	47.000000	42.000000
76.190909	76.447727	62.000000	59.000000
76.352273	76.511364	68.000000	62.000000
76.511364	76.959091	67.000000	59.000000
76.609091	76.927273	46.000000	46.000000
76.736364	76.959091	61.000000	58.000000
76.863636	76.990909	70.000000	64.000000
76.959091	77.440909	75.000000	68.000000
77.088636	77.440909	43.000000	62.000000
77.184091	77.440909	58.000000	60.000000
77.311364	77.472727	73.000000	67.000000
77.440909	77.825000	71.000000	66.000000
77.536364	77.825000	44.000000	50.000000
77.663636	77.825000	60.000000	52.000000
77.759091	77.856818	72.000000	63.000000
77.888636	78.463636	68.000000	58.000000
78.047727	78.431818	48.000000	51.000000
78.240909	78.431818	63.000000	51.000000
78.400000	78.975000	75.000000	58.000000
78.625000	79.009091	82.000000	59.000000
78.752273	79.009091	53.000000	43.000000
78.879545	79.009091	68.000000	52.000000
78.975000	79.040909	80.000000	61.000000
79.072727	79.359091	73.000000	57.000000
79.168182	79.295455	51.000000	40.000000
79.263636	79.390909	67.000000	47.000000
79.359091	79.904545	72.000000	56.000000
79.488636	79.904545	79.000000	63.000000
79.615909	79.904545	49.000000	40.000000
79.711364	79.904545	65.000000	46.000000
79.840909	80.320455	77.000000	60.000000
79.968182	80.320455	70.000000	56.000000
80.031818	80.320455	47.000000	43.000000
80.127273	80.320455	62.000000	47.000000
80.256818	80.352273	68.000000	59.000000
80.352273	80.831818	67.000000	56.000000
80.543182	80.831818	46.000000	43.000000
80.640909	80.831818	61.000000	56.000000
80.736364	80.863636	70.000000	63.000000
80.831818	81.536364	75.000000	63.000000
80.990909	81.536364	39.000000	53.000000
81.120455	81.536364	55.000000	52.000000
81.247727	81.536364	73.000000	57.000000
81.472727	82.688636	71.000000	57.000000
81.727273	82.688636	44.000000	40.000000
81.920455	82.688636	60.000000	41.000000
82.143182	82.688636	72.000000	48.000000
82.527273	83.104545	68.000000	45.000000
84.352273	84.736364	49.000000	65.000000
84.384091	84.736364	37.000000	71.000000
84.800000	85.215909	42.000000	70.000000
84.800000	85.184091	54.000000	67.000000
84.800000	84.863636	66.000000	67.000000
85.184091	85.600000	56.000000	67.000000
85.215909	85.568182	44.000000	69.000000
85.600000	85.952273	45.000000	61.000000
85.600000	85.952273	57.000000	63.000000
85.984091	86.336364	44.000000	66.000000
85.984091	86.336364	56.000000	69.000000
86.368182	86.752273	61.000000	70.000000
86.400000	86.752273	49.000000	66.000000
86.784091	87.168182	47.000000	65.000000
86.784091	87.168182	59.000000	69.000000
87.168182	87.488636	57.000000	67.000000
87.200000	87.488636	45.000000	66.000000
87.552273	87.775000	45.000000	67.000000
87.552273	87.775000	57.000000	65.000000
87.743182	87.872727	44.000000	65.000000
87.743182	87.840909	56.000000	65.000000
87.936364	88.127273	42.000000	70.000000
87.936364	88.127273	54.000000	67.000000
88.320455	89.184091	40.000000	69.000000
88.320455	89.215909	52.000000	72.000000
89.184091	89.568182	50.000000	69.000000
89.215909	89.568182	38.000000	70.000000
89.600000	89.984091	37.000000	69.000000
89.600000	89.952273	49.000000	70.000000
89.984091	90.111364	47.000000	65.000000
90.015909	90.143182	35.000000	65.000000
90.400000	90.688636	33.000000	68.000000
90.400000	90.688636	45.000000	67.000000
90.784091	91.200000	32.000000	66.000000
90.784091	91.136364	44.000000	70.000000
91.168182	91.520455	49.000000	67.000000
91.200000	91.552273	37.000000	69.000000
91.584091	91.968182	47.000000	64.000000
91.615909	92.000000	35.000000	65.000000
92.000000	92.352273	33.000000	69.000000
92.000000	92.190909	45.000000	66.000000
92.415909	92.672727	33.000000	65.000000
92.415909	92.672727	45.000000	65.000000
92.640909	92.863636	32.000000	62.000000
92.640909	92.895455	44.000000	61.000000
92.863636	93.184091	30.000000	66.000000
92.863636	93.025000	42.000000	73.000000
93.343182	94.527273	30.000000	69.000000
93.343182	94.495455	42.000000	77.000000
94.463636	94.815909	37.000000	69.000000
94.463636	94.815909	49.000000	71.000000
94.911364	95.295455	42.000000	72.000000
94.911364	95.295455	54.000000	69.000000
95.327273	95.743182	44.000000	67.000000
95.327273	95.775000	56.000000	67.000000
95.743182	96.063636	45.000000	61.000000
95.743182	96.063636	57.000000	62.000000
96.095455	96.447727	56.000000	68.000000
96.127273	96.479545	44.000000	67.000000
96.511364	96.863636	49.000000	67.000000
96.511364	96.895455	61.000000	71.000000
96.895455	97.279545	59.000000	68.000000
96.927273	97.247727	47.000000	64.000000
97.279545	97.536364	57.000000	68.000000
97.311364	97.568182	45.000000	65.000000
97.695455	97.888636	45.000000	62.000000
97.695455	97.888636	57.000000	64.000000
97.856818	98.015909	44.000000	65.000000
97.856818	97.984091	56.000000	65.000000
98.079545	98.209091	42.000000	68.000000
98.079545	98.209091	54.000000	65.000000
98.463636	99.390909	52.000000	68.000000
98.495455	99.390909	40.000000	68.000000
99.359091	99.743182	50.000000	63.000000
99.390909	99.743182	38.000000	69.000000
99.775000	100.127273	37.000000	67.000000
99.775000	100.127273	49.000000	69.000000
100.159091	100.415909	35.000000	65.000000
100.159091	100.288636	47.000000	66.000000
100.543182	100.927273	33.000000	68.000000
100.543182	100.895455	45.000000	67.000000
100.959091	101.375000	32.000000	66.000000
100.959091	101.343182	44.000000	69.000000
101.343182	101.759091	37.000000	69.000000
101.343182	101.759091	49.000000	70.000000
101.759091	102.143182	35.000000	63.000000
101.759091	102.111364	47.000000	63.000000
102.143182	102.431818	33.000000	68.000000
102.143182	102.431818	45.000000	67.000000
102.590909	103.009091	33.000000	61.000000
102.590909	102.943182	45.000000	61.000000
102.815909	102.943182	32.000000	62.000000
102.815909	103.009091	44.000000	63.000000
103.009091	103.168182	30.000000	66.000000
103.009091	103.104545	42.000000	74.000000
103.520455	104.256818	30.000000	69.000000
103.520455	104.256818	42.000000	75.000000
104.415909	104.831818	64.000000	70.000000
104.415909	104.927273	76.000000	68.000000
104.863636	106.047727	33.000000	68.000000
104.863636	106.047727	45.000000	68.000000
104.863636	104.959091	69.000000	69.000000
104.863636	106.047727	81.000000	73.000000
105.279545	106.047727	71.000000	65.000000
105.279545	106.047727	83.000000	70.000000
105.663636	106.047727	85.000000	71.000000
105.695455	106.047727	73.000000	71.000000
106.047727	107.263636	40.000000	65.000000
106.079545	107.263636	52.000000	66.000000
106.079545	107.263636	71.000000	68.000000
106.079545	107.263636	83.000000	71.000000
106.495455	107.263636	88.000000	70.000000
106.527273	107.263636	76.000000	64.000000
106.911364	107.263636	74.000000	68.000000
106.911364	107.263636	86.000000	71.000000
107.263636	108.479545	45.000000	60.000000
107.295455	107.359091	57.000000	63.000000
107.295455	107.679545	73.000000	74.000000
107.295455	107.679545	85.000000	76.000000
107.679545	108.511364	73.000000	63.000000
107.679545	108.511364	85.000000	69.000000
107.872727	108.511364	83.000000	69.000000
107.904545	108.479545	71.000000	64.000000
108.095455	108.479545	81.000000	69.000000
108.127273	108.511364	69.000000	64.000000
108.479545	109.727273	49.000000	67.000000
108.511364	109.727273	61.000000	70.000000
108.511364	109.536364	68.000000	70.000000
108.511364	109.727273	80.000000	73.000000
108.959091	109.727273	73.000000	70.000000
108.959091	109.727273	85.000000	72.000000
109.311364	109.727273	71.000000	70.000000
109.311364	109.727273	83.000000	72.000000
109.727273	111.009091	54.000000	67.000000
109.727273	110.590909	66.000000	72.000000
109.727273	110.175000	69.000000	71.000000
109.727273	110.143182	81.000000	72.000000
110.143182	111.009091	81.000000	67.000000
110.175000	111.009091	69.000000	60.000000
110.368182	111.009091	68.000000	62.000000
110.368182	111.009091	80.000000	68.000000
110.590909	111.040909	66.000000	62.000000
110.590909	111.009091	78.000000	72.000000
110.975000	111.904545	41.000000	66.000000
110.975000	111.904545	53.000000	65.000000
110.975000	111.904545	65.000000	69.000000
110.975000	111.904545	77.000000	69.000000
111.840909	112.863636	52.000000	69.000000
111.840909	112.895455	64.000000	75.000000
111.840909	112.895455	76.000000	74.000000
111.872727	112.927273	40.000000	69.000000
112.831818	113.088636	78.000000	76.000000
112.863636	113.056818	52.000000	59.000000
112.863636	113.056818	59.000000	61.000000
112.863636	113.025000	66.000000	71.000000
113.279545	113.440909	52.000000	63.000000
113.279545	113.440909	59.000000	64.000000
113.279545	113.472727	68.000000	72.000000
113.279545	113.504545	80.000000	72.000000
113.727273	115.040909	81.000000	73.000000
113.759091	115.009091	49.000000	66.000000
113.759091	115.040909	57.000000	63.000000
113.759091	115.009091	69.000000	71.000000
114.590909	115.040909	64.000000	70.000000
114.590909	115.040909	76.000000	68.000000
115.009091	116.256818	33.000000	52.000000
115.040909	116.256818	45.000000	68.000000
115.040909	116.256818	81.000000	72.000000
115.072727	116.256818	69.000000	67.000000
115.488636	116.256818	71.000000	65.000000
115.488636	116.256818	83.000000	70.000000
115.904545	116.256818	73.000000	70.000000
115.904545	116.256818	85.000000	72.000000
116.288636	117.536364	40.000000	67.000000
116.288636	117.536364	52.000000	69.000000
116.288636	117.536364	71.000000	69.000000
116.288636	117.536364	83.000000	72.000000
116.736364	117.536364	76.000000	63.000000
116.736364	117.536364	88.000000	69.000000
117.120455	117.536364	86.000000	71.000000
117.152273	117.536364	74.000000	68.000000
117.536364	118.752273	45.000000	65.000000
117.536364	117.631818	57.000000	63.000000
117.536364	117.952273	73.000000	74.000000
117.536364	117.952273	85.000000	76.000000
117.952273	118.752273	73.000000	62.000000
117.952273	118.752273	85.000000	70.000000
118.143182	118.752273	71.000000	62.000000
118.143182	118.752273	83.000000	66.000000
118.368182	118.752273	69.000000	63.000000
118.368182	118.752273	81.000000	67.000000
118.752273	119.936364	49.000000	65.000000
118.784091	119.936364	61.000000	70.000000
118.784091	119.936364	68.000000	69.000000
118.784091	119.936364	80.000000	72.000000
119.200000	119.936364	73.000000	70.000000
119.200000	119.968182	85.000000	72.000000
119.584091	119.968182	71.000000	66.000000
119.584091	119.968182	83.000000	70.000000
119.968182	120.447727	81.000000	72.000000
120.000000	121.247727	54.000000	67.000000
120.000000	120.863636	66.000000	72.000000
120.000000	120.479545	69.000000	71.000000
120.447727	121.279545	81.000000	66.000000
120.479545	121.279545	69.000000	60.000000
120.640909	121.279545	80.000000	69.000000
120.672727	121.279545	68.000000	61.000000
120.863636	121.279545	66.000000	65.000000
120.863636	121.279545	78.000000	73.000000
121.215909	122.240909	65.000000	71.000000
121.247727	122.240909	41.000000	71.000000
121.247727	122.240909	53.000000	71.000000
121.247727	122.272727	77.000000	72.000000
122.209091	123.231818	40.000000	68.000000
122.209091	123.200000	52.000000	67.000000
122.209091	123.200000	64.000000	72.000000
122.209091	123.200000	76.000000	72.000000
123.200000	123.295455	52.000000	57.000000
123.200000	123.295455	66.000000	71.000000
123.200000	123.327273	78.000000	76.000000
123.231818	123.263636	59.000000	57.000000
123.615909	123.872727	52.000000	63.000000
123.615909	123.872727	59.000000	65.000000
123.615909	123.872727	68.000000	71.000000
123.615909	123.872727	80.000000	73.000000
124.095455	124.927273	49.000000	66.000000
124.095455	124.927273	57.000000	64.000000
124.095455	124.927273	69.000000	71.000000
124.095455	124.959091	81.000000	73.000000
125.025000	126.720455	61.000000	69.000000
125.025000	125.472727	73.000000	75.000000
125.472727	126.720455	66.000000	74.000000
125.472727	126.720455	78.000000	76.000000
125.888636	126.688636	80.000000	72.000000
125.920455	126.752273	68.000000	66.000000
126.304545	126.720455	69.000000	69.000000
126.304545	126.720455	81.000000	72.000000
126.720455	127.615909	80.000000	74.000000
126.752273	127.584091	68.000000	70.000000
127.136364	127.647727	85.000000	72.000000
127.168182	127.584091	73.000000	73.000000
127.552273	128.000000	49.000000	68.000000
127.584091	128.000000	37.000000	67.000000
127.584091	128.000000	71.000000	69.000000
127.584091	128.000000	83.000000	72.000000
128.000000	129.184091	42.000000	69.000000
128.000000	129.152273	54.000000	67.000000
128.000000	128.415909	69.000000	71.000000
128.000000	128.256818	81.000000	71.000000
128.384091	128.895455	81.000000	69.000000
128.415909	128.927273	44.000000	65.000000
128.415909	128.895455	56.000000	65.000000
128.415909	128.927273	69.000000	68.000000
128.575000	128.895455	80.000000	71.000000
128.609091	128.927273	68.000000	67.000000
128.800000	129.184091	78.000000	73.000000
128.831818	129.184091	45.000000	62.000000
128.831818	129.184091	57.000000	59.000000
128.831818	129.184091	66.000000	72.000000
129.215909	130.047727	44.000000	64.000000
129.215909	130.047727	56.000000	64.000000
129.215909	130.047727	64.000000	73.000000
129.215909	130.047727	76.000000	70.000000
129.631818	130.047727	49.000000	64.000000
129.631818	130.047727	61.000000	71.000000
130.047727	130.590909	47.000000	63.000000
130.047727	130.559091	62.000000	63.000000
130.047727	130.559091	74.000000	69.000000
130.079545	130.527273	59.000000	61.000000
130.495455	130.879545	45.000000	64.000000
130.495455	130.879545	57.000000	60.000000
130.495455	130.879545	61.000000	69.000000
130.495455	130.879545	73.000000	73.000000
130.911364	131.359091	45.000000	65.000000
130.911364	131.327273	57.000000	64.000000
130.911364	131.390909	59.000000	65.000000
130.911364	131.390909	71.000000	70.000000
131.104545	131.390909	44.000000	67.000000
131.104545	131.390909	56.000000	68.000000
131.327273	131.743182	54.000000	60.000000
131.327273	131.743182	57.000000	65.000000
131.327273	131.743182	69.000000	70.000000
131.359091	131.743182	42.000000	67.000000
131.359091	131.743182	45.000000	61.000000
131.743182	132.672727	40.000000	65.000000
131.743182	132.672727	52.000000	68.000000
131.743182	132.415909	68.000000	71.000000
131.775000	131.809091	44.000000	60.000000
132.190909	132.672727	61.000000	68.000000
132.190909	132.672727	73.000000	72.000000
132.640909	133.152273	38.000000	68.000000
132.640909	133.152273	50.000000	68.000000
132.640909	132.768182	59.000000	64.000000
132.640909	133.152273	71.000000	69.000000
133.120455	133.631818	37.000000	71.000000
133.120455	133.600000	49.000000	72.000000
133.120455	133.600000	69.000000	70.000000
133.152273	133.184091	57.000000	64.000000
133.600000	133.856818	35.000000	64.000000
133.600000	134.175000	47.000000	64.000000
133.600000	133.727273	69.000000	68.000000
133.631818	134.143182	57.000000	60.000000
133.856818	134.209091	68.000000	70.000000
133.888636	134.175000	56.000000	63.000000
134.143182	134.688636	66.000000	73.000000
134.175000	134.720455	33.000000	65.000000
134.175000	134.720455	45.000000	66.000000
134.175000	134.688636	54.000000	64.000000
134.688636	135.040909	54.000000	64.000000
134.688636	135.488636	66.000000	69.000000
134.720455	135.263636	32.000000	61.000000
134.720455	134.784091	44.000000	62.000000
135.231818	135.743182	37.000000	61.000000
135.231818	135.295455	49.000000	62.000000
135.231818	135.743182	61.000000	57.000000
135.231818	135.809091	64.000000	68.000000
135.743182	136.159091	47.000000	57.000000
135.743182	136.352273	62.000000	60.000000
135.775000	136.159091	35.000000	60.000000
136.288636	136.543182	33.000000	55.000000
136.288636	136.384091	45.000000	55.000000
136.288636	136.575000	61.000000	60.000000
136.927273	137.247727	33.000000	50.000000
136.927273	136.990909	45.000000	50.000000
136.927273	137.600000	61.000000	53.000000
137.215909	137.600000	59.000000	48.000000
137.247727	137.311364	32.000000	46.000000
137.600000	137.790909	30.000000	47.000000
137.600000	137.856818	42.000000	46.000000
137.600000	137.825000	57.000000	39.000000
137.600000	138.720455	61.000000	40.000000
138.688636	139.009091	57.000000	38.000000
138.720455	138.847727	30.000000	45.000000
138.720455	138.943182	42.000000	43.000000
138.720455	142.143182	61.000000	36.000000
143.936364	145.120455	45.000000	46.000000
143.936364	144.736364	73.000000	49.000000
143.936364	144.479545	85.000000	60.000000
144.479545	144.704545	57.000000	38.000000
144.479545	144.704545	61.000000	48.000000
144.479545	144.704545	85.000000	56.000000
144.704545	144.990909	57.000000	43.000000
144.704545	144.990909	61.000000	53.000000
144.704545	144.990909	85.000000	61.000000
144.736364	144.990909	73.000000	51.000000
144.990909	145.120455	57.000000	41.000000
144.990909	145.120455	61.000000	53.000000
144.990909	145.120455	73.000000	53.000000
144.990909	145.120455	85.000000	63.000000
145.120455	145.409091	57.000000	48.000000
145.120455	145.375000	61.000000	56.000000
145.120455	145.409091	73.000000	66.000000
145.120455	145.375000	85.000000	70.000000
145.375000	145.504545	61.000000	57.000000
145.375000	146.111364	66.000000	69.000000
145.375000	146.590909	85.000000	65.000000
145.375000	146.590909	90.000000	68.000000
145.409091	145.504545	57.000000	55.000000
145.409091	145.856818	78.000000	70.000000
145.825000	146.079545	61.000000	44.000000
145.856818	146.111364	57.000000	33.000000
145.856818	146.047727	78.000000	54.000000
146.047727	146.463636	78.000000	59.000000
146.079545	146.463636	61.000000	48.000000
146.111364	146.463636	57.000000	37.000000
146.111364	146.590909	66.000000	42.000000
146.463636	146.590909	57.000000	45.000000
146.463636	146.590909	61.000000	57.000000
146.463636	146.590909	78.000000	55.000000
146.625000	146.688636	54.000000	54.000000
146.625000	146.943182	58.000000	59.000000
146.656818	146.943182	61.000000	57.000000
146.688636	146.943182	67.000000	69.000000
146.688636	146.943182	88.000000	68.000000
146.720455	146.911364	76.000000	65.000000
146.879545	146.943182	73.000000	65.000000
146.879545	146.943182	85.000000	70.000000
147.040909	147.263636	54.000000	58.000000
147.040909	147.263636	82.000000	66.000000
147.072727	147.231818	70.000000	62.000000
147.263636	147.647727	54.000000	57.000000
147.263636	147.840909	66.000000	64.000000
147.263636	147.840909	83.000000	67.000000
147.295455	147.840909	59.000000	53.000000
147.295455	147.840909	62.000000	47.000000
147.295455	147.840909	71.000000	62.000000
147.647727	147.840909	54.000000	52.000000
147.840909	148.256818	83.000000	67.000000
147.872727	148.640909	54.000000	55.000000
147.872727	148.640909	59.000000	56.000000
147.872727	148.640909	62.000000	56.000000
147.872727	147.904545	66.000000	55.000000
147.872727	148.288636	71.000000	62.000000
148.127273	148.640909	85.000000	64.000000
148.159091	148.640909	73.000000	59.000000
148.256818	148.640909	53.000000	50.000000
148.256818	148.640909	83.000000	66.000000
148.288636	148.640909	71.000000	59.000000
148.575000	149.279545	52.000000	52.000000
148.609091	149.279545	64.000000	55.000000
148.609091	149.279545	76.000000	56.000000
148.640909	149.279545	62.000000	42.000000
149.025000	149.279545	59.000000	41.000000
149.279545	150.111364	45.000000	46.000000
149.311364	149.984091	73.000000	56.000000
149.311364	149.695455	85.000000	66.000000
149.695455	149.920455	57.000000	37.000000
149.695455	149.920455	61.000000	44.000000
149.695455	149.888636	85.000000	55.000000
149.888636	150.175000	85.000000	62.000000
149.920455	150.304545	57.000000	41.000000
149.920455	150.304545	61.000000	50.000000
150.175000	150.304545	85.000000	63.000000
150.209091	150.304545	73.000000	46.000000
150.304545	150.625000	57.000000	45.000000
150.304545	150.559091	61.000000	48.000000
150.304545	150.590909	73.000000	57.000000
150.304545	150.911364	85.000000	67.000000
150.527273	151.136364	66.000000	64.000000
150.559091	150.943182	61.000000	54.000000
150.559091	151.200000	78.000000	62.000000
150.559091	151.520455	90.000000	67.000000
150.911364	151.584091	68.000000	59.000000
150.911364	151.327273	92.000000	69.000000
150.943182	151.136364	61.000000	47.000000
151.104545	151.679545	93.000000	67.000000
151.136364	151.488636	61.000000	50.000000
151.136364	151.711364	66.000000	46.000000
151.136364	151.584091	69.000000	56.000000
151.136364	151.615909	81.000000	60.000000
151.168182	151.488636	57.000000	44.000000
151.488636	151.584091	57.000000	53.000000
151.488636	152.063636	61.000000	55.000000
151.488636	151.711364	71.000000	66.000000
151.488636	151.743182	95.000000	72.000000
151.743182	151.809091	49.000000	68.000000
151.743182	152.095455	85.000000	70.000000
151.743182	152.095455	97.000000	77.000000
152.095455	152.320455	59.000000	60.000000
152.095455	152.320455	85.000000	69.000000
152.095455	152.320455	97.000000	74.000000
152.127273	152.352273	61.000000	56.000000
152.127273	152.320455	65.000000	60.000000
152.127273	152.320455	68.000000	61.000000
152.320455	152.831818	59.000000	61.000000
152.320455	152.415909	65.000000	58.000000
152.320455	152.831818	68.000000	63.000000
152.320455	152.672727	85.000000	72.000000
152.320455	152.672727	97.000000	77.000000
152.352273	152.704545	61.000000	54.000000
152.672727	152.831818	65.000000	46.000000
152.672727	152.800000	85.000000	67.000000
152.672727	152.800000	97.000000	70.000000
152.704545	152.831818	61.000000	43.000000
152.800000	153.184091	85.000000	66.000000
152.800000	153.215909	97.000000	72.000000
152.831818	153.152273	59.000000	55.000000
152.831818	153.152273	61.000000	49.000000
152.831818	153.152273	65.000000	52.000000
152.831818	153.184091	68.000000	54.000000
153.184091	154.175000	42.000000	61.000000
153.215909	154.209091	85.000000	65.000000
153.215909	153.279545	97.000000	69.000000
153.856818	154.175000	58.000000	40.000000
153.856818	154.175000	61.000000	40.000000
153.856818	154.175000	66.000000	47.000000
154.143182	155.263636	90.000000	55.000000
154.175000	155.263636	58.000000	35.000000
154.175000	155.263636	61.000000	37.000000
154.175000	155.263636	66.000000	44.000000
154.175000	154.336364	78.000000	52.000000
155.295455	155.775000	85.000000	56.000000
155.327273	155.488636	45.000000	36.000000
155.327273	155.775000	73.000000	42.000000
155.775000	156.000000	61.000000	43.000000
155.775000	156.031818	73.000000	45.000000
155.775000	156.000000	85.000000	61.000000
155.809091	156.031818	57.000000	32.000000
156.000000	156.352273	61.000000	43.000000
156.000000	156.256818	85.000000	64.000000
156.031818	156.352273	57.000000	37.000000
156.031818	156.288636	73.000000	47.000000
156.256818	156.384091	85.000000	65.000000
156.288636	156.384091	73.000000	50.000000
156.352273	156.640909	57.000000	47.000000
156.352273	156.640909	61.000000	50.000000
156.384091	156.672727	73.000000	65.000000
156.384091	156.640909	85.000000	71.000000
156.640909	157.120455	57.000000	54.000000
156.640909	157.088636	61.000000	48.000000
156.640909	157.120455	66.000000	65.000000
156.640909	157.088636	78.000000	66.000000
156.640909	157.440909	85.000000	61.000000
156.640909	158.079545	90.000000	69.000000
157.088636	157.311364	61.000000	43.000000
157.088636	157.311364	78.000000	51.000000
157.120455	158.047727	57.000000	40.000000
157.120455	157.343182	66.000000	44.000000
157.311364	157.695455	61.000000	47.000000
157.311364	157.695455	78.000000	54.000000
157.343182	158.111364	66.000000	39.000000
157.695455	157.984091	61.000000	47.000000
157.695455	158.079545	78.000000	52.000000
157.920455	158.079545	54.000000	49.000000
157.952273	158.590909	58.000000	53.000000
157.984091	158.400000	61.000000	53.000000
158.047727	158.590909	67.000000	66.000000
158.047727	158.590909	76.000000	62.000000
158.047727	158.590909	88.000000	68.000000
158.209091	158.590909	85.000000	71.000000
158.240909	158.590909	73.000000	56.000000
158.400000	158.625000	54.000000	57.000000
158.400000	158.625000	61.000000	44.000000
158.400000	158.590909	70.000000	62.000000
158.400000	158.590909	82.000000	63.000000
158.590909	158.688636	66.000000	67.000000
158.590909	159.168182	83.000000	67.000000
158.625000	158.975000	54.000000	56.000000
158.625000	159.136364	59.000000	55.000000
158.625000	159.136364	71.000000	60.000000
158.975000	159.168182	54.000000	53.000000
159.168182	159.711364	54.000000	56.000000
159.168182	159.552273	59.000000	56.000000
159.168182	159.231818	66.000000	56.000000
159.168182	159.231818	71.000000	56.000000
159.168182	159.552273	83.000000	65.000000
159.200000	159.552273	62.000000	53.000000
159.425000	159.809091	85.000000	59.000000
159.456818	159.647727	73.000000	52.000000
159.552273	159.809091	53.000000	53.000000
159.552273	159.809091	57.000000	48.000000
159.552273	159.809091	59.000000	48.000000
159.552273	159.809091	62.000000	51.000000
159.552273	159.809091	71.000000	57.000000
159.552273	159.840909	83.000000	67.000000
159.809091	160.415909	52.000000	58.000000
159.809091	160.415909	64.000000	59.000000
159.809091	160.415909	76.000000	59.000000
160.256818	160.415909	59.000000	49.000000
160.511364	161.025000	45.000000	49.000000
160.543182	160.990909	73.000000	48.000000
160.543182	160.959091	85.000000	62.000000
160.959091	161.056818	61.000000	51.000000
160.959091	161.184091	85.000000	60.000000
160.990909	161.025000	73.000000	50.000000
161.184091	161.536364	57.000000	39.000000
161.184091	161.536364	61.000000	53.000000
161.184091	161.440909	73.000000	53.000000
161.184091	161.409091	85.000000	62.000000
161.409091	161.536364	85.000000	61.000000
161.440909	161.536364	73.000000	48.000000
161.536364	161.759091	57.000000	47.000000
161.536364	161.759091	61.000000	51.000000
161.536364	161.759091	73.000000	61.000000
161.536364	162.143182	85.000000	68.000000
161.790909	162.143182	61.000000	51.000000
161.790909	162.175000	66.000000	64.000000
161.790909	162.143182	78.000000	63.000000
161.790909	162.209091	90.000000	66.000000
162.111364	162.720455	92.000000	71.000000
162.143182	162.336364	61.000000	50.000000
162.143182	162.784091	68.000000	63.000000
162.143182	162.272727	80.000000	58.000000
162.336364	162.688636	61.000000	54.000000
162.336364	162.752273	69.000000	63.000000
162.336364	162.752273	81.000000	67.000000
162.336364	162.752273	93.000000	70.000000
162.688636	163.295455	61.000000	59.000000
162.688636	162.943182	71.000000	72.000000
162.720455	162.943182	83.000000	70.000000
162.720455	162.943182	95.000000	71.000000
162.975000	163.040909	49.000000	69.000000
162.975000	163.327273	85.000000	70.000000
162.975000	163.327273	97.000000	76.000000
163.327273	163.390909	59.000000	59.000000
163.327273	163.390909	65.000000	62.000000
163.327273	163.520455	68.000000	64.000000
163.327273	163.520455	85.000000	70.000000
163.327273	163.390909	92.000000	55.000000
163.327273	163.552273	97.000000	72.000000
163.520455	163.904545	65.000000	61.000000
163.520455	163.904545	68.000000	64.000000
163.520455	163.872727	85.000000	72.000000
163.552273	163.904545	59.000000	62.000000
163.552273	163.872727	97.000000	76.000000
163.872727	164.000000	85.000000	69.000000
163.872727	164.000000	97.000000	71.000000
163.904545	164.000000	59.000000	57.000000
163.904545	164.000000	65.000000	59.000000
163.904545	164.000000	68.000000	62.000000
164.000000	164.447727	59.000000	58.000000
164.000000	164.447727	65.000000	58.000000
164.000000	164.447727	68.000000	53.000000
164.000000	164.415909	85.000000	73.000000
164.000000	164.415909	97.000000	78.000000
164.384091	165.695455	42.000000	57.000000
164.415909	165.790909	85.000000	65.000000
164.415909	164.511364	97.000000	69.000000
165.247727	165.727273	66.000000	46.000000
165.279545	165.727273	58.000000	34.000000
165.279545	165.727273	61.000000	37.000000
165.727273	166.240909	61.000000	36.000000
165.727273	166.272727	66.000000	45.000000
165.727273	165.825000	78.000000	51.000000
165.727273	165.825000	90.000000	51.000000
165.759091	166.240909	58.000000	29.000000
166.431818	166.752273	73.000000	45.000000
166.656818	166.752273	78.000000	55.000000
166.688636	166.784091	72.000000	38.000000
166.847727	166.943182	63.000000	43.000000
166.847727	166.943182	69.000000	50.000000
167.040909	167.263636	78.000000	59.000000
167.200000	167.327273	83.000000	50.000000
167.231818	167.327273	77.000000	47.000000
167.390909	167.840909	62.000000	49.000000
167.390909	167.456818	68.000000	54.000000
167.552273	167.809091	83.000000	63.000000
167.743182	168.000000	81.000000	61.000000
167.743182	168.000000	88.000000	61.000000
167.872727	168.000000	61.000000	60.000000
167.904545	168.000000	69.000000	61.000000
168.063636	168.479545	81.000000	58.000000
168.288636	168.511364	71.000000	49.000000
168.447727	168.543182	62.000000	41.000000
168.447727	168.543182	66.000000	47.000000
168.609091	168.863636	81.000000	55.000000
168.640909	168.863636	72.000000	49.000000
168.800000	168.895455	73.000000	57.000000
168.959091	169.088636	64.000000	56.000000
168.959091	169.120455	67.000000	54.000000
169.120455	169.215909	73.000000	61.000000
169.120455	169.375000	81.000000	59.000000
169.279545	169.472727	74.000000	65.000000
169.440909	169.536364	66.000000	62.000000
169.440909	169.536364	69.000000	65.000000
169.600000	169.888636	74.000000	68.000000
169.600000	169.920455	81.000000	71.000000
169.790909	169.920455	75.000000	64.000000
169.952273	170.047727	65.000000	52.000000
169.984091	170.079545	69.000000	53.000000
170.143182	170.431818	84.000000	53.000000
170.175000	170.431818	75.000000	43.000000
170.368182	170.784091	83.000000	52.000000
170.590909	170.688636	64.000000	44.000000
170.590909	170.688636	68.000000	45.000000
170.752273	171.040909	73.000000	54.000000
170.975000	171.072727	72.000000	41.000000
170.975000	171.104545	78.000000	52.000000
171.104545	171.231818	63.000000	47.000000
171.136364	171.327273	69.000000	50.000000
171.295455	171.520455	78.000000	61.000000
171.456818	171.552273	83.000000	57.000000
171.488636	171.584091	77.000000	50.000000
171.615909	172.031818	62.000000	52.000000
171.615909	171.711364	68.000000	59.000000
171.775000	172.031818	83.000000	63.000000
171.968182	172.320455	82.000000	62.000000
171.968182	172.190909	88.000000	65.000000
172.127273	172.225000	61.000000	52.000000
172.127273	172.225000	67.000000	57.000000
172.288636	172.575000	88.000000	60.000000
172.320455	172.543182	82.000000	60.000000
172.511364	172.640909	83.000000	56.000000
172.511364	172.768182	87.000000	54.000000
172.672727	172.768182	59.000000	44.000000
172.672727	172.768182	66.000000	54.000000
172.672727	172.768182	69.000000	56.000000
172.863636	173.152273	81.000000	64.000000
173.088636	173.343182	80.000000	62.000000
173.088636	173.311364	86.000000	67.000000
173.247727	173.343182	65.000000	57.000000
173.279545	173.375000	71.000000	59.000000
173.472727	173.759091	80.000000	62.000000
173.472727	173.727273	86.000000	66.000000
173.695455	174.240909	81.000000	58.000000
173.695455	174.209091	85.000000	62.000000
173.920455	174.304545	66.000000	53.000000
173.920455	174.240909	69.000000	55.000000
174.209091	174.752273	85.000000	63.000000
174.240909	174.752273	69.000000	50.000000
174.240909	174.752273	73.000000	55.000000
174.240909	174.752273	81.000000	55.000000
174.688636	175.904545	71.000000	47.000000
174.688636	176.256818	80.000000	59.000000
174.688636	176.352273	83.000000	60.000000
174.720455	176.288636	68.000000	53.000000
175.711364	176.352273	78.000000	49.000000
175.711364	176.384091	81.000000	46.000000
175.743182	176.352273	69.000000	41.000000
175.775000	176.352273	66.000000	35.000000
176.256818	177.984091	77.000000	34.000000
176.256818	176.415909	80.000000	43.000000
176.288636	177.984091	61.000000	35.000000
176.288636	176.384091	68.000000	34.000000
176.288636	177.952273	73.000000	32.000000
178.400000	180.095455	45.000000	46.000000
178.400000	178.975000	85.000000	60.000000
178.431818	179.040909	73.000000	47.000000
178.975000	179.231818	85.000000	57.000000
179.009091	179.263636	57.000000	36.000000
179.009091	179.231818	61.000000	47.000000
179.009091	179.231818	76.000000	36.000000
179.040909	179.231818	73.000000	44.000000
179.231818	179.679545	61.000000	49.000000
179.231818	179.679545	73.000000	50.000000
179.231818	179.711364	76.000000	43.000000
179.231818	179.552273	85.000000	61.000000
179.263636	179.679545	57.000000	38.000000
179.552273	179.679545	85.000000	62.000000
179.679545	182.015909	57.000000	49.000000
179.679545	180.031818	61.000000	60.000000
179.679545	180.095455	73.000000	60.000000
179.679545	180.031818	85.000000	68.000000
179.711364	180.127273	76.000000	46.000000
180.000000	181.152273	68.000000	70.000000
180.000000	181.152273	92.000000	74.000000
180.031818	180.672727	61.000000	58.000000
180.031818	180.672727	80.000000	67.000000
180.031818	182.079545	85.000000	57.000000
180.672727	181.088636	61.000000	45.000000
180.672727	181.152273	80.000000	55.000000
181.056818	182.079545	66.000000	56.000000
181.056818	181.663636	78.000000	56.000000
181.088636	181.663636	61.000000	42.000000
181.088636	182.079545	90.000000	58.000000
181.663636	181.984091	61.000000	48.000000
181.663636	182.079545	78.000000	59.000000
181.920455	182.079545	54.000000	46.000000
181.952273	182.495455	58.000000	59.000000
181.984091	182.495455	61.000000	58.000000
181.984091	182.495455	67.000000	61.000000
181.984091	182.463636	76.000000	63.000000
181.984091	182.495455	88.000000	68.000000
182.175000	182.495455	85.000000	68.000000
182.336364	182.625000	82.000000	64.000000
182.368182	182.975000	54.000000	56.000000
182.368182	182.495455	70.000000	59.000000
182.590909	183.200000	59.000000	49.000000
182.590909	183.200000	62.000000	49.000000
182.590909	183.263636	66.000000	61.000000
182.590909	183.200000	71.000000	56.000000
182.590909	183.168182	83.000000	63.000000
182.625000	182.656818	74.000000	46.000000
182.975000	183.872727	54.000000	50.000000
183.168182	183.584091	83.000000	62.000000
183.200000	183.872727	59.000000	50.000000
183.200000	184.640909	62.000000	52.000000
183.200000	183.295455	71.000000	53.000000
183.200000	183.359091	74.000000	51.000000
183.456818	183.872727	73.000000	55.000000
183.456818	183.872727	85.000000	58.000000
183.584091	183.872727	53.000000	47.000000
183.584091	183.872727	83.000000	65.000000
183.615909	183.872727	71.000000	57.000000
183.872727	184.640909	52.000000	51.000000
183.872727	184.672727	64.000000	54.000000
183.872727	184.672727	76.000000	59.000000
184.384091	184.672727	59.000000	46.000000
184.672727	185.440909	45.000000	49.000000
184.704545	185.727273	73.000000	48.000000
184.704545	185.215909	85.000000	62.000000
185.215909	185.440909	61.000000	49.000000
185.215909	185.440909	85.000000	58.000000
185.440909	185.856818	57.000000	40.000000
185.440909	185.856818	61.000000	47.000000
185.440909	185.727273	85.000000	63.000000
185.727273	185.856818	73.000000	50.000000
185.727273	185.856818	85.000000	63.000000
185.856818	186.143182	57.000000	42.000000
185.856818	186.111364	61.000000	52.000000
185.856818	186.143182	73.000000	64.000000
185.856818	187.136364	85.000000	65.000000
186.111364	186.463636	61.000000	52.000000
186.111364	187.231818	66.000000	62.000000
186.111364	186.784091	78.000000	62.000000
186.111364	187.168182	90.000000	66.000000
186.143182	187.168182	57.000000	47.000000
186.463636	186.720455	61.000000	46.000000
186.463636	187.263636	68.000000	58.000000
186.463636	187.168182	80.000000	63.000000
186.463636	187.168182	92.000000	68.000000
186.688636	187.231818	93.000000	70.000000
186.720455	187.136364	61.000000	57.000000
186.720455	187.231818	69.000000	60.000000
186.720455	187.263636	81.000000	67.000000
187.136364	187.456818	61.000000	54.000000
187.136364	187.456818	71.000000	67.000000
187.136364	187.456818	83.000000	70.000000
187.136364	187.488636	95.000000	72.000000
187.168182	187.456818	57.000000	50.000000
187.456818	188.190909	49.000000	69.000000
187.456818	187.968182	85.000000	71.000000
187.456818	187.968182	97.000000	76.000000
187.488636	187.520455	61.000000	67.000000
187.968182	188.225000	59.000000	63.000000
187.968182	188.225000	65.000000	64.000000
187.968182	188.225000	68.000000	67.000000
187.968182	188.225000	85.000000	72.000000
187.968182	188.225000	92.000000	58.000000
187.968182	188.225000	97.000000	75.000000
188.225000	188.927273	59.000000	63.000000
188.225000	188.288636	61.000000	63.000000
188.225000	188.927273	65.000000	68.000000
188.225000	188.927273	68.000000	69.000000
188.225000	188.736364	85.000000	73.000000
188.225000	188.768182	92.000000	60.000000
188.225000	188.736364	97.000000	76.000000
188.736364	188.895455	85.000000	67.000000
188.736364	188.895455	97.000000	70.000000
188.895455	189.472727	85.000000	71.000000
188.895455	189.472727	97.000000	76.000000
188.927273	189.504545	59.000000	60.000000
188.927273	189.504545	65.000000	57.000000
188.927273	189.504545	68.000000	62.000000
189.472727	194.209091	42.000000	69.000000
189.472727	194.175000	85.000000	70.000000
189.472727	190.047727	97.000000	75.000000
190.495455	191.295455	58.000000	37.000000
190.495455	191.263636	61.000000	39.000000
190.495455	191.263636	66.000000	38.000000
191.231818	194.209091	78.000000	54.000000
191.231818	194.209091	90.000000	56.000000
191.263636	194.209091	61.000000	32.000000
191.263636	194.209091	66.000000	42.000000
191.263636	192.959091	70.000000	40.000000
191.295455	194.209091	58.000000	33.000000
194.975000	198.336364	46.000000	47.000000
194.975000	198.400000	74.000000	60.000000
195.968182	196.511364	58.000000	36.000000
195.968182	196.990909	62.000000	37.000000
196.479545	198.400000	53.000000	48.000000
196.511364	196.990909	58.000000	37.000000
196.959091	198.400000	79.000000	53.000000
196.990909	197.409091	58.000000	35.000000
196.990909	197.409091	62.000000	34.000000
197.152273	198.400000	77.000000	55.000000
197.375000	198.400000	86.000000	63.000000
197.409091	197.888636	58.000000	42.000000
197.409091	197.888636	62.000000	38.000000
197.856818	198.368182	54.000000	52.000000
197.856818	198.400000	84.000000	62.000000
197.888636	198.400000	58.000000	48.000000
197.888636	198.400000	62.000000	39.000000
198.047727	198.368182	82.000000	65.000000
198.336364	199.263636	46.000000	60.000000
198.368182	199.263636	82.000000	69.000000
198.815909	199.263636	63.000000	52.000000
198.815909	199.295455	81.000000	63.000000
198.847727	199.263636	58.000000	43.000000
199.009091	199.295455	79.000000	71.000000
199.231818	200.159091	55.000000	52.000000
199.231818	199.359091	78.000000	73.000000
199.263636	200.127273	58.000000	45.000000
199.263636	199.679545	63.000000	45.000000
199.647727	200.159091	81.000000	65.000000
199.679545	200.095455	63.000000	42.000000
199.711364	200.672727	59.000000	47.000000
199.809091	200.159091	79.000000	69.000000
200.063636	201.215909	71.000000	65.000000
200.095455	201.247727	60.000000	49.000000
200.095455	201.247727	63.000000	44.000000
200.575000	201.247727	53.000000	45.000000
200.575000	201.247727	74.000000	58.000000
200.895455	201.247727	72.000000	55.000000
201.184091	202.240909	46.000000	45.000000
201.247727	202.272727	74.000000	66.000000
201.759091	202.272727	62.000000	41.000000
201.790909	202.272727	58.000000	38.000000
202.209091	203.968182	50.000000	44.000000
202.209091	203.520455	72.000000	60.000000
202.240909	202.272727	69.000000	49.000000
202.625000	203.968182	70.000000	58.000000
202.656818	203.040909	58.000000	39.000000
202.656818	203.009091	62.000000	37.000000
203.009091	203.488636	62.000000	50.000000
203.009091	204.000000	74.000000	62.000000
203.040909	203.488636	58.000000	41.000000
203.456818	203.968182	67.000000	54.000000
203.488636	204.000000	58.000000	44.000000
203.488636	203.968182	62.000000	43.000000
203.936364	205.759091	48.000000	54.000000
203.968182	204.768182	67.000000	49.000000
203.968182	205.409091	75.000000	65.000000
204.415909	204.768182	60.000000	45.000000
204.415909	204.768182	63.000000	48.000000
204.768182	205.759091	55.000000	52.000000
204.768182	205.247727	60.000000	47.000000
204.768182	205.247727	63.000000	49.000000
204.768182	205.759091	67.000000	52.000000
204.768182	205.759091	72.000000	64.000000
205.215909	205.790909	74.000000	66.000000
205.247727	205.759091	60.000000	54.000000
205.247727	205.759091	63.000000	50.000000
205.279545	205.759091	70.000000	48.000000
205.409091	205.759091	75.000000	68.000000
205.600000	206.463636	53.000000	55.000000
205.759091	207.136364	79.000000	71.000000
205.790909	207.136364	69.000000	56.000000
206.431818	207.136364	57.000000	40.000000
206.463636	207.136364	53.000000	39.000000
206.463636	207.136364	63.000000	36.000000
206.463636	207.136364	77.000000	59.000000
206.495455	207.136364	72.000000	39.000000
207.104545	208.031818	46.000000	47.000000
207.136364	208.800000	74.000000	59.000000
207.615909	208.159091	62.000000	44.000000
207.647727	208.031818	58.000000	36.000000
207.968182	209.247727	53.000000	53.000000
207.968182	209.247727	65.000000	54.000000
208.384091	208.800000	62.000000	38.000000
208.384091	209.279545	79.000000	60.000000
208.415909	208.800000	58.000000	39.000000
208.543182	209.247727	77.000000	58.000000
208.768182	209.311364	86.000000	65.000000
208.800000	209.215909	58.000000	48.000000
208.800000	209.184091	62.000000	40.000000
208.800000	209.311364	74.000000	45.000000
209.184091	209.695455	54.000000	60.000000
209.184091	209.695455	62.000000	57.000000
209.184091	209.663636	84.000000	67.000000
209.215909	209.663636	58.000000	53.000000
209.215909	209.247727	66.000000	60.000000
209.409091	209.695455	82.000000	68.000000
209.600000	210.625000	51.000000	46.000000
209.631818	209.727273	70.000000	55.000000
209.663636	210.590909	55.000000	48.000000
209.695455	210.590909	58.000000	55.000000
209.695455	210.590909	75.000000	64.000000
209.790909	210.625000	63.000000	67.000000
209.790909	210.625000	82.000000	69.000000
210.240909	210.625000	81.000000	69.000000
210.400000	210.625000	79.000000	70.000000
210.495455	210.625000	46.000000	49.000000
210.559091	211.136364	53.000000	52.000000
210.656818	211.040909	65.000000	58.000000
210.656818	210.720455	77.000000	57.000000
210.720455	211.584091	62.000000	59.000000
210.720455	211.584091	70.000000	64.000000
210.784091	211.584091	77.000000	68.000000
211.136364	211.584091	53.000000	47.000000
211.136364	211.584091	60.000000	66.000000
211.295455	211.584091	58.000000	62.000000
211.488636	212.190909	42.000000	62.000000
211.488636	212.575000	63.000000	64.000000
211.520455	212.575000	48.000000	57.000000
211.584091	212.575000	69.000000	62.000000
211.647727	212.575000	75.000000	71.000000
211.679545	212.575000	57.000000	54.000000
212.031818	212.575000	74.000000	69.000000
212.225000	212.575000	72.000000	63.000000
212.352273	212.609091	43.000000	65.000000
212.415909	212.609091	50.000000	58.000000
212.575000	213.600000	62.000000	56.000000
212.575000	213.568182	70.000000	67.000000
212.609091	213.600000	58.000000	59.000000
213.025000	213.568182	57.000000	64.000000
213.215909	213.568182	55.000000	63.000000
213.215909	213.568182	67.000000	59.000000
213.440909	213.600000	39.000000	63.000000
213.568182	214.752273	63.000000	56.000000
213.568182	214.752273	66.000000	60.000000
213.568182	214.720455	70.000000	66.000000
213.600000	214.720455	54.000000	57.000000
213.600000	213.631818	58.000000	48.000000
214.143182	215.711364	53.000000	65.000000
214.400000	214.752273	51.000000	60.000000
214.688636	215.425000	58.000000	51.000000
214.688636	215.743182	62.000000	60.000000
214.688636	215.679545	65.000000	59.000000
214.720455	215.679545	41.000000	52.000000
215.231818	215.711364	57.000000	54.000000
215.231818	215.711364	60.000000	61.000000
215.425000	215.743182	58.000000	60.000000
215.456818	215.711364	55.000000	53.000000
215.679545	215.872727	41.000000	66.000000
215.679545	216.320455	63.000000	64.000000
215.679545	216.320455	65.000000	63.000000
215.711364	215.775000	57.000000	58.000000
215.711364	215.775000	60.000000	54.000000
215.936364	216.288636	50.000000	52.000000
216.256818	217.025000	48.000000	52.000000
216.575000	217.025000	63.000000	51.000000
216.575000	217.025000	65.000000	48.000000
216.609091	217.025000	57.000000	41.000000
216.609091	216.704545	60.000000	35.000000
217.025000	218.111364	48.000000	38.000000
217.025000	218.111364	57.000000	38.000000
217.025000	218.111364	63.000000	44.000000
217.025000	217.984091	65.000000	40.000000
217.056818	218.079545	60.000000	37.000000
217.984091	218.943182	65.000000	45.000000
218.015909	218.240909	46.000000	37.000000
218.015909	218.943182	58.000000	35.000000
218.015909	219.136364	62.000000	38.000000
218.847727	220.479545	88.000000	66.000000
218.879545	219.488636	67.000000	63.000000
218.879545	219.488636	70.000000	65.000000
218.879545	220.031818	73.000000	69.000000
218.879545	219.615909	76.000000	63.000000
218.879545	219.520455	85.000000	70.000000
219.425000	219.872727	54.000000	63.000000
219.425000	219.872727	58.000000	62.000000
219.425000	220.672727	61.000000	63.000000
219.425000	220.704545	64.000000	69.000000
219.872727	220.704545	49.000000	64.000000
219.872727	220.320455	54.000000	57.000000
219.872727	220.320455	58.000000	63.000000
220.320455	220.704545	48.000000	61.000000
220.320455	220.704545	54.000000	61.000000
220.320455	220.704545	58.000000	64.000000
220.479545	220.704545	46.000000	59.000000
220.672727	221.409091	65.000000	64.000000
220.704545	221.409091	45.000000	61.000000
220.704545	220.831818	60.000000	54.000000
221.088636	221.409091	53.000000	54.000000
221.088636	221.409091	60.000000	68.000000
221.440909	222.495455	80.000000	70.000000
221.440909	222.400000	86.000000	70.000000
221.472727	222.047727	65.000000	65.000000
221.472727	222.400000	68.000000	66.000000
221.472727	222.400000	71.000000	64.000000
221.472727	223.200000	74.000000	68.000000
221.472727	222.463636	77.000000	67.000000
221.472727	222.111364	83.000000	69.000000
222.015909	222.368182	53.000000	60.000000
222.015909	222.368182	56.000000	64.000000
222.015909	222.559091	62.000000	61.000000
222.047727	222.431818	59.000000	59.000000
222.368182	223.200000	47.000000	64.000000
222.368182	222.815909	53.000000	64.000000
222.368182	222.815909	56.000000	65.000000
222.400000	222.431818	65.000000	59.000000
222.815909	223.200000	46.000000	58.000000
222.815909	223.200000	53.000000	59.000000
222.815909	223.168182	56.000000	65.000000
222.847727	223.168182	68.000000	62.000000
222.975000	223.200000	44.000000	68.000000
223.168182	223.263636	58.000000	61.000000
223.168182	224.000000	63.000000	66.000000
223.200000	224.000000	43.000000	67.000000
223.200000	223.295455	51.000000	62.000000
223.615909	224.000000	51.000000	58.000000
223.615909	224.031818	58.000000	63.000000
224.031818	224.990909	70.000000	68.000000
224.031818	224.575000	80.000000	68.000000
224.031818	224.959091	82.000000	70.000000
224.063636	224.511364	62.000000	60.000000
224.063636	224.990909	65.000000	61.000000
224.063636	224.575000	68.000000	67.000000
224.063636	224.609091	74.000000	67.000000
224.063636	224.543182	77.000000	67.000000
224.511364	224.927273	50.000000	61.000000
224.511364	224.927273	53.000000	62.000000
224.511364	224.959091	56.000000	63.000000
224.511364	224.927273	58.000000	61.000000
224.927273	225.375000	44.000000	69.000000
224.927273	225.727273	50.000000	61.000000
224.927273	225.056818	53.000000	62.000000
224.927273	224.990909	58.000000	55.000000
225.343182	225.472727	41.000000	61.000000
225.343182	225.790909	42.000000	67.000000
225.343182	225.759091	53.000000	62.000000
225.343182	225.375000	61.000000	62.000000
225.343182	225.790909	65.000000	57.000000
225.472727	225.790909	41.000000	67.000000
225.695455	226.143182	39.000000	62.000000
225.695455	225.790909	51.000000	60.000000
225.695455	226.143182	58.000000	59.000000
226.079545	226.559091	42.000000	69.000000
226.079545	226.559091	51.000000	55.000000
226.079545	226.559091	54.000000	62.000000
226.495455	227.009091	46.000000	53.000000
226.495455	227.168182	58.000000	58.000000
226.847727	226.943182	50.000000	48.000000
226.847727	227.009091	53.000000	49.000000
227.009091	227.104545	50.000000	49.000000
227.009091	227.136364	53.000000	51.000000
227.168182	227.584091	51.000000	57.000000
227.168182	227.647727	54.000000	59.000000
227.168182	227.552273	58.000000	49.000000
227.552273	228.000000	50.000000	48.000000
227.552273	228.000000	53.000000	48.000000
227.552273	228.031818	58.000000	41.000000
228.000000	229.152273	50.000000	42.000000
228.000000	229.120455	53.000000	44.000000
228.031818	229.152273	58.000000	33.000000
228.511364	229.120455	34.000000	44.000000
228.511364	229.152273	46.000000	44.000000
229.088636	231.359091	43.000000	51.000000
229.088636	230.336364	79.000000	63.000000
229.120455	231.359091	31.000000	54.000000
229.663636	229.856818	59.000000	44.000000
229.663636	229.825000	62.000000	44.000000
229.825000	230.047727	62.000000	49.000000
229.856818	230.047727	59.000000	43.000000
230.015909	231.390909	67.000000	55.000000
230.047727	230.368182	59.000000	44.000000
230.047727	230.368182	62.000000	46.000000
230.336364	230.625000	79.000000	66.000000
230.368182	231.390909	59.000000	40.000000
230.368182	231.359091	62.000000	41.000000
230.625000	231.425000	79.000000	66.000000
230.656818	231.390909	60.000000	54.000000
230.656818	231.390909	63.000000	52.000000
230.656818	231.390909	68.000000	55.000000
230.943182	231.390909	69.000000	66.000000
230.975000	231.390909	61.000000	56.000000
230.975000	231.359091	64.000000	58.000000
231.359091	233.311364	31.000000	60.000000
231.359091	233.631818	43.000000	59.000000
231.425000	232.511364	79.000000	69.000000
231.840909	232.000000	61.000000	54.000000
231.840909	232.031818	64.000000	53.000000
232.000000	232.190909	61.000000	45.000000
232.031818	232.225000	64.000000	44.000000
232.190909	232.511364	61.000000	51.000000
232.190909	233.727273	70.000000	61.000000
232.225000	232.511364	64.000000	44.000000
232.511364	233.727273	61.000000	47.000000
232.511364	233.695455	64.000000	51.000000
232.511364	232.831818	79.000000	65.000000
232.831818	233.727273	62.000000	51.000000
232.831818	233.727273	65.000000	52.000000
232.831818	233.727273	71.000000	59.000000
232.831818	233.759091	79.000000	69.000000
233.184091	233.695455	72.000000	68.000000
233.215909	233.279545	55.000000	51.000000
233.215909	233.727273	63.000000	55.000000
233.215909	233.727273	67.000000	48.000000
233.631818	234.815909	43.000000	65.000000
233.727273	235.872727	82.000000	70.000000
234.175000	234.527273	58.000000	52.000000
234.175000	234.847727	64.000000	51.000000
234.175000	234.495455	70.000000	61.000000
234.495455	235.872727	55.000000	62.000000
234.495455	234.847727	70.000000	60.000000
234.527273	234.847727	58.000000	53.000000
234.527273	235.872727	67.000000	59.000000
234.847727	235.200000	58.000000	52.000000
234.847727	235.168182	64.000000	52.000000
234.847727	235.200000	70.000000	60.000000
235.168182	235.520455	64.000000	55.000000
235.168182	235.872727	81.000000	67.000000
235.200000	235.520455	58.000000	55.000000
235.200000	235.520455	70.000000	58.000000
235.488636	235.904545	79.000000	71.000000
235.520455	235.872727	58.000000	51.000000
235.520455	235.872727	64.000000	48.000000
235.520455	235.872727	70.000000	58.000000
235.809091	237.311364	48.000000	55.000000
235.872727	236.927273	82.000000	69.000000
235.904545	235.936364	70.000000	51.000000
235.904545	236.959091	77.000000	61.000000
236.256818	236.575000	60.000000	45.000000
236.256818	236.927273	64.000000	47.000000
236.256818	236.575000	70.000000	60.000000
236.575000	238.111364	55.000000	52.000000
236.575000	236.927273	60.000000	40.000000
236.575000	236.927273	70.000000	61.000000
236.927273	237.279545	60.000000	49.000000
236.927273	237.279545	64.000000	58.000000
236.927273	237.311364	70.000000	62.000000
236.927273	238.111364	76.000000	64.000000
236.927273	237.279545	82.000000	66.000000
237.279545	237.695455	60.000000	42.000000
237.279545	237.727273	64.000000	43.000000
237.279545	238.111364	74.000000	61.000000
237.279545	237.663636	82.000000	62.000000
237.311364	237.695455	70.000000	49.000000
237.663636	238.111364	72.000000	66.000000
237.663636	238.111364	82.000000	64.000000
237.695455	238.111364	60.000000	45.000000
237.695455	238.111364	70.000000	50.000000
237.727273	238.111364	64.000000	37.000000
238.015909	238.175000	41.000000	46.000000
238.015909	240.320455	53.000000	50.000000
238.111364	238.625000	72.000000	65.000000
238.111364	238.175000	82.000000	54.000000
238.111364	238.209091	84.000000	67.000000
238.625000	239.263636	63.000000	52.000000
238.625000	239.295455	69.000000	53.000000
238.625000	238.943182	72.000000	59.000000
238.625000	239.009091	81.000000	64.000000
238.784091	239.359091	79.000000	68.000000
238.943182	239.647727	60.000000	63.000000
238.943182	239.263636	72.000000	63.000000
238.943182	240.384091	77.000000	68.000000
239.263636	239.615909	63.000000	48.000000
239.263636	239.615909	72.000000	64.000000
239.263636	240.447727	84.000000	68.000000
239.295455	239.615909	69.000000	49.000000
239.584091	240.415909	82.000000	65.000000
239.615909	239.968182	63.000000	53.000000
239.615909	240.000000	69.000000	48.000000
239.615909	239.968182	72.000000	61.000000
239.647727	240.000000	60.000000	40.000000
239.968182	240.415909	63.000000	47.000000
239.968182	240.415909	72.000000	55.000000
239.968182	240.447727	81.000000	64.000000
240.000000	240.447727	60.000000	43.000000
240.000000	240.415909	69.000000	40.000000
240.320455	240.447727	53.000000	45.000000
240.352273	240.511364	41.000000	44.000000
240.447727	243.968182	53.000000	54.000000
240.447727	240.895455	72.000000	53.000000
240.447727	243.936364	79.000000	61.000000
240.447727	241.759091	84.000000	66.000000
240.895455	241.790909	63.000000	46.000000
240.895455	241.343182	69.000000	47.000000
240.895455	241.311364	72.000000	57.000000
241.311364	243.968182	60.000000	57.000000
241.311364	241.856818	72.000000	58.000000
241.343182	241.790909	69.000000	44.000000
241.759091	246.625000	77.000000	62.000000
241.759091	242.304545	84.000000	63.000000
241.790909	243.968182	63.000000	50.000000
241.790909	242.336364	69.000000	47.000000
242.304545	243.009091	84.000000	55.000000
242.336364	243.968182	64.000000	54.000000
242.336364	243.009091	69.000000	41.000000
242.336364	243.968182	76.000000	57.000000
243.009091	243.968182	65.000000	47.000000
243.009091	243.968182	69.000000	41.000000
243.009091	243.968182	75.000000	61.000000
243.009091	244.063636	84.000000	55.000000
243.936364	245.343182	46.000000	50.000000
243.936364	245.790909	86.000000	65.000000
243.968182	244.575000	74.000000	53.000000
244.543182	246.431818	82.000000	58.000000
244.575000	244.959091	58.000000	40.000000
244.575000	244.927273	62.000000	42.000000
244.575000	245.759091	70.000000	48.000000
244.575000	245.759091	74.000000	42.000000
244.927273	245.343182	62.000000	53.000000
244.959091	246.656818	53.000000	50.000000
244.959091	245.375000	58.000000	44.000000
245.343182	245.759091	62.000000	41.000000
245.343182	246.625000	79.000000	52.000000
245.343182	246.625000	91.000000	60.000000
245.375000	245.759091	58.000000	39.000000
245.504545	246.625000	89.000000	63.000000
245.759091	246.656818	58.000000	46.000000
245.759091	246.625000	62.000000	49.000000
245.759091	246.625000	74.000000	56.000000
245.759091	246.656818	98.000000	67.000000
245.790909	246.625000	86.000000	58.000000
246.240909	246.625000	54.000000	59.000000
246.240909	246.625000	84.000000	64.000000
246.240909	246.688636	96.000000	65.000000
246.400000	246.625000	94.000000	68.000000
246.431818	246.688636	82.000000	62.000000
246.559091	246.688636	46.000000	58.000000
246.688636	246.752273	46.000000	63.000000
246.688636	247.520455	82.000000	60.000000
246.688636	247.488636	94.000000	69.000000
247.072727	247.488636	63.000000	50.000000
247.072727	247.520455	93.000000	68.000000
247.104545	247.488636	58.000000	47.000000
247.104545	247.552273	81.000000	59.000000
247.295455	247.552273	79.000000	60.000000
247.295455	247.520455	91.000000	63.000000
247.456818	247.552273	90.000000	66.000000
247.488636	248.863636	55.000000	52.000000
247.488636	247.679545	58.000000	51.000000
247.488636	247.904545	63.000000	47.000000
247.488636	247.615909	78.000000	62.000000
247.872727	248.384091	93.000000	67.000000
247.904545	248.384091	59.000000	46.000000
247.904545	248.352273	63.000000	39.000000
247.904545	248.384091	81.000000	57.000000
248.063636	248.384091	91.000000	61.000000
248.095455	248.447727	79.000000	50.000000
248.320455	249.343182	83.000000	67.000000
248.352273	249.343182	60.000000	41.000000
248.352273	249.343182	63.000000	41.000000
248.352273	248.895455	71.000000	52.000000
248.800000	249.343182	53.000000	52.000000
248.831818	248.863636	65.000000	48.000000
248.831818	249.311364	86.000000	62.000000
248.863636	249.343182	74.000000	41.000000
248.990909	249.375000	84.000000	57.000000
249.025000	249.343182	72.000000	48.000000
249.311364	250.143182	46.000000	49.000000
249.311364	250.175000	86.000000	65.000000
249.343182	250.175000	74.000000	52.000000
249.695455	250.111364	62.000000	48.000000
249.727273	250.175000	58.000000	46.000000
250.079545	251.743182	50.000000	55.000000
250.111364	250.175000	62.000000	53.000000
250.111364	250.911364	72.000000	60.000000
250.495455	250.847727	62.000000	46.000000
250.495455	250.975000	70.000000	59.000000
250.527273	250.879545	58.000000	46.000000
250.847727	251.743182	62.000000	57.000000
250.847727	251.743182	74.000000	65.000000
250.879545	251.743182	55.000000	58.000000
250.879545	251.327273	58.000000	53.000000
251.327273	251.743182	58.000000	57.000000
251.327273	251.743182	67.000000	60.000000
251.679545	252.511364	48.000000	55.000000
251.743182	252.511364	66.000000	60.000000
251.743182	252.640909	75.000000	67.000000
252.127273	252.479545	60.000000	48.000000
252.127273	252.447727	63.000000	49.000000
252.127273	252.447727	67.000000	56.000000
252.447727	253.311364	55.000000	59.000000
252.447727	252.895455	63.000000	60.000000
252.447727	253.311364	67.000000	58.000000
252.479545	252.543182	60.000000	51.000000
252.479545	253.343182	72.000000	61.000000
252.895455	253.311364	60.000000	53.000000
252.895455	253.343182	63.000000	53.000000
252.895455	253.343182	74.000000	64.000000
252.927273	253.311364	70.000000	60.000000
253.088636	253.343182	75.000000	68.000000
253.247727	253.409091	41.000000	51.000000
253.247727	254.463636	53.000000	54.000000
253.311364	254.463636	79.000000	71.000000
253.343182	254.463636	69.000000	52.000000
253.856818	254.463636	72.000000	61.000000
253.856818	254.463636	77.000000	59.000000
253.888636	254.463636	57.000000	44.000000
253.888636	254.463636	63.000000	47.000000
254.400000	255.231818	46.000000	48.000000
254.431818	255.231818	74.000000	64.000000
254.815909	255.231818	58.000000	51.000000
254.815909	255.168182	62.000000	53.000000
255.136364	256.063636	53.000000	60.000000
255.168182	255.263636	62.000000	55.000000
255.584091	256.095455	58.000000	44.000000
255.584091	256.063636	62.000000	44.000000
255.584091	256.095455	67.000000	54.000000
255.743182	256.095455	65.000000	60.000000
256.031818	256.959091	56.000000	59.000000
256.031818	256.990909	74.000000	65.000000
256.063636	256.990909	53.000000	48.000000
256.063636	256.959091	62.000000	52.000000
256.543182	256.990909	58.000000	46.000000
256.543182	256.990909	72.000000	62.000000
256.736364	256.990909	70.000000	65.000000
256.927273	257.825000	55.000000	62.000000
256.959091	257.056818	67.000000	57.000000
256.990909	257.825000	70.000000	63.000000
257.375000	257.790909	58.000000	56.000000
257.375000	257.825000	69.000000	65.000000
257.409091	257.790909	63.000000	50.000000
257.568182	257.825000	67.000000	66.000000
257.790909	258.847727	48.000000	57.000000
257.790909	258.368182	58.000000	57.000000
257.790909	257.984091	64.000000	61.000000
257.790909	258.815909	66.000000	66.000000
258.304545	258.847727	69.000000	63.000000
258.368182	258.847727	58.000000	45.000000
258.368182	258.815909	63.000000	42.000000
258.495455	258.879545	67.000000	62.000000
258.784091	260.225000	53.000000	52.000000
258.815909	259.552273	63.000000	48.000000
258.815909	260.225000	71.000000	60.000000
259.552273	260.256818	57.000000	41.000000
259.552273	260.256818	63.000000	49.000000
259.552273	260.256818	74.000000	56.000000
259.840909	260.256818	72.000000	59.000000
260.190909	261.343182	58.000000	55.000000
260.225000	260.863636	62.000000	48.000000
260.225000	261.727273	77.000000	61.000000
260.863636	262.209091	62.000000	51.000000
260.863636	261.727273	65.000000	53.000000
260.895455	261.343182	70.000000	58.000000
261.311364	261.727273	74.000000	60.000000
261.343182	261.790909	58.000000	47.000000
261.343182	264.320455	70.000000	49.000000
261.727273	264.320455	53.000000	48.000000
261.727273	264.352273	65.000000	46.000000
261.727273	263.231818	74.000000	56.000000
261.727273	262.175000	77.000000	62.000000
262.143182	264.288636	82.000000	62.000000
262.175000	264.288636	50.000000	50.000000
262.175000	262.688636	77.000000	56.000000
262.625000	263.168182	86.000000	63.000000
262.656818	263.231818	46.000000	40.000000
262.656818	263.200000	58.000000	43.000000
262.688636	264.288636	77.000000	38.000000
263.136364	264.352273	41.000000	48.000000
263.136364	264.320455	89.000000	59.000000
263.168182	263.679545	86.000000	56.000000
263.679545	264.352273	86.000000	57.000000
263.711364	264.320455	46.000000	40.000000
264.288636	268.800000	50.000000	41.000000
264.288636	265.152273	77.000000	47.000000
264.288636	266.272727	82.000000	51.000000
265.152273	268.800000	53.000000	39.000000
265.152273	268.768182	65.000000	37.000000
265.152273	266.175000	74.000000	47.000000
265.152273	266.209091	77.000000	45.000000
266.175000	268.800000	58.000000	41.000000
266.175000	268.800000	74.000000	44.000000
266.209091	268.800000	77.000000	43.000000
269.409091	269.759091	58.000000	62.000000
269.409091	270.079545	61.000000	61.000000
269.409091	270.079545	64.000000	65.000000
269.409091	269.695455	67.000000	66.000000
269.409091	270.079545	70.000000	66.000000
269.409091	270.079545	73.000000	70.000000
269.409091	270.111364	79.000000	69.000000
269.440909	270.079545	76.000000	65.000000
269.695455	270.111364	57.000000	58.000000
269.695455	270.079545	67.000000	56.000000
269.695455	270.079545	69.000000	68.000000
270.015909	270.111364	45.000000	65.000000
270.272727	270.815909	79.000000	72.000000
270.272727	270.815909	85.000000	73.000000
270.304545	270.815909	57.000000	58.000000
270.304545	270.815909	61.000000	59.000000
270.304545	270.815909	64.000000	64.000000
270.304545	270.590909	67.000000	63.000000
270.304545	270.815909	73.000000	66.000000
270.304545	270.815909	76.000000	68.000000
270.590909	270.815909	62.000000	54.000000
270.590909	270.815909	65.000000	58.000000
270.590909	270.815909	67.000000	54.000000
270.590909	270.815909	74.000000	57.000000
270.590909	270.847727	77.000000	65.000000
270.590909	270.815909	86.000000	69.000000
270.847727	270.975000	45.000000	62.000000
271.136364	271.231818	58.000000	65.000000
271.136364	271.231818	61.000000	64.000000
271.136364	271.231818	64.000000	67.000000
271.136364	271.231818	67.000000	68.000000
271.136364	271.231818	70.000000	69.000000
271.136364	271.231818	73.000000	68.000000
271.136364	271.231818	76.000000	66.000000
271.136364	271.679545	79.000000	72.000000
271.425000	271.679545	62.000000	59.000000
271.425000	271.679545	65.000000	57.000000
271.425000	271.679545	69.000000	62.000000
271.425000	271.679545	74.000000	62.000000
271.425000	271.711364	77.000000	68.000000
271.456818	271.679545	58.000000	51.000000
271.679545	271.775000	45.000000	63.000000
271.968182	272.320455	76.000000	67.000000
271.968182	272.543182	79.000000	69.000000
271.968182	272.543182	85.000000	72.000000
272.000000	272.511364	57.000000	57.000000
272.000000	272.159091	61.000000	59.000000
272.000000	272.095455	64.000000	62.000000
272.000000	272.095455	67.000000	65.000000
272.000000	272.159091	73.000000	68.000000
272.256818	272.543182	62.000000	62.000000
272.256818	272.543182	65.000000	64.000000
272.256818	272.543182	86.000000	71.000000
272.288636	272.320455	74.000000	62.000000
272.288636	272.543182	77.000000	68.000000
272.575000	272.640909	74.000000	65.000000
272.575000	272.640909	86.000000	70.000000
272.609091	272.672727	59.000000	53.000000
272.609091	272.672727	65.000000	54.000000
272.609091	272.672727	67.000000	56.000000
272.704545	272.800000	88.000000	66.000000
272.736364	272.800000	76.000000	62.000000
272.831818	272.927273	77.000000	67.000000
272.831818	272.927273	89.000000	68.000000
272.863636	272.927273	65.000000	55.000000
272.863636	272.927273	67.000000	49.000000
272.895455	272.927273	59.000000	46.000000
272.959091	273.025000	79.000000	70.000000
272.959091	273.025000	91.000000	72.000000
273.088636	273.727273	93.000000	77.000000
273.120455	273.727273	60.000000	66.000000
273.120455	273.727273	65.000000	62.000000
273.120455	273.727273	69.000000	70.000000
273.120455	273.727273	81.000000	74.000000
273.695455	273.790909	70.000000	64.000000
273.695455	273.790909	79.000000	67.000000
273.695455	273.790909	91.000000	70.000000
273.727273	273.790909	60.000000	52.000000
273.727273	273.790909	67.000000	60.000000
274.015909	274.463636	65.000000	65.000000
274.015909	274.463636	69.000000	67.000000
274.015909	274.463636	77.000000	69.000000
274.015909	274.431818	89.000000	72.000000
275.009091	275.104545	58.000000	63.000000
275.009091	275.104545	61.000000	64.000000
275.009091	275.104545	64.000000	67.000000
275.009091	275.104545	67.000000	67.000000
275.009091	275.104545	70.000000	70.000000
275.009091	275.520455	73.000000	70.000000
275.009091	275.072727	76.000000	70.000000
275.009091	275.552273	79.000000	72.000000
275.263636	275.520455	69.000000	66.000000
275.295455	275.552273	57.000000	56.000000
275.520455	275.615909	45.000000	63.000000
275.840909	276.320455	76.000000	68.000000
275.840909	276.320455	79.000000	68.000000
275.840909	276.320455	85.000000	72.000000
275.872727	276.320455	57.000000	56.000000
275.872727	276.320455	61.000000	57.000000
275.872727	276.320455	64.000000	63.000000
275.872727	276.320455	67.000000	62.000000
275.872727	276.127273	73.000000	64.000000
276.127273	276.320455	65.000000	63.000000
276.159091	276.320455	62.000000	61.000000
276.159091	276.320455	74.000000	61.000000
276.159091	276.320455	77.000000	67.000000
276.159091	276.320455	86.000000	71.000000
276.415909	276.672727	45.000000	63.000000
276.704545	276.831818	79.000000	71.000000
276.736364	276.831818	58.000000	63.000000
276.736364	276.800000	61.000000	62.000000
276.736364	276.831818	64.000000	65.000000
276.736364	276.831818	67.000000	64.000000
276.736364	276.831818	70.000000	67.000000
276.736364	276.831818	73.000000	68.000000
276.736364	276.800000	76.000000	67.000000
277.025000	277.247727	62.000000	59.000000
277.025000	277.247727	69.000000	61.000000
277.025000	277.247727	74.000000	61.000000
277.025000	277.247727	77.000000	65.000000
277.056818	277.247727	57.000000	55.000000
277.056818	277.247727	65.000000	55.000000
277.056818	277.247727	67.000000	55.000000
277.279545	277.375000	45.000000	65.000000
277.568182	278.079545	67.000000	64.000000
277.568182	278.079545	76.000000	69.000000
277.568182	278.079545	79.000000	70.000000
277.568182	278.079545	85.000000	73.000000
277.600000	278.079545	57.000000	55.000000
277.600000	278.079545	61.000000	57.000000
277.600000	278.079545	64.000000	62.000000
277.600000	277.631818	73.000000	66.000000
277.856818	278.079545	62.000000	61.000000
277.856818	278.079545	65.000000	62.000000
277.856818	278.079545	86.000000	71.000000
277.888636	278.079545	69.000000	49.000000
277.888636	278.079545	77.000000	66.000000
278.175000	278.336364	86.000000	61.000000
278.209091	278.463636	59.000000	43.000000
278.209091	278.688636	74.000000	49.000000
278.240909	278.304545	64.000000	32.000000
278.240909	278.463636	67.000000	41.000000
278.304545	278.720455	88.000000	59.000000
278.336364	278.720455	76.000000	54.000000
278.431818	278.720455	77.000000	64.000000
278.431818	278.720455	89.000000	67.000000
278.463636	278.720455	59.000000	47.000000
278.463636	278.720455	65.000000	50.000000
278.463636	278.720455	67.000000	51.000000
278.463636	278.720455	86.000000	56.000000
278.590909	278.720455	79.000000	71.000000
278.590909	278.720455	91.000000	72.000000
278.720455	278.815909	60.000000	67.000000
278.720455	278.815909	65.000000	66.000000
278.720455	278.815909	69.000000	71.000000
278.720455	278.784091	81.000000	73.000000
278.720455	278.815909	93.000000	76.000000
279.359091	279.711364	79.000000	71.000000
279.359091	279.711364	91.000000	74.000000
279.390909	279.679545	60.000000	52.000000
279.390909	279.711364	64.000000	60.000000
279.390909	279.711364	67.000000	63.000000
279.390909	279.711364	70.000000	64.000000
279.679545	279.809091	89.000000	71.000000
279.711364	279.809091	65.000000	68.000000
279.711364	279.775000	69.000000	68.000000
279.711364	279.809091	77.000000	69.000000
280.479545	280.543182	33.000000	43.000000
280.479545	280.543182	45.000000	44.000000
280.479545	280.575000	85.000000	53.000000
280.479545	280.575000	88.000000	43.000000
280.479545	280.575000	93.000000	59.000000
280.800000	280.895455	37.000000	52.000000
280.800000	280.863636	81.000000	56.000000
280.800000	280.895455	85.000000	56.000000
280.800000	280.863636	88.000000	50.000000
281.088636	281.184091	85.000000	59.000000
281.120455	281.184091	40.000000	52.000000
281.120455	281.184091	52.000000	48.000000
281.120455	281.184091	76.000000	47.000000
281.120455	281.184091	81.000000	55.000000
281.440909	281.504545	45.000000	49.000000
281.440909	281.504545	57.000000	48.000000
281.440909	281.504545	73.000000	55.000000
281.440909	281.504545	76.000000	54.000000
281.440909	281.504545	81.000000	60.000000
281.727273	281.825000	76.000000	60.000000
281.759091	281.825000	49.000000	47.000000
281.759091	281.825000	61.000000	51.000000
281.759091	281.825000	69.000000	53.000000
281.888636	281.952273	49.000000	46.000000
281.888636	281.952273	61.000000	47.000000
281.888636	281.952273	69.000000	55.000000
281.888636	281.952273	76.000000	56.000000
282.015909	282.111364	69.000000	49.000000
282.015909	282.111364	76.000000	57.000000
282.047727	282.111364	61.000000	46.000000
282.336364	282.688636	78.000000	58.000000
282.368182	282.720455	50.000000	47.000000
282.368182	282.463636	69.000000	49.000000
282.625000	282.752273	76.000000	52.000000
282.656818	282.720455	49.000000	40.000000
282.656818	282.720455	61.000000	42.000000
282.656818	282.720455	69.000000	48.000000
282.943182	283.040909	59.000000	39.000000
282.943182	283.009091	64.000000	50.000000
282.943182	283.040909	68.000000	48.000000
282.943182	283.040909	74.000000	58.000000
282.975000	283.040909	47.000000	41.000000
283.231818	283.327273	73.000000	61.000000
283.263636	283.327273	45.000000	50.000000
283.263636	283.327273	57.000000	48.000000
283.263636	283.327273	64.000000	49.000000
283.263636	283.327273	69.000000	50.000000
283.552273	283.615909	44.000000	54.000000
283.552273	283.615909	56.000000	48.000000
283.679545	283.775000	42.000000	63.000000
283.679545	283.775000	54.000000	55.000000
283.840909	283.904545	40.000000	62.000000
283.840909	283.936364	52.000000	59.000000
284.159091	284.479545	88.000000	47.000000
284.159091	284.736364	93.000000	63.000000
284.190909	284.447727	33.000000	47.000000
284.190909	284.352273	45.000000	49.000000
284.190909	284.225000	81.000000	46.000000
284.190909	284.479545	85.000000	52.000000
284.479545	284.800000	81.000000	54.000000
284.479545	284.800000	85.000000	54.000000
284.479545	284.831818	88.000000	53.000000
284.511364	284.863636	37.000000	41.000000
284.511364	284.800000	49.000000	39.000000
284.800000	284.990909	40.000000	60.000000
284.800000	284.990909	76.000000	53.000000
284.800000	284.990909	81.000000	56.000000
284.800000	284.990909	85.000000	63.000000
285.088636	285.152273	81.000000	61.000000
285.120455	285.184091	45.000000	52.000000
285.120455	285.184091	57.000000	51.000000
285.120455	285.184091	69.000000	52.000000
285.120455	285.184091	73.000000	56.000000
285.120455	285.184091	76.000000	56.000000
285.409091	285.504545	69.000000	54.000000
285.409091	285.504545	76.000000	61.000000
285.440909	285.504545	49.000000	44.000000
285.440909	285.504545	61.000000	50.000000
285.568182	285.631818	49.000000	46.000000
285.568182	285.631818	61.000000	50.000000
285.568182	285.631818	69.000000	55.000000
285.568182	285.631818	76.000000	59.000000
285.695455	285.790909	76.000000	62.000000
285.727273	285.790909	49.000000	50.000000
285.727273	285.790909	61.000000	54.000000
285.727273	285.790909	69.000000	57.000000
286.047727	286.431818	50.000000	48.000000
286.047727	286.143182	69.000000	47.000000
286.047727	286.400000	78.000000	61.000000
286.336364	286.431818	49.000000	44.000000
286.336364	286.431818	61.000000	50.000000
286.336364	286.720455	69.000000	51.000000
286.336364	286.784091	76.000000	55.000000
286.720455	286.815909	47.000000	38.000000
286.720455	286.815909	64.000000	44.000000
286.720455	286.815909	68.000000	41.000000
286.720455	286.847727	74.000000	50.000000
286.752273	286.784091	59.000000	37.000000
287.136364	287.647727	45.000000	43.000000
287.136364	287.647727	57.000000	39.000000
287.136364	287.231818	64.000000	38.000000
287.136364	287.520455	69.000000	39.000000
287.136364	287.647727	73.000000	47.000000
288.063636	288.159091	93.000000	54.000000
288.095455	288.159091	33.000000	41.000000
288.095455	288.159091	45.000000	38.000000
288.095455	288.159091	85.000000	51.000000
288.095455	288.159091	88.000000	40.000000
288.384091	288.479545	88.000000	53.000000
288.415909	288.511364	37.000000	53.000000
288.415909	288.479545	49.000000	50.000000
288.415909	288.479545	81.000000	55.000000
288.704545	288.800000	85.000000	57.000000
288.736364	288.800000	40.000000	46.000000
288.736364	288.800000	52.000000	44.000000
288.736364	288.800000	76.000000	50.000000
288.736364	288.800000	81.000000	54.000000
289.025000	289.120455	45.000000	47.000000
289.025000	289.472727	57.000000	47.000000
289.025000	289.568182	73.000000	52.000000
289.025000	289.343182	76.000000	50.000000
289.025000	289.536364	81.000000	59.000000
289.056818	289.343182	69.000000	47.000000
289.343182	289.472727	49.000000	44.000000
289.343182	289.472727	61.000000	46.000000
289.343182	289.472727	69.000000	50.000000
289.343182	289.472727	76.000000	58.000000
289.472727	289.568182	49.000000	51.000000
289.472727	289.631818	61.000000	52.000000
289.472727	289.631818	69.000000	47.000000
289.472727	289.631818	76.000000	59.000000
289.631818	289.759091	49.000000	45.000000
289.631818	289.759091	61.000000	46.000000
289.631818	289.759091	69.000000	54.000000
289.631818	289.759091	76.000000	52.000000
289.920455	290.047727	78.000000	65.000000
289.952273	290.015909	50.000000	49.000000
289.952273	290.015909	62.000000	44.000000
289.952273	290.015909	69.000000	47.000000
290.240909	290.304545	49.000000	40.000000
290.240909	290.304545	61.000000	43.000000
290.240909	290.304545	69.000000	51.000000
290.240909	290.304545	76.000000	61.000000
290.527273	290.625000	74.000000	57.000000
290.559091	290.625000	47.000000	41.000000
290.559091	290.625000	59.000000	41.000000
290.559091	290.625000	64.000000	47.000000
290.559091	290.625000	68.000000	48.000000
290.847727	290.943182	45.000000	50.000000
290.847727	290.943182	57.000000	48.000000
290.847727	290.943182	64.000000	52.000000
290.847727	290.911364	69.000000	50.000000
290.847727	290.943182	73.000000	62.000000
291.168182	291.263636	44.000000	51.000000
291.168182	291.263636	56.000000	52.000000
291.327273	291.390909	42.000000	61.000000
291.327273	291.390909	54.000000	55.000000
291.488636	291.552273	40.000000	61.000000
291.488636	291.552273	52.000000	58.000000
291.809091	291.872727	33.000000	57.000000
291.809091	291.872727	45.000000	57.000000
291.809091	291.840909	85.000000	57.000000
291.809091	291.872727	88.000000	48.000000
291.809091	291.936364	93.000000	61.000000
292.127273	292.320455	37.000000	48.000000
292.127273	292.190909	49.000000	46.000000
292.127273	292.190909	81.000000	53.000000
292.127273	292.256818	85.000000	56.000000
292.127273	292.288636	88.000000	54.000000
292.447727	292.511364	40.000000	50.000000
292.447727	292.511364	52.000000	48.000000
292.447727	292.511364	76.000000	51.000000
292.447727	292.511364	81.000000	54.000000
292.447727	292.511364	85.000000	63.000000
292.768182	292.831818	45.000000	48.000000
292.768182	292.831818	57.000000	47.000000
292.768182	292.831818	73.000000	53.000000
292.768182	292.831818	76.000000	54.000000
292.768182	292.831818	81.000000	59.000000
293.088636	293.152273	49.000000	41.000000
293.088636	293.152273	61.000000	45.000000
293.088636	293.152273	69.000000	48.000000
293.088636	293.152273	76.000000	59.000000
293.215909	293.279545	49.000000	43.000000
293.215909	293.279545	61.000000	46.000000
293.215909	293.279545	69.000000	45.000000
293.215909	293.279545	76.000000	60.000000
293.375000	293.472727	69.000000	48.000000
293.375000	293.472727	76.000000	58.000000
293.409091	293.472727	49.000000	43.000000
293.409091	293.472727	61.000000	48.000000
293.695455	294.527273	78.000000	61.000000
293.727273	294.527273	50.000000	47.000000
293.727273	294.047727	69.000000	48.000000
294.047727	294.240909	49.000000	45.000000
294.047727	294.527273	61.000000	51.000000
294.047727	294.527273	69.000000	54.000000
294.047727	294.527273	76.000000	53.000000
294.527273	294.590909	47.000000	34.000000
294.527273	294.784091	59.000000	36.000000
294.527273	294.688636	64.000000	40.000000
294.527273	295.072727	68.000000	37.000000
294.527273	295.168182	74.000000	48.000000
294.527273	295.104545	76.000000	48.000000
295.104545	295.968182	64.000000	38.000000
295.104545	295.968182	69.000000	36.000000
295.104545	295.968182	73.000000	39.000000
295.104545	295.968182	76.000000	42.000000
295.136364	295.968182	45.000000	38.000000
296.225000	296.990909	79.000000	71.000000
296.256818	296.575000	58.000000	61.000000
296.256818	296.575000	61.000000	61.000000
296.256818	296.352273	64.000000	64.000000
296.256818	296.352273	67.000000	64.000000
296.256818	296.352273	70.000000	64.000000
296.256818	296.415909	73.000000	72.000000
296.256818	296.640909	76.000000	67.000000
296.543182	296.990909	69.000000	69.000000
296.575000	296.990909	57.000000	64.000000
296.575000	296.831818	61.000000	46.000000
296.575000	296.863636	67.000000	53.000000
296.800000	296.990909	45.000000	64.000000
297.088636	297.440909	76.000000	72.000000
297.088636	297.631818	79.000000	71.000000
297.088636	297.631818	85.000000	74.000000
297.120455	297.409091	57.000000	56.000000
297.120455	297.631818	61.000000	61.000000
297.120455	297.472727	64.000000	68.000000
297.120455	297.215909	67.000000	66.000000
297.120455	297.152273	73.000000	67.000000
297.375000	297.631818	62.000000	58.000000
297.375000	297.631818	65.000000	59.000000
297.375000	297.631818	67.000000	62.000000
297.375000	297.663636	77.000000	66.000000
297.375000	297.631818	86.000000	68.000000
297.409091	297.631818	57.000000	51.000000
297.409091	297.631818	69.000000	50.000000
297.409091	297.631818	74.000000	57.000000
297.663636	297.727273	45.000000	64.000000
297.920455	298.143182	73.000000	71.000000
297.920455	298.175000	79.000000	71.000000
297.952273	298.047727	58.000000	64.000000
297.952273	298.047727	61.000000	64.000000
297.952273	298.015909	64.000000	66.000000
297.952273	298.431818	67.000000	65.000000
297.952273	298.336364	70.000000	68.000000
297.952273	298.015909	76.000000	65.000000
298.209091	298.431818	62.000000	59.000000
298.209091	298.431818	65.000000	60.000000
298.209091	298.431818	69.000000	64.000000
298.209091	298.431818	74.000000	63.000000
298.209091	298.431818	77.000000	67.000000
298.240909	298.304545	58.000000	54.000000
298.495455	298.720455	45.000000	64.000000
298.784091	299.136364	64.000000	65.000000
298.784091	299.072727	76.000000	69.000000
298.784091	299.200000	79.000000	72.000000
298.784091	299.359091	85.000000	73.000000
298.815909	299.136364	57.000000	57.000000
298.815909	299.104545	61.000000	57.000000
298.815909	299.136364	67.000000	62.000000
298.815909	298.847727	73.000000	65.000000
299.072727	299.327273	62.000000	62.000000
299.072727	299.359091	65.000000	64.000000
299.072727	299.327273	74.000000	63.000000
299.072727	299.359091	77.000000	69.000000
299.072727	299.359091	86.000000	71.000000
299.104545	299.359091	69.000000	48.000000
299.359091	299.425000	50.000000	64.000000
299.359091	299.425000	74.000000	65.000000
299.359091	299.456818	86.000000	69.000000
299.390909	299.425000	62.000000	59.000000
299.488636	299.584091	88.000000	67.000000
299.520455	299.584091	52.000000	60.000000
299.520455	299.584091	64.000000	72.000000
299.520455	299.584091	76.000000	66.000000
299.647727	299.711364	53.000000	62.000000
299.647727	299.711364	65.000000	69.000000
299.647727	299.711364	77.000000	69.000000
299.647727	299.711364	89.000000	72.000000
299.775000	299.872727	79.000000	72.000000
299.775000	299.872727	91.000000	73.000000
299.809091	299.872727	67.000000	68.000000
299.936364	300.575000	57.000000	63.000000
299.936364	300.575000	69.000000	67.000000
299.936364	300.609091	81.000000	73.000000
299.936364	300.609091	93.000000	76.000000
300.672727	300.736364	33.000000	64.000000
300.672727	300.736364	45.000000	66.000000
300.672727	300.768182	55.000000	63.000000
300.672727	300.736364	58.000000	62.000000
300.672727	301.056818	61.000000	69.000000
301.056818	301.600000	38.000000	55.000000
301.056818	301.279545	50.000000	54.000000
301.056818	301.152273	53.000000	52.000000
301.056818	301.120455	57.000000	49.000000
301.056818	301.184091	62.000000	54.000000
301.375000	301.440909	53.000000	44.000000
301.375000	301.440909	57.000000	45.000000
301.375000	301.600000	62.000000	39.000000
301.536364	301.600000	53.000000	50.000000
301.536364	301.600000	57.000000	51.000000
301.663636	301.759091	53.000000	50.000000
301.663636	301.759091	57.000000	52.000000
302.015909	302.752273	46.000000	52.000000
302.015909	302.111364	55.000000	51.000000
302.015909	302.495455	58.000000	53.000000
302.015909	302.368182	62.000000	58.000000
302.047727	302.752273	38.000000	43.000000
302.336364	302.463636	57.000000	45.000000
302.368182	302.495455	53.000000	46.000000
302.368182	302.847727	62.000000	42.000000
302.688636	302.815909	55.000000	50.000000
302.720455	302.815909	52.000000	52.000000
303.040909	303.456818	38.000000	44.000000
303.040909	303.168182	45.000000	52.000000
303.040909	303.168182	50.000000	49.000000
303.040909	303.168182	53.000000	48.000000
303.040909	303.263636	62.000000	53.000000
303.072727	303.104545	57.000000	47.000000
303.359091	303.456818	53.000000	44.000000
303.359091	303.456818	57.000000	46.000000
303.552273	303.615909	53.000000	44.000000
303.552273	303.615909	57.000000	48.000000
303.711364	303.775000	53.000000	46.000000
303.711364	303.775000	57.000000	48.000000
304.063636	304.543182	58.000000	47.000000
304.063636	305.375000	62.000000	53.000000
304.095455	304.800000	40.000000	52.000000
304.415909	304.511364	41.000000	43.000000
304.415909	304.543182	53.000000	43.000000
304.415909	304.609091	57.000000	44.000000
304.800000	305.025000	40.000000	40.000000
304.800000	304.990909	52.000000	48.000000
304.800000	304.959091	55.000000	42.000000
305.375000	306.656818	38.000000	38.000000
305.375000	306.688636	41.000000	44.000000
305.375000	306.688636	50.000000	39.000000
305.375000	306.656818	53.000000	39.000000
305.375000	306.688636	62.000000	47.000000
305.409091	306.688636	57.000000	38.000000
307.040909	308.000000	53.000000	50.000000
307.040909	307.200000	72.000000	59.000000
307.072727	307.840909	57.000000	47.000000
307.072727	307.904545	60.000000	54.000000
307.072727	307.200000	81.000000	63.000000
307.168182	307.552273	84.000000	67.000000
307.488636	308.000000	70.000000	58.000000
307.488636	308.000000	82.000000	61.000000
307.775000	308.031818	81.000000	69.000000
307.809091	308.031818	41.000000	65.000000
307.809091	308.031818	69.000000	58.000000
308.095455	308.447727	79.000000	70.000000
308.127273	308.190909	53.000000	50.000000
308.127273	308.190909	58.000000	48.000000
308.127273	308.704545	62.000000	49.000000
308.127273	308.704545	77.000000	65.000000
308.447727	308.704545	76.000000	62.000000
308.447727	308.704545	79.000000	61.000000
308.609091	308.736364	67.000000	52.000000
308.704545	308.800000	46.000000	55.000000
308.704545	308.927273	79.000000	69.000000
308.736364	308.927273	74.000000	63.000000
309.025000	309.184091	55.000000	47.000000
309.025000	309.695455	60.000000	49.000000
309.025000	309.120455	67.000000	54.000000
309.025000	309.152273	70.000000	61.000000
309.056818	309.152273	64.000000	48.000000
309.056818	309.152273	79.000000	67.000000
309.375000	309.695455	69.000000	56.000000
309.375000	309.695455	81.000000	65.000000
309.663636	309.759091	48.000000	54.000000
309.663636	310.015909	79.000000	69.000000
309.695455	310.015909	67.000000	55.000000
310.015909	310.111364	64.000000	50.000000
310.015909	310.559091	79.000000	59.000000
310.015909	310.111364	81.000000	61.000000
310.047727	310.879545	57.000000	40.000000
310.047727	310.143182	67.000000	40.000000
310.368182	310.625000	81.000000	59.000000
310.400000	310.590909	77.000000	57.000000
310.495455	310.625000	69.000000	61.000000
310.625000	310.720455	49.000000	57.000000
310.625000	310.911364	81.000000	66.000000
310.656818	310.911364	76.000000	59.000000
310.943182	311.104545	57.000000	44.000000
310.943182	311.904545	77.000000	60.000000
311.009091	311.104545	62.000000	49.000000
311.009091	311.104545	65.000000	50.000000
311.009091	311.104545	86.000000	65.000000
311.009091	311.711364	89.000000	69.000000
311.295455	311.936364	88.000000	64.000000
311.327273	311.936364	76.000000	55.000000
311.584091	311.936364	50.000000	54.000000
311.615909	311.936364	74.000000	57.000000
311.615909	311.936364	86.000000	68.000000
311.936364	312.831818	60.000000	52.000000
311.936364	312.256818	82.000000	61.000000
311.936364	312.256818	84.000000	66.000000
311.968182	312.831818	58.000000	42.000000
311.968182	312.831818	67.000000	50.000000
311.968182	312.384091	72.000000	51.000000
312.256818	312.831818	81.000000	64.000000
312.256818	312.511364	84.000000	60.000000
312.384091	312.543182	72.000000	60.000000
312.511364	312.831818	52.000000	56.000000
312.511364	312.831818	84.000000	66.000000
312.543182	312.831818	72.000000	53.000000
312.543182	312.831818	79.000000	60.000000
312.831818	313.856818	57.000000	49.000000
312.831818	313.856818	60.000000	49.000000
312.831818	312.959091	72.000000	59.000000
312.863636	312.959091	81.000000	60.000000
312.895455	313.504545	65.000000	55.000000
312.927273	313.825000	84.000000	67.000000
313.184091	313.825000	82.000000	65.000000
313.215909	313.856818	70.000000	62.000000
313.504545	313.856818	53.000000	59.000000
313.504545	313.856818	65.000000	53.000000
313.504545	313.856818	69.000000	58.000000
313.504545	313.856818	72.000000	55.000000
313.504545	313.856818	81.000000	64.000000
313.825000	314.209091	79.000000	65.000000
313.856818	314.590909	60.000000	43.000000
313.856818	314.559091	64.000000	53.000000
313.856818	314.527273	76.000000	59.000000
314.209091	314.590909	74.000000	51.000000
314.209091	314.975000	77.000000	55.000000
314.209091	314.527273	79.000000	57.000000
314.368182	314.590909	67.000000	46.000000
314.527273	314.847727	48.000000	56.000000
314.527273	314.590909	76.000000	56.000000
314.527273	314.975000	79.000000	65.000000
314.847727	315.009091	53.000000	47.000000
314.879545	315.009091	57.000000	49.000000
314.879545	314.975000	69.000000	51.000000
314.879545	315.009091	72.000000	57.000000
314.911364	315.679545	60.000000	55.000000
314.911364	315.009091	81.000000	60.000000
314.943182	315.040909	84.000000	66.000000
315.295455	315.904545	70.000000	59.000000
315.295455	315.711364	82.000000	59.000000
315.584091	315.904545	41.000000	61.000000
315.584091	315.904545	69.000000	60.000000
315.584091	315.936364	81.000000	68.000000
315.904545	316.320455	79.000000	69.000000
315.936364	316.768182	53.000000	49.000000
315.936364	316.768182	62.000000	46.000000
315.936364	316.768182	77.000000	58.000000
315.968182	316.768182	58.000000	41.000000
315.968182	316.352273	74.000000	48.000000
316.320455	316.768182	76.000000	60.000000
316.320455	316.575000	79.000000	60.000000
316.447727	316.800000	67.000000	51.000000
316.543182	316.768182	46.000000	55.000000
316.575000	316.800000	74.000000	61.000000
316.575000	316.800000	79.000000	69.000000
316.831818	317.568182	70.000000	65.000000
316.863636	317.568182	60.000000	51.000000
316.895455	317.568182	64.000000	51.000000
316.895455	316.959091	79.000000	64.000000
316.927273	317.536364	82.000000	66.000000
317.215909	317.568182	81.000000	62.000000
317.247727	317.536364	69.000000	54.000000
317.536364	317.856818	48.000000	54.000000
317.536364	317.856818	67.000000	56.000000
317.536364	317.856818	79.000000	67.000000
317.856818	318.495455	79.000000	70.000000
317.856818	318.209091	81.000000	65.000000
317.888636	317.952273	64.000000	53.000000
317.888636	318.527273	67.000000	54.000000
317.888636	317.952273	69.000000	51.000000
317.920455	318.209091	57.000000	44.000000
318.209091	318.847727	57.000000	40.000000
318.209091	318.495455	81.000000	59.000000
318.240909	318.527273	77.000000	58.000000
318.336364	318.495455	69.000000	56.000000
318.463636	318.815909	49.000000	56.000000
318.495455	318.815909	69.000000	53.000000
318.495455	318.847727	76.000000	58.000000
318.495455	318.847727	81.000000	64.000000
318.815909	319.936364	77.000000	57.000000
318.847727	318.975000	57.000000	44.000000
318.847727	318.943182	74.000000	49.000000
318.879545	319.168182	62.000000	46.000000
318.879545	318.975000	65.000000	46.000000
318.879545	318.975000	86.000000	60.000000
318.911364	319.904545	89.000000	65.000000
319.263636	319.936364	76.000000	57.000000
319.263636	319.936364	88.000000	64.000000
319.552273	319.936364	50.000000	54.000000
319.552273	319.936364	74.000000	62.000000
319.552273	319.936364	86.000000	70.000000
319.584091	319.936364	62.000000	51.000000
319.904545	321.088636	60.000000	52.000000
319.904545	320.415909	72.000000	51.000000
319.904545	320.256818	84.000000	66.000000
319.936364	321.056818	58.000000	43.000000
319.936364	321.056818	67.000000	50.000000
320.256818	320.672727	81.000000	62.000000
320.256818	320.575000	84.000000	59.000000
320.415909	320.609091	72.000000	54.000000
320.575000	321.056818	52.000000	58.000000
320.575000	321.056818	84.000000	65.000000
320.609091	320.800000	72.000000	52.000000
320.609091	321.056818	79.000000	61.000000
320.959091	321.088636	72.000000	57.000000
321.025000	321.536364	53.000000	48.000000
321.025000	321.120455	81.000000	60.000000
321.056818	321.504545	57.000000	49.000000
321.056818	321.088636	65.000000	42.000000
321.056818	321.536364	84.000000	67.000000
321.088636	321.600000	60.000000	54.000000
321.088636	321.504545	72.000000	55.000000
321.504545	322.047727	57.000000	55.000000
321.504545	322.079545	65.000000	63.000000
321.504545	322.015909	72.000000	59.000000
321.504545	322.047727	77.000000	70.000000
322.015909	322.688636	53.000000	51.000000
322.015909	322.720455	60.000000	59.000000
322.015909	322.656818	72.000000	65.000000
322.015909	322.720455	79.000000	73.000000
322.656818	323.456818	72.000000	69.000000
322.656818	323.456818	81.000000	70.000000
322.688636	323.456818	65.000000	65.000000
322.688636	323.456818	69.000000	69.000000
322.688636	323.456818	77.000000	67.000000
323.872727	324.256818	61.000000	64.000000
323.872727	324.256818	64.000000	67.000000
323.872727	324.288636	67.000000	67.000000
323.872727	323.968182	70.000000	67.000000
323.872727	324.704545	79.000000	71.000000
323.904545	324.256818	58.000000	64.000000
323.904545	324.704545	73.000000	68.000000
323.904545	323.968182	76.000000	68.000000
324.190909	324.288636	57.000000	61.000000
324.190909	324.704545	69.000000	67.000000
324.447727	324.704545	45.000000	65.000000
324.768182	324.863636	57.000000	59.000000
324.768182	324.863636	61.000000	57.000000
324.768182	324.863636	64.000000	66.000000
324.768182	324.863636	67.000000	62.000000
324.768182	324.863636	76.000000	71.000000
324.768182	325.215909	79.000000	68.000000
324.768182	324.990909	85.000000	73.000000
324.800000	324.831818	73.000000	63.000000
325.056818	325.152273	62.000000	56.000000
325.056818	325.120455	65.000000	58.000000
325.056818	325.152273	74.000000	60.000000
325.056818	325.152273	77.000000	65.000000
325.056818	325.184091	86.000000	70.000000
325.311364	325.536364	45.000000	64.000000
325.568182	325.663636	58.000000	63.000000
325.568182	325.663636	61.000000	63.000000
325.568182	325.663636	64.000000	66.000000
325.568182	325.663636	67.000000	66.000000
325.568182	325.663636	70.000000	69.000000
325.568182	325.663636	73.000000	65.000000
325.568182	325.663636	79.000000	71.000000
325.600000	325.631818	76.000000	65.000000
325.856818	326.047727	57.000000	61.000000
325.856818	326.047727	62.000000	60.000000
325.856818	326.047727	65.000000	57.000000
325.856818	326.047727	69.000000	62.000000
325.856818	326.047727	74.000000	64.000000
325.856818	326.047727	77.000000	66.000000
325.888636	325.920455	64.000000	52.000000
326.111364	326.368182	45.000000	65.000000
326.400000	326.495455	61.000000	62.000000
326.400000	326.495455	64.000000	66.000000
326.400000	326.495455	67.000000	65.000000
326.400000	326.495455	76.000000	70.000000
326.400000	326.943182	79.000000	70.000000
326.400000	326.720455	85.000000	73.000000
326.431818	326.943182	57.000000	58.000000
326.431818	326.463636	73.000000	67.000000
326.656818	326.975000	86.000000	71.000000
326.688636	326.943182	62.000000	59.000000
326.688636	326.943182	65.000000	61.000000
326.688636	326.752273	74.000000	59.000000
326.688636	326.975000	77.000000	66.000000
326.975000	327.040909	50.000000	63.000000
326.975000	327.040909	62.000000	62.000000
326.975000	327.040909	74.000000	63.000000
326.975000	327.072727	86.000000	71.000000
327.104545	327.200000	52.000000	64.000000
327.104545	327.231818	88.000000	66.000000
327.136364	327.200000	64.000000	70.000000
327.263636	327.327273	53.000000	62.000000
327.263636	327.327273	65.000000	68.000000
327.263636	327.327273	77.000000	67.000000
327.263636	327.327273	89.000000	69.000000
327.390909	327.488636	91.000000	71.000000
327.425000	327.456818	55.000000	56.000000
327.425000	327.488636	67.000000	64.000000
327.552273	328.352273	57.000000	68.000000
327.552273	328.352273	69.000000	72.000000
327.552273	328.352273	81.000000	74.000000
327.552273	328.352273	93.000000	76.000000
328.511364	328.609091	33.000000	68.000000
328.511364	328.609091	45.000000	71.000000
328.511364	328.575000	58.000000	67.000000
328.511364	328.609091	61.000000	69.000000
328.959091	329.631818	38.000000	69.000000
328.959091	329.631818	50.000000	69.000000
328.959091	329.247727	62.000000	67.000000
331.743182	333.631818	53.000000	35.000000
331.809091	333.952273	56.000000	34.000000
331.936364	333.727273	60.000000	40.000000
332.031818	333.952273	65.000000	45.000000
332.352273	333.952273	67.000000	47.000000
332.672727	333.920455	68.000000	51.000000
332.927273	333.952273	70.000000	52.000000
333.215909	333.888636	72.000000	56.000000
333.504545	333.952273	73.000000	58.000000
333.631818	333.952273	53.000000	44.000000
333.727273	335.775000	60.000000	48.000000
333.888636	335.840909	72.000000	56.000000
333.920455	335.809091	68.000000	46.000000
334.495455	335.840909	77.000000	53.000000
335.104545	335.840909	80.000000	57.000000
335.743182	336.895455	79.000000	59.000000
335.775000	337.790909	58.000000	33.000000
335.775000	337.790909	60.000000	36.000000
335.775000	337.790909	64.000000	39.000000
336.063636	337.440909	72.000000	57.000000
336.384091	337.825000	84.000000	59.000000
336.704545	337.790909	82.000000	60.000000
337.025000	337.759091	80.000000	61.000000
337.311364	337.790909	79.000000	62.000000
337.440909	340.031818	53.000000	37.000000
337.504545	341.952273	56.000000	45.000000
337.600000	340.063636	61.000000	48.000000
337.759091	340.063636	80.000000	65.000000
337.790909	340.000000	65.000000	49.000000
338.495455	340.063636	79.000000	54.000000
339.136364	340.000000	77.000000	52.000000
340.000000	341.825000	60.000000	33.000000
340.000000	341.984091	65.000000	35.000000
340.000000	341.984091	77.000000	50.000000
340.031818	341.952273	68.000000	33.000000
340.288636	340.927273	79.000000	52.000000
340.609091	341.984091	80.000000	57.000000
340.895455	341.984091	82.000000	52.000000
341.247727	341.952273	84.000000	55.000000
341.568182	341.984091	85.000000	58.000000
341.695455	341.984091	53.000000	42.000000
341.825000	344.000000	60.000000	47.000000
341.952273	344.031818	84.000000	60.000000
342.015909	342.625000	68.000000	39.000000
342.590909	344.063636	89.000000	53.000000
342.625000	344.063636	68.000000	36.000000
342.625000	342.656818	80.000000	39.000000
343.263636	344.031818	92.000000	61.000000
343.968182	346.463636	64.000000	44.000000
343.968182	344.063636	91.000000	59.000000
344.000000	346.463636	58.000000	37.000000
344.000000	346.463636	60.000000	31.000000
344.320455	346.463636	84.000000	54.000000
344.704545	346.463636	96.000000	55.000000
345.056818	346.431818	94.000000	53.000000
345.472727	346.400000	92.000000	56.000000
345.920455	346.463636	91.000000	53.000000
346.047727	348.415909	53.000000	44.000000
346.209091	348.575000	59.000000	41.000000
346.304545	348.609091	62.000000	39.000000
346.368182	346.495455	89.000000	54.000000
346.400000	348.640909	68.000000	51.000000
348.415909	350.240909	53.000000	38.000000
348.479545	350.559091	56.000000	36.000000
348.640909	350.368182	60.000000	34.000000
348.640909	350.559091	65.000000	45.000000
348.959091	350.559091	67.000000	38.000000
349.279545	350.559091	68.000000	50.000000
349.568182	350.559091	70.000000	52.000000
349.856818	350.527273	72.000000	50.000000
350.143182	350.559091	73.000000	57.000000
350.240909	350.559091	53.000000	38.000000
350.368182	352.479545	60.000000	51.000000
350.527273	352.543182	72.000000	51.000000
350.559091	352.511364	68.000000	46.000000
351.200000	352.543182	77.000000	52.000000
351.809091	352.575000	80.000000	56.000000
352.447727	353.056818	79.000000	61.000000
352.479545	354.431818	58.000000	36.000000
352.479545	354.431818	60.000000	38.000000
352.479545	354.143182	64.000000	42.000000
352.768182	354.047727	72.000000	52.000000
353.056818	354.431818	84.000000	54.000000
353.375000	354.431818	82.000000	56.000000
353.695455	354.368182	80.000000	57.000000
353.984091	354.431818	79.000000	57.000000
354.015909	356.640909	53.000000	38.000000
354.111364	358.625000	56.000000	40.000000
354.175000	356.704545	61.000000	46.000000
354.368182	358.688636	65.000000	54.000000
354.368182	356.736364	80.000000	62.000000
355.040909	356.704545	79.000000	54.000000
355.711364	356.640909	77.000000	49.000000
356.640909	358.431818	60.000000	38.000000
356.640909	358.656818	77.000000	53.000000
356.959091	358.656818	79.000000	52.000000
357.279545	358.625000	80.000000	54.000000
357.568182	358.656818	82.000000	50.000000
357.888636	358.590909	84.000000	54.000000
358.209091	358.911364	85.000000	59.000000
358.304545	358.625000	53.000000	38.000000
358.431818	360.863636	60.000000	50.000000
358.590909	360.895455	84.000000	61.000000
358.625000	360.927273	68.000000	46.000000
359.295455	360.927273	89.000000	56.000000
359.327273	360.895455	80.000000	42.000000
360.031818	360.895455	92.000000	61.000000
360.831818	360.927273	91.000000	60.000000
360.863636	364.095455	58.000000	36.000000
360.863636	364.095455	60.000000	34.000000
360.863636	364.095455	64.000000	43.000000
361.247727	363.936364	84.000000	57.000000
361.663636	364.127273	96.000000	58.000000
362.143182	362.209091	94.000000	55.000000
362.625000	364.000000	92.000000	59.000000
363.295455	363.968182	91.000000	51.000000
363.615909	367.295455	53.000000	35.000000
363.743182	367.263636	59.000000	41.000000
363.840909	367.263636	62.000000	44.000000
363.968182	367.231818	89.000000	58.000000
364.000000	367.390909	68.000000	52.000000
367.168182	369.152273	44.000000	51.000000
367.200000	369.152273	72.000000	60.000000
367.711364	368.320455	60.000000	47.000000
367.743182	368.863636	51.000000	37.000000
368.000000	368.831818	63.000000	51.000000
368.063636	368.640909	68.000000	39.000000
368.288636	369.152273	77.000000	59.000000
368.320455	369.152273	60.000000	42.000000
368.609091	369.152273	75.000000	59.000000
368.640909	369.152273	68.000000	42.000000
368.831818	369.152273	63.000000	53.000000
368.863636	369.152273	51.000000	42.000000
369.120455	369.536364	46.000000	47.000000
369.120455	369.984091	73.000000	67.000000
369.375000	369.952273	61.000000	59.000000
369.409091	369.984091	51.000000	42.000000
369.631818	369.984091	63.000000	56.000000
369.663636	369.984091	55.000000	41.000000
369.952273	370.815909	61.000000	50.000000
369.952273	370.847727	77.000000	64.000000
370.272727	370.847727	55.000000	40.000000
370.272727	370.784091	75.000000	63.000000
370.495455	370.815909	63.000000	60.000000
370.527273	370.815909	51.000000	45.000000
370.784091	372.479545	48.000000	52.000000
370.784091	372.479545	75.000000	70.000000
371.040909	371.584091	63.000000	58.000000
371.072727	372.127273	51.000000	45.000000
371.295455	371.936364	68.000000	58.000000
371.327273	372.479545	56.000000	42.000000
371.327273	372.447727	60.000000	40.000000
371.584091	371.936364	63.000000	56.000000
371.584091	372.479545	82.000000	66.000000
371.904545	372.479545	80.000000	66.000000
371.936364	372.479545	63.000000	40.000000
371.936364	372.159091	68.000000	54.000000
372.127273	372.479545	51.000000	41.000000
372.159091	372.479545	68.000000	58.000000
372.447727	373.409091	49.000000	53.000000
372.447727	373.311364	77.000000	64.000000
372.704545	373.247727	65.000000	57.000000
372.736364	373.247727	68.000000	45.000000
372.959091	373.311364	58.000000	46.000000
372.959091	373.311364	70.000000	60.000000
373.215909	374.111364	79.000000	68.000000
373.247727	373.790909	65.000000	50.000000
373.504545	374.111364	77.000000	61.000000
373.568182	374.111364	58.000000	39.000000
373.790909	374.143182	56.000000	50.000000
373.790909	374.111364	65.000000	50.000000
374.079545	375.711364	51.000000	50.000000
374.079545	375.168182	75.000000	66.000000
374.368182	374.911364	63.000000	51.000000
374.625000	375.390909	68.000000	52.000000
374.656818	375.200000	60.000000	43.000000
374.879545	375.711364	77.000000	61.000000
374.911364	375.390909	63.000000	48.000000
375.168182	375.743182	75.000000	60.000000
375.200000	375.711364	60.000000	39.000000
375.390909	375.711364	56.000000	42.000000
375.390909	375.711364	63.000000	51.000000
375.390909	375.743182	68.000000	44.000000
375.679545	377.409091	39.000000	56.000000
375.679545	376.609091	73.000000	66.000000
375.968182	376.609091	61.000000	58.000000
376.225000	376.609091	63.000000	59.000000
376.511364	377.409091	75.000000	66.000000
376.543182	377.409091	55.000000	38.000000
376.831818	377.409091	73.000000	59.000000
376.863636	377.440909	51.000000	41.000000
377.088636	377.409091	46.000000	45.000000
377.088636	377.409091	61.000000	53.000000
377.375000	378.527273	44.000000	57.000000
377.375000	378.240909	72.000000	61.000000
377.631818	378.752273	60.000000	50.000000
377.663636	378.272727	51.000000	42.000000
377.920455	378.527273	63.000000	49.000000
377.952273	378.272727	68.000000	40.000000
378.175000	379.104545	73.000000	60.000000
378.463636	379.104545	72.000000	54.000000
378.495455	379.104545	68.000000	41.000000
378.527273	379.072727	44.000000	39.000000
378.527273	379.104545	63.000000	36.000000
378.752273	379.104545	51.000000	39.000000
378.752273	379.104545	60.000000	48.000000
379.040909	380.000000	70.000000	58.000000
379.072727	380.990909	39.000000	46.000000
379.327273	380.000000	61.000000	52.000000
379.615909	380.000000	63.000000	52.000000
379.936364	380.927273	72.000000	56.000000
379.968182	381.025000	55.000000	35.000000
380.288636	380.990909	70.000000	51.000000
380.320455	381.025000	51.000000	37.000000
380.575000	380.990909	46.000000	39.000000
380.575000	380.990909	61.000000	49.000000
380.927273	382.688636	72.000000	62.000000
380.959091	382.688636	44.000000	53.000000
381.247727	381.825000	60.000000	53.000000
381.279545	382.336364	51.000000	45.000000
381.504545	382.368182	63.000000	53.000000
381.568182	382.111364	68.000000	41.000000
381.825000	382.688636	60.000000	44.000000
381.825000	382.688636	77.000000	60.000000
382.111364	382.688636	68.000000	45.000000
382.111364	382.720455	75.000000	61.000000
382.336364	382.688636	51.000000	46.000000
382.368182	382.688636	63.000000	59.000000
382.625000	384.384091	47.000000	57.000000
382.656818	384.384091	74.000000	64.000000
382.911364	383.904545	53.000000	50.000000
382.911364	383.872727	65.000000	58.000000
383.168182	383.809091	68.000000	64.000000
383.200000	383.904545	56.000000	57.000000
383.488636	384.384091	62.000000	51.000000
383.488636	384.384091	82.000000	69.000000
383.775000	384.415909	80.000000	68.000000
383.809091	384.063636	68.000000	55.000000
384.063636	384.384091	53.000000	48.000000
384.063636	384.384091	68.000000	61.000000
384.352273	386.143182	48.000000	60.000000
384.352273	385.215909	72.000000	56.000000
384.352273	385.504545	75.000000	66.000000
384.640909	385.215909	63.000000	61.000000
384.672727	385.825000	51.000000	46.000000
384.927273	385.504545	68.000000	56.000000
384.959091	386.143182	56.000000	51.000000
385.215909	385.790909	63.000000	53.000000
385.215909	386.143182	77.000000	62.000000
385.504545	386.143182	68.000000	45.000000
385.504545	386.143182	75.000000	65.000000
385.790909	386.143182	63.000000	61.000000
385.825000	386.143182	51.000000	47.000000
386.111364	387.904545	49.000000	54.000000
386.111364	386.688636	70.000000	55.000000
386.111364	387.040909	73.000000	67.000000
386.400000	386.975000	65.000000	59.000000
386.688636	387.040909	58.000000	44.000000
386.688636	387.072727	70.000000	53.000000
386.975000	387.552273	65.000000	44.000000
386.975000	387.904545	75.000000	63.000000
387.295455	387.904545	73.000000	58.000000
387.327273	387.904545	58.000000	40.000000
387.552273	387.904545	65.000000	50.000000
387.584091	387.936364	56.000000	45.000000
387.584091	387.904545	68.000000	46.000000
387.872727	388.800000	72.000000	60.000000
387.904545	389.790909	51.000000	50.000000
387.904545	387.968182	63.000000	47.000000
387.904545	388.415909	68.000000	47.000000
388.159091	388.768182	63.000000	52.000000
388.415909	388.831818	68.000000	56.000000
388.447727	388.831818	60.000000	44.000000
388.736364	389.790909	77.000000	59.000000
388.768182	389.409091	63.000000	41.000000
389.120455	389.825000	75.000000	59.000000
389.152273	389.790909	60.000000	38.000000
389.409091	389.759091	63.000000	55.000000
389.440909	389.790909	56.000000	40.000000
389.440909	389.790909	68.000000	42.000000
389.727273	390.400000	39.000000	53.000000
389.727273	390.879545	70.000000	64.000000
389.759091	390.015909	63.000000	49.000000
390.047727	390.879545	61.000000	56.000000
390.079545	390.431818	46.000000	42.000000
390.368182	390.847727	63.000000	54.000000
390.400000	390.911364	39.000000	38.000000
390.431818	390.847727	51.000000	40.000000
390.784091	392.095455	55.000000	42.000000
390.784091	392.127273	77.000000	60.000000
391.263636	392.095455	51.000000	39.000000
391.263636	392.127273	75.000000	59.000000
391.647727	392.127273	46.000000	42.000000
391.647727	392.127273	67.000000	55.000000
391.679545	391.711364	58.000000	40.000000
392.031818	398.400000	44.000000	50.000000
392.031818	392.831818	68.000000	56.000000
392.063636	392.225000	63.000000	45.000000
392.447727	393.247727	60.000000	48.000000
392.479545	398.400000	51.000000	40.000000
392.831818	393.825000	63.000000	46.000000
392.831818	394.590909	68.000000	38.000000
393.215909	398.400000	77.000000	56.000000
393.247727	398.400000	60.000000	41.000000
393.790909	398.400000	75.000000	55.000000
393.825000	398.400000	63.000000	46.000000
394.590909	398.400000	68.000000	50.000000
395.647727	398.400000	72.000000	49.000000
399.743182	399.872727	49.000000	63.000000
399.743182	399.809091	61.000000	68.000000
399.743182	399.872727	73.000000	71.000000
399.743182	399.872727	76.000000	67.000000
399.743182	400.031818	80.000000	67.000000
399.743182	399.809091	85.000000	71.000000
399.872727	400.288636	49.000000	62.000000
399.872727	400.031818	61.000000	65.000000
399.872727	400.031818	73.000000	67.000000
399.872727	400.031818	76.000000	61.000000
400.031818	400.288636	61.000000	65.000000
400.031818	400.288636	73.000000	64.000000
400.031818	400.288636	76.000000	57.000000
400.031818	400.288636	80.000000	64.000000
400.352273	400.990909	52.000000	65.000000
400.352273	400.672727	73.000000	69.000000
400.352273	400.736364	80.000000	64.000000
400.384091	400.736364	64.000000	60.000000
400.672727	401.025000	54.000000	61.000000
400.672727	401.056818	66.000000	63.000000
400.672727	400.800000	69.000000	57.000000
400.672727	400.990909	73.000000	65.000000
400.672727	401.056818	81.000000	64.000000
400.990909	401.375000	52.000000	62.000000
400.990909	401.375000	64.000000	58.000000
400.990909	401.568182	68.000000	62.000000
400.990909	401.311364	73.000000	59.000000
400.990909	401.375000	80.000000	64.000000
401.311364	401.568182	51.000000	56.000000
401.311364	401.568182	63.000000	60.000000
401.311364	401.568182	66.000000	58.000000
401.311364	401.568182	73.000000	57.000000
401.311364	401.568182	78.000000	66.000000
401.631818	401.695455	61.000000	68.000000
401.631818	401.695455	73.000000	69.000000
401.631818	401.790909	76.000000	63.000000
401.631818	401.920455	80.000000	63.000000
401.631818	401.759091	85.000000	69.000000
401.663636	401.920455	49.000000	59.000000
401.759091	401.920455	85.000000	69.000000
401.790909	401.920455	61.000000	65.000000
401.790909	402.209091	68.000000	53.000000
401.790909	401.920455	73.000000	62.000000
401.790909	401.920455	76.000000	60.000000
401.920455	402.209091	49.000000	58.000000
401.920455	402.209091	61.000000	61.000000
401.920455	402.209091	73.000000	62.000000
401.920455	402.209091	76.000000	62.000000
401.920455	402.209091	80.000000	59.000000
401.920455	402.209091	85.000000	65.000000
402.240909	402.879545	52.000000	62.000000
402.240909	402.625000	64.000000	57.000000
402.240909	402.559091	73.000000	69.000000
402.240909	402.625000	80.000000	66.000000
402.272727	402.625000	68.000000	54.000000
402.559091	402.911364	54.000000	55.000000
402.559091	402.911364	66.000000	57.000000
402.559091	402.911364	69.000000	55.000000
402.559091	402.847727	73.000000	63.000000
402.559091	402.879545	81.000000	60.000000
402.847727	403.231818	68.000000	64.000000
402.847727	403.168182	73.000000	66.000000
402.847727	403.200000	80.000000	67.000000
402.879545	403.200000	52.000000	60.000000
402.879545	403.168182	64.000000	58.000000
403.168182	403.425000	51.000000	58.000000
403.168182	403.456818	63.000000	61.000000
403.168182	403.456818	66.000000	60.000000
403.168182	403.456818	73.000000	62.000000
403.168182	403.456818	78.000000	70.000000
403.456818	403.552273	49.000000	53.000000
403.456818	403.520455	61.000000	60.000000
403.456818	403.520455	64.000000	68.000000
403.456818	403.520455	73.000000	66.000000
403.456818	403.520455	76.000000	66.000000
403.584091	403.679545	64.000000	52.000000
403.584091	403.679545	73.000000	65.000000
403.584091	403.679545	76.000000	55.000000
403.711364	403.809091	76.000000	65.000000
403.743182	403.809091	37.000000	62.000000
403.743182	403.809091	49.000000	61.000000
403.743182	403.775000	61.000000	54.000000
403.743182	404.031818	64.000000	55.000000
403.743182	403.809091	68.000000	61.000000
404.031818	404.288636	68.000000	53.000000
404.031818	404.288636	74.000000	65.000000
404.063636	404.288636	47.000000	52.000000
404.063636	404.256818	59.000000	54.000000
404.063636	404.127273	62.000000	52.000000
404.320455	404.384091	45.000000	55.000000
404.320455	404.384091	57.000000	57.000000
404.320455	404.384091	61.000000	59.000000
404.320455	404.384091	69.000000	57.000000
404.320455	404.384091	73.000000	66.000000
404.447727	404.543182	61.000000	60.000000
404.447727	404.511364	64.000000	59.000000
404.447727	404.543182	73.000000	67.000000
404.609091	404.672727	33.000000	57.000000
404.609091	404.831818	73.000000	62.000000
404.863636	405.088636	59.000000	47.000000
404.863636	404.927273	65.000000	52.000000
404.863636	405.088636	71.000000	59.000000
404.895455	405.120455	44.000000	49.000000
404.895455	404.927273	56.000000	49.000000
404.895455	404.927273	68.000000	49.000000
405.120455	405.184091	69.000000	63.000000
405.152273	405.215909	42.000000	57.000000
405.152273	405.215909	57.000000	55.000000
405.152273	405.215909	61.000000	52.000000
405.279545	405.343182	61.000000	57.000000
405.279545	405.343182	63.000000	54.000000
405.279545	405.375000	69.000000	59.000000
405.440909	405.695455	30.000000	61.000000
405.440909	405.472727	42.000000	61.000000
405.440909	405.504545	61.000000	57.000000
405.440909	405.536364	63.000000	54.000000
405.440909	405.727273	69.000000	60.000000
405.695455	405.984091	31.000000	66.000000
405.695455	405.984091	43.000000	64.000000
405.695455	405.790909	58.000000	61.000000
405.695455	405.790909	61.000000	64.000000
405.695455	405.790909	63.000000	51.000000
405.695455	405.790909	70.000000	67.000000
405.984091	406.079545	44.000000	63.000000
405.984091	406.047727	56.000000	62.000000
405.984091	406.079545	60.000000	60.000000
405.984091	406.079545	63.000000	56.000000
405.984091	406.079545	68.000000	61.000000
406.015909	406.079545	32.000000	63.000000
406.143182	406.209091	44.000000	55.000000
406.143182	406.209091	56.000000	59.000000
406.143182	406.209091	60.000000	55.000000
406.143182	406.209091	63.000000	57.000000
406.143182	406.272727	68.000000	62.000000
406.272727	406.336364	32.000000	61.000000
406.272727	406.336364	44.000000	66.000000
406.272727	406.336364	56.000000	66.000000
406.272727	406.336364	68.000000	63.000000
406.559091	406.656818	32.000000	63.000000
406.559091	406.625000	44.000000	69.000000
406.559091	406.590909	56.000000	67.000000
406.559091	406.625000	60.000000	67.000000
406.559091	406.625000	63.000000	60.000000
406.559091	406.625000	68.000000	65.000000
406.911364	407.072727	49.000000	59.000000
406.911364	406.975000	61.000000	66.000000
406.911364	406.975000	73.000000	64.000000
406.911364	407.072727	76.000000	60.000000
406.911364	407.072727	80.000000	64.000000
406.911364	407.040909	85.000000	68.000000
407.040909	407.200000	61.000000	66.000000
407.040909	407.200000	73.000000	67.000000
407.040909	407.200000	85.000000	68.000000
407.072727	407.200000	49.000000	58.000000
407.072727	407.200000	76.000000	61.000000
407.072727	407.200000	80.000000	59.000000
407.200000	407.520455	49.000000	59.000000
407.200000	407.520455	61.000000	65.000000
407.200000	407.552273	73.000000	64.000000
407.200000	407.520455	76.000000	61.000000
407.200000	407.520455	80.000000	61.000000
407.200000	407.552273	85.000000	67.000000
407.520455	407.904545	80.000000	67.000000
407.552273	408.159091	52.000000	62.000000
407.552273	408.447727	61.000000	58.000000
407.552273	407.615909	64.000000	59.000000
407.552273	407.872727	68.000000	59.000000
407.552273	407.809091	73.000000	63.000000
407.809091	408.127273	73.000000	68.000000
407.809091	407.904545	81.000000	65.000000
407.840909	408.159091	54.000000	58.000000
407.840909	407.936364	66.000000	60.000000
407.840909	407.936364	69.000000	59.000000
408.127273	408.447727	73.000000	59.000000
408.127273	408.511364	80.000000	64.000000
408.159091	408.575000	52.000000	58.000000
408.159091	408.511364	64.000000	53.000000
408.159091	408.543182	68.000000	58.000000
408.415909	408.704545	78.000000	71.000000
408.447727	408.672727	51.000000	57.000000
408.447727	408.704545	63.000000	59.000000
408.447727	408.704545	66.000000	64.000000
408.447727	408.704545	73.000000	61.000000
408.736364	408.895455	49.000000	59.000000
408.736364	408.895455	61.000000	69.000000
408.736364	408.831818	73.000000	70.000000
408.736364	408.895455	76.000000	63.000000
408.736364	408.895455	80.000000	61.000000
408.736364	408.863636	85.000000	70.000000
408.863636	408.990909	85.000000	68.000000
408.895455	409.025000	49.000000	56.000000
408.895455	409.025000	61.000000	65.000000
408.895455	408.990909	73.000000	65.000000
408.895455	409.025000	76.000000	61.000000
408.895455	409.025000	80.000000	62.000000
408.990909	409.279545	73.000000	68.000000
408.990909	409.279545	85.000000	69.000000
409.025000	409.279545	49.000000	56.000000
409.025000	409.279545	61.000000	65.000000
409.025000	409.279545	76.000000	56.000000
409.025000	409.279545	80.000000	59.000000
409.279545	409.727273	52.000000	64.000000
409.279545	409.600000	73.000000	66.000000
409.279545	409.695455	80.000000	67.000000
409.311364	409.663636	64.000000	59.000000
409.311364	409.695455	68.000000	61.000000
409.600000	409.727273	66.000000	62.000000
409.600000	409.695455	73.000000	65.000000
409.600000	409.695455	81.000000	60.000000
409.631818	409.695455	54.000000	54.000000
409.920455	410.304545	52.000000	60.000000
409.920455	410.304545	64.000000	58.000000
409.920455	410.304545	68.000000	59.000000
409.920455	410.240909	73.000000	64.000000
409.920455	410.272727	80.000000	64.000000
410.240909	410.527273	51.000000	58.000000
410.240909	410.527273	63.000000	61.000000
410.240909	410.527273	66.000000	63.000000
410.240909	410.527273	73.000000	62.000000
410.240909	410.527273	78.000000	70.000000
410.559091	410.656818	49.000000	55.000000
410.559091	410.625000	61.000000	57.000000
410.559091	410.625000	64.000000	63.000000
410.559091	410.625000	73.000000	68.000000
410.559091	410.625000	76.000000	68.000000
410.688636	410.784091	64.000000	60.000000
410.688636	410.784091	76.000000	64.000000
410.720455	410.784091	68.000000	54.000000
410.847727	410.911364	37.000000	66.000000
410.847727	410.911364	49.000000	62.000000
410.847727	411.104545	64.000000	51.000000
410.847727	411.104545	68.000000	58.000000
410.847727	410.911364	76.000000	63.000000
411.136364	411.359091	47.000000	51.000000
411.136364	411.200000	62.000000	54.000000
411.136364	411.231818	68.000000	60.000000
411.136364	411.200000	74.000000	63.000000
411.168182	411.200000	59.000000	51.000000
411.390909	411.488636	73.000000	66.000000
411.425000	411.488636	45.000000	52.000000
411.425000	411.456818	57.000000	53.000000
411.425000	411.488636	61.000000	55.000000
411.425000	411.456818	69.000000	57.000000
411.552273	411.679545	61.000000	51.000000
411.552273	411.711364	64.000000	57.000000
411.552273	411.679545	73.000000	64.000000
411.679545	411.775000	61.000000	52.000000
411.679545	411.775000	73.000000	63.000000
411.711364	411.775000	33.000000	55.000000
411.711364	411.775000	45.000000	53.000000
411.711364	411.743182	64.000000	50.000000
411.968182	412.031818	44.000000	50.000000
411.968182	412.063636	59.000000	50.000000
411.968182	412.031818	65.000000	54.000000
411.968182	412.063636	71.000000	59.000000
412.256818	412.479545	42.000000	58.000000
412.256818	412.352273	63.000000	61.000000
412.256818	412.320455	69.000000	60.000000
412.288636	412.320455	61.000000	47.000000
412.415909	412.479545	61.000000	60.000000
412.415909	412.511364	69.000000	54.000000
412.543182	412.831818	30.000000	59.000000
412.543182	412.800000	42.000000	59.000000
412.543182	412.831818	61.000000	59.000000
412.543182	412.831818	63.000000	45.000000
412.543182	412.800000	69.000000	58.000000
412.831818	413.152273	31.000000	67.000000
412.831818	413.152273	43.000000	67.000000
412.831818	412.895455	58.000000	63.000000
412.831818	412.895455	61.000000	63.000000
412.831818	412.927273	63.000000	59.000000
412.831818	412.927273	70.000000	66.000000
413.152273	413.215909	32.000000	63.000000
413.152273	413.247727	44.000000	65.000000
413.152273	413.215909	60.000000	58.000000
413.152273	413.215909	63.000000	53.000000
413.152273	413.247727	68.000000	60.000000
413.279545	413.375000	63.000000	61.000000
413.279545	413.440909	68.000000	58.000000
413.311364	413.375000	44.000000	55.000000
413.311364	413.343182	56.000000	57.000000
413.311364	413.375000	60.000000	57.000000
413.343182	413.375000	32.000000	50.000000
413.440909	413.536364	68.000000	61.000000
413.472727	413.536364	32.000000	61.000000
413.472727	413.536364	44.000000	63.000000
413.472727	413.536364	60.000000	63.000000
413.759091	413.856818	32.000000	63.000000
413.759091	413.856818	44.000000	66.000000
413.759091	413.856818	60.000000	66.000000
413.759091	413.856818	63.000000	61.000000
413.759091	413.856818	68.000000	65.000000
414.336364	414.400000	49.000000	51.000000
414.336364	414.400000	61.000000	47.000000
414.336364	414.495455	77.000000	57.000000
414.495455	414.559091	68.000000	44.000000
414.495455	414.590909	73.000000	46.000000
414.495455	414.590909	77.000000	52.000000
414.527273	414.559091	49.000000	43.000000
414.527273	414.559091	61.000000	39.000000
414.625000	414.943182	77.000000	55.000000
414.656818	415.040909	56.000000	43.000000
414.656818	414.943182	61.000000	47.000000
414.656818	414.943182	65.000000	50.000000
414.656818	414.720455	68.000000	45.000000
414.688636	414.943182	73.000000	46.000000
414.943182	415.168182	57.000000	59.000000
414.943182	415.168182	61.000000	59.000000
414.943182	415.168182	65.000000	65.000000
414.943182	415.168182	73.000000	64.000000
414.943182	415.200000	77.000000	63.000000
415.231818	415.488636	42.000000	58.000000
415.231818	415.488636	69.000000	58.000000
415.231818	415.520455	77.000000	65.000000
415.390909	415.488636	75.000000	59.000000
415.520455	415.809091	61.000000	44.000000
415.520455	415.809091	63.000000	50.000000
415.520455	415.840909	75.000000	59.000000
415.552273	415.840909	58.000000	39.000000
415.809091	415.904545	61.000000	54.000000
415.809091	415.904545	63.000000	60.000000
415.840909	415.904545	58.000000	50.000000
415.840909	415.872727	73.000000	57.000000
415.840909	415.904545	75.000000	60.000000
416.127273	416.190909	43.000000	62.000000
416.127273	416.190909	75.000000	57.000000
416.127273	416.384091	82.000000	59.000000
416.256818	416.384091	73.000000	52.000000
416.384091	416.672727	61.000000	52.000000
416.384091	416.895455	63.000000	56.000000
416.384091	416.672727	73.000000	56.000000
416.384091	416.672727	82.000000	60.000000
416.415909	416.672727	58.000000	41.000000
416.672727	416.959091	58.000000	56.000000
416.672727	416.959091	61.000000	60.000000
416.672727	416.959091	64.000000	65.000000
416.672727	416.959091	73.000000	63.000000
416.672727	416.959091	76.000000	62.000000
416.672727	416.959091	82.000000	65.000000
416.959091	417.215909	44.000000	64.000000
416.959091	417.184091	73.000000	63.000000
416.959091	417.215909	76.000000	60.000000
416.959091	417.056818	82.000000	63.000000
417.120455	417.215909	80.000000	58.000000
417.247727	417.343182	60.000000	45.000000
417.247727	417.343182	68.000000	54.000000
417.247727	417.375000	75.000000	56.000000
417.247727	417.536364	80.000000	62.000000
417.279545	417.343182	63.000000	47.000000
417.279545	417.311364	72.000000	44.000000
417.536364	417.825000	80.000000	60.000000
417.568182	417.825000	60.000000	48.000000
417.568182	417.825000	63.000000	43.000000
417.568182	417.825000	68.000000	48.000000
417.568182	417.631818	72.000000	46.000000
417.568182	417.825000	75.000000	47.000000
417.825000	417.952273	45.000000	49.000000
417.825000	417.984091	84.000000	59.000000
417.856818	418.015909	75.000000	49.000000
417.856818	417.984091	77.000000	53.000000
417.984091	418.111364	77.000000	50.000000
417.984091	418.111364	84.000000	58.000000
418.015909	418.111364	75.000000	42.000000
418.015909	418.047727	80.000000	42.000000
418.111364	418.400000	63.000000	57.000000
418.111364	418.400000	65.000000	58.000000
418.111364	418.400000	75.000000	59.000000
418.111364	418.400000	77.000000	56.000000
418.111364	418.400000	84.000000	64.000000
418.143182	418.400000	57.000000	48.000000
418.400000	418.656818	57.000000	56.000000
418.400000	418.656818	63.000000	61.000000
418.400000	418.656818	66.000000	67.000000
418.400000	418.656818	75.000000	65.000000
418.400000	418.656818	78.000000	70.000000
418.400000	418.656818	84.000000	66.000000
418.656818	418.752273	46.000000	52.000000
418.656818	418.815909	75.000000	58.000000
418.656818	418.847727	78.000000	61.000000
418.656818	418.879545	84.000000	63.000000
418.784091	418.879545	85.000000	67.000000
418.815909	418.879545	73.000000	59.000000
418.815909	418.879545	77.000000	55.000000
418.943182	419.200000	58.000000	44.000000
418.943182	419.200000	61.000000	52.000000
418.943182	419.200000	65.000000	49.000000
418.943182	419.200000	77.000000	50.000000
418.943182	419.200000	85.000000	63.000000
418.975000	419.200000	73.000000	51.000000
419.200000	419.295455	61.000000	43.000000
419.263636	419.615909	65.000000	54.000000
419.263636	419.615909	77.000000	52.000000
419.263636	419.647727	85.000000	62.000000
419.295455	419.615909	58.000000	41.000000
419.295455	419.615909	61.000000	46.000000
419.520455	419.615909	73.000000	54.000000
419.584091	419.679545	79.000000	53.000000
419.647727	420.511364	51.000000	52.000000
419.647727	420.031818	85.000000	64.000000
419.809091	419.968182	73.000000	64.000000
419.968182	420.256818	58.000000	52.000000
419.968182	420.225000	63.000000	56.000000
419.968182	420.256818	73.000000	57.000000
419.968182	420.225000	79.000000	62.000000
420.225000	420.511364	63.000000	57.000000
420.225000	420.511364	79.000000	58.000000
420.256818	420.511364	58.000000	52.000000
420.256818	420.511364	73.000000	55.000000
420.511364	420.959091	44.000000	44.000000
420.543182	420.959091	73.000000	50.000000
420.543182	420.927273	82.000000	57.000000
420.575000	420.768182	76.000000	46.000000
420.736364	420.990909	75.000000	58.000000
420.927273	421.311364	72.000000	37.000000
420.927273	421.247727	80.000000	55.000000
420.959091	421.472727	44.000000	36.000000
420.959091	421.311364	56.000000	33.000000
420.959091	421.025000	68.000000	38.000000
421.247727	421.663636	80.000000	50.000000
421.311364	421.663636	56.000000	31.000000
421.311364	421.631818	63.000000	33.000000
421.311364	421.663636	68.000000	34.000000
421.311364	421.663636	72.000000	31.000000
421.311364	421.663636	75.000000	33.000000
421.568182	422.272727	49.000000	46.000000
421.568182	421.727273	77.000000	52.000000
421.727273	421.888636	73.000000	44.000000
421.727273	421.856818	77.000000	46.000000
421.759091	421.888636	68.000000	39.000000
421.856818	422.143182	65.000000	49.000000
421.856818	422.143182	77.000000	54.000000
421.888636	422.272727	56.000000	44.000000
421.888636	422.143182	61.000000	42.000000
421.888636	422.431818	68.000000	44.000000
421.888636	422.143182	73.000000	47.000000
422.143182	422.431818	57.000000	54.000000
422.143182	422.463636	61.000000	62.000000
422.143182	422.431818	65.000000	60.000000
422.143182	422.272727	69.000000	58.000000
422.143182	422.431818	73.000000	65.000000
422.143182	422.431818	77.000000	63.000000
422.431818	422.656818	42.000000	62.000000
422.431818	422.527273	69.000000	56.000000
422.431818	422.656818	73.000000	56.000000
422.431818	422.688636	77.000000	60.000000
422.559091	422.688636	75.000000	57.000000
422.688636	422.975000	75.000000	62.000000
422.720455	423.009091	58.000000	39.000000
422.720455	422.879545	61.000000	41.000000
422.720455	422.975000	63.000000	46.000000
422.720455	422.975000	73.000000	46.000000
422.975000	423.231818	61.000000	47.000000
422.975000	423.200000	63.000000	55.000000
422.975000	423.231818	73.000000	53.000000
422.975000	423.231818	75.000000	60.000000
423.009091	423.231818	58.000000	49.000000
423.231818	423.327273	43.000000	61.000000
423.263636	423.809091	82.000000	58.000000
423.390909	423.552273	73.000000	49.000000
423.520455	423.809091	61.000000	47.000000
423.520455	424.000000	63.000000	52.000000
423.552273	423.809091	58.000000	42.000000
423.552273	423.809091	73.000000	50.000000
423.552273	423.584091	75.000000	53.000000
423.809091	424.031818	58.000000	55.000000
423.809091	424.031818	61.000000	61.000000
423.809091	424.031818	64.000000	65.000000
423.809091	424.031818	73.000000	64.000000
423.809091	423.904545	76.000000	61.000000
423.809091	424.031818	82.000000	64.000000
424.063636	424.609091	44.000000	59.000000
424.063636	424.288636	82.000000	63.000000
424.095455	424.256818	73.000000	56.000000
424.225000	424.288636	80.000000	61.000000
424.352273	424.640909	60.000000	45.000000
424.352273	424.640909	68.000000	47.000000
424.352273	424.640909	75.000000	51.000000
424.352273	424.640909	80.000000	59.000000
424.384091	424.447727	63.000000	40.000000
424.640909	424.863636	60.000000	51.000000
424.640909	424.863636	63.000000	53.000000
424.640909	424.863636	68.000000	56.000000
424.640909	424.863636	75.000000	57.000000
424.640909	424.863636	80.000000	64.000000
424.863636	424.990909	45.000000	54.000000
424.895455	425.056818	77.000000	54.000000
424.895455	425.025000	84.000000	61.000000
424.927273	424.990909	75.000000	47.000000
425.025000	425.184091	84.000000	60.000000
425.056818	425.184091	75.000000	44.000000
425.056818	425.184091	77.000000	46.000000
425.184091	425.472727	57.000000	51.000000
425.184091	425.472727	63.000000	56.000000
425.184091	425.504545	65.000000	61.000000
425.184091	425.472727	75.000000	59.000000
425.184091	425.504545	77.000000	59.000000
425.184091	425.472727	84.000000	64.000000
425.440909	425.856818	66.000000	67.000000
425.472727	425.856818	57.000000	55.000000
425.472727	425.856818	63.000000	61.000000
425.472727	425.759091	75.000000	65.000000
425.472727	425.790909	78.000000	68.000000
425.472727	425.759091	84.000000	65.000000
425.727273	425.856818	46.000000	54.000000
425.759091	425.856818	75.000000	53.000000
425.759091	425.952273	84.000000	63.000000
425.790909	425.888636	78.000000	58.000000
425.920455	425.984091	85.000000	65.000000
426.047727	426.336364	65.000000	57.000000
426.047727	426.688636	77.000000	54.000000
426.047727	426.400000	85.000000	65.000000
426.079545	426.368182	58.000000	42.000000
426.079545	426.368182	61.000000	53.000000
426.336364	426.688636	65.000000	51.000000
426.368182	426.688636	58.000000	49.000000
426.368182	426.688636	61.000000	56.000000
426.400000	426.720455	85.000000	62.000000
426.688636	426.784091	73.000000	55.000000
426.752273	427.104545	79.000000	57.000000
426.815909	427.711364	51.000000	58.000000
426.815909	427.327273	85.000000	67.000000
426.943182	427.104545	73.000000	63.000000
427.104545	427.390909	58.000000	44.000000
427.104545	427.390909	63.000000	49.000000
427.104545	427.390909	73.000000	50.000000
427.104545	427.390909	79.000000	65.000000
427.390909	427.711364	58.000000	50.000000
427.390909	427.711364	63.000000	53.000000
427.390909	427.711364	73.000000	55.000000
427.390909	427.711364	79.000000	58.000000
427.743182	428.609091	44.000000	57.000000
427.743182	428.225000	82.000000	58.000000
427.775000	427.840909	76.000000	57.000000
427.968182	428.609091	75.000000	54.000000
428.190909	428.575000	63.000000	42.000000
428.190909	428.575000	68.000000	44.000000
428.190909	428.575000	72.000000	35.000000
428.190909	428.575000	80.000000	53.000000
428.575000	428.863636	63.000000	40.000000
428.575000	428.863636	68.000000	43.000000
428.575000	428.863636	72.000000	34.000000
428.575000	428.863636	80.000000	48.000000
428.609091	428.895455	75.000000	43.000000
428.990909	429.247727	82.000000	63.000000
429.025000	429.152273	60.000000	47.000000
429.025000	429.247727	70.000000	57.000000
429.025000	429.184091	72.000000	48.000000
429.152273	429.472727	60.000000	47.000000
429.184091	429.472727	63.000000	53.000000
429.184091	429.472727	72.000000	52.000000
429.215909	429.472727	66.000000	55.000000
429.215909	429.440909	78.000000	60.000000
429.247727	429.472727	70.000000	52.000000
429.247727	429.504545	75.000000	52.000000
429.247727	429.440909	82.000000	58.000000
429.440909	429.825000	78.000000	59.000000
429.440909	429.825000	82.000000	54.000000
429.472727	429.825000	60.000000	47.000000
429.472727	429.825000	63.000000	42.000000
429.472727	429.825000	66.000000	50.000000
429.472727	429.825000	70.000000	50.000000
429.472727	429.825000	72.000000	53.000000
429.856818	430.368182	80.000000	58.000000
429.888636	430.368182	61.000000	44.000000
429.888636	429.952273	65.000000	42.000000
429.888636	430.368182	68.000000	43.000000
429.888636	430.368182	73.000000	47.000000
429.888636	430.368182	77.000000	46.000000
430.143182	430.368182	78.000000	66.000000
430.175000	430.304545	57.000000	47.000000
430.175000	430.368182	66.000000	60.000000
430.175000	430.368182	69.000000	52.000000
430.304545	430.431818	57.000000	53.000000
430.304545	430.431818	60.000000	56.000000
430.304545	430.431818	72.000000	56.000000
430.336364	430.431818	63.000000	54.000000
430.368182	430.463636	66.000000	57.000000
430.368182	430.463636	75.000000	63.000000
430.400000	430.463636	78.000000	67.000000
430.590909	430.688636	57.000000	49.000000
430.590909	431.009091	60.000000	43.000000
430.590909	431.009091	63.000000	47.000000
430.590909	431.009091	66.000000	53.000000
430.590909	430.975000	69.000000	53.000000
430.590909	430.975000	72.000000	48.000000
430.590909	431.009091	78.000000	65.000000
430.625000	431.009091	75.000000	52.000000
430.975000	431.327273	77.000000	57.000000
431.009091	431.327273	58.000000	43.000000
431.009091	431.327273	61.000000	47.000000
431.009091	431.104545	65.000000	46.000000
431.009091	431.104545	70.000000	47.000000
431.009091	431.327273	73.000000	49.000000
431.327273	431.488636	75.000000	58.000000
431.359091	431.520455	58.000000	36.000000
431.359091	431.520455	61.000000	37.000000
431.359091	431.488636	63.000000	47.000000
431.359091	431.456818	70.000000	41.000000
431.488636	431.711364	63.000000	52.000000
431.488636	431.711364	70.000000	46.000000
431.488636	431.711364	73.000000	50.000000
431.488636	431.679545	75.000000	59.000000
431.520455	431.743182	58.000000	43.000000
431.520455	431.679545	61.000000	43.000000
431.679545	432.031818	75.000000	66.000000
431.711364	432.031818	61.000000	50.000000
431.711364	432.031818	63.000000	52.000000
431.711364	431.840909	67.000000	39.000000
431.711364	432.031818	70.000000	54.000000
431.743182	432.063636	58.000000	45.000000
432.031818	432.415909	61.000000	48.000000
432.031818	432.640909	65.000000	52.000000
432.031818	432.479545	70.000000	54.000000
432.031818	432.447727	73.000000	53.000000
432.031818	432.415909	77.000000	67.000000
432.063636	432.447727	58.000000	48.000000
432.415909	432.640909	61.000000	45.000000
432.415909	432.704545	77.000000	62.000000
432.447727	432.640909	58.000000	46.000000
432.447727	432.609091	68.000000	42.000000
432.447727	432.609091	73.000000	44.000000
432.479545	432.640909	70.000000	43.000000
432.640909	432.831818	63.000000	44.000000
432.640909	432.863636	68.000000	41.000000
432.640909	432.863636	72.000000	48.000000
432.640909	432.831818	75.000000	61.000000
432.672727	433.215909	56.000000	39.000000
432.672727	432.863636	60.000000	39.000000
432.831818	433.215909	63.000000	45.000000
432.831818	433.215909	75.000000	59.000000
432.863636	433.215909	60.000000	39.000000
432.863636	433.215909	68.000000	38.000000
432.863636	433.215909	72.000000	44.000000
433.247727	433.600000	72.000000	47.000000
433.247727	433.600000	75.000000	58.000000
433.279545	433.600000	60.000000	40.000000
433.279545	433.600000	63.000000	43.000000
433.279545	433.600000	68.000000	42.000000
433.695455	433.920455	70.000000	39.000000
433.695455	433.920455	78.000000	46.000000
433.695455	434.431818	82.000000	48.000000
433.727273	433.920455	60.000000	36.000000
433.727273	433.920455	63.000000	31.000000
433.727273	433.920455	66.000000	39.000000
433.727273	433.759091	72.000000	34.000000
433.920455	434.111364	60.000000	37.000000
433.920455	434.111364	63.000000	39.000000
433.920455	434.079545	66.000000	43.000000
433.920455	434.079545	70.000000	40.000000
433.920455	433.984091	72.000000	38.000000
433.920455	434.079545	78.000000	49.000000
433.952273	434.431818	75.000000	37.000000
434.079545	434.431818	66.000000	49.000000
434.079545	434.431818	70.000000	50.000000
434.079545	434.431818	78.000000	54.000000
434.111364	434.431818	60.000000	42.000000
434.111364	434.431818	63.000000	41.000000
434.431818	434.815909	61.000000	46.000000
434.431818	434.527273	65.000000	47.000000
434.431818	434.527273	68.000000	45.000000
434.431818	434.752273	73.000000	53.000000
434.431818	434.720455	77.000000	50.000000
434.431818	434.784091	80.000000	57.000000
434.720455	434.879545	66.000000	52.000000
434.720455	434.879545	84.000000	61.000000
434.752273	434.911364	57.000000	40.000000
434.752273	434.911364	60.000000	41.000000
434.752273	434.911364	63.000000	44.000000
434.752273	434.784091	72.000000	47.000000
434.752273	434.911364	75.000000	48.000000
434.752273	434.879545	78.000000	55.000000
434.879545	435.040909	66.000000	57.000000
434.879545	434.975000	78.000000	62.000000
434.879545	435.040909	84.000000	60.000000
434.911364	435.040909	57.000000	39.000000
434.911364	435.009091	60.000000	41.000000
434.911364	435.009091	63.000000	47.000000
434.911364	434.975000	72.000000	49.000000
434.911364	434.975000	75.000000	54.000000
435.040909	435.327273	57.000000	47.000000
435.040909	435.327273	60.000000	44.000000
435.040909	435.327273	63.000000	52.000000
435.040909	435.359091	66.000000	59.000000
435.040909	435.327273	75.000000	55.000000
435.040909	435.327273	78.000000	61.000000
435.040909	435.327273	84.000000	62.000000
435.295455	435.615909	85.000000	65.000000
435.327273	435.679545	61.000000	59.000000
435.327273	435.456818	65.000000	55.000000
435.327273	435.390909	73.000000	62.000000
435.327273	435.615909	77.000000	58.000000
435.584091	435.743182	54.000000	57.000000
435.615909	435.743182	63.000000	63.000000
435.615909	435.743182	75.000000	62.000000
435.615909	435.743182	87.000000	67.000000
435.743182	435.904545	54.000000	51.000000
435.743182	435.872727	63.000000	59.000000
435.743182	435.872727	75.000000	62.000000
435.743182	435.872727	87.000000	64.000000
435.904545	436.288636	54.000000	56.000000
435.904545	436.288636	64.000000	68.000000
435.904545	436.000000	76.000000	68.000000
435.904545	436.288636	82.000000	62.000000
435.904545	436.288636	88.000000	68.000000
435.936364	436.288636	58.000000	52.000000
436.288636	436.800000	54.000000	60.000000
436.288636	436.384091	58.000000	62.000000
436.288636	436.768182	60.000000	63.000000
436.288636	436.384091	64.000000	69.000000
436.288636	436.800000	76.000000	68.000000
436.288636	436.352273	82.000000	64.000000
436.288636	436.831818	88.000000	68.000000
436.768182	437.920455	53.000000	64.000000
436.768182	437.952273	57.000000	57.000000
436.768182	437.952273	60.000000	60.000000
436.768182	437.888636	65.000000	69.000000
436.768182	437.920455	77.000000	69.000000
436.768182	437.952273	81.000000	70.000000
436.768182	437.888636	89.000000	70.000000
436.800000	437.888636	84.000000	67.000000
437.888636	438.015909	32.000000	64.000000
437.888636	437.984091	44.000000	67.000000
437.888636	438.111364	66.000000	66.000000
437.888636	438.431818	75.000000	64.000000
437.888636	438.495455	80.000000	66.000000
438.463636	438.720455	37.000000	68.000000
438.463636	438.559091	49.000000	67.000000
438.463636	438.559091	65.000000	65.000000
438.463636	438.656818	73.000000	71.000000
438.463636	438.656818	77.000000	66.000000
438.495455	438.688636	68.000000	61.000000
438.656818	438.752273	73.000000	61.000000
438.656818	438.752273	77.000000	63.000000
438.688636	438.752273	68.000000	55.000000
438.815909	439.072727	56.000000	53.000000
438.815909	439.072727	61.000000	57.000000
438.815909	439.072727	65.000000	60.000000
438.815909	439.072727	68.000000	58.000000
438.815909	439.072727	73.000000	61.000000
438.815909	439.104545	77.000000	62.000000
439.104545	439.615909	57.000000	60.000000
439.104545	439.615909	61.000000	64.000000
439.104545	439.584091	65.000000	63.000000
439.104545	439.168182	69.000000	61.000000
439.104545	439.615909	73.000000	66.000000
439.104545	439.359091	77.000000	66.000000
439.359091	439.584091	69.000000	60.000000
439.359091	439.615909	77.000000	68.000000
439.390909	439.584091	42.000000	68.000000
439.520455	439.615909	75.000000	63.000000
439.647727	439.743182	75.000000	63.000000
439.679545	439.968182	58.000000	45.000000
439.679545	439.968182	61.000000	49.000000
439.679545	439.936364	63.000000	55.000000
439.679545	439.711364	73.000000	54.000000
439.936364	440.190909	63.000000	59.000000
439.936364	440.225000	75.000000	60.000000
439.968182	440.225000	58.000000	51.000000
439.968182	440.225000	61.000000	53.000000
439.968182	440.225000	73.000000	56.000000
440.225000	440.320455	43.000000	66.000000
440.225000	440.320455	82.000000	62.000000
440.256818	440.320455	73.000000	52.000000
440.256818	440.352273	75.000000	59.000000
440.384091	440.447727	73.000000	56.000000
440.384091	440.447727	82.000000	57.000000
440.511364	440.768182	58.000000	48.000000
440.511364	440.575000	61.000000	56.000000
440.511364	440.609091	63.000000	61.000000
440.511364	440.609091	73.000000	62.000000
440.511364	440.609091	75.000000	61.000000
440.511364	440.768182	82.000000	65.000000
440.800000	441.056818	58.000000	59.000000
440.800000	441.088636	61.000000	61.000000
440.800000	441.120455	64.000000	69.000000
440.800000	440.863636	73.000000	64.000000
440.800000	440.990909	76.000000	65.000000
440.800000	440.863636	82.000000	61.000000
441.056818	441.152273	44.000000	62.000000
441.056818	441.247727	73.000000	60.000000
441.056818	441.120455	82.000000	62.000000
441.215909	441.279545	75.000000	57.000000
441.215909	441.279545	80.000000	64.000000
441.343182	441.600000	63.000000	53.000000
441.343182	441.600000	80.000000	64.000000
441.375000	441.600000	56.000000	46.000000
441.375000	441.600000	60.000000	49.000000
441.375000	441.568182	68.000000	52.000000
441.375000	441.600000	72.000000	50.000000
441.375000	441.600000	75.000000	56.000000
441.631818	441.920455	63.000000	52.000000
441.631818	441.920455	68.000000	54.000000
441.631818	441.920455	75.000000	56.000000
441.631818	441.952273	80.000000	61.000000
441.663636	441.920455	60.000000	50.000000
441.663636	441.920455	72.000000	51.000000
441.920455	442.047727	45.000000	55.000000
441.952273	442.111364	75.000000	56.000000
441.952273	442.111364	77.000000	55.000000
441.952273	442.079545	84.000000	63.000000
442.079545	442.272727	84.000000	58.000000
442.111364	442.272727	75.000000	43.000000
442.111364	442.272727	77.000000	45.000000
442.272727	442.590909	60.000000	53.000000
442.272727	442.590909	63.000000	59.000000
442.272727	442.590909	65.000000	63.000000
442.272727	442.590909	75.000000	61.000000
442.272727	442.590909	77.000000	60.000000
442.272727	442.590909	84.000000	63.000000
442.625000	442.720455	60.000000	63.000000
442.625000	442.720455	63.000000	63.000000
442.625000	442.688636	66.000000	68.000000
442.625000	442.688636	75.000000	63.000000
442.625000	442.688636	78.000000	67.000000
442.625000	442.688636	84.000000	66.000000
442.911364	443.009091	46.000000	56.000000
442.911364	443.009091	78.000000	58.000000
442.911364	443.009091	84.000000	61.000000
442.943182	443.009091	75.000000	50.000000
443.040909	443.200000	85.000000	66.000000
443.072727	443.136364	73.000000	52.000000
443.104545	443.200000	77.000000	39.000000
443.200000	443.520455	65.000000	63.000000
443.200000	443.520455	77.000000	60.000000
443.200000	443.520455	85.000000	67.000000
443.231818	443.520455	61.000000	59.000000
443.231818	443.520455	73.000000	65.000000
443.520455	444.063636	58.000000	60.000000
443.520455	444.063636	64.000000	65.000000
443.520455	444.031818	73.000000	64.000000
443.520455	444.095455	79.000000	59.000000
443.520455	444.031818	85.000000	69.000000
444.031818	444.704545	44.000000	60.000000
444.031818	444.095455	73.000000	61.000000
444.031818	444.095455	85.000000	68.000000
444.063636	444.127273	82.000000	55.000000
444.225000	444.384091	73.000000	53.000000
444.225000	444.415909	80.000000	55.000000
444.225000	444.384091	85.000000	66.000000
444.384091	444.736364	65.000000	53.000000
444.384091	444.736364	73.000000	57.000000
444.384091	444.736364	85.000000	63.000000
444.415909	444.736364	56.000000	46.000000
444.415909	444.736364	61.000000	52.000000
444.415909	444.736364	68.000000	49.000000
444.415909	444.704545	77.000000	51.000000
444.415909	444.704545	80.000000	55.000000
444.704545	445.152273	80.000000	63.000000
444.736364	445.279545	56.000000	55.000000
444.736364	445.184091	63.000000	61.000000
444.736364	444.831818	66.000000	58.000000
444.736364	445.184091	68.000000	60.000000
444.736364	444.831818	72.000000	59.000000
445.152273	445.247727	60.000000	60.000000
445.152273	445.279545	75.000000	60.000000
445.152273	445.343182	80.000000	65.000000
445.184091	445.279545	63.000000	52.000000
445.184091	445.247727	66.000000	56.000000
445.184091	445.279545	68.000000	59.000000
445.184091	445.247727	72.000000	61.000000
445.343182	445.440909	61.000000	63.000000
445.343182	445.440909	73.000000	62.000000
445.375000	445.472727	49.000000	57.000000
445.375000	445.440909	65.000000	55.000000
445.536364	446.079545	73.000000	60.000000
445.568182	446.079545	49.000000	53.000000
445.568182	446.079545	61.000000	60.000000
445.568182	445.663636	65.000000	52.000000
445.568182	446.111364	68.000000	52.000000
445.568182	445.600000	77.000000	53.000000
446.336364	446.625000	82.000000	63.000000
446.368182	446.495455	60.000000	47.000000
446.368182	446.625000	70.000000	58.000000
446.368182	446.879545	72.000000	49.000000
446.495455	446.879545	60.000000	50.000000
446.559091	446.911364	63.000000	47.000000
446.559091	446.879545	66.000000	50.000000
446.625000	446.879545	70.000000	55.000000
446.625000	447.295455	78.000000	60.000000
446.625000	446.879545	82.000000	64.000000
446.879545	447.295455	60.000000	50.000000
446.879545	447.327273	66.000000	45.000000
446.879545	447.295455	70.000000	60.000000
446.879545	447.295455	72.000000	60.000000
446.879545	447.295455	82.000000	62.000000
446.911364	447.295455	63.000000	43.000000
447.295455	447.775000	80.000000	65.000000
447.327273	447.775000	61.000000	50.000000
447.327273	447.425000	65.000000	49.000000
447.327273	447.775000	68.000000	48.000000
447.327273	447.775000	73.000000	59.000000
447.327273	447.743182	77.000000	51.000000
447.679545	447.872727	57.000000	46.000000
447.679545	447.904545	66.000000	59.000000
447.679545	447.840909	69.000000	54.000000
447.679545	447.936364	78.000000	67.000000
447.840909	447.968182	69.000000	52.000000
447.872727	448.000000	57.000000	47.000000
447.872727	448.225000	60.000000	43.000000
447.872727	448.095455	72.000000	50.000000
447.904545	448.225000	63.000000	48.000000
447.936364	448.225000	66.000000	53.000000
447.936364	448.225000	75.000000	52.000000
447.936364	448.190909	78.000000	67.000000
448.190909	448.672727	78.000000	69.000000
448.225000	448.672727	60.000000	47.000000
448.225000	448.672727	63.000000	49.000000
448.225000	448.672727	66.000000	56.000000
448.225000	448.640909	69.000000	54.000000
448.225000	448.672727	75.000000	56.000000
448.640909	449.215909	77.000000	61.000000
448.672727	449.120455	58.000000	45.000000
448.672727	449.120455	61.000000	47.000000
448.672727	448.800000	65.000000	44.000000
448.672727	449.152273	70.000000	45.000000
448.672727	449.120455	73.000000	49.000000
449.120455	449.215909	58.000000	34.000000
449.120455	449.184091	61.000000	38.000000
449.120455	449.215909	63.000000	44.000000
449.120455	449.215909	73.000000	46.000000
449.120455	449.215909	75.000000	57.000000
449.152273	449.184091	67.000000	34.000000
449.152273	449.215909	70.000000	37.000000
449.279545	449.472727	75.000000	57.000000
449.311364	449.472727	58.000000	42.000000
449.311364	449.440909	61.000000	46.000000
449.311364	449.472727	63.000000	48.000000
449.311364	449.472727	73.000000	49.000000
449.472727	449.888636	75.000000	58.000000
449.504545	449.825000	61.000000	39.000000
449.504545	450.209091	63.000000	42.000000
449.504545	449.825000	70.000000	39.000000
449.504545	449.825000	73.000000	46.000000
449.536364	449.825000	58.000000	32.000000
449.790909	450.209091	77.000000	66.000000
449.825000	450.209091	58.000000	48.000000
449.825000	450.209091	61.000000	50.000000
449.825000	450.240909	65.000000	51.000000
449.825000	450.400000	67.000000	43.000000
449.825000	450.431818	70.000000	49.000000
449.825000	450.209091	73.000000	58.000000
450.209091	450.431818	58.000000	40.000000
450.209091	450.400000	61.000000	39.000000
450.209091	450.400000	73.000000	47.000000
450.209091	450.431818	77.000000	52.000000
450.240909	450.431818	65.000000	36.000000
450.400000	450.625000	75.000000	54.000000
450.431818	450.625000	63.000000	43.000000
450.431818	450.625000	68.000000	39.000000
450.431818	450.527273	72.000000	40.000000
450.463636	450.625000	60.000000	34.000000
450.625000	451.009091	56.000000	40.000000
450.625000	451.009091	60.000000	36.000000
450.625000	451.009091	63.000000	44.000000
450.625000	451.009091	68.000000	41.000000
450.625000	451.009091	72.000000	41.000000
450.625000	451.009091	75.000000	53.000000
451.009091	451.425000	75.000000	47.000000
451.040909	451.425000	60.000000	30.000000
451.040909	451.425000	63.000000	39.000000
451.040909	451.425000	68.000000	38.000000
451.040909	451.425000	72.000000	35.000000
451.456818	451.647727	70.000000	40.000000
451.456818	451.647727	82.000000	49.000000
451.488636	451.679545	60.000000	31.000000
451.488636	451.679545	63.000000	32.000000
451.488636	451.647727	66.000000	38.000000
451.647727	451.840909	66.000000	43.000000
451.647727	451.840909	70.000000	42.000000
451.647727	451.840909	78.000000	47.000000
451.647727	451.840909	82.000000	46.000000
451.679545	451.872727	60.000000	36.000000
451.679545	451.840909	63.000000	34.000000
451.840909	452.190909	63.000000	44.000000
451.840909	452.190909	66.000000	45.000000
451.840909	452.190909	70.000000	45.000000
451.840909	452.190909	78.000000	52.000000
451.840909	452.190909	82.000000	51.000000
451.872727	452.190909	60.000000	39.000000
451.872727	452.190909	75.000000	43.000000
452.225000	452.543182	61.000000	47.000000
452.225000	452.543182	65.000000	46.000000
452.225000	452.543182	68.000000	44.000000
452.225000	452.320455	73.000000	52.000000
452.225000	452.543182	77.000000	53.000000
452.225000	452.543182	80.000000	56.000000
452.543182	452.704545	84.000000	56.000000
452.575000	452.768182	57.000000	36.000000
452.575000	452.768182	60.000000	34.000000
452.575000	452.736364	63.000000	39.000000
452.575000	452.736364	66.000000	46.000000
452.575000	452.736364	75.000000	43.000000
452.575000	452.736364	78.000000	51.000000
452.704545	452.895455	84.000000	58.000000
452.736364	452.895455	63.000000	41.000000
452.736364	452.895455	66.000000	50.000000
452.736364	452.768182	72.000000	45.000000
452.736364	452.895455	75.000000	43.000000
452.736364	452.895455	78.000000	56.000000
452.768182	452.927273	57.000000	33.000000
452.768182	452.927273	60.000000	33.000000
452.895455	453.215909	63.000000	51.000000
452.895455	453.215909	66.000000	57.000000
452.895455	453.215909	75.000000	56.000000
452.895455	453.215909	78.000000	63.000000
452.895455	453.215909	84.000000	61.000000
452.927273	453.215909	57.000000	42.000000
452.927273	453.215909	60.000000	41.000000
453.184091	453.440909	65.000000	56.000000
453.184091	453.472727	85.000000	67.000000
453.215909	453.504545	61.000000	55.000000
453.215909	453.472727	73.000000	59.000000
453.215909	453.504545	77.000000	55.000000
453.504545	453.825000	54.000000	54.000000
453.504545	453.663636	63.000000	62.000000
453.504545	453.663636	75.000000	60.000000
453.504545	453.663636	87.000000	66.000000
453.663636	453.825000	63.000000	59.000000
453.663636	453.790909	75.000000	59.000000
453.663636	453.856818	87.000000	68.000000
453.825000	454.240909	54.000000	52.000000
453.825000	454.240909	58.000000	52.000000
453.825000	454.240909	61.000000	58.000000
453.825000	454.240909	64.000000	66.000000
453.825000	453.856818	73.000000	62.000000
453.825000	454.240909	76.000000	67.000000
453.825000	453.888636	82.000000	63.000000
453.825000	454.209091	88.000000	67.000000
454.209091	454.720455	88.000000	66.000000
454.240909	454.720455	54.000000	60.000000
454.240909	454.720455	58.000000	61.000000
454.240909	454.688636	60.000000	62.000000
454.240909	454.336364	64.000000	68.000000
454.240909	454.272727	72.000000	63.000000
454.240909	454.720455	76.000000	68.000000
454.688636	455.520455	53.000000	64.000000
454.688636	455.552273	57.000000	55.000000
454.688636	455.552273	60.000000	60.000000
454.688636	455.520455	65.000000	70.000000
454.688636	455.520455	77.000000	71.000000
454.688636	455.520455	81.000000	72.000000
454.688636	455.520455	84.000000	68.000000
454.688636	455.520455	89.000000	72.000000
454.720455	454.752273	72.000000	61.000000
455.584091	456.225000	80.000000	66.000000
455.615909	455.679545	32.000000	66.000000
455.615909	455.679545	44.000000	68.000000
455.615909	456.190909	66.000000	66.000000
455.615909	456.190909	68.000000	66.000000
455.615909	456.190909	72.000000	68.000000
455.615909	456.225000	75.000000	65.000000
456.256818	456.320455	37.000000	68.000000
456.256818	456.320455	49.000000	69.000000
456.256818	456.320455	65.000000	65.000000
456.256818	456.575000	73.000000	67.000000
456.256818	456.640909	77.000000	66.000000
456.575000	456.640909	56.000000	52.000000
456.575000	456.640909	61.000000	59.000000
456.575000	456.672727	65.000000	48.000000
456.575000	456.640909	68.000000	57.000000
456.575000	456.640909	73.000000	59.000000
456.863636	457.184091	57.000000	61.000000
456.863636	457.184091	61.000000	66.000000
456.863636	457.152273	65.000000	66.000000
456.863636	457.152273	73.000000	67.000000
456.863636	457.152273	77.000000	66.000000
457.120455	457.215909	42.000000	69.000000
457.152273	457.279545	73.000000	61.000000
457.152273	457.279545	77.000000	67.000000
457.184091	457.215909	69.000000	59.000000
457.279545	457.343182	73.000000	58.000000
457.279545	457.375000	75.000000	65.000000
457.409091	457.568182	58.000000	48.000000
457.409091	457.568182	61.000000	50.000000
457.409091	457.568182	63.000000	54.000000
457.409091	457.568182	70.000000	51.000000
457.409091	457.568182	75.000000	65.000000
457.695455	457.952273	58.000000	56.000000
457.695455	457.952273	61.000000	55.000000
457.695455	457.952273	63.000000	58.000000
457.695455	457.952273	70.000000	57.000000
457.695455	457.952273	73.000000	61.000000
457.695455	457.952273	75.000000	63.000000
457.952273	458.047727	43.000000	67.000000
457.984091	458.047727	63.000000	58.000000
457.984091	458.047727	75.000000	60.000000
458.111364	458.209091	73.000000	65.000000
458.111364	458.209091	75.000000	59.000000
458.240909	458.336364	58.000000	57.000000
458.240909	458.336364	61.000000	59.000000
458.240909	458.336364	63.000000	63.000000
458.240909	458.336364	73.000000	63.000000
458.240909	458.527273	75.000000	69.000000
458.240909	458.336364	82.000000	66.000000
458.495455	458.847727	64.000000	71.000000
458.495455	458.815909	73.000000	68.000000
458.527273	458.815909	58.000000	63.000000
458.527273	458.815909	61.000000	63.000000
458.527273	458.752273	76.000000	69.000000
458.784091	458.879545	44.000000	60.000000
458.815909	458.975000	73.000000	64.000000
458.815909	458.847727	82.000000	65.000000
458.943182	459.009091	72.000000	58.000000
458.943182	459.009091	75.000000	60.000000
458.943182	459.009091	80.000000	67.000000
459.072727	459.295455	60.000000	57.000000
459.072727	459.295455	63.000000	53.000000
459.072727	459.263636	68.000000	62.000000
459.072727	459.295455	72.000000	63.000000
459.072727	459.295455	75.000000	65.000000
459.072727	459.295455	80.000000	69.000000
459.359091	459.647727	60.000000	57.000000
459.359091	459.647727	63.000000	59.000000
459.359091	459.647727	68.000000	61.000000
459.359091	459.647727	75.000000	60.000000
459.359091	459.647727	80.000000	67.000000
459.647727	459.743182	45.000000	58.000000
459.647727	459.809091	77.000000	60.000000
459.647727	459.743182	84.000000	63.000000
459.679545	459.743182	75.000000	46.000000
459.809091	459.968182	75.000000	52.000000
459.809091	459.936364	77.000000	55.000000
459.809091	459.968182	84.000000	60.000000
459.936364	460.256818	65.000000	64.000000
459.936364	460.288636	77.000000	62.000000
459.968182	460.095455	60.000000	55.000000
459.968182	460.256818	63.000000	61.000000
459.968182	460.288636	75.000000	63.000000
459.968182	460.288636	84.000000	64.000000
460.288636	460.384091	60.000000	63.000000
460.288636	460.384091	63.000000	61.000000
460.288636	460.640909	66.000000	69.000000
460.288636	460.415909	75.000000	58.000000
460.288636	460.609091	78.000000	66.000000
460.320455	460.352273	72.000000	65.000000
460.320455	460.352273	84.000000	64.000000
460.609091	460.672727	46.000000	53.000000
460.672727	460.959091	75.000000	51.000000
460.672727	460.990909	78.000000	57.000000
460.672727	460.990909	84.000000	58.000000
460.831818	460.990909	73.000000	53.000000
460.831818	461.025000	77.000000	44.000000
460.831818	460.990909	85.000000	64.000000
460.990909	461.440909	65.000000	50.000000
460.990909	461.440909	85.000000	62.000000
461.025000	461.440909	58.000000	38.000000
461.025000	461.440909	61.000000	53.000000
461.025000	461.440909	73.000000	53.000000
461.025000	461.440909	77.000000	49.000000
461.472727	462.079545	58.000000	46.000000
461.472727	462.079545	64.000000	50.000000
461.472727	462.079545	73.000000	47.000000
461.472727	462.079545	79.000000	43.000000
461.472727	462.047727	85.000000	61.000000
461.504545	461.536364	76.000000	44.000000
462.047727	462.240909	85.000000	59.000000
462.079545	462.336364	44.000000	50.000000
462.079545	462.272727	73.000000	47.000000
462.240909	462.304545	85.000000	61.000000
462.272727	462.463636	73.000000	50.000000
462.272727	462.431818	80.000000	51.000000
462.431818	463.009091	65.000000	46.000000
462.431818	462.975000	80.000000	53.000000
462.431818	463.009091	85.000000	63.000000
462.463636	463.009091	61.000000	43.000000
462.463636	463.009091	68.000000	45.000000
462.463636	463.009091	73.000000	53.000000
462.463636	462.975000	77.000000	47.000000
462.975000	463.647727	56.000000	53.000000
462.975000	463.647727	63.000000	64.000000
462.975000	463.647727	66.000000	53.000000
462.975000	463.647727	72.000000	51.000000
462.975000	463.040909	75.000000	63.000000
462.975000	463.647727	80.000000	58.000000
463.009091	463.647727	68.000000	55.000000
463.647727	464.000000	56.000000	46.000000
463.647727	463.743182	60.000000	49.000000
463.647727	463.743182	66.000000	45.000000
463.647727	463.936364	68.000000	48.000000
463.647727	463.936364	75.000000	48.000000
463.647727	463.968182	80.000000	53.000000
463.679545	463.711364	63.000000	37.000000
463.904545	464.031818	61.000000	56.000000
463.904545	464.095455	73.000000	60.000000
463.936364	464.063636	49.000000	46.000000
463.936364	464.190909	65.000000	47.000000
463.936364	464.031818	68.000000	47.000000
464.190909	465.472727	61.000000	46.000000
464.190909	465.472727	65.000000	43.000000
464.190909	465.600000	73.000000	49.000000
464.225000	465.472727	49.000000	42.000000
464.225000	465.472727	68.000000	42.000000
467.200000	467.327273	77.000000	55.000000
467.295455	467.425000	82.000000	58.000000
467.390909	467.872727	58.000000	41.000000
467.390909	467.872727	87.000000	59.000000
467.456818	467.809091	85.000000	60.000000
467.552273	467.872727	65.000000	47.000000
467.552273	467.743182	82.000000	62.000000
467.584091	467.872727	73.000000	59.000000
467.647727	467.872727	77.000000	58.000000
467.743182	467.872727	82.000000	58.000000
467.809091	467.872727	85.000000	68.000000
467.904545	468.190909	78.000000	71.000000
467.904545	468.190909	90.000000	72.000000
467.936364	468.447727	58.000000	53.000000
468.127273	468.479545	66.000000	61.000000
468.127273	468.190909	73.000000	60.000000
468.225000	468.447727	90.000000	68.000000
468.320455	468.479545	78.000000	63.000000
468.447727	468.511364	90.000000	65.000000
468.511364	469.025000	83.000000	70.000000
468.543182	469.025000	58.000000	53.000000
468.736364	469.056818	68.000000	55.000000
468.736364	469.056818	74.000000	57.000000
468.831818	468.990909	89.000000	62.000000
468.895455	469.025000	77.000000	59.000000
468.990909	469.088636	89.000000	62.000000
469.088636	469.600000	82.000000	62.000000
469.120455	469.600000	58.000000	50.000000
469.311364	469.600000	66.000000	50.000000
469.311364	469.631818	70.000000	52.000000
469.409091	469.568182	87.000000	62.000000
469.472727	469.600000	75.000000	51.000000
469.568182	469.663636	87.000000	67.000000
469.663636	470.143182	58.000000	48.000000
469.663636	470.143182	80.000000	65.000000
469.856818	470.143182	65.000000	51.000000
469.856818	470.143182	68.000000	50.000000
469.920455	470.079545	85.000000	58.000000
470.015909	470.143182	73.000000	58.000000
470.079545	470.175000	85.000000	64.000000
470.175000	470.688636	78.000000	62.000000
470.209091	470.688636	58.000000	45.000000
470.400000	470.688636	63.000000	44.000000
470.400000	470.688636	66.000000	51.000000
470.495455	470.625000	84.000000	57.000000
470.559091	470.688636	72.000000	56.000000
470.625000	470.688636	84.000000	61.000000
470.752273	471.263636	58.000000	46.000000
470.752273	471.263636	77.000000	63.000000
470.943182	471.263636	61.000000	49.000000
470.943182	471.263636	65.000000	46.000000
471.040909	471.168182	82.000000	61.000000
471.104545	471.263636	70.000000	55.000000
471.168182	471.263636	82.000000	62.000000
471.295455	471.743182	53.000000	47.000000
471.295455	471.743182	81.000000	67.000000
471.327273	471.743182	69.000000	54.000000
471.520455	471.743182	60.000000	49.000000
471.520455	471.743182	65.000000	47.000000
471.647727	471.775000	77.000000	55.000000
471.743182	471.809091	82.000000	62.000000
471.809091	471.936364	87.000000	53.000000
471.872727	471.936364	58.000000	37.000000
471.904545	472.000000	85.000000	63.000000
472.000000	472.352273	65.000000	54.000000
472.000000	472.352273	73.000000	60.000000
472.000000	472.190909	82.000000	62.000000
472.095455	472.352273	77.000000	60.000000
472.190909	472.352273	82.000000	65.000000
472.288636	472.352273	85.000000	68.000000
472.384091	472.863636	58.000000	52.000000
472.384091	472.479545	78.000000	71.000000
472.384091	472.479545	90.000000	71.000000
472.575000	472.863636	66.000000	57.000000
472.575000	472.863636	73.000000	62.000000
472.672727	472.831818	90.000000	64.000000
472.736364	472.863636	78.000000	60.000000
472.831818	472.927273	90.000000	69.000000
472.927273	473.504545	58.000000	51.000000
472.927273	473.504545	83.000000	69.000000
473.120455	473.504545	68.000000	55.000000
473.120455	473.504545	74.000000	56.000000
473.215909	473.440909	89.000000	61.000000
473.311364	473.504545	77.000000	58.000000
473.440909	473.568182	89.000000	64.000000
473.536364	474.015909	82.000000	64.000000
473.568182	474.015909	58.000000	50.000000
473.695455	474.047727	70.000000	53.000000
473.727273	474.015909	66.000000	51.000000
473.790909	473.952273	87.000000	61.000000
473.856818	474.015909	75.000000	52.000000
473.952273	474.047727	87.000000	65.000000
474.047727	474.527273	58.000000	47.000000
474.047727	474.559091	80.000000	62.000000
474.240909	474.559091	65.000000	44.000000
474.240909	474.559091	68.000000	47.000000
474.336364	474.463636	85.000000	62.000000
474.400000	474.559091	73.000000	54.000000
474.463636	474.590909	85.000000	63.000000
474.590909	475.072727	78.000000	63.000000
474.625000	475.072727	58.000000	37.000000
474.784091	475.072727	63.000000	45.000000
474.784091	475.072727	66.000000	46.000000
474.847727	475.009091	84.000000	57.000000
474.943182	475.072727	72.000000	54.000000
475.009091	475.104545	84.000000	61.000000
475.136364	475.711364	58.000000	44.000000
475.136364	475.263636	77.000000	65.000000
475.327273	475.711364	61.000000	46.000000
475.327273	475.711364	65.000000	46.000000
475.425000	475.584091	82.000000	58.000000
475.488636	475.711364	70.000000	55.000000
475.584091	475.711364	82.000000	59.000000
475.711364	475.840909	41.000000	40.000000
475.743182	476.575000	53.000000	38.000000
475.743182	476.575000	69.000000	55.000000
475.743182	476.320455	81.000000	62.000000
476.000000	476.575000	60.000000	49.000000
476.000000	476.575000	65.000000	48.000000
476.511364	476.640909	37.000000	51.000000
476.511364	476.575000	44.000000	53.000000
476.672727	476.768182	46.000000	48.000000
476.831818	476.959091	48.000000	48.000000
476.990909	477.120455	37.000000	52.000000
476.990909	477.088636	49.000000	52.000000
476.990909	477.088636	56.000000	51.000000
477.152273	477.247727	58.000000	48.000000
477.311364	477.409091	37.000000	50.000000
477.311364	477.409091	60.000000	44.000000
477.343182	477.409091	53.000000	44.000000
477.472727	477.568182	61.000000	53.000000
477.600000	477.727273	63.000000	55.000000
477.631818	477.727273	37.000000	49.000000
477.759091	477.856818	64.000000	60.000000
477.790909	477.856818	49.000000	48.000000
477.790909	477.856818	56.000000	42.000000
477.825000	477.888636	37.000000	47.000000
477.920455	478.015909	65.000000	65.000000
477.952273	478.015909	37.000000	53.000000
477.952273	478.015909	53.000000	53.000000
477.952273	478.015909	56.000000	49.000000
478.079545	478.175000	39.000000	60.000000
478.079545	478.143182	65.000000	55.000000
478.209091	478.304545	56.000000	54.000000
478.209091	478.400000	65.000000	55.000000
478.240909	478.463636	41.000000	54.000000
478.240909	478.495455	49.000000	55.000000
478.400000	478.559091	42.000000	55.000000
478.400000	478.495455	58.000000	46.000000
478.400000	478.495455	65.000000	55.000000
478.527273	478.625000	51.000000	52.000000
478.527273	478.625000	66.000000	60.000000
478.559091	478.625000	58.000000	43.000000
478.656818	478.752273	42.000000	59.000000
478.688636	478.720455	41.000000	57.000000
478.688636	478.720455	53.000000	56.000000
478.688636	478.752273	65.000000	51.000000
478.688636	478.752273	68.000000	60.000000
478.815909	478.911364	70.000000	65.000000
478.847727	478.911364	42.000000	59.000000
478.847727	478.911364	60.000000	58.000000
478.847727	478.911364	66.000000	53.000000
478.975000	479.072727	44.000000	61.000000
478.975000	479.072727	61.000000	58.000000
478.975000	479.072727	63.000000	52.000000
478.975000	479.072727	66.000000	52.000000
478.975000	479.072727	70.000000	63.000000
479.104545	479.200000	46.000000	58.000000
479.104545	479.200000	63.000000	61.000000
479.104545	479.200000	70.000000	64.000000
479.136364	479.200000	66.000000	54.000000
479.263636	479.327273	48.000000	56.000000
479.263636	479.327273	60.000000	53.000000
479.263636	479.359091	63.000000	62.000000
479.263636	479.359091	70.000000	64.000000
479.390909	479.488636	68.000000	62.000000
479.425000	479.488636	49.000000	54.000000
479.425000	479.488636	61.000000	49.000000
479.425000	479.488636	65.000000	56.000000
479.552273	479.679545	51.000000	43.000000
479.552273	479.647727	68.000000	61.000000
479.584091	479.647727	63.000000	43.000000
479.584091	479.615909	65.000000	44.000000
479.711364	479.809091	66.000000	59.000000
479.743182	479.809091	51.000000	46.000000
479.743182	479.809091	68.000000	52.000000
479.872727	479.968182	49.000000	47.000000
479.872727	479.968182	65.000000	51.000000
479.872727	479.968182	68.000000	57.000000
480.031818	480.159091	48.000000	41.000000
480.031818	480.127273	56.000000	46.000000
480.031818	480.127273	63.000000	51.000000
480.031818	480.127273	68.000000	50.000000
480.063636	480.095455	60.000000	38.000000
480.225000	480.352273	49.000000	48.000000
480.225000	480.352273	56.000000	45.000000
480.256818	480.288636	65.000000	35.000000
480.352273	480.447727	49.000000	43.000000
480.352273	480.447727	58.000000	53.000000
480.479545	480.609091	49.000000	49.000000
480.511364	480.575000	60.000000	56.000000
480.640909	480.736364	49.000000	46.000000
480.640909	480.736364	61.000000	46.000000
480.672727	480.736364	65.000000	43.000000
480.672727	480.736364	68.000000	49.000000
480.800000	480.895455	49.000000	44.000000
480.800000	480.895455	61.000000	43.000000
480.800000	480.895455	65.000000	42.000000
480.800000	480.895455	70.000000	56.000000
480.927273	481.056818	49.000000	48.000000
480.927273	481.056818	72.000000	59.000000
480.959091	481.056818	61.000000	46.000000
480.959091	481.025000	65.000000	46.000000
480.959091	481.056818	68.000000	47.000000
481.088636	481.184091	49.000000	42.000000
481.088636	481.184091	61.000000	47.000000
481.088636	481.184091	65.000000	42.000000
481.088636	481.184091	73.000000	65.000000
481.215909	481.311364	49.000000	48.000000
481.215909	481.311364	75.000000	64.000000
481.247727	481.311364	65.000000	42.000000
481.247727	481.311364	68.000000	47.000000
481.375000	481.472727	49.000000	51.000000
481.375000	481.440909	61.000000	51.000000
481.375000	481.472727	65.000000	52.000000
481.375000	481.472727	76.000000	64.000000
481.409091	481.472727	68.000000	49.000000
481.504545	481.568182	65.000000	66.000000
481.504545	481.600000	77.000000	67.000000
481.536364	481.600000	49.000000	59.000000
481.536364	481.600000	61.000000	60.000000
481.536364	481.568182	68.000000	56.000000
481.631818	481.727273	51.000000	55.000000
481.631818	481.727273	66.000000	67.000000
481.663636	481.727273	61.000000	57.000000
481.663636	481.790909	77.000000	62.000000
481.790909	481.856818	53.000000	52.000000
481.790909	481.856818	61.000000	55.000000
481.790909	481.856818	68.000000	60.000000
481.790909	481.888636	77.000000	62.000000
481.920455	482.015909	54.000000	55.000000
481.920455	482.015909	61.000000	64.000000
481.920455	482.047727	77.000000	66.000000
481.952273	482.015909	70.000000	55.000000
482.079545	482.209091	61.000000	61.000000
482.079545	482.209091	70.000000	59.000000
482.079545	482.209091	75.000000	71.000000
482.240909	482.304545	63.000000	59.000000
482.240909	482.304545	70.000000	65.000000
482.240909	482.304545	82.000000	66.000000
482.272727	482.304545	55.000000	48.000000
482.527273	482.625000	72.000000	61.000000
482.527273	482.625000	80.000000	66.000000
482.559091	482.590909	44.000000	52.000000
482.559091	482.625000	56.000000	50.000000
482.559091	482.625000	63.000000	49.000000
482.559091	482.590909	68.000000	55.000000
482.688636	482.752273	62.000000	55.000000
482.688636	482.752273	71.000000	65.000000
482.975000	483.072727	53.000000	42.000000
482.975000	483.072727	62.000000	42.000000
482.975000	483.072727	70.000000	55.000000
483.009091	483.072727	68.000000	49.000000
483.136364	483.231818	51.000000	50.000000
483.136364	483.231818	61.000000	53.000000
483.136364	483.231818	67.000000	53.000000
483.136364	483.231818	70.000000	58.000000
483.295455	483.390909	68.000000	60.000000
483.327273	483.425000	60.000000	46.000000
483.359091	483.425000	56.000000	47.000000
483.679545	483.936364	37.000000	54.000000
483.679545	483.904545	44.000000	55.000000
483.840909	483.936364	46.000000	45.000000
483.872727	483.936364	58.000000	43.000000
484.000000	484.095455	48.000000	53.000000
484.190909	484.256818	37.000000	50.000000
484.190909	484.256818	49.000000	52.000000
484.190909	484.256818	53.000000	51.000000
484.190909	484.256818	56.000000	54.000000
484.320455	484.415909	58.000000	53.000000
484.352273	484.415909	37.000000	46.000000
484.447727	484.543182	60.000000	54.000000
484.479545	484.575000	37.000000	46.000000
484.479545	484.575000	53.000000	44.000000
484.479545	484.575000	56.000000	45.000000
484.511364	484.543182	49.000000	45.000000
484.640909	484.736364	37.000000	41.000000
484.640909	484.736364	56.000000	35.000000
484.640909	484.736364	61.000000	58.000000
484.672727	484.736364	49.000000	43.000000
484.672727	484.736364	53.000000	39.000000
484.768182	484.895455	37.000000	50.000000
484.768182	484.895455	63.000000	59.000000
484.800000	484.863636	56.000000	41.000000
484.927273	485.025000	49.000000	51.000000
484.927273	485.025000	56.000000	47.000000
484.927273	485.025000	64.000000	62.000000
484.959091	485.025000	61.000000	47.000000
485.088636	485.184091	37.000000	60.000000
485.088636	485.184091	53.000000	59.000000
485.088636	485.184091	65.000000	64.000000
485.120455	485.152273	56.000000	47.000000
485.247727	485.343182	39.000000	61.000000
485.247727	485.311364	49.000000	57.000000
485.247727	485.311364	58.000000	56.000000
485.247727	485.311364	61.000000	54.000000
485.247727	485.311364	65.000000	61.000000
485.375000	485.568182	65.000000	63.000000
485.409091	485.568182	41.000000	60.000000
485.409091	485.568182	49.000000	60.000000
485.409091	485.536364	56.000000	59.000000
485.536364	485.631818	42.000000	50.000000
485.568182	485.600000	49.000000	48.000000
485.568182	485.631818	58.000000	46.000000
485.568182	485.600000	61.000000	48.000000
485.568182	485.631818	65.000000	44.000000
485.663636	485.759091	66.000000	64.000000
485.695455	485.759091	42.000000	42.000000
485.695455	485.759091	51.000000	49.000000
485.695455	485.759091	58.000000	43.000000
485.825000	485.888636	42.000000	59.000000
485.825000	485.888636	58.000000	48.000000
485.825000	485.888636	65.000000	46.000000
485.825000	485.920455	68.000000	63.000000
485.984091	486.047727	42.000000	61.000000
485.984091	486.047727	58.000000	61.000000
485.984091	486.047727	66.000000	52.000000
485.984091	486.047727	70.000000	66.000000
486.111364	486.209091	44.000000	62.000000
486.111364	486.209091	60.000000	56.000000
486.111364	486.209091	63.000000	51.000000
486.111364	486.209091	66.000000	53.000000
486.111364	486.209091	70.000000	65.000000
486.272727	486.336364	46.000000	56.000000
486.272727	486.336364	61.000000	64.000000
486.272727	486.336364	70.000000	65.000000
486.400000	486.527273	48.000000	54.000000
486.400000	486.495455	63.000000	68.000000
486.400000	486.495455	70.000000	65.000000
486.590909	486.688636	49.000000	53.000000
486.590909	486.688636	61.000000	49.000000
486.590909	486.688636	65.000000	57.000000
486.590909	486.688636	68.000000	62.000000
486.720455	486.815909	65.000000	48.000000
486.720455	486.815909	68.000000	60.000000
486.752273	486.847727	51.000000	45.000000
486.879545	486.975000	66.000000	63.000000
486.879545	486.975000	68.000000	60.000000
486.911364	486.975000	51.000000	51.000000
486.911364	486.975000	63.000000	50.000000
487.040909	487.136364	49.000000	55.000000
487.040909	487.136364	65.000000	57.000000
487.040909	487.168182	68.000000	54.000000
487.200000	487.327273	48.000000	48.000000
487.200000	487.327273	63.000000	54.000000
487.200000	487.327273	68.000000	55.000000
487.390909	487.584091	49.000000	43.000000
487.552273	487.615909	58.000000	43.000000
487.552273	487.615909	68.000000	48.000000
487.584091	487.615909	49.000000	37.000000
487.679545	487.775000	65.000000	44.000000
487.679545	487.775000	68.000000	51.000000
487.711364	487.775000	60.000000	47.000000
487.840909	487.936364	61.000000	49.000000
487.840909	487.904545	65.000000	39.000000
487.840909	487.936364	68.000000	52.000000
487.968182	488.095455	70.000000	59.000000
488.000000	488.063636	49.000000	46.000000
488.000000	488.063636	61.000000	49.000000
488.127273	488.225000	49.000000	48.000000
488.127273	488.225000	61.000000	46.000000
488.127273	488.225000	65.000000	48.000000
488.127273	488.190909	68.000000	46.000000
488.127273	488.225000	72.000000	57.000000
488.256818	488.352273	73.000000	63.000000
488.288636	488.352273	49.000000	42.000000
488.415909	488.479545	49.000000	44.000000
488.415909	488.479545	61.000000	43.000000
488.415909	488.479545	65.000000	43.000000
488.415909	488.479545	75.000000	62.000000
488.543182	488.640909	76.000000	63.000000
488.575000	488.672727	49.000000	45.000000
488.575000	488.640909	61.000000	49.000000
488.575000	488.640909	65.000000	43.000000
488.704545	488.800000	49.000000	55.000000
488.704545	488.800000	61.000000	58.000000
488.704545	488.800000	65.000000	61.000000
488.704545	488.800000	77.000000	66.000000
488.831818	488.927273	66.000000	67.000000
488.863636	488.927273	51.000000	56.000000
488.863636	488.927273	61.000000	58.000000
488.863636	488.927273	77.000000	64.000000
488.990909	489.088636	53.000000	55.000000
488.990909	489.088636	61.000000	57.000000
488.990909	489.056818	68.000000	63.000000
488.990909	489.120455	77.000000	67.000000
489.120455	489.215909	54.000000	50.000000
489.120455	489.279545	77.000000	57.000000
489.152273	489.215909	61.000000	49.000000
489.152273	489.215909	70.000000	55.000000
489.279545	489.375000	61.000000	54.000000
489.279545	489.375000	75.000000	65.000000
489.409091	489.504545	82.000000	69.000000
489.440909	489.504545	55.000000	47.000000
489.440909	489.504545	63.000000	65.000000
489.440909	489.504545	73.000000	70.000000
489.759091	489.856818	72.000000	64.000000
489.790909	489.856818	56.000000	57.000000
489.790909	489.856818	63.000000	62.000000
489.790909	489.856818	68.000000	63.000000
489.790909	489.856818	80.000000	68.000000
489.825000	489.856818	44.000000	57.000000
489.952273	490.047727	62.000000	58.000000
489.952273	490.047727	71.000000	63.000000
489.984091	490.047727	68.000000	51.000000
490.304545	490.368182	53.000000	40.000000
490.304545	490.400000	61.000000	39.000000
490.304545	490.368182	62.000000	42.000000
490.304545	490.400000	70.000000	55.000000
490.336364	490.400000	68.000000	43.000000
490.463636	490.559091	51.000000	48.000000
490.463636	490.559091	61.000000	47.000000
490.463636	490.559091	67.000000	48.000000
490.463636	490.559091	70.000000	55.000000
490.625000	490.911364	68.000000	53.000000
490.656818	490.911364	60.000000	33.000000
490.688636	490.911364	56.000000	38.000000
491.072727	491.231818	51.000000	49.000000
491.072727	491.263636	58.000000	56.000000
491.200000	491.263636	60.000000	52.000000
491.200000	491.295455	70.000000	58.000000
491.231818	491.295455	51.000000	41.000000
491.231818	491.295455	66.000000	47.000000
491.327273	491.456818	62.000000	58.000000
491.359091	491.488636	66.000000	48.000000
491.359091	491.488636	70.000000	58.000000
491.520455	491.584091	63.000000	59.000000
491.520455	491.615909	66.000000	49.000000
491.520455	491.615909	70.000000	61.000000
491.679545	491.743182	51.000000	47.000000
491.679545	491.775000	58.000000	48.000000
491.679545	491.743182	63.000000	50.000000
491.679545	491.775000	72.000000	60.000000
491.711364	491.743182	66.000000	35.000000
491.809091	491.936364	74.000000	54.000000
491.840909	491.904545	66.000000	34.000000
491.872727	491.936364	58.000000	42.000000
491.968182	492.063636	51.000000	41.000000
491.968182	492.063636	75.000000	60.000000
492.000000	492.063636	63.000000	47.000000
492.095455	492.190909	77.000000	61.000000
492.127273	492.190909	51.000000	44.000000
492.127273	492.190909	58.000000	52.000000
492.127273	492.190909	63.000000	52.000000
492.127273	492.190909	66.000000	44.000000
492.256818	492.352273	51.000000	50.000000
492.256818	492.352273	58.000000	46.000000
492.256818	492.352273	63.000000	54.000000
492.256818	492.352273	66.000000	58.000000
492.256818	492.352273	78.000000	70.000000
492.415909	492.479545	66.000000	64.000000
492.415909	492.479545	78.000000	73.000000
492.511364	492.768182	60.000000	53.000000
492.543182	492.736364	56.000000	53.000000
492.543182	492.609091	63.000000	42.000000
492.543182	492.609091	72.000000	52.000000
492.704545	492.863636	44.000000	59.000000
492.704545	492.863636	68.000000	64.000000
492.895455	493.056818	51.000000	49.000000
492.895455	492.990909	58.000000	54.000000
493.025000	493.120455	60.000000	54.000000
493.056818	493.120455	51.000000	43.000000
493.056818	493.120455	66.000000	46.000000
493.056818	493.120455	70.000000	59.000000
493.184091	493.247727	62.000000	53.000000
493.184091	493.247727	66.000000	48.000000
493.184091	493.279545	70.000000	55.000000
493.343182	493.440909	58.000000	41.000000
493.343182	493.409091	63.000000	49.000000
493.343182	493.409091	66.000000	39.000000
493.343182	493.409091	70.000000	54.000000
493.504545	493.600000	58.000000	47.000000
493.504545	493.600000	63.000000	46.000000
493.504545	493.568182	66.000000	36.000000
493.504545	493.600000	72.000000	59.000000
493.536364	493.727273	51.000000	41.000000
493.631818	493.695455	66.000000	40.000000
493.631818	493.727273	74.000000	60.000000
493.790909	493.888636	51.000000	42.000000
493.790909	493.888636	58.000000	42.000000
493.790909	493.856818	66.000000	47.000000
493.790909	493.920455	75.000000	62.000000
493.825000	493.888636	63.000000	44.000000
493.920455	494.047727	77.000000	63.000000
493.952273	494.047727	51.000000	44.000000
493.952273	494.015909	58.000000	46.000000
493.952273	494.015909	63.000000	46.000000
494.079545	494.175000	63.000000	49.000000
494.079545	494.175000	66.000000	55.000000
494.079545	494.175000	78.000000	71.000000
494.111364	494.175000	51.000000	46.000000
494.111364	494.175000	58.000000	46.000000
494.240909	494.304545	66.000000	63.000000
494.240909	494.304545	78.000000	73.000000
494.368182	494.590909	60.000000	57.000000
494.400000	494.625000	56.000000	54.000000
494.527273	494.879545	68.000000	69.000000
494.559091	494.879545	44.000000	58.000000
494.559091	494.590909	80.000000	61.000000
494.590909	494.879545	60.000000	46.000000
494.752273	494.847727	49.000000	54.000000
494.879545	494.975000	58.000000	51.000000
494.879545	494.943182	80.000000	68.000000
495.040909	495.136364	60.000000	55.000000
495.040909	495.136364	65.000000	53.000000
495.040909	495.136364	68.000000	58.000000
495.200000	495.295455	49.000000	47.000000
495.200000	495.295455	61.000000	44.000000
495.200000	495.295455	65.000000	41.000000
495.200000	495.295455	68.000000	54.000000
495.231818	495.263636	56.000000	40.000000
495.359091	495.456818	49.000000	44.000000
495.359091	495.456818	56.000000	41.000000
495.359091	495.456818	61.000000	44.000000
495.359091	495.456818	70.000000	59.000000
495.488636	495.584091	49.000000	48.000000
495.488636	495.584091	61.000000	45.000000
495.488636	495.584091	65.000000	42.000000
495.488636	495.584091	72.000000	59.000000
495.520455	495.584091	56.000000	42.000000
495.647727	495.743182	56.000000	40.000000
495.647727	495.743182	61.000000	42.000000
495.647727	495.743182	65.000000	40.000000
495.647727	495.711364	73.000000	62.000000
495.679545	495.743182	49.000000	39.000000
495.775000	495.872727	49.000000	48.000000
495.775000	495.872727	75.000000	64.000000
495.809091	495.872727	61.000000	47.000000
495.809091	495.872727	65.000000	45.000000
495.904545	496.000000	76.000000	62.000000
495.936364	496.000000	56.000000	44.000000
495.936364	496.000000	61.000000	46.000000
495.936364	496.000000	65.000000	43.000000
496.063636	496.127273	65.000000	62.000000
496.063636	496.159091	77.000000	67.000000
496.095455	496.159091	49.000000	51.000000
496.095455	496.159091	56.000000	52.000000
496.095455	496.159091	61.000000	51.000000
496.190909	496.288636	66.000000	65.000000
496.225000	496.320455	51.000000	55.000000
496.225000	496.320455	61.000000	57.000000
496.225000	496.320455	77.000000	64.000000
496.352273	496.447727	61.000000	62.000000
496.352273	496.447727	68.000000	64.000000
496.384091	496.447727	53.000000	58.000000
496.384091	496.479545	77.000000	67.000000
496.543182	496.640909	54.000000	55.000000
496.543182	496.640909	61.000000	58.000000
496.543182	496.640909	70.000000	57.000000
496.543182	496.640909	77.000000	65.000000
496.672727	496.768182	76.000000	68.000000
496.863636	496.959091	82.000000	72.000000
497.215909	497.311364	76.000000	61.000000
497.247727	497.311364	54.000000	42.000000
497.247727	497.311364	61.000000	50.000000
497.247727	497.311364	70.000000	52.000000
497.375000	497.472727	76.000000	61.000000
497.409091	497.472727	54.000000	46.000000
497.409091	497.472727	61.000000	54.000000
497.409091	497.472727	70.000000	59.000000
497.759091	497.856818	53.000000	49.000000
497.759091	497.856818	61.000000	54.000000
497.759091	497.856818	70.000000	52.000000
497.759091	497.856818	77.000000	60.000000
497.920455	497.984091	60.000000	43.000000
497.920455	497.984091	69.000000	58.000000
497.920455	498.015909	77.000000	54.000000
498.079545	498.209091	61.000000	57.000000
498.079545	498.175000	70.000000	59.000000
498.079545	498.240909	77.000000	59.000000
498.111364	498.209091	58.000000	53.000000
498.590909	498.815909	51.000000	46.000000
498.590909	498.815909	58.000000	52.000000
498.752273	498.815909	60.000000	52.000000
498.752273	498.815909	70.000000	62.000000
498.879545	498.943182	62.000000	58.000000
498.911364	498.975000	58.000000	41.000000
498.911364	498.975000	66.000000	53.000000
498.911364	498.975000	70.000000	54.000000
499.072727	499.168182	58.000000	41.000000
499.072727	499.136364	63.000000	50.000000
499.072727	499.136364	66.000000	40.000000
499.072727	499.168182	70.000000	55.000000
499.200000	499.359091	58.000000	50.000000
499.200000	499.327273	72.000000	62.000000
499.231818	499.327273	63.000000	46.000000
499.359091	499.488636	58.000000	46.000000
499.359091	499.488636	63.000000	49.000000
499.359091	499.456818	66.000000	39.000000
499.359091	499.488636	74.000000	59.000000
499.520455	499.615909	58.000000	41.000000
499.520455	499.615909	75.000000	65.000000
499.552273	499.615909	51.000000	40.000000
499.552273	499.615909	63.000000	47.000000
499.552273	499.584091	66.000000	39.000000
499.679545	499.775000	51.000000	47.000000
499.679545	499.775000	58.000000	50.000000
499.679545	499.775000	63.000000	56.000000
499.679545	499.775000	77.000000	61.000000
499.809091	499.904545	78.000000	72.000000
499.840909	499.904545	51.000000	48.000000
499.840909	499.904545	63.000000	50.000000
499.840909	499.904545	66.000000	54.000000
499.968182	500.063636	78.000000	73.000000
500.000000	500.063636	66.000000	65.000000
500.127273	500.225000	56.000000	46.000000
500.127273	500.225000	60.000000	50.000000
500.159091	500.190909	72.000000	49.000000
500.288636	500.479545	44.000000	63.000000
500.288636	500.479545	68.000000	62.000000
500.511364	500.672727	51.000000	50.000000
500.511364	500.640909	58.000000	56.000000
500.672727	500.736364	51.000000	42.000000
500.672727	500.736364	60.000000	47.000000
500.672727	500.736364	66.000000	52.000000
500.672727	500.736364	70.000000	56.000000
500.704545	500.736364	58.000000	42.000000
500.800000	500.863636	62.000000	57.000000
500.831818	500.895455	58.000000	42.000000
500.831818	500.895455	66.000000	46.000000
500.831818	500.895455	70.000000	59.000000
500.959091	501.056818	63.000000	54.000000
500.959091	501.056818	66.000000	46.000000
500.959091	501.056818	70.000000	60.000000
500.990909	501.056818	58.000000	43.000000
501.120455	501.215909	72.000000	61.000000
501.152273	501.247727	51.000000	45.000000
501.152273	501.247727	58.000000	46.000000
501.152273	501.215909	63.000000	47.000000
501.152273	501.184091	66.000000	39.000000
501.279545	501.375000	51.000000	44.000000
501.279545	501.375000	63.000000	49.000000
501.279545	501.375000	74.000000	61.000000
501.311364	501.375000	58.000000	41.000000
501.311364	501.375000	66.000000	39.000000
501.440909	501.504545	51.000000	43.000000
501.440909	501.536364	58.000000	41.000000
501.440909	501.504545	63.000000	50.000000
501.440909	501.504545	66.000000	47.000000
501.440909	501.536364	75.000000	63.000000
501.600000	501.695455	51.000000	41.000000
501.600000	501.695455	58.000000	48.000000
501.600000	501.695455	77.000000	62.000000
501.727273	501.825000	78.000000	72.000000
501.759091	501.825000	51.000000	52.000000
501.759091	501.856818	58.000000	51.000000
501.759091	501.825000	63.000000	56.000000
501.759091	501.856818	66.000000	59.000000
501.888636	501.984091	78.000000	73.000000
501.920455	501.984091	66.000000	63.000000
502.047727	502.495455	60.000000	48.000000
502.079545	502.495455	56.000000	42.000000
502.079545	502.143182	63.000000	40.000000
502.079545	502.111364	72.000000	49.000000
502.240909	502.495455	68.000000	63.000000
502.272727	502.495455	44.000000	58.000000
502.463636	502.527273	49.000000	49.000000
502.590909	502.656818	58.000000	51.000000
502.590909	502.656818	80.000000	66.000000
502.720455	502.815909	60.000000	55.000000
502.752273	502.815909	65.000000	52.000000
502.752273	502.815909	68.000000	56.000000
502.911364	502.975000	49.000000	45.000000
502.911364	502.975000	56.000000	42.000000
502.911364	503.009091	61.000000	44.000000
502.911364	502.975000	65.000000	39.000000
502.911364	502.975000	68.000000	53.000000
503.040909	503.136364	70.000000	60.000000
503.072727	503.136364	49.000000	44.000000
503.072727	503.136364	56.000000	39.000000
503.072727	503.136364	61.000000	43.000000
503.072727	503.136364	65.000000	35.000000
503.200000	503.295455	49.000000	46.000000
503.200000	503.295455	61.000000	44.000000
503.200000	503.295455	65.000000	41.000000
503.200000	503.263636	68.000000	48.000000
503.200000	503.295455	72.000000	59.000000
503.231818	503.295455	56.000000	39.000000
503.327273	503.425000	73.000000	65.000000
503.359091	503.456818	56.000000	41.000000
503.359091	503.456818	61.000000	46.000000
503.359091	503.456818	65.000000	41.000000
503.488636	503.584091	49.000000	48.000000
503.488636	503.584091	75.000000	65.000000
503.520455	503.584091	56.000000	44.000000
503.520455	503.584091	61.000000	45.000000
503.520455	503.584091	65.000000	44.000000
503.615909	503.711364	76.000000	64.000000
503.647727	503.743182	56.000000	47.000000
503.647727	503.743182	61.000000	50.000000
503.647727	503.711364	65.000000	46.000000
503.809091	503.872727	49.000000	54.000000
503.809091	503.872727	61.000000	54.000000
503.809091	503.872727	65.000000	61.000000
503.809091	503.872727	68.000000	55.000000
503.809091	503.872727	77.000000	67.000000
503.936364	504.000000	51.000000	57.000000
503.936364	504.000000	61.000000	57.000000
503.936364	504.000000	66.000000	66.000000
503.936364	504.000000	77.000000	63.000000
504.063636	504.190909	61.000000	65.000000
504.063636	504.159091	68.000000	67.000000
504.063636	504.190909	77.000000	70.000000
504.095455	504.190909	53.000000	59.000000
504.288636	504.736364	54.000000	53.000000
504.288636	504.672727	61.000000	58.000000
504.288636	504.384091	70.000000	57.000000
504.288636	504.384091	77.000000	67.000000
504.415909	504.511364	76.000000	66.000000
504.640909	504.736364	82.000000	68.000000
504.672727	504.736364	61.000000	43.000000
505.120455	505.215909	61.000000	47.000000
505.120455	505.184091	70.000000	51.000000
505.120455	505.184091	76.000000	62.000000
505.152273	505.184091	42.000000	42.000000
505.152273	505.184091	54.000000	36.000000
505.311364	505.375000	54.000000	43.000000
505.311364	505.375000	61.000000	51.000000
505.311364	505.375000	70.000000	53.000000
505.311364	505.375000	76.000000	62.000000
505.695455	505.759091	53.000000	38.000000
505.695455	505.790909	61.000000	41.000000
505.695455	505.759091	70.000000	41.000000
505.695455	505.759091	77.000000	50.000000
505.888636	505.952273	53.000000	41.000000
505.888636	505.952273	60.000000	39.000000
505.888636	505.952273	69.000000	46.000000
505.888636	505.952273	77.000000	52.000000
506.079545	506.431818	61.000000	42.000000
506.079545	506.784091	77.000000	45.000000
506.111364	506.431818	58.000000	37.000000
506.111364	506.209091	70.000000	38.000000
508.063636	508.511364	48.000000	48.000000
508.095455	508.511364	36.000000	52.000000
508.511364	508.640909	36.000000	45.000000
508.511364	508.640909	48.000000	42.000000
508.640909	508.831818	36.000000	45.000000
508.640909	508.768182	48.000000	46.000000
508.831818	509.215909	36.000000	56.000000
508.831818	509.215909	48.000000	58.000000
509.215909	509.311364	31.000000	54.000000
509.215909	509.375000	43.000000	54.000000
509.440909	509.727273	48.000000	44.000000
509.440909	509.536364	64.000000	51.000000
509.440909	509.825000	67.000000	53.000000
509.472727	509.727273	36.000000	43.000000
509.472727	509.536364	60.000000	40.000000
509.727273	509.825000	36.000000	42.000000
509.727273	509.825000	48.000000	43.000000
509.727273	509.920455	64.000000	52.000000
509.759091	509.856818	60.000000	40.000000
509.825000	509.984091	36.000000	44.000000
509.825000	509.952273	48.000000	49.000000
509.825000	509.952273	67.000000	56.000000
509.856818	509.920455	60.000000	45.000000
510.015909	510.400000	48.000000	51.000000
510.015909	510.111364	60.000000	48.000000
510.015909	510.111364	64.000000	58.000000
510.015909	510.111364	67.000000	56.000000
510.400000	510.559091	47.000000	47.000000
510.400000	510.527273	62.000000	52.000000
510.400000	510.495455	65.000000	56.000000
510.400000	510.559091	67.000000	56.000000
510.431818	510.463636	59.000000	48.000000
510.625000	510.911364	36.000000	50.000000
510.625000	510.847727	48.000000	51.000000
510.625000	510.688636	60.000000	45.000000
510.625000	510.720455	64.000000	59.000000
510.625000	511.009091	67.000000	55.000000
510.879545	511.009091	64.000000	53.000000
510.911364	511.009091	36.000000	44.000000
510.911364	510.975000	48.000000	44.000000
510.911364	511.009091	60.000000	43.000000
511.009091	511.136364	36.000000	47.000000
511.009091	511.136364	60.000000	50.000000
511.009091	511.136364	64.000000	55.000000
511.009091	511.168182	67.000000	57.000000
511.040909	511.136364	48.000000	50.000000
511.200000	511.295455	48.000000	59.000000
511.200000	511.295455	64.000000	64.000000
511.200000	511.295455	67.000000	62.000000
511.231818	511.295455	36.000000	53.000000
511.390909	511.520455	62.000000	56.000000
511.390909	511.520455	65.000000	62.000000
511.390909	511.520455	67.000000	62.000000
511.425000	511.520455	35.000000	49.000000
511.425000	511.456818	47.000000	45.000000
511.584091	511.743182	64.000000	58.000000
511.615909	511.711364	36.000000	44.000000
511.615909	511.711364	48.000000	45.000000
511.615909	511.743182	67.000000	54.000000
511.775000	511.904545	35.000000	49.000000
511.775000	511.904545	47.000000	44.000000
511.775000	511.904545	62.000000	53.000000
511.775000	511.904545	65.000000	55.000000
511.775000	511.904545	67.000000	52.000000
511.968182	512.095455	36.000000	49.000000
511.968182	512.095455	48.000000	50.000000
511.968182	512.095455	64.000000	59.000000
511.968182	512.159091	67.000000	50.000000
512.159091	512.288636	35.000000	49.000000
512.159091	512.256818	47.000000	45.000000
512.159091	512.256818	62.000000	53.000000
512.159091	512.256818	65.000000	56.000000
512.159091	512.288636	67.000000	57.000000
512.352273	512.447727	35.000000	56.000000
512.352273	512.447727	47.000000	51.000000
512.352273	512.447727	62.000000	61.000000
512.352273	512.447727	65.000000	64.000000
512.352273	512.479545	67.000000	66.000000
512.543182	512.736364	36.000000	56.000000
512.543182	512.736364	48.000000	57.000000
512.543182	512.736364	64.000000	62.000000
512.543182	512.736364	67.000000	60.000000
512.736364	512.800000	60.000000	58.000000
512.895455	513.088636	60.000000	59.000000
513.088636	513.184091	62.000000	51.000000
513.120455	513.215909	59.000000	45.000000
513.247727	513.409091	60.000000	45.000000
513.247727	513.409091	64.000000	57.000000
513.279545	513.409091	58.000000	43.000000
513.440909	513.536364	57.000000	44.000000
513.440909	513.536364	60.000000	48.000000
513.440909	513.536364	65.000000	60.000000
513.600000	513.695455	60.000000	58.000000
513.600000	513.695455	67.000000	62.000000
513.759091	513.984091	69.000000	68.000000
513.790909	513.952273	53.000000	56.000000
513.790909	513.952273	60.000000	56.000000
513.984091	514.079545	57.000000	63.000000
514.143182	514.240909	56.000000	55.000000
514.143182	514.240909	59.000000	58.000000
514.304545	514.431818	57.000000	44.000000
514.304545	514.431818	61.000000	57.000000
514.336364	514.400000	55.000000	45.000000
514.495455	514.590909	53.000000	42.000000
514.495455	514.590909	57.000000	40.000000
514.495455	514.625000	62.000000	48.000000
514.527273	514.559091	41.000000	40.000000
514.656818	514.752273	52.000000	47.000000
514.656818	514.752273	64.000000	58.000000
514.688636	514.752273	57.000000	36.000000
514.815909	514.911364	65.000000	59.000000
514.847727	514.911364	50.000000	46.000000
514.847727	514.911364	57.000000	45.000000
515.009091	515.104545	55.000000	62.000000
515.009091	515.104545	67.000000	58.000000
515.168182	515.327273	57.000000	60.000000
515.200000	515.295455	54.000000	54.000000
515.200000	515.231818	66.000000	54.000000
515.359091	515.520455	53.000000	52.000000
515.359091	515.520455	59.000000	53.000000
515.359091	515.552273	67.000000	52.000000
515.552273	515.711364	52.000000	51.000000
515.552273	515.743182	55.000000	50.000000
515.552273	515.711364	60.000000	58.000000
515.743182	515.904545	50.000000	44.000000
515.743182	515.904545	62.000000	53.000000
515.775000	515.904545	55.000000	37.000000
515.968182	516.225000	48.000000	45.000000
515.968182	516.159091	55.000000	51.000000
515.968182	516.190909	64.000000	63.000000
515.968182	516.000000	67.000000	51.000000
516.000000	516.095455	60.000000	41.000000
516.320455	517.152273	63.000000	53.000000
516.320455	517.152273	66.000000	62.000000
516.352273	517.311364	47.000000	50.000000
516.352273	517.152273	57.000000	48.000000
517.120455	517.631818	67.000000	47.000000
517.568182	518.847727	64.000000	50.000000
517.600000	518.847727	52.000000	39.000000
519.104545	519.679545	43.000000	71.000000
519.104545	519.679545	79.000000	72.000000
519.104545	519.679545	91.000000	73.000000
519.136364	519.679545	31.000000	67.000000
519.136364	519.679545	86.000000	69.000000
519.679545	520.190909	35.000000	63.000000
519.679545	520.225000	47.000000	65.000000
519.679545	520.190909	74.000000	68.000000
519.679545	520.190909	79.000000	70.000000
519.679545	520.190909	83.000000	67.000000
519.679545	520.225000	86.000000	72.000000
520.190909	520.704545	50.000000	65.000000
520.190909	520.704545	71.000000	67.000000
520.190909	520.704545	74.000000	65.000000
520.190909	520.672727	79.000000	68.000000
520.190909	520.704545	83.000000	72.000000
520.225000	520.736364	38.000000	67.000000
520.672727	521.247727	79.000000	73.000000
520.704545	521.184091	43.000000	71.000000
520.704545	520.800000	55.000000	72.000000
520.704545	520.831818	67.000000	71.000000
520.704545	521.184091	71.000000	63.000000
520.704545	520.800000	74.000000	63.000000
521.184091	521.279545	47.000000	66.000000
521.184091	521.409091	59.000000	65.000000
521.184091	521.409091	62.000000	66.000000
521.184091	521.409091	67.000000	66.000000
521.184091	521.409091	74.000000	70.000000
521.409091	521.663636	47.000000	60.000000
521.409091	521.663636	59.000000	65.000000
521.409091	521.663636	62.000000	64.000000
521.409091	521.663636	67.000000	61.000000
521.409091	521.631818	74.000000	67.000000
521.631818	521.920455	74.000000	68.000000
521.663636	521.920455	47.000000	60.000000
521.663636	521.920455	59.000000	63.000000
521.663636	521.920455	62.000000	64.000000
521.663636	521.920455	67.000000	63.000000
522.143182	522.625000	67.000000	71.000000
522.143182	522.625000	76.000000	71.000000
522.175000	522.625000	48.000000	67.000000
522.175000	522.625000	60.000000	66.000000
522.175000	522.625000	64.000000	72.000000
522.625000	523.136364	74.000000	70.000000
522.656818	523.136364	47.000000	64.000000
522.656818	523.136364	59.000000	63.000000
522.656818	523.136364	62.000000	63.000000
522.656818	523.136364	67.000000	62.000000
523.136364	523.615909	45.000000	64.000000
523.136364	523.615909	57.000000	62.000000
523.136364	523.584091	60.000000	65.000000
523.136364	523.615909	67.000000	70.000000
523.136364	523.615909	72.000000	68.000000
523.615909	524.127273	67.000000	69.000000
523.615909	524.127273	71.000000	71.000000
523.647727	524.127273	43.000000	68.000000
523.647727	523.936364	55.000000	70.000000
523.647727	524.127273	59.000000	67.000000
524.127273	524.543182	42.000000	67.000000
524.127273	524.352273	54.000000	63.000000
524.127273	524.225000	69.000000	67.000000
524.127273	524.190909	72.000000	70.000000
524.352273	524.575000	40.000000	64.000000
524.352273	524.543182	52.000000	66.000000
524.352273	524.543182	61.000000	69.000000
524.352273	524.575000	70.000000	64.000000
524.352273	524.575000	73.000000	72.000000
524.609091	525.088636	38.000000	69.000000
524.609091	525.088636	50.000000	67.000000
524.609091	525.088636	71.000000	67.000000
524.609091	525.120455	74.000000	71.000000
525.120455	525.663636	79.000000	73.000000
525.120455	525.663636	83.000000	70.000000
525.120455	525.663636	91.000000	74.000000
525.152273	525.663636	31.000000	69.000000
525.152273	525.663636	43.000000	71.000000
525.152273	525.663636	86.000000	72.000000
525.663636	526.143182	35.000000	66.000000
525.663636	526.143182	47.000000	68.000000
525.663636	526.143182	74.000000	68.000000
525.663636	526.143182	79.000000	70.000000
525.663636	526.143182	83.000000	67.000000
525.663636	526.175000	86.000000	73.000000
526.143182	526.656818	38.000000	71.000000
526.143182	526.240909	50.000000	67.000000
526.143182	526.209091	71.000000	67.000000
526.143182	526.240909	74.000000	66.000000
526.143182	526.625000	79.000000	67.000000
526.143182	526.656818	83.000000	71.000000
526.625000	527.136364	79.000000	71.000000
526.656818	527.136364	43.000000	71.000000
526.656818	526.752273	55.000000	72.000000
526.656818	527.136364	67.000000	70.000000
526.656818	527.104545	71.000000	64.000000
526.656818	527.104545	74.000000	66.000000
527.104545	527.231818	74.000000	70.000000
527.136364	527.359091	47.000000	65.000000
527.136364	527.359091	59.000000	66.000000
527.136364	527.231818	62.000000	63.000000
527.136364	527.359091	67.000000	67.000000
527.359091	527.615909	47.000000	62.000000
527.359091	527.615909	59.000000	63.000000
527.359091	527.615909	62.000000	62.000000
527.359091	527.615909	67.000000	62.000000
527.359091	527.615909	74.000000	71.000000
527.615909	527.904545	47.000000	61.000000
527.615909	527.904545	59.000000	64.000000
527.615909	527.904545	62.000000	63.000000
527.615909	527.904545	67.000000	62.000000
527.615909	527.904545	74.000000	69.000000
528.127273	528.672727	64.000000	69.000000
528.127273	528.672727	67.000000	67.000000
528.127273	528.672727	76.000000	69.000000
528.159091	528.672727	48.000000	62.000000
528.159091	528.672727	60.000000	60.000000
528.640909	529.215909	74.000000	67.000000
528.672727	529.247727	47.000000	60.000000
528.672727	529.247727	59.000000	61.000000
528.672727	529.215909	62.000000	60.000000
528.672727	529.279545	67.000000	60.000000
529.215909	530.015909	45.000000	64.000000
529.215909	530.047727	57.000000	66.000000
529.215909	530.015909	62.000000	66.000000
529.215909	530.047727	66.000000	70.000000
529.215909	530.047727	72.000000	67.000000
529.215909	529.984091	74.000000	66.000000
529.984091	531.263636	67.000000	67.000000
529.984091	531.263636	74.000000	70.000000
530.015909	531.263636	43.000000	71.000000
530.015909	531.263636	55.000000	73.000000
530.015909	531.263636	62.000000	68.000000
530.015909	531.263636	71.000000	66.000000
531.552273	532.063636	79.000000	71.000000
531.552273	532.063636	83.000000	70.000000
531.552273	532.063636	91.000000	72.000000
531.584091	532.063636	31.000000	67.000000
531.584091	532.063636	43.000000	70.000000
531.584091	532.063636	86.000000	70.000000
532.095455	532.575000	35.000000	65.000000
532.095455	532.575000	47.000000	67.000000
532.095455	532.543182	74.000000	66.000000
532.095455	532.575000	79.000000	68.000000
532.095455	532.575000	83.000000	66.000000
532.095455	532.609091	86.000000	70.000000
532.575000	533.088636	50.000000	66.000000
532.575000	533.056818	74.000000	66.000000
532.575000	533.088636	79.000000	66.000000
532.575000	533.088636	83.000000	71.000000
532.609091	533.088636	38.000000	68.000000
532.609091	533.088636	71.000000	67.000000
533.088636	533.600000	43.000000	71.000000
533.088636	533.184091	55.000000	71.000000
533.088636	533.215909	67.000000	69.000000
533.088636	533.568182	71.000000	64.000000
533.088636	533.568182	74.000000	67.000000
533.088636	533.631818	79.000000	72.000000
533.568182	533.695455	74.000000	69.000000
533.600000	533.825000	47.000000	63.000000
533.600000	533.825000	59.000000	62.000000
533.600000	533.759091	62.000000	61.000000
533.600000	533.825000	67.000000	62.000000
533.790909	534.047727	74.000000	69.000000
533.825000	534.079545	47.000000	61.000000
533.825000	534.079545	59.000000	62.000000
533.825000	534.079545	62.000000	61.000000
533.825000	534.047727	67.000000	63.000000
534.047727	534.463636	67.000000	66.000000
534.047727	534.463636	74.000000	68.000000
534.079545	534.463636	47.000000	63.000000
534.079545	534.463636	59.000000	62.000000
534.079545	534.463636	62.000000	63.000000
534.559091	535.072727	76.000000	71.000000
534.590909	535.072727	48.000000	67.000000
534.590909	535.072727	60.000000	63.000000
534.590909	535.072727	64.000000	70.000000
534.590909	535.072727	67.000000	69.000000
535.072727	535.584091	47.000000	60.000000
535.072727	535.584091	59.000000	62.000000
535.072727	535.584091	62.000000	61.000000
535.072727	535.552273	67.000000	63.000000
535.072727	535.584091	74.000000	70.000000
535.552273	536.031818	45.000000	62.000000
535.552273	536.063636	57.000000	62.000000
535.552273	535.647727	60.000000	63.000000
535.552273	536.031818	64.000000	61.000000
535.552273	536.063636	67.000000	70.000000
535.552273	536.031818	72.000000	69.000000
536.063636	536.575000	67.000000	65.000000
536.063636	536.609091	71.000000	69.000000
536.095455	536.609091	43.000000	68.000000
536.095455	536.575000	55.000000	69.000000
536.095455	536.609091	59.000000	66.000000
536.575000	536.831818	42.000000	60.000000
536.575000	536.736364	54.000000	57.000000
536.575000	536.640909	60.000000	59.000000
536.575000	536.895455	69.000000	59.000000
536.575000	536.863636	72.000000	66.000000
536.800000	536.990909	52.000000	65.000000
536.800000	536.990909	61.000000	65.000000
536.800000	537.025000	70.000000	61.000000
536.800000	537.025000	73.000000	72.000000
536.831818	536.990909	40.000000	65.000000
537.056818	537.504545	38.000000	68.000000
537.056818	537.504545	50.000000	68.000000
537.056818	537.247727	62.000000	67.000000
537.056818	537.504545	71.000000	67.000000
537.056818	537.504545	74.000000	69.000000
537.600000	538.079545	31.000000	67.000000
537.600000	538.111364	43.000000	71.000000
537.600000	538.079545	79.000000	73.000000
537.600000	538.079545	86.000000	70.000000
537.600000	538.079545	91.000000	74.000000
538.111364	538.625000	35.000000	66.000000
538.111364	538.590909	47.000000	67.000000
538.111364	538.590909	74.000000	68.000000
538.111364	538.590909	79.000000	69.000000
538.111364	538.590909	83.000000	68.000000
538.111364	538.625000	86.000000	73.000000
538.590909	539.104545	71.000000	70.000000
538.590909	539.104545	74.000000	68.000000
538.590909	539.104545	79.000000	66.000000
538.590909	539.104545	83.000000	72.000000
538.625000	539.104545	38.000000	70.000000
538.625000	539.104545	50.000000	68.000000
539.104545	539.584091	43.000000	72.000000
539.104545	539.584091	67.000000	69.000000
539.104545	539.584091	71.000000	62.000000
539.104545	539.615909	79.000000	72.000000
539.136364	539.200000	55.000000	73.000000
539.136364	539.584091	74.000000	64.000000
539.615909	539.840909	47.000000	65.000000
539.615909	539.872727	62.000000	63.000000
539.615909	539.840909	67.000000	63.000000
539.615909	539.840909	74.000000	70.000000
539.840909	540.159091	47.000000	64.000000
539.840909	540.127273	67.000000	60.000000
539.840909	540.127273	74.000000	69.000000
539.872727	540.159091	59.000000	63.000000
539.872727	540.159091	62.000000	63.000000
540.127273	540.609091	67.000000	66.000000
540.127273	540.609091	74.000000	66.000000
540.159091	540.609091	47.000000	58.000000
540.159091	540.609091	59.000000	58.000000
540.159091	540.609091	62.000000	62.000000
540.672727	541.247727	64.000000	71.000000
540.672727	541.247727	67.000000	67.000000
540.672727	541.247727	76.000000	70.000000
540.704545	541.247727	48.000000	65.000000
540.704545	541.247727	60.000000	64.000000
541.247727	542.047727	67.000000	66.000000
541.247727	542.015909	74.000000	69.000000
541.279545	542.015909	47.000000	64.000000
541.279545	542.047727	59.000000	65.000000
541.279545	541.984091	62.000000	64.000000
541.984091	543.040909	57.000000	67.000000
541.984091	542.943182	62.000000	67.000000
541.984091	543.040909	66.000000	71.000000
541.984091	543.040909	72.000000	69.000000
542.015909	543.040909	45.000000	66.000000
542.015909	542.975000	74.000000	68.000000
542.943182	545.152273	62.000000	66.000000
542.943182	545.152273	67.000000	68.000000
542.975000	545.184091	43.000000	71.000000
542.975000	544.895455	55.000000	73.000000
542.975000	545.152273	71.000000	67.000000
542.975000	544.415909	74.000000	72.000000
545.600000	546.784091	36.000000	42.000000
545.600000	546.752273	67.000000	54.000000
545.856818	546.752273	43.000000	40.000000
546.047727	546.752273	48.000000	41.000000
546.047727	546.368182	64.000000	51.000000
546.079545	546.368182	60.000000	41.000000
546.175000	546.752273	52.000000	44.000000
546.336364	546.752273	55.000000	47.000000
546.368182	546.752273	60.000000	40.000000
546.368182	546.752273	64.000000	55.000000
546.688636	547.679545	69.000000	61.000000
546.720455	546.879545	54.000000	44.000000
546.879545	547.647727	51.000000	42.000000
547.040909	547.456818	48.000000	46.000000
547.040909	547.327273	63.000000	51.000000
547.072727	547.327273	60.000000	42.000000
547.168182	547.425000	45.000000	43.000000
547.327273	547.647727	42.000000	60.000000
547.327273	547.679545	60.000000	51.000000
547.327273	547.679545	63.000000	53.000000
547.647727	548.256818	67.000000	63.000000
547.809091	548.640909	43.000000	50.000000
547.936364	548.256818	64.000000	56.000000
547.968182	548.256818	60.000000	41.000000
548.063636	548.640909	52.000000	48.000000
548.225000	548.640909	55.000000	50.000000
548.256818	548.640909	60.000000	47.000000
548.256818	548.640909	64.000000	53.000000
548.256818	548.640909	67.000000	50.000000
548.575000	549.631818	66.000000	59.000000
548.609091	548.990909	57.000000	37.000000
548.768182	549.631818	54.000000	37.000000
548.895455	549.215909	63.000000	49.000000
548.927273	549.631818	51.000000	39.000000
548.927273	549.247727	60.000000	39.000000
549.088636	549.631818	48.000000	45.000000
549.215909	549.631818	45.000000	44.000000
549.215909	549.631818	63.000000	50.000000
549.247727	549.631818	60.000000	42.000000
549.568182	549.759091	36.000000	49.000000
549.568182	550.559091	67.000000	56.000000
549.759091	550.559091	43.000000	52.000000
549.952273	550.240909	60.000000	45.000000
549.952273	550.240909	64.000000	55.000000
550.079545	550.559091	52.000000	49.000000
550.240909	550.559091	55.000000	50.000000
550.240909	550.559091	60.000000	49.000000
550.240909	550.559091	64.000000	56.000000
550.527273	551.615909	72.000000	65.000000
550.559091	550.688636	57.000000	42.000000
550.720455	550.879545	55.000000	36.000000
550.847727	551.615909	52.000000	53.000000
550.911364	551.200000	67.000000	49.000000
550.943182	551.200000	64.000000	50.000000
551.040909	551.647727	48.000000	47.000000
551.200000	551.615909	43.000000	55.000000
551.200000	551.615909	64.000000	61.000000
551.200000	551.647727	67.000000	61.000000
551.552273	551.679545	33.000000	56.000000
551.647727	552.609091	76.000000	68.000000
551.809091	552.609091	40.000000	47.000000
551.968182	552.288636	67.000000	53.000000
551.968182	552.256818	69.000000	58.000000
552.095455	552.609091	49.000000	47.000000
552.256818	552.640909	52.000000	56.000000
552.256818	552.609091	69.000000	60.000000
552.288636	552.609091	67.000000	53.000000
552.609091	553.184091	57.000000	52.000000
552.609091	552.895455	67.000000	41.000000
552.609091	552.863636	69.000000	50.000000
552.736364	553.056818	52.000000	55.000000
552.863636	553.215909	69.000000	55.000000
552.895455	553.025000	49.000000	48.000000
552.895455	553.790909	67.000000	44.000000
553.025000	553.120455	45.000000	50.000000
553.215909	553.759091	40.000000	57.000000
553.215909	553.790909	69.000000	58.000000
553.279545	553.759091	61.000000	46.000000
553.663636	554.815909	38.000000	53.000000
553.727273	554.815909	77.000000	68.000000
553.952273	554.111364	45.000000	44.000000
554.111364	554.815909	50.000000	51.000000
554.111364	554.463636	65.000000	52.000000
554.111364	554.431818	69.000000	60.000000
554.272727	554.815909	53.000000	55.000000
554.431818	554.815909	57.000000	59.000000
554.431818	555.136364	69.000000	59.000000
554.463636	554.815909	65.000000	48.000000
554.752273	555.840909	76.000000	66.000000
554.784091	555.840909	60.000000	44.000000
555.136364	555.840909	53.000000	47.000000
555.136364	555.425000	65.000000	47.000000
555.136364	555.425000	69.000000	53.000000
555.263636	555.872727	50.000000	48.000000
555.425000	555.840909	45.000000	50.000000
555.425000	555.872727	65.000000	48.000000
555.425000	555.840909	69.000000	55.000000
555.809091	556.863636	43.000000	53.000000
555.809091	556.895455	74.000000	64.000000
555.968182	556.895455	50.000000	48.000000
556.127273	556.447727	65.000000	49.000000
556.127273	556.447727	68.000000	54.000000
556.288636	556.895455	59.000000	53.000000
556.447727	556.863636	62.000000	47.000000
556.447727	556.895455	65.000000	43.000000
556.447727	556.895455	68.000000	55.000000
556.831818	557.984091	64.000000	64.000000
556.831818	557.984091	76.000000	65.000000
557.025000	557.984091	62.000000	45.000000
557.184091	557.984091	59.000000	50.000000
557.215909	557.984091	65.000000	51.000000
557.215909	557.984091	67.000000	53.000000
557.343182	557.984091	55.000000	47.000000
557.504545	557.984091	50.000000	50.000000
557.504545	557.984091	74.000000	63.000000
557.920455	558.495455	36.000000	47.000000
557.920455	558.943182	72.000000	60.000000
558.143182	558.943182	43.000000	47.000000
558.272727	558.590909	67.000000	53.000000
558.304545	558.943182	48.000000	39.000000
558.304545	558.590909	64.000000	49.000000
558.431818	558.943182	52.000000	48.000000
558.590909	558.943182	55.000000	45.000000
558.590909	558.943182	64.000000	48.000000
558.590909	558.943182	67.000000	53.000000
558.911364	560.000000	69.000000	59.000000
558.943182	559.872727	57.000000	42.000000
559.231818	560.000000	60.000000	50.000000
559.263636	560.000000	52.000000	45.000000
559.425000	560.127273	48.000000	43.000000
559.584091	560.127273	43.000000	55.000000
559.584091	560.000000	64.000000	57.000000
559.584091	560.000000	67.000000	54.000000
559.936364	561.056818	71.000000	60.000000
560.127273	561.056818	43.000000	50.000000
560.256818	561.056818	50.000000	44.000000
560.256818	560.575000	65.000000	48.000000
560.288636	560.575000	59.000000	40.000000
560.415909	561.056818	53.000000	44.000000
560.575000	561.025000	55.000000	48.000000
560.575000	561.056818	59.000000	46.000000
560.575000	561.056818	65.000000	43.000000
560.575000	561.056818	67.000000	51.000000
560.959091	561.856818	68.000000	57.000000
560.990909	561.152273	56.000000	42.000000
561.184091	561.888636	55.000000	33.000000
561.343182	561.825000	65.000000	45.000000
561.375000	561.856818	53.000000	40.000000
561.375000	561.825000	59.000000	41.000000
561.536364	561.888636	50.000000	40.000000
561.825000	562.463636	43.000000	49.000000
561.825000	562.495455	59.000000	47.000000
561.825000	562.495455	65.000000	45.000000
561.825000	562.431818	67.000000	51.000000
562.431818	563.520455	36.000000	45.000000
562.431818	563.136364	67.000000	54.000000
562.625000	563.520455	43.000000	45.000000
562.815909	563.104545	60.000000	34.000000
562.815909	563.104545	64.000000	47.000000
562.943182	563.520455	52.000000	44.000000
563.104545	563.520455	55.000000	47.000000
563.104545	563.520455	60.000000	41.000000
563.104545	563.520455	64.000000	48.000000
563.136364	563.711364	67.000000	47.000000
563.456818	564.384091	69.000000	63.000000
563.488636	563.584091	54.000000	45.000000
563.647727	564.384091	51.000000	40.000000
563.775000	564.384091	48.000000	48.000000
563.775000	564.095455	60.000000	44.000000
563.775000	564.063636	63.000000	46.000000
563.904545	564.384091	45.000000	43.000000
564.063636	564.384091	42.000000	50.000000
564.063636	564.384091	63.000000	50.000000
564.095455	564.384091	60.000000	42.000000
564.352273	565.311364	67.000000	59.000000
564.511364	565.343182	43.000000	50.000000
564.640909	564.959091	60.000000	35.000000
564.672727	564.959091	64.000000	51.000000
564.800000	565.311364	52.000000	48.000000
564.927273	565.311364	55.000000	40.000000
564.959091	565.311364	60.000000	38.000000
564.959091	565.311364	64.000000	47.000000
565.279545	566.272727	66.000000	59.000000
565.311364	565.759091	57.000000	36.000000
565.472727	566.240909	54.000000	36.000000
565.600000	566.240909	51.000000	39.000000
565.631818	565.888636	63.000000	42.000000
565.663636	566.272727	60.000000	35.000000
565.759091	566.240909	48.000000	44.000000
565.856818	566.272727	45.000000	44.000000
565.888636	566.272727	63.000000	47.000000
566.240909	566.463636	36.000000	44.000000
566.240909	567.168182	67.000000	56.000000
566.400000	567.168182	43.000000	42.000000
566.527273	566.815909	64.000000	50.000000
566.559091	566.847727	60.000000	40.000000
566.688636	567.136364	52.000000	52.000000
566.815909	567.168182	64.000000	51.000000
566.847727	567.136364	55.000000	49.000000
566.847727	567.136364	60.000000	45.000000
567.104545	568.159091	72.000000	65.000000
567.136364	567.263636	57.000000	43.000000
567.168182	567.200000	69.000000	44.000000
567.295455	568.159091	55.000000	39.000000
567.327273	567.390909	60.000000	32.000000
567.425000	568.159091	52.000000	52.000000
567.456818	567.743182	64.000000	52.000000
567.456818	568.127273	67.000000	49.000000
567.584091	568.159091	48.000000	49.000000
567.711364	568.190909	43.000000	65.000000
567.743182	568.127273	64.000000	57.000000
568.095455	569.088636	76.000000	67.000000
568.127273	570.240909	64.000000	47.000000
568.127273	568.190909	67.000000	46.000000
568.288636	568.736364	40.000000	43.000000
568.447727	568.575000	45.000000	44.000000
568.447727	568.768182	69.000000	54.000000
568.479545	568.768182	67.000000	42.000000
568.609091	569.088636	49.000000	45.000000
568.736364	569.088636	52.000000	55.000000
568.768182	569.088636	67.000000	55.000000
568.768182	569.375000	69.000000	53.000000
569.088636	569.504545	57.000000	49.000000
569.247727	569.536364	52.000000	48.000000
569.375000	569.536364	49.000000	46.000000
569.375000	569.759091	69.000000	46.000000
569.409091	570.240909	67.000000	38.000000
569.536364	569.631818	45.000000	43.000000
569.759091	570.272727	40.000000	60.000000
569.759091	570.559091	69.000000	53.000000
570.175000	571.168182	38.000000	49.000000
570.175000	571.200000	77.000000	67.000000
570.368182	570.495455	45.000000	42.000000
570.527273	571.168182	50.000000	43.000000
570.559091	570.911364	65.000000	46.000000
570.559091	571.200000	69.000000	52.000000
570.720455	571.168182	53.000000	45.000000
570.879545	571.168182	57.000000	54.000000
570.911364	571.168182	65.000000	45.000000
571.136364	572.127273	76.000000	67.000000
571.168182	572.127273	60.000000	43.000000
571.327273	572.127273	57.000000	35.000000
571.488636	572.127273	53.000000	50.000000
571.488636	571.775000	69.000000	52.000000
571.520455	571.809091	65.000000	46.000000
571.647727	572.127273	50.000000	48.000000
571.775000	572.127273	45.000000	50.000000
571.775000	572.127273	69.000000	49.000000
571.809091	572.159091	65.000000	47.000000
572.095455	573.056818	43.000000	58.000000
572.095455	573.056818	74.000000	62.000000
572.256818	573.056818	50.000000	44.000000
572.384091	572.704545	65.000000	51.000000
572.384091	572.672727	68.000000	52.000000
572.415909	572.479545	55.000000	45.000000
572.575000	573.056818	59.000000	48.000000
572.672727	573.056818	68.000000	52.000000
572.704545	572.831818	62.000000	44.000000
572.704545	573.056818	65.000000	45.000000
573.025000	574.143182	76.000000	67.000000
573.056818	574.431818	64.000000	55.000000
573.247727	574.143182	62.000000	43.000000
573.409091	574.143182	59.000000	43.000000
573.409091	574.143182	67.000000	50.000000
573.440909	574.143182	65.000000	38.000000
573.536364	574.143182	55.000000	35.000000
573.727273	574.143182	50.000000	45.000000
573.727273	574.143182	74.000000	62.000000
574.111364	574.463636	36.000000	50.000000
574.111364	575.072727	72.000000	63.000000
574.304545	575.104545	43.000000	48.000000
574.400000	575.072727	48.000000	42.000000
574.431818	574.752273	64.000000	47.000000
574.431818	574.720455	67.000000	50.000000
574.559091	575.072727	52.000000	44.000000
574.720455	575.104545	55.000000	38.000000
574.720455	575.104545	67.000000	42.000000
574.752273	575.104545	64.000000	48.000000
575.040909	576.190909	69.000000	58.000000
575.072727	576.190909	57.000000	45.000000
575.263636	576.190909	55.000000	41.000000
575.390909	576.190909	60.000000	45.000000
575.425000	576.159091	52.000000	44.000000
575.584091	576.159091	48.000000	45.000000
575.711364	576.190909	64.000000	52.000000
575.711364	576.190909	67.000000	58.000000
575.743182	576.190909	43.000000	50.000000
576.127273	577.215909	36.000000	46.000000
576.127273	577.215909	72.000000	63.000000
576.288636	577.215909	43.000000	52.000000
576.415909	577.215909	48.000000	40.000000
576.447727	576.768182	67.000000	45.000000
576.479545	576.800000	64.000000	40.000000
576.575000	577.215909	52.000000	41.000000
576.768182	577.215909	67.000000	50.000000
576.800000	577.215909	64.000000	45.000000
577.152273	578.559091	69.000000	59.000000
577.184091	578.559091	57.000000	44.000000
577.504545	578.559091	64.000000	50.000000
577.536364	578.559091	60.000000	37.000000
577.727273	578.559091	55.000000	34.000000
577.984091	578.559091	67.000000	49.000000
578.495455	579.359091	68.000000	48.000000
578.527273	579.359091	53.000000	31.000000
578.688636	579.359091	57.000000	35.000000
578.847727	579.359091	62.000000	44.000000
578.975000	579.359091	69.000000	52.000000
579.104545	579.359091	74.000000	51.000000
579.231818	579.390909	72.000000	52.000000
579.390909	580.225000	70.000000	59.000000
579.425000	580.256818	53.000000	36.000000
579.552273	580.256818	59.000000	48.000000
579.679545	580.225000	67.000000	54.000000
579.775000	580.225000	71.000000	57.000000
579.904545	580.256818	81.000000	60.000000
580.063636	580.288636	79.000000	67.000000
580.225000	581.311364	78.000000	73.000000
580.256818	581.311364	52.000000	46.000000
580.384091	581.279545	60.000000	49.000000
580.511364	581.056818	67.000000	52.000000
580.704545	581.279545	79.000000	65.000000
580.863636	581.311364	84.000000	59.000000
581.056818	581.311364	67.000000	38.000000
581.056818	581.311364	88.000000	58.000000
581.279545	582.463636	50.000000	44.000000
581.279545	582.463636	91.000000	61.000000
581.568182	582.463636	59.000000	37.000000
581.920455	582.463636	67.000000	40.000000
582.495455	583.488636	67.000000	42.000000
582.527273	583.488636	53.000000	29.000000
582.720455	583.488636	56.000000	37.000000
582.879545	583.520455	61.000000	39.000000
583.040909	583.488636	68.000000	46.000000
583.072727	583.488636	65.000000	39.000000
583.168182	583.488636	73.000000	52.000000
583.295455	583.488636	72.000000	55.000000
583.488636	583.711364	70.000000	58.000000
583.520455	584.479545	53.000000	37.000000
583.679545	584.479545	59.000000	45.000000
583.840909	584.479545	62.000000	47.000000
584.000000	584.479545	68.000000	48.000000
584.000000	584.479545	71.000000	55.000000
584.127273	584.479545	80.000000	61.000000
584.288636	584.479545	79.000000	61.000000
584.447727	585.759091	78.000000	68.000000
584.479545	585.759091	51.000000	42.000000
584.672727	585.759091	55.000000	42.000000
584.831818	585.759091	60.000000	47.000000
585.056818	585.759091	67.000000	50.000000
585.056818	585.759091	79.000000	56.000000
585.247727	585.759091	84.000000	51.000000
585.472727	585.759091	87.000000	57.000000
585.727273	588.000000	50.000000	34.000000
585.727273	588.000000	91.000000	55.000000
586.047727	587.968182	55.000000	29.000000
586.400000	588.000000	59.000000	33.000000
586.815909	588.000000	65.000000	39.000000
588.063636	589.311364	48.000000	41.000000
588.063636	589.279545	79.000000	62.000000
588.320455	589.311364	55.000000	30.000000
588.543182	589.311364	60.000000	33.000000
588.575000	588.927273	72.000000	39.000000
588.575000	588.895455	76.000000	43.000000
588.736364	589.279545	64.000000	45.000000
588.895455	589.311364	76.000000	46.000000
588.927273	589.311364	67.000000	41.000000
588.927273	589.311364	72.000000	39.000000
589.247727	590.463636	78.000000	65.000000
589.279545	590.431818	69.000000	41.000000
589.472727	590.431818	66.000000	41.000000
589.663636	590.431818	63.000000	41.000000
589.663636	590.015909	72.000000	33.000000
589.790909	590.431818	60.000000	42.000000
589.984091	590.463636	75.000000	51.000000
590.015909	590.431818	57.000000	35.000000
590.015909	590.431818	72.000000	39.000000
590.400000	591.552273	48.000000	39.000000
590.400000	591.552273	79.000000	66.000000
590.431818	590.463636	67.000000	39.000000
590.625000	591.552273	55.000000	31.000000
590.752273	591.584091	60.000000	42.000000
590.752273	591.136364	76.000000	46.000000
590.784091	591.552273	72.000000	43.000000
590.943182	591.552273	64.000000	47.000000
591.136364	591.584091	67.000000	46.000000
591.136364	591.584091	76.000000	47.000000
591.520455	592.736364	75.000000	63.000000
591.552273	592.704545	66.000000	43.000000
591.711364	592.704545	63.000000	40.000000
591.904545	592.704545	60.000000	39.000000
591.904545	592.256818	72.000000	49.000000
591.936364	592.288636	69.000000	44.000000
592.063636	592.704545	57.000000	35.000000
592.256818	592.704545	54.000000	39.000000
592.256818	592.704545	72.000000	44.000000
592.288636	592.704545	69.000000	44.000000
592.672727	593.856818	48.000000	45.000000
592.672727	593.856818	76.000000	61.000000
592.704545	593.056818	67.000000	41.000000
592.895455	593.856818	52.000000	45.000000
593.056818	593.856818	55.000000	35.000000
593.056818	593.440909	67.000000	40.000000
593.056818	593.409091	72.000000	46.000000
593.215909	593.856818	60.000000	37.000000
593.409091	593.856818	64.000000	49.000000
593.409091	593.790909	72.000000	46.000000
593.440909	593.856818	67.000000	40.000000
593.790909	595.040909	63.000000	46.000000
593.790909	595.040909	72.000000	59.000000
594.015909	595.040909	60.000000	35.000000
594.175000	595.040909	57.000000	39.000000
594.175000	594.527273	69.000000	46.000000
594.240909	594.559091	66.000000	43.000000
594.368182	595.040909	54.000000	36.000000
594.527273	595.040909	69.000000	46.000000
594.559091	595.040909	51.000000	39.000000
594.559091	595.040909	66.000000	45.000000
594.975000	595.840909	71.000000	56.000000
595.009091	595.809091	47.000000	37.000000
595.200000	595.809091	51.000000	38.000000
595.327273	595.840909	54.000000	43.000000
595.359091	595.775000	66.000000	46.000000
595.359091	595.743182	69.000000	49.000000
595.520455	596.640909	59.000000	35.000000
595.743182	596.640909	69.000000	50.000000
595.775000	596.384091	63.000000	44.000000
595.775000	596.640909	66.000000	44.000000
596.190909	597.279545	64.000000	43.000000
596.384091	597.247727	63.000000	44.000000
596.640909	597.856818	59.000000	34.000000
596.640909	597.215909	66.000000	43.000000
596.640909	597.184091	69.000000	42.000000
596.863636	597.311364	54.000000	36.000000
597.184091	597.856818	69.000000	42.000000
597.215909	597.856818	51.000000	37.000000
597.215909	597.856818	66.000000	43.000000
597.759091	598.879545	40.000000	35.000000
597.759091	598.879545	71.000000	54.000000
597.952273	598.336364	47.000000	36.000000
598.143182	598.879545	52.000000	43.000000
598.143182	598.495455	64.000000	44.000000
598.143182	598.495455	67.000000	41.000000
598.272727	598.879545	55.000000	33.000000
598.495455	598.879545	59.000000	43.000000
598.495455	598.943182	64.000000	43.000000
598.495455	598.879545	67.000000	43.000000
598.847727	599.968182	60.000000	40.000000
598.847727	599.968182	69.000000	59.000000
599.040909	599.968182	57.000000	39.000000
599.231818	600.000000	54.000000	42.000000
599.231818	599.584091	64.000000	41.000000
599.231818	599.615909	66.000000	49.000000
599.390909	599.968182	52.000000	50.000000
599.552273	600.000000	48.000000	48.000000
599.552273	600.000000	72.000000	61.000000
599.584091	600.000000	64.000000	44.000000
599.615909	599.968182	66.000000	40.000000
599.968182	600.063636	40.000000	43.000000
599.968182	601.056818	71.000000	61.000000
600.000000	600.672727	59.000000	45.000000
600.159091	600.384091	47.000000	38.000000
600.320455	601.056818	52.000000	48.000000
600.320455	600.672727	64.000000	49.000000
600.320455	600.672727	67.000000	49.000000
600.479545	601.056818	55.000000	37.000000
600.672727	601.056818	59.000000	47.000000
600.672727	601.025000	64.000000	49.000000
600.672727	601.056818	67.000000	53.000000
601.025000	601.536364	64.000000	62.000000
601.056818	601.472727	57.000000	43.000000
601.215909	601.504545	54.000000	52.000000
601.440909	601.984091	52.000000	49.000000
601.440909	602.240909	66.000000	58.000000
601.440909	602.240909	69.000000	59.000000
601.600000	602.175000	48.000000	48.000000
601.825000	602.240909	45.000000	49.000000
601.825000	602.240909	60.000000	51.000000
601.825000	602.240909	72.000000	65.000000
602.209091	602.815909	40.000000	52.000000
602.209091	603.327273	71.000000	63.000000
602.240909	603.327273	59.000000	49.000000
602.400000	603.295455	47.000000	38.000000
602.527273	603.327273	52.000000	48.000000
602.527273	602.911364	64.000000	49.000000
602.527273	602.879545	67.000000	50.000000
602.688636	603.327273	54.000000	49.000000
602.879545	603.295455	40.000000	41.000000
602.879545	603.327273	67.000000	50.000000
602.911364	603.327273	64.000000	47.000000
603.295455	603.488636	40.000000	48.000000
603.295455	604.479545	60.000000	52.000000
603.295455	604.479545	72.000000	61.000000
603.456818	603.743182	45.000000	46.000000
603.647727	603.904545	48.000000	43.000000
603.647727	604.063636	66.000000	54.000000
603.647727	604.063636	69.000000	55.000000
603.809091	604.479545	52.000000	49.000000
603.840909	604.479545	40.000000	41.000000
604.063636	604.447727	54.000000	44.000000
604.063636	604.479545	66.000000	50.000000
604.063636	604.479545	69.000000	54.000000
604.479545	604.959091	40.000000	42.000000
604.479545	605.790909	71.000000	58.000000
604.511364	605.888636	59.000000	48.000000
604.640909	604.927273	45.000000	45.000000
604.863636	605.888636	63.000000	47.000000
604.863636	605.279545	66.000000	52.000000
605.056818	605.888636	51.000000	46.000000
605.279545	605.888636	54.000000	47.000000
605.279545	605.888636	66.000000	48.000000
605.790909	606.240909	40.000000	39.000000
605.790909	608.159091	71.000000	53.000000
606.047727	606.209091	43.000000	43.000000
606.272727	606.847727	64.000000	39.000000
606.272727	606.847727	67.000000	39.000000
606.495455	606.943182	51.000000	38.000000
606.847727	607.552273	64.000000	40.000000
606.847727	607.520455	67.000000	39.000000
606.879545	607.520455	52.000000	42.000000
607.488636	607.647727	55.000000	72.000000
607.520455	607.647727	43.000000	69.000000
607.520455	608.288636	67.000000	65.000000
607.647727	607.775000	43.000000	63.000000
607.647727	607.775000	55.000000	65.000000
607.775000	608.256818	43.000000	64.000000
607.775000	608.256818	55.000000	67.000000
608.095455	608.288636	38.000000	65.000000
608.352273	608.704545	47.000000	66.000000
608.352273	608.640909	67.000000	70.000000
608.352273	608.704545	74.000000	70.000000
608.352273	608.640909	79.000000	73.000000
608.384091	608.704545	65.000000	66.000000
608.640909	608.704545	46.000000	64.000000
608.640909	608.831818	58.000000	64.000000
608.640909	608.831818	67.000000	63.000000
608.640909	608.768182	73.000000	72.000000
608.640909	608.736364	79.000000	68.000000
608.768182	608.831818	46.000000	63.000000
608.768182	608.863636	73.000000	74.000000
608.768182	608.863636	79.000000	64.000000
608.895455	609.152273	47.000000	62.000000
608.895455	609.152273	65.000000	61.000000
608.895455	609.215909	67.000000	64.000000
608.895455	609.152273	74.000000	69.000000
608.895455	609.663636	79.000000	69.000000
609.184091	609.343182	47.000000	67.000000
609.343182	609.472727	47.000000	62.000000
609.343182	609.663636	59.000000	67.000000
609.472727	609.663636	47.000000	63.000000
609.759091	610.015909	43.000000	71.000000
609.759091	609.984091	67.000000	65.000000
610.047727	610.463636	50.000000	66.000000
610.047727	610.463636	62.000000	68.000000
610.047727	610.400000	71.000000	70.000000
610.047727	610.463636	77.000000	69.000000
610.047727	610.368182	79.000000	71.000000
610.047727	610.368182	83.000000	71.000000
610.368182	610.527273	49.000000	64.000000
610.368182	610.463636	61.000000	68.000000
610.368182	610.688636	76.000000	63.000000
610.368182	610.495455	79.000000	67.000000
610.368182	610.688636	83.000000	69.000000
610.400000	610.463636	71.000000	63.000000
610.495455	610.688636	79.000000	66.000000
610.527273	610.720455	49.000000	62.000000
610.527273	610.752273	61.000000	63.000000
610.527273	610.688636	71.000000	63.000000
610.688636	611.552273	50.000000	64.000000
610.688636	611.615909	62.000000	67.000000
610.688636	611.615909	71.000000	68.000000
610.688636	611.615909	77.000000	68.000000
610.688636	611.615909	79.000000	70.000000
610.688636	611.615909	83.000000	69.000000
611.552273	612.320455	50.000000	46.000000
613.375000	615.390909	79.000000	57.000000
613.409091	615.488636	48.000000	36.000000
613.790909	615.425000	55.000000	31.000000
614.079545	615.936364	60.000000	32.000000
614.079545	614.656818	72.000000	34.000000
614.079545	614.656818	76.000000	39.000000
614.336364	615.425000	64.000000	40.000000
614.656818	615.425000	67.000000	34.000000
614.656818	615.390909	72.000000	29.000000
614.656818	615.425000	76.000000	36.000000
615.327273	616.479545	69.000000	52.000000
615.327273	615.904545	84.000000	61.000000
615.647727	617.152273	66.000000	48.000000
615.904545	617.152273	62.000000	45.000000
615.904545	617.152273	72.000000	45.000000
615.904545	616.447727	74.000000	49.000000
616.159091	616.479545	60.000000	37.000000
616.447727	617.120455	74.000000	45.000000
616.479545	617.152273	57.000000	32.000000
616.479545	617.152273	60.000000	28.000000
616.479545	617.152273	69.000000	34.000000
617.088636	618.625000	43.000000	42.000000
617.120455	618.625000	74.000000	58.000000
617.343182	618.625000	50.000000	35.000000
617.568182	618.015909	72.000000	49.000000
617.600000	618.047727	67.000000	37.000000
617.759091	618.625000	60.000000	39.000000
618.015909	618.625000	72.000000	44.000000
618.047727	618.625000	62.000000	39.000000
618.047727	618.625000	67.000000	37.000000
618.590909	620.352273	65.000000	47.000000
618.590909	620.352273	79.000000	64.000000
618.847727	620.384091	62.000000	40.000000
619.136364	620.352273	59.000000	37.000000
619.136364	619.647727	71.000000	43.000000
619.168182	619.647727	67.000000	36.000000
619.647727	620.352273	53.000000	41.000000
619.647727	620.384091	67.000000	38.000000
619.647727	620.384091	71.000000	47.000000
620.288636	621.790909	36.000000	40.000000
620.288636	621.790909	72.000000	57.000000
620.320455	620.863636	64.000000	33.000000
620.352273	620.415909	60.000000	33.000000
620.609091	621.790909	43.000000	46.000000
620.831818	621.759091	48.000000	35.000000
620.863636	621.279545	64.000000	38.000000
620.863636	621.279545	67.000000	35.000000
621.056818	621.790909	52.000000	42.000000
621.279545	621.790909	55.000000	36.000000
621.279545	621.790909	64.000000	43.000000
621.279545	621.790909	67.000000	39.000000
621.727273	623.231818	69.000000	59.000000
621.759091	623.456818	57.000000	50.000000
622.015909	623.456818	55.000000	38.000000
622.209091	623.456818	52.000000	44.000000
622.209091	622.688636	64.000000	51.000000
622.368182	622.784091	48.000000	38.000000
622.688636	623.456818	43.000000	48.000000
622.688636	623.456818	64.000000	49.000000
622.688636	623.456818	67.000000	52.000000
623.390909	625.215909	72.000000	60.000000
623.425000	625.247727	36.000000	37.000000
623.456818	623.488636	60.000000	36.000000
623.679545	625.247727	43.000000	45.000000
623.936364	625.247727	48.000000	33.000000
623.936364	624.511364	67.000000	39.000000
623.968182	624.511364	64.000000	37.000000
624.190909	625.247727	52.000000	38.000000
624.511364	625.247727	55.000000	33.000000
624.511364	625.790909	64.000000	37.000000
624.511364	625.247727	67.000000	35.000000
624.543182	625.215909	60.000000	23.000000
625.184091	628.384091	57.000000	50.000000
625.184091	628.127273	69.000000	52.000000
625.504545	625.759091	55.000000	29.000000
625.790909	628.415909	52.000000	39.000000
625.790909	626.720455	64.000000	41.000000
626.175000	628.704545	48.000000	33.000000
626.688636	628.479545	67.000000	38.000000
626.720455	631.488636	43.000000	38.000000
626.720455	631.552273	64.000000	39.000000
628.320455	631.520455	36.000000	34.000000
632.959091	633.440909	33.000000	69.000000
632.959091	633.056818	45.000000	67.000000
633.343182	633.504545	81.000000	55.000000
633.375000	633.504545	60.000000	44.000000
633.375000	633.504545	63.000000	46.000000
633.375000	633.504545	69.000000	44.000000
633.375000	633.504545	72.000000	52.000000
633.375000	633.440909	75.000000	50.000000
633.504545	633.600000	57.000000	52.000000
633.504545	633.568182	60.000000	52.000000
633.504545	633.568182	63.000000	58.000000
633.504545	633.568182	69.000000	57.000000
633.504545	633.568182	72.000000	61.000000
633.504545	633.568182	81.000000	60.000000
633.631818	633.727273	57.000000	59.000000
633.631818	633.727273	60.000000	61.000000
633.631818	633.727273	63.000000	63.000000
633.631818	633.695455	69.000000	62.000000
633.631818	633.695455	72.000000	67.000000
633.631818	633.695455	75.000000	68.000000
633.631818	633.695455	81.000000	67.000000
633.888636	634.047727	73.000000	57.000000
633.920455	634.047727	61.000000	54.000000
633.920455	634.047727	64.000000	50.000000
633.920455	634.015909	69.000000	51.000000
634.015909	634.111364	69.000000	49.000000
634.047727	634.111364	61.000000	52.000000
634.047727	634.111364	64.000000	52.000000
634.047727	634.111364	73.000000	57.000000
634.047727	634.111364	76.000000	58.000000
634.143182	634.240909	81.000000	62.000000
634.175000	634.240909	61.000000	62.000000
634.175000	634.240909	64.000000	60.000000
634.175000	634.240909	69.000000	60.000000
634.175000	634.240909	73.000000	67.000000
634.175000	634.240909	76.000000	59.000000
634.431818	634.559091	65.000000	47.000000
634.431818	634.527273	69.000000	47.000000
634.431818	634.559091	74.000000	38.000000
634.431818	634.527273	77.000000	52.000000
634.431818	634.527273	81.000000	53.000000
634.527273	634.590909	69.000000	55.000000
634.527273	634.590909	77.000000	57.000000
634.527273	634.590909	81.000000	59.000000
634.559091	634.590909	65.000000	52.000000
634.559091	634.625000	74.000000	50.000000
634.656818	634.752273	57.000000	58.000000
634.656818	634.720455	62.000000	64.000000
634.656818	634.752273	65.000000	63.000000
634.656818	634.720455	69.000000	63.000000
634.656818	634.720455	74.000000	65.000000
634.656818	634.720455	77.000000	67.000000
634.656818	634.720455	81.000000	67.000000
634.879545	635.009091	57.000000	45.000000
634.879545	634.975000	63.000000	49.000000
634.879545	634.975000	66.000000	56.000000
634.879545	634.975000	69.000000	52.000000
634.879545	634.943182	75.000000	50.000000
634.879545	634.975000	78.000000	59.000000
634.879545	635.009091	81.000000	57.000000
634.975000	635.072727	63.000000	57.000000
634.975000	635.072727	66.000000	56.000000
634.975000	635.040909	69.000000	58.000000
634.975000	635.040909	75.000000	58.000000
634.975000	635.040909	78.000000	61.000000
635.009091	635.072727	57.000000	49.000000
635.009091	635.072727	81.000000	58.000000
635.104545	635.359091	57.000000	51.000000
635.104545	635.456818	63.000000	56.000000
635.104545	635.168182	66.000000	63.000000
635.104545	635.168182	69.000000	66.000000
635.104545	635.168182	75.000000	66.000000
635.104545	635.168182	78.000000	69.000000
635.104545	635.168182	81.000000	68.000000
635.327273	635.456818	64.000000	56.000000
635.327273	635.488636	67.000000	54.000000
635.327273	635.488636	79.000000	63.000000
635.359091	635.488636	57.000000	47.000000
635.359091	635.425000	69.000000	56.000000
635.456818	635.520455	64.000000	66.000000
635.456818	635.552273	69.000000	60.000000
635.456818	635.520455	76.000000	65.000000
635.488636	635.520455	67.000000	53.000000
635.584091	635.679545	64.000000	68.000000
635.584091	635.936364	67.000000	62.000000
635.584091	635.679545	76.000000	68.000000
635.584091	635.872727	79.000000	67.000000
635.615909	635.872727	57.000000	56.000000
635.615909	635.679545	69.000000	57.000000
635.872727	635.968182	57.000000	63.000000
635.872727	635.968182	79.000000	69.000000
635.872727	635.968182	85.000000	71.000000
635.904545	635.968182	45.000000	62.000000
635.904545	635.968182	64.000000	61.000000
635.904545	635.936364	73.000000	62.000000
635.904545	635.968182	76.000000	66.000000
636.190909	636.256818	38.000000	68.000000
636.190909	636.256818	50.000000	66.000000
636.190909	636.447727	74.000000	66.000000
636.190909	636.704545	78.000000	70.000000
636.190909	636.672727	81.000000	67.000000
636.190909	636.352273	86.000000	72.000000
636.479545	636.609091	54.000000	46.000000
636.479545	636.575000	57.000000	47.000000
636.479545	636.575000	62.000000	52.000000
636.575000	636.704545	57.000000	57.000000
636.575000	636.704545	62.000000	58.000000
636.609091	636.704545	54.000000	54.000000
636.704545	637.184091	50.000000	57.000000
636.736364	636.800000	62.000000	54.000000
636.959091	637.088636	54.000000	40.000000
636.959091	637.088636	57.000000	36.000000
636.959091	637.088636	62.000000	45.000000
637.088636	637.184091	54.000000	46.000000
637.088636	637.184091	57.000000	48.000000
637.088636	637.184091	62.000000	46.000000
637.215909	637.856818	50.000000	53.000000
637.536364	637.695455	57.000000	36.000000
637.536364	637.856818	62.000000	44.000000
637.568182	637.695455	54.000000	35.000000
637.695455	637.856818	54.000000	44.000000
637.695455	637.856818	57.000000	43.000000
637.825000	638.304545	67.000000	55.000000
637.952273	638.272727	49.000000	47.000000
637.952273	638.368182	81.000000	65.000000
638.240909	638.527273	57.000000	55.000000
638.240909	638.720455	64.000000	66.000000
638.240909	638.336364	80.000000	61.000000
638.368182	638.688636	79.000000	68.000000
638.463636	638.784091	78.000000	71.000000
638.720455	638.847727	57.000000	43.000000
638.720455	638.815909	64.000000	61.000000
638.720455	638.815909	67.000000	54.000000
638.720455	638.815909	76.000000	62.000000
638.847727	638.911364	57.000000	48.000000
638.847727	638.911364	64.000000	62.000000
638.943182	639.009091	74.000000	64.000000
638.975000	639.040909	57.000000	54.000000
638.975000	639.040909	64.000000	60.000000
638.975000	639.009091	67.000000	49.000000
639.168182	639.231818	57.000000	49.000000
639.168182	639.231818	64.000000	59.000000
639.168182	639.231818	67.000000	47.000000
639.168182	639.231818	73.000000	63.000000
639.359091	639.456818	49.000000	57.000000
639.359091	639.456818	57.000000	57.000000
639.359091	639.425000	73.000000	64.000000
639.390909	639.456818	64.000000	52.000000
639.390909	639.456818	67.000000	56.000000
639.390909	639.456818	71.000000	61.000000
639.584091	639.679545	64.000000	67.000000
639.615909	639.679545	57.000000	50.000000
639.615909	639.679545	69.000000	53.000000
639.840909	639.936364	50.000000	59.000000
639.840909	639.936364	57.000000	54.000000
639.840909	639.936364	66.000000	60.000000
639.840909	639.936364	71.000000	57.000000
639.840909	639.904545	73.000000	64.000000
639.872727	639.904545	64.000000	54.000000
639.872727	639.904545	69.000000	56.000000
640.063636	640.127273	62.000000	54.000000
640.063636	640.159091	69.000000	53.000000
640.095455	640.159091	57.000000	44.000000
640.288636	640.384091	49.000000	56.000000
640.288636	640.352273	57.000000	56.000000
640.288636	640.384091	67.000000	57.000000
640.288636	640.352273	71.000000	61.000000
640.288636	640.352273	73.000000	62.000000
640.511364	640.575000	57.000000	50.000000
640.511364	640.575000	64.000000	64.000000
640.511364	640.575000	69.000000	53.000000
640.768182	641.152273	50.000000	57.000000
640.768182	641.152273	54.000000	57.000000
640.768182	641.088636	62.000000	63.000000
640.768182	641.088636	69.000000	56.000000
640.768182	641.025000	74.000000	62.000000
640.800000	641.152273	66.000000	57.000000
641.025000	641.184091	74.000000	56.000000
641.088636	641.184091	69.000000	46.000000
641.120455	641.184091	62.000000	52.000000
641.215909	641.311364	69.000000	54.000000
641.215909	641.663636	74.000000	62.000000
641.247727	641.279545	54.000000	50.000000
641.247727	641.663636	62.000000	49.000000
641.247727	641.311364	66.000000	53.000000
641.440909	641.663636	57.000000	44.000000
641.440909	641.663636	64.000000	60.000000
641.440909	641.663636	69.000000	45.000000
641.440909	641.663636	73.000000	55.000000
641.440909	641.472727	76.000000	58.000000
641.663636	641.888636	62.000000	52.000000
641.663636	641.888636	66.000000	65.000000
641.663636	641.888636	78.000000	70.000000
641.695455	641.984091	74.000000	54.000000
641.888636	642.079545	62.000000	49.000000
641.888636	642.079545	66.000000	62.000000
641.888636	642.079545	69.000000	61.000000
641.888636	642.079545	78.000000	67.000000
641.888636	642.079545	81.000000	67.000000
642.111364	642.590909	62.000000	58.000000
642.111364	642.431818	79.000000	72.000000
642.111364	642.431818	83.000000	72.000000
642.143182	642.400000	67.000000	64.000000
642.143182	642.400000	71.000000	56.000000
642.336364	642.590909	78.000000	69.000000
642.336364	642.590909	81.000000	65.000000
642.368182	642.590909	66.000000	62.000000
642.368182	642.590909	69.000000	60.000000
642.495455	642.590909	74.000000	62.000000
642.625000	642.720455	57.000000	47.000000
642.625000	642.720455	64.000000	53.000000
642.625000	642.720455	73.000000	57.000000
642.879545	643.009091	76.000000	52.000000
642.975000	643.040909	66.000000	57.000000
642.975000	643.040909	74.000000	56.000000
642.975000	643.040909	78.000000	64.000000
643.072727	643.168182	76.000000	63.000000
643.104545	643.327273	64.000000	54.000000
643.104545	643.200000	73.000000	58.000000
643.136364	643.327273	57.000000	42.000000
643.359091	643.390909	66.000000	37.000000
643.488636	643.679545	67.000000	52.000000
643.615909	643.840909	49.000000	56.000000
643.647727	643.872727	81.000000	66.000000
643.872727	644.320455	57.000000	56.000000
643.872727	644.352273	64.000000	65.000000
643.872727	644.031818	80.000000	63.000000
643.936364	644.159091	79.000000	68.000000
644.063636	644.352273	78.000000	71.000000
644.320455	644.415909	57.000000	45.000000
644.352273	644.447727	64.000000	62.000000
644.352273	644.479545	67.000000	58.000000
644.447727	644.575000	64.000000	60.000000
644.479545	644.575000	57.000000	49.000000
644.543182	644.640909	74.000000	68.000000
644.575000	644.640909	57.000000	52.000000
644.575000	644.640909	64.000000	62.000000
644.575000	644.640909	67.000000	51.000000
644.768182	644.831818	64.000000	56.000000
644.768182	644.831818	73.000000	65.000000
644.800000	644.863636	67.000000	40.000000
644.800000	644.863636	69.000000	43.000000
644.990909	645.088636	49.000000	59.000000
644.990909	645.056818	57.000000	61.000000
644.990909	645.056818	64.000000	55.000000
644.990909	645.056818	67.000000	61.000000
644.990909	645.088636	71.000000	63.000000
645.184091	645.279545	69.000000	59.000000
645.215909	645.279545	64.000000	67.000000
645.409091	645.504545	66.000000	66.000000
645.409091	645.504545	73.000000	64.000000
645.440909	645.504545	50.000000	62.000000
645.440909	645.504545	62.000000	63.000000
645.440909	645.504545	71.000000	67.000000
645.472727	645.504545	57.000000	43.000000
645.631818	645.790909	66.000000	54.000000
645.631818	645.790909	69.000000	60.000000
645.663636	645.790909	57.000000	46.000000
645.663636	645.759091	62.000000	41.000000
645.856818	646.143182	50.000000	64.000000
645.856818	646.143182	68.000000	65.000000
645.888636	646.143182	59.000000	62.000000
645.888636	646.143182	65.000000	55.000000
646.079545	646.336364	69.000000	58.000000
646.111364	646.209091	49.000000	56.000000
646.111364	646.209091	57.000000	51.000000
646.111364	646.209091	66.000000	57.000000
646.336364	646.625000	49.000000	56.000000
646.336364	646.400000	57.000000	60.000000
646.336364	646.400000	61.000000	59.000000
646.336364	646.400000	69.000000	63.000000
646.336364	646.431818	73.000000	72.000000
646.336364	646.400000	81.000000	68.000000
646.431818	646.625000	80.000000	61.000000
646.559091	646.752273	78.000000	69.000000
646.625000	646.752273	69.000000	42.000000
646.784091	647.072727	68.000000	63.000000
646.815909	647.072727	50.000000	64.000000
646.815909	647.072727	59.000000	63.000000
647.040909	647.104545	49.000000	56.000000
647.040909	647.136364	57.000000	48.000000
647.040909	647.104545	66.000000	57.000000
647.040909	647.104545	69.000000	58.000000
647.231818	647.390909	49.000000	56.000000
647.231818	647.327273	57.000000	57.000000
647.231818	647.295455	61.000000	58.000000
647.231818	647.327273	73.000000	72.000000
647.231818	647.327273	81.000000	69.000000
647.359091	647.488636	80.000000	63.000000
647.488636	647.584091	78.000000	68.000000
647.679545	647.775000	49.000000	64.000000
647.679545	647.775000	77.000000	64.000000
647.711364	647.936364	56.000000	56.000000
647.711364	647.743182	61.000000	63.000000
647.711364	647.775000	73.000000	62.000000
647.904545	648.159091	80.000000	72.000000
647.936364	648.127273	49.000000	55.000000
647.936364	648.159091	56.000000	48.000000
647.936364	648.127273	61.000000	56.000000
647.936364	648.159091	73.000000	60.000000
647.968182	648.000000	68.000000	57.000000
648.127273	648.256818	78.000000	73.000000
648.159091	648.256818	54.000000	56.000000
648.159091	648.256818	61.000000	59.000000
648.159091	648.256818	69.000000	53.000000
648.159091	648.256818	73.000000	66.000000
648.384091	648.479545	49.000000	62.000000
648.384091	648.447727	61.000000	65.000000
648.384091	648.479545	73.000000	67.000000
648.384091	648.447727	80.000000	66.000000
648.511364	648.640909	81.000000	68.000000
648.640909	648.863636	42.000000	72.000000
648.640909	648.704545	69.000000	61.000000
648.640909	648.831818	73.000000	64.000000
648.640909	648.863636	78.000000	75.000000
648.863636	649.184091	80.000000	61.000000
648.927273	649.184091	49.000000	45.000000
648.927273	648.990909	71.000000	43.000000
648.990909	649.184091	81.000000	59.000000
649.152273	649.247727	69.000000	54.000000
649.152273	649.247727	73.000000	50.000000
649.152273	649.215909	78.000000	64.000000
649.184091	649.247727	42.000000	52.000000
649.184091	649.215909	61.000000	44.000000
649.663636	650.590909	67.000000	54.000000
649.790909	650.368182	49.000000	44.000000
649.790909	650.688636	81.000000	67.000000
650.111364	650.656818	80.000000	61.000000
650.143182	650.590909	57.000000	42.000000
650.143182	650.559091	64.000000	51.000000
650.209091	650.656818	79.000000	67.000000
650.336364	650.688636	78.000000	70.000000
650.559091	650.688636	64.000000	63.000000
650.590909	650.688636	57.000000	42.000000
650.590909	650.688636	67.000000	54.000000
650.784091	650.879545	74.000000	65.000000
650.815909	650.879545	57.000000	55.000000
650.815909	650.879545	64.000000	61.000000
650.815909	650.879545	67.000000	51.000000
651.040909	651.136364	64.000000	46.000000
651.040909	651.136364	67.000000	46.000000
651.040909	651.136364	73.000000	64.000000
651.072727	651.136364	57.000000	38.000000
651.231818	651.390909	49.000000	56.000000
651.231818	651.390909	57.000000	47.000000
651.231818	651.390909	67.000000	62.000000
651.231818	651.390909	71.000000	66.000000
651.456818	651.552273	64.000000	51.000000
651.456818	651.552273	69.000000	61.000000
651.679545	651.872727	50.000000	59.000000
651.679545	651.840909	66.000000	67.000000
651.679545	651.809091	73.000000	69.000000
651.711364	651.872727	57.000000	46.000000
651.711364	651.872727	71.000000	59.000000
651.904545	652.000000	69.000000	57.000000
652.127273	652.190909	49.000000	53.000000
652.127273	652.190909	67.000000	55.000000
652.127273	652.225000	71.000000	65.000000
652.127273	652.190909	73.000000	66.000000
652.320455	652.415909	64.000000	51.000000
652.320455	652.415909	69.000000	57.000000
652.543182	652.800000	74.000000	60.000000
652.575000	653.120455	50.000000	46.000000
652.575000	652.800000	54.000000	46.000000
652.575000	652.800000	69.000000	52.000000
652.609091	652.672727	66.000000	47.000000
652.800000	653.025000	54.000000	44.000000
652.800000	653.056818	62.000000	50.000000
652.800000	652.927273	69.000000	48.000000
652.800000	652.927273	74.000000	57.000000
652.831818	652.959091	66.000000	49.000000
652.927273	653.025000	69.000000	58.000000
652.927273	653.025000	74.000000	60.000000
652.959091	653.025000	66.000000	49.000000
653.025000	653.215909	54.000000	55.000000
653.025000	653.152273	66.000000	57.000000
653.025000	653.120455	69.000000	59.000000
653.025000	653.184091	74.000000	64.000000
653.056818	653.120455	62.000000	53.000000
653.215909	653.440909	76.000000	59.000000
653.247727	653.409091	57.000000	39.000000
653.247727	653.409091	64.000000	58.000000
653.247727	653.409091	69.000000	42.000000
653.247727	653.440909	73.000000	50.000000
653.440909	653.695455	78.000000	72.000000
653.472727	653.663636	62.000000	49.000000
653.472727	653.695455	66.000000	58.000000
653.472727	653.695455	69.000000	42.000000
653.472727	653.888636	74.000000	62.000000
653.663636	653.888636	62.000000	53.000000
653.663636	653.888636	81.000000	70.000000
653.695455	653.888636	66.000000	59.000000
653.695455	653.888636	69.000000	59.000000
653.695455	653.888636	78.000000	67.000000
653.920455	654.175000	62.000000	52.000000
653.920455	654.047727	71.000000	58.000000
653.920455	654.175000	79.000000	75.000000
653.920455	654.272727	83.000000	74.000000
653.952273	654.047727	67.000000	66.000000
654.143182	654.272727	78.000000	66.000000
654.143182	654.368182	81.000000	64.000000
654.175000	654.272727	62.000000	57.000000
654.175000	654.272727	66.000000	59.000000
654.175000	654.368182	69.000000	58.000000
654.240909	654.368182	74.000000	59.000000
654.400000	654.463636	73.000000	58.000000
654.400000	654.463636	76.000000	59.000000
654.431818	654.495455	57.000000	46.000000
654.431818	654.495455	64.000000	55.000000
654.625000	654.720455	73.000000	50.000000
654.625000	654.752273	76.000000	58.000000
654.752273	654.815909	74.000000	58.000000
654.752273	654.815909	78.000000	67.000000
654.784091	654.847727	66.000000	56.000000
654.847727	654.911364	73.000000	58.000000
654.847727	655.168182	76.000000	57.000000
655.263636	655.456818	67.000000	51.000000
655.390909	655.711364	49.000000	50.000000
655.425000	655.904545	81.000000	64.000000
655.615909	655.743182	80.000000	63.000000
655.647727	656.127273	57.000000	53.000000
655.647727	656.000000	64.000000	67.000000
655.711364	655.936364	79.000000	69.000000
655.840909	656.063636	78.000000	71.000000
656.095455	656.190909	64.000000	62.000000
656.095455	656.190909	67.000000	53.000000
656.095455	656.159091	76.000000	62.000000
656.190909	656.320455	57.000000	51.000000
656.190909	656.320455	64.000000	61.000000
656.288636	656.384091	74.000000	61.000000
656.320455	656.384091	57.000000	57.000000
656.320455	656.384091	64.000000	60.000000
656.320455	656.352273	67.000000	47.000000
656.511364	656.575000	64.000000	59.000000
656.511364	656.575000	73.000000	60.000000
656.543182	656.609091	57.000000	44.000000
656.543182	656.640909	67.000000	41.000000
656.704545	656.800000	49.000000	57.000000
656.704545	656.768182	73.000000	67.000000
656.736364	656.800000	57.000000	55.000000
656.736364	656.800000	64.000000	54.000000
656.736364	656.800000	67.000000	59.000000
656.736364	656.831818	71.000000	64.000000
656.927273	657.025000	57.000000	48.000000
656.927273	656.990909	64.000000	65.000000
656.927273	656.990909	69.000000	57.000000
657.152273	657.215909	73.000000	63.000000
657.184091	657.311364	50.000000	60.000000
657.184091	657.343182	62.000000	63.000000
657.184091	657.247727	66.000000	63.000000
657.184091	657.375000	71.000000	64.000000
657.375000	657.472727	69.000000	59.000000
657.600000	657.888636	50.000000	64.000000
657.600000	657.856818	59.000000	62.000000
657.600000	657.695455	65.000000	53.000000
657.600000	657.695455	68.000000	65.000000
657.790909	657.920455	69.000000	59.000000
657.825000	657.920455	49.000000	55.000000
657.825000	658.047727	57.000000	50.000000
657.825000	657.888636	66.000000	58.000000
658.015909	658.111364	73.000000	67.000000
658.015909	658.111364	81.000000	68.000000
658.047727	658.175000	49.000000	51.000000
658.047727	658.111364	57.000000	53.000000
658.047727	658.079545	61.000000	52.000000
658.111364	658.304545	80.000000	61.000000
658.240909	658.495455	78.000000	67.000000
658.495455	658.720455	50.000000	64.000000
658.527273	658.688636	59.000000	60.000000
658.527273	658.688636	65.000000	54.000000
658.527273	658.720455	68.000000	59.000000
658.527273	658.590909	77.000000	59.000000
658.720455	658.815909	49.000000	56.000000
658.720455	658.815909	69.000000	59.000000
658.752273	658.815909	57.000000	50.000000
658.752273	658.815909	66.000000	56.000000
658.943182	659.040909	73.000000	69.000000
658.975000	659.072727	49.000000	53.000000
658.975000	659.040909	57.000000	56.000000
658.975000	659.040909	61.000000	53.000000
658.975000	659.072727	81.000000	62.000000
659.072727	659.200000	80.000000	63.000000
659.168182	659.425000	78.000000	69.000000
659.425000	659.552273	77.000000	63.000000
659.456818	659.520455	49.000000	62.000000
659.456818	659.520455	56.000000	55.000000
659.456818	659.520455	61.000000	63.000000
659.456818	659.552273	73.000000	61.000000
659.647727	659.840909	61.000000	60.000000
659.647727	659.743182	73.000000	64.000000
659.647727	659.872727	80.000000	67.000000
659.679545	659.840909	49.000000	48.000000
659.872727	659.968182	54.000000	56.000000
659.872727	659.968182	69.000000	58.000000
659.872727	659.968182	78.000000	68.000000
659.904545	659.968182	61.000000	52.000000
659.904545	659.968182	66.000000	60.000000
659.904545	659.968182	73.000000	54.000000
660.127273	660.190909	49.000000	52.000000
660.127273	660.225000	61.000000	56.000000
660.127273	660.225000	71.000000	52.000000
660.127273	660.256818	80.000000	63.000000
660.256818	660.384091	81.000000	63.000000
660.352273	660.447727	42.000000	62.000000
660.352273	660.543182	73.000000	64.000000
660.352273	660.640909	78.000000	73.000000
660.384091	660.640909	69.000000	50.000000
660.575000	660.704545	49.000000	61.000000
660.575000	660.704545	80.000000	63.000000
660.609091	660.704545	71.000000	51.000000
660.704545	660.863636	81.000000	59.000000
660.831818	660.927273	78.000000	68.000000
660.863636	660.927273	42.000000	71.000000
660.863636	660.927273	69.000000	59.000000
661.343182	661.440909	61.000000	61.000000
661.343182	661.440909	70.000000	64.000000
661.375000	661.472727	55.000000	48.000000
661.472727	661.568182	69.000000	58.000000
661.568182	661.920455	64.000000	59.000000
661.600000	661.920455	45.000000	52.000000
661.695455	661.920455	67.000000	52.000000
661.790909	661.920455	70.000000	59.000000
661.920455	662.015909	69.000000	59.000000
662.015909	662.143182	73.000000	61.000000
662.047727	662.143182	57.000000	53.000000
662.047727	662.143182	64.000000	62.000000
662.143182	662.209091	76.000000	63.000000
662.240909	662.336364	81.000000	69.000000
662.272727	662.336364	57.000000	54.000000
662.272727	662.336364	64.000000	59.000000
662.272727	662.336364	69.000000	64.000000
662.495455	662.590909	57.000000	56.000000
662.495455	662.590909	64.000000	65.000000
662.688636	662.784091	55.000000	53.000000
662.688636	662.784091	61.000000	65.000000
662.688636	662.784091	70.000000	58.000000
662.784091	662.879545	69.000000	55.000000
662.911364	663.200000	45.000000	54.000000
662.911364	663.200000	64.000000	60.000000
663.040909	663.168182	67.000000	56.000000
663.136364	663.231818	70.000000	60.000000
663.231818	663.425000	69.000000	58.000000
663.327273	663.520455	73.000000	65.000000
663.359091	663.552273	57.000000	52.000000
663.359091	663.520455	64.000000	59.000000
663.390909	663.425000	61.000000	50.000000
663.456818	663.552273	76.000000	63.000000
663.584091	663.679545	57.000000	61.000000
663.584091	663.647727	64.000000	69.000000
663.584091	663.647727	69.000000	69.000000
663.584091	663.647727	81.000000	72.000000
663.809091	663.904545	57.000000	52.000000
663.809091	663.872727	64.000000	63.000000
664.031818	664.159091	45.000000	60.000000
664.031818	664.190909	81.000000	67.000000
664.159091	664.256818	80.000000	59.000000
664.256818	664.511364	80.000000	68.000000
664.288636	664.511364	59.000000	51.000000
664.288636	664.384091	62.000000	50.000000
664.384091	664.543182	77.000000	62.000000
664.479545	664.640909	50.000000	58.000000
664.543182	664.640909	77.000000	53.000000
664.609091	664.736364	76.000000	64.000000
664.736364	664.927273	59.000000	56.000000
664.736364	664.927273	62.000000	55.000000
664.736364	664.895455	76.000000	63.000000
664.863636	664.927273	74.000000	61.000000
664.959091	665.184091	53.000000	58.000000
664.959091	665.088636	76.000000	64.000000
665.088636	665.215909	74.000000	63.000000
665.184091	665.279545	59.000000	52.000000
665.184091	665.247727	62.000000	54.000000
665.184091	665.247727	73.000000	65.000000
665.279545	665.375000	74.000000	61.000000
665.409091	665.663636	45.000000	56.000000
665.409091	665.504545	75.000000	73.000000
665.536364	665.727273	76.000000	64.000000
665.631818	665.727273	69.000000	63.000000
665.663636	665.727273	57.000000	60.000000
665.663636	665.759091	61.000000	66.000000
665.759091	665.920455	73.000000	60.000000
665.888636	665.952273	64.000000	62.000000
665.984091	666.079545	69.000000	62.000000
666.079545	666.175000	61.000000	59.000000
666.209091	666.304545	64.000000	59.000000
666.336364	666.463636	50.000000	56.000000
666.336364	666.431818	57.000000	53.000000
666.463636	666.527273	63.000000	54.000000
666.559091	666.656818	66.000000	61.000000
666.590909	666.656818	38.000000	57.000000
666.688636	666.752273	60.000000	58.000000
666.815909	666.879545	43.000000	69.000000
666.815909	666.879545	58.000000	60.000000
666.815909	666.879545	62.000000	57.000000
666.815909	667.104545	67.000000	63.000000
667.009091	667.104545	43.000000	63.000000
667.136364	667.263636	31.000000	57.000000
667.231818	667.327273	43.000000	67.000000
667.263636	667.327273	55.000000	69.000000
667.263636	667.327273	67.000000	69.000000
667.359091	667.425000	45.000000	49.000000
667.456818	667.552273	58.000000	58.000000
667.488636	667.552273	46.000000	49.000000
667.679545	667.775000	61.000000	65.000000
667.743182	667.840909	50.000000	59.000000
667.775000	667.840909	62.000000	60.000000
667.936364	668.000000	38.000000	58.000000
667.936364	668.031818	54.000000	51.000000
667.968182	668.000000	57.000000	50.000000
668.159091	668.256818	43.000000	64.000000
668.159091	668.256818	58.000000	63.000000
668.159091	668.288636	62.000000	55.000000
668.190909	668.225000	55.000000	64.000000
668.415909	668.479545	55.000000	39.000000
668.415909	668.640909	67.000000	42.000000
668.575000	668.640909	43.000000	69.000000
668.672727	668.736364	67.000000	57.000000
668.672727	668.736364	78.000000	66.000000
668.672727	668.736364	79.000000	69.000000
668.831818	668.927273	58.000000	51.000000
668.863636	668.927273	67.000000	53.000000
668.863636	668.927273	70.000000	57.000000
668.990909	669.056818	60.000000	49.000000
669.025000	669.088636	73.000000	69.000000
669.056818	669.152273	62.000000	61.000000
669.056818	669.120455	69.000000	59.000000
669.088636	669.152273	74.000000	60.000000
669.247727	669.440909	50.000000	50.000000
669.279545	669.440909	62.000000	47.000000
669.279545	669.343182	66.000000	52.000000
669.279545	669.375000	69.000000	53.000000
669.504545	669.790909	67.000000	49.000000
669.504545	669.790909	70.000000	54.000000
669.536364	669.568182	62.000000	34.000000
669.759091	669.856818	74.000000	51.000000
669.759091	669.856818	79.000000	57.000000
669.790909	669.888636	58.000000	41.000000
669.790909	669.825000	67.000000	45.000000
669.888636	669.952273	58.000000	49.000000
669.888636	669.952273	67.000000	49.000000
669.984091	670.079545	74.000000	49.000000
669.984091	670.047727	79.000000	62.000000
670.015909	670.175000	58.000000	41.000000
670.015909	670.079545	67.000000	43.000000
670.209091	670.463636	78.000000	59.000000
670.209091	670.463636	81.000000	61.000000
670.240909	670.495455	62.000000	51.000000
670.240909	670.463636	69.000000	53.000000
670.240909	670.463636	74.000000	50.000000
670.463636	670.559091	67.000000	60.000000
670.463636	670.527273	70.000000	63.000000
670.463636	670.879545	79.000000	62.000000
670.463636	670.590909	82.000000	63.000000
670.656818	670.911364	67.000000	59.000000
670.656818	670.879545	86.000000	71.000000
670.688636	670.879545	70.000000	65.000000
670.688636	670.879545	74.000000	62.000000
670.688636	670.879545	82.000000	67.000000
670.879545	670.975000	72.000000	62.000000
670.879545	671.200000	75.000000	66.000000
670.879545	671.009091	84.000000	67.000000
670.879545	670.975000	87.000000	70.000000
670.911364	671.168182	67.000000	53.000000
671.168182	671.359091	67.000000	53.000000
671.168182	671.359091	70.000000	61.000000
671.168182	671.327273	74.000000	54.000000
671.168182	671.359091	86.000000	67.000000
671.231818	671.359091	79.000000	68.000000
671.359091	671.456818	81.000000	66.000000
671.390909	672.190909	62.000000	54.000000
671.390909	671.456818	69.000000	61.000000
671.390909	671.456818	78.000000	67.000000
671.615909	671.711364	78.000000	56.000000
671.615909	671.711364	81.000000	56.000000
671.711364	671.809091	82.000000	50.000000
671.743182	671.809091	67.000000	46.000000
671.743182	671.809091	70.000000	47.000000
671.743182	671.809091	79.000000	51.000000
671.872727	672.190909	69.000000	42.000000
671.872727	671.968182	78.000000	47.000000
671.872727	672.225000	81.000000	50.000000
672.320455	672.672727	46.000000	64.000000
672.320455	672.575000	58.000000	64.000000
672.320455	672.672727	73.000000	72.000000
672.320455	672.672727	76.000000	69.000000
672.320455	672.575000	85.000000	69.000000
672.543182	673.120455	77.000000	66.000000
672.575000	672.704545	53.000000	54.000000
672.575000	672.704545	58.000000	48.000000
672.575000	672.704545	62.000000	61.000000
672.575000	672.640909	74.000000	59.000000
672.800000	673.120455	53.000000	62.000000
672.800000	673.120455	58.000000	67.000000
672.800000	673.120455	62.000000	67.000000
672.800000	673.152273	86.000000	71.000000
672.895455	673.152273	84.000000	61.000000
673.025000	673.152273	82.000000	69.000000
673.247727	673.568182	41.000000	67.000000
673.247727	673.504545	53.000000	67.000000
673.247727	673.568182	81.000000	66.000000
673.247727	673.568182	84.000000	71.000000
673.472727	673.568182	57.000000	52.000000
673.472727	673.568182	60.000000	61.000000
673.472727	673.568182	77.000000	70.000000
673.472727	673.727273	89.000000	73.000000
673.504545	673.568182	53.000000	58.000000
673.695455	673.759091	46.000000	63.000000
673.695455	673.984091	85.000000	67.000000
673.695455	674.111364	88.000000	62.000000
673.920455	674.111364	53.000000	58.000000
673.920455	674.111364	62.000000	62.000000
673.952273	674.111364	58.000000	58.000000
673.952273	674.111364	86.000000	65.000000
673.952273	674.111364	89.000000	61.000000
674.175000	674.559091	53.000000	64.000000
674.175000	674.559091	58.000000	65.000000
674.175000	674.527273	62.000000	68.000000
674.175000	674.527273	98.000000	73.000000
674.209091	674.240909	96.000000	64.000000
674.304545	674.527273	96.000000	71.000000
674.400000	674.559091	94.000000	72.000000
674.625000	675.136364	93.000000	71.000000
674.625000	674.879545	96.000000	71.000000
674.656818	675.104545	53.000000	57.000000
674.656818	674.720455	65.000000	65.000000
674.847727	675.104545	101.000000	75.000000
674.879545	675.104545	65.000000	57.000000
674.879545	675.104545	69.000000	57.000000
674.879545	675.136364	89.000000	73.000000
675.104545	675.327273	53.000000	61.000000
675.263636	675.520455	87.000000	73.000000
675.263636	675.520455	99.000000	74.000000
675.390909	675.584091	65.000000	64.000000
675.390909	675.904545	69.000000	60.000000
675.520455	676.288636	84.000000	67.000000
675.520455	676.288636	96.000000	72.000000
675.647727	676.575000	57.000000	57.000000
675.775000	676.256818	81.000000	68.000000
675.775000	676.288636	93.000000	71.000000
675.904545	676.288636	65.000000	54.000000
675.904545	676.256818	69.000000	54.000000
676.031818	676.288636	77.000000	67.000000
676.031818	676.352273	89.000000	68.000000
676.127273	676.575000	60.000000	51.000000
676.256818	676.575000	87.000000	71.000000
676.288636	676.575000	75.000000	66.000000
676.352273	676.575000	65.000000	46.000000
676.352273	676.575000	69.000000	49.000000
676.447727	676.575000	84.000000	61.000000
676.479545	676.575000	72.000000	57.000000
676.609091	676.704545	52.000000	51.000000
676.609091	676.704545	73.000000	53.000000
676.609091	676.895455	85.000000	64.000000
676.768182	677.056818	74.000000	54.000000
676.768182	677.056818	86.000000	58.000000
676.863636	677.056818	61.000000	50.000000
676.863636	677.056818	69.000000	45.000000
676.863636	677.056818	87.000000	63.000000
676.895455	677.056818	75.000000	54.000000
676.990909	677.056818	76.000000	63.000000
676.990909	677.056818	88.000000	59.000000
677.120455	677.727273	52.000000	60.000000
677.152273	677.504545	78.000000	71.000000
677.152273	677.504545	90.000000	71.000000
677.440909	677.727273	64.000000	57.000000
677.440909	677.727273	88.000000	60.000000
677.759091	678.272727	69.000000	52.000000
677.759091	677.825000	73.000000	57.000000
677.759091	678.240909	81.000000	60.000000
678.047727	678.240909	76.000000	57.000000
678.209091	678.752273	67.000000	49.000000
678.368182	678.752273	49.000000	54.000000
678.368182	678.656818	57.000000	49.000000
678.368182	678.752273	81.000000	68.000000
678.656818	678.815909	57.000000	52.000000
678.656818	679.168182	64.000000	66.000000
678.688636	679.200000	80.000000	59.000000
678.784091	679.200000	79.000000	67.000000
678.911364	679.200000	78.000000	65.000000
679.168182	679.295455	57.000000	45.000000
679.168182	679.231818	64.000000	61.000000
679.168182	679.295455	67.000000	57.000000
679.168182	679.231818	76.000000	61.000000
679.263636	679.327273	64.000000	61.000000
679.359091	679.456818	74.000000	63.000000
679.390909	679.456818	57.000000	58.000000
679.390909	679.456818	64.000000	63.000000
679.390909	679.456818	67.000000	54.000000
679.584091	679.679545	57.000000	46.000000
679.584091	679.647727	64.000000	54.000000
679.584091	679.679545	67.000000	41.000000
679.584091	679.647727	73.000000	64.000000
679.809091	680.063636	49.000000	57.000000
679.809091	679.904545	57.000000	56.000000
679.809091	679.904545	67.000000	64.000000
679.809091	679.872727	73.000000	68.000000
679.840909	679.872727	64.000000	56.000000
679.840909	680.063636	71.000000	62.000000
680.031818	680.127273	64.000000	62.000000
680.031818	680.095455	69.000000	60.000000
680.063636	680.127273	57.000000	47.000000
680.256818	680.352273	50.000000	58.000000
680.256818	680.352273	66.000000	65.000000
680.256818	680.320455	73.000000	64.000000
680.288636	680.575000	57.000000	48.000000
680.288636	680.511364	71.000000	59.000000
680.479545	680.543182	62.000000	52.000000
680.479545	680.575000	66.000000	53.000000
680.479545	680.609091	69.000000	58.000000
680.704545	680.831818	49.000000	55.000000
680.704545	680.831818	57.000000	50.000000
680.704545	680.895455	67.000000	58.000000
680.704545	681.088636	71.000000	62.000000
680.895455	681.120455	69.000000	60.000000
680.927273	681.120455	57.000000	50.000000
680.927273	681.120455	64.000000	63.000000
681.184091	682.047727	50.000000	47.000000
681.184091	681.631818	74.000000	58.000000
681.215909	681.247727	64.000000	44.000000
681.215909	681.247727	69.000000	48.000000
681.440909	681.631818	54.000000	43.000000
681.440909	681.536364	62.000000	46.000000
681.440909	681.663636	66.000000	44.000000
681.440909	681.536364	69.000000	44.000000
681.536364	681.663636	62.000000	44.000000
681.536364	681.631818	69.000000	44.000000
681.631818	682.047727	54.000000	53.000000
681.631818	682.047727	69.000000	59.000000
681.631818	682.079545	74.000000	64.000000
681.663636	682.047727	62.000000	52.000000
681.663636	682.079545	66.000000	53.000000
681.856818	682.047727	64.000000	62.000000
681.856818	682.079545	73.000000	53.000000
681.856818	682.047727	76.000000	62.000000
682.079545	682.336364	62.000000	55.000000
682.079545	682.143182	66.000000	66.000000
682.079545	682.304545	69.000000	51.000000
682.079545	682.143182	74.000000	63.000000
682.079545	682.304545	78.000000	73.000000
682.304545	682.463636	66.000000	61.000000
682.304545	682.463636	69.000000	61.000000
682.304545	682.495455	78.000000	66.000000
682.304545	682.495455	81.000000	69.000000
682.336364	682.431818	62.000000	38.000000
682.527273	682.975000	62.000000	55.000000
682.527273	682.879545	79.000000	73.000000
682.527273	682.975000	83.000000	73.000000
682.559091	682.847727	67.000000	63.000000
682.559091	682.975000	71.000000	57.000000
682.784091	682.975000	78.000000	66.000000
682.784091	682.975000	81.000000	61.000000
682.815909	682.975000	66.000000	58.000000
682.815909	682.975000	69.000000	57.000000
682.815909	682.975000	74.000000	56.000000
683.009091	683.168182	64.000000	58.000000
683.009091	683.104545	73.000000	64.000000
683.009091	683.104545	76.000000	63.000000
683.040909	683.359091	57.000000	49.000000
683.231818	683.359091	76.000000	54.000000
683.263636	683.327273	73.000000	50.000000
683.295455	683.390909	66.000000	50.000000
683.327273	683.390909	78.000000	58.000000
683.456818	683.552273	73.000000	49.000000
683.456818	683.775000	76.000000	53.000000
683.488636	683.775000	57.000000	38.000000
683.488636	683.552273	64.000000	47.000000
683.809091	684.031818	67.000000	53.000000
683.936364	684.415909	49.000000	53.000000
683.936364	684.225000	57.000000	51.000000
683.968182	684.352273	81.000000	64.000000
684.225000	684.384091	57.000000	51.000000
684.225000	684.511364	64.000000	66.000000
684.225000	684.384091	80.000000	64.000000
684.288636	684.447727	79.000000	68.000000
684.415909	684.736364	78.000000	71.000000
684.640909	684.800000	57.000000	48.000000
684.640909	684.768182	64.000000	61.000000
684.640909	684.736364	67.000000	53.000000
684.640909	684.736364	76.000000	61.000000
684.768182	684.831818	64.000000	58.000000
684.863636	684.959091	57.000000	53.000000
684.863636	684.927273	64.000000	61.000000
684.863636	684.927273	67.000000	47.000000
684.863636	684.927273	74.000000	63.000000
685.056818	685.152273	57.000000	45.000000
685.056818	685.120455	64.000000	58.000000
685.056818	685.120455	73.000000	65.000000
685.088636	685.152273	67.000000	47.000000
685.279545	685.375000	49.000000	55.000000
685.279545	685.375000	57.000000	52.000000
685.279545	685.375000	67.000000	55.000000
685.279545	685.568182	71.000000	59.000000
685.279545	685.343182	73.000000	64.000000
685.311364	685.375000	64.000000	48.000000
685.504545	685.568182	64.000000	60.000000
685.504545	685.568182	69.000000	57.000000
685.536364	685.600000	57.000000	49.000000
685.727273	685.825000	62.000000	58.000000
685.727273	685.825000	73.000000	65.000000
685.759091	685.856818	50.000000	57.000000
685.759091	685.825000	57.000000	45.000000
685.759091	685.825000	66.000000	58.000000
685.759091	685.825000	71.000000	60.000000
685.984091	686.209091	69.000000	59.000000
686.304545	686.368182	54.000000	45.000000
686.304545	686.368182	66.000000	45.000000
686.304545	686.368182	81.000000	60.000000
686.304545	686.368182	83.000000	54.000000
686.559091	686.625000	62.000000	45.000000
686.559091	686.625000	69.000000	43.000000
686.559091	686.625000	81.000000	57.000000
686.559091	686.625000	83.000000	53.000000
686.815909	686.911364	62.000000	46.000000
686.815909	686.911364	71.000000	43.000000
686.815909	686.911364	79.000000	62.000000
686.815909	686.879545	81.000000	58.000000
686.847727	686.911364	67.000000	45.000000
687.040909	687.136364	62.000000	51.000000
687.040909	687.136364	67.000000	49.000000
687.040909	687.104545	71.000000	52.000000
687.040909	687.136364	79.000000	62.000000
687.040909	687.104545	81.000000	60.000000
687.231818	687.327273	63.000000	51.000000
687.231818	687.327273	78.000000	60.000000
687.231818	687.327273	79.000000	64.000000
687.263636	687.327273	57.000000	41.000000
687.263636	687.327273	69.000000	45.000000
687.263636	687.327273	71.000000	46.000000
687.456818	687.615909	78.000000	59.000000
687.488636	687.584091	63.000000	43.000000
687.488636	687.552273	66.000000	49.000000
687.488636	687.584091	71.000000	38.000000
687.711364	687.840909	78.000000	55.000000
687.743182	687.872727	64.000000	48.000000
687.743182	687.904545	67.000000	38.000000
687.743182	687.872727	71.000000	40.000000
687.968182	688.063636	71.000000	45.000000
687.968182	688.063636	76.000000	51.000000
688.000000	688.063636	64.000000	46.000000
688.000000	688.063636	67.000000	34.000000
688.447727	688.672727	83.000000	57.000000
688.640909	689.184091	57.000000	32.000000
688.640909	689.215909	67.000000	37.000000
688.640909	689.184091	73.000000	54.000000
688.672727	688.927273	64.000000	35.000000
689.152273	689.311364	74.000000	41.000000
689.184091	689.247727	38.000000	27.000000
689.184091	689.504545	50.000000	31.000000
689.184091	689.343182	62.000000	32.000000
689.184091	689.311364	66.000000	36.000000
689.568182	689.695455	55.000000	51.000000
689.568182	689.663636	61.000000	63.000000
689.568182	689.663636	70.000000	63.000000
689.695455	689.790909	69.000000	57.000000
689.790909	690.111364	45.000000	54.000000
689.790909	690.111364	64.000000	61.000000
689.920455	690.111364	67.000000	55.000000
690.015909	690.111364	70.000000	62.000000
690.111364	690.240909	69.000000	56.000000
690.240909	690.400000	73.000000	61.000000
690.272727	690.431818	57.000000	46.000000
690.272727	690.368182	64.000000	59.000000
690.336364	690.431818	76.000000	63.000000
690.463636	690.527273	69.000000	69.000000
690.463636	690.527273	81.000000	72.000000
690.495455	690.559091	57.000000	53.000000
690.495455	690.559091	64.000000	64.000000
690.688636	690.847727	57.000000	51.000000
690.688636	690.784091	64.000000	66.000000
690.943182	691.168182	55.000000	50.000000
690.943182	691.040909	61.000000	62.000000
690.943182	691.040909	70.000000	59.000000
691.009091	691.136364	69.000000	54.000000
691.136364	691.584091	45.000000	56.000000
691.136364	691.390909	64.000000	62.000000
691.263636	691.711364	67.000000	57.000000
691.359091	691.456818	70.000000	61.000000
691.456818	691.711364	69.000000	60.000000
691.552273	691.743182	57.000000	50.000000
691.552273	691.743182	64.000000	56.000000
691.552273	691.743182	73.000000	66.000000
691.647727	691.743182	76.000000	64.000000
691.775000	691.872727	57.000000	62.000000
691.775000	691.840909	64.000000	69.000000
691.775000	691.840909	69.000000	69.000000
691.775000	691.840909	81.000000	72.000000
692.000000	692.225000	57.000000	57.000000
692.000000	692.095455	64.000000	67.000000
692.256818	692.352273	45.000000	54.000000
692.256818	692.352273	81.000000	66.000000
692.352273	692.479545	80.000000	59.000000
692.479545	692.736364	59.000000	52.000000
692.479545	692.575000	62.000000	52.000000
692.479545	692.736364	80.000000	67.000000
692.609091	692.736364	77.000000	60.000000
692.736364	692.800000	50.000000	62.000000
692.736364	692.800000	77.000000	60.000000
692.831818	692.959091	76.000000	65.000000
692.927273	693.025000	59.000000	53.000000
692.927273	693.025000	62.000000	53.000000
692.959091	693.025000	76.000000	59.000000
693.056818	693.152273	74.000000	60.000000
693.152273	693.215909	53.000000	60.000000
693.152273	693.247727	76.000000	63.000000
693.279545	693.409091	74.000000	62.000000
693.375000	693.536364	59.000000	53.000000
693.375000	693.440909	62.000000	57.000000
693.375000	693.440909	73.000000	65.000000
693.472727	693.536364	74.000000	63.000000
693.568182	693.663636	45.000000	57.000000
693.600000	693.663636	75.000000	72.000000
693.695455	693.888636	76.000000	65.000000
693.825000	693.888636	57.000000	61.000000
693.825000	693.920455	61.000000	67.000000
693.825000	693.888636	69.000000	64.000000
693.952273	694.047727	73.000000	58.000000
694.079545	694.143182	64.000000	61.000000
694.175000	694.272727	69.000000	61.000000
694.272727	694.368182	61.000000	58.000000
694.400000	694.495455	64.000000	58.000000
694.495455	694.625000	50.000000	57.000000
694.527273	694.625000	57.000000	50.000000
694.527273	694.590909	62.000000	52.000000
694.656818	694.720455	63.000000	52.000000
694.752273	694.847727	66.000000	64.000000
694.784091	694.847727	38.000000	57.000000
694.879545	694.975000	60.000000	57.000000
695.009091	695.072727	43.000000	67.000000
695.009091	695.072727	58.000000	61.000000
695.009091	695.263636	67.000000	65.000000
695.231818	695.295455	43.000000	56.000000
695.359091	695.488636	31.000000	55.000000
695.425000	695.520455	66.000000	59.000000
695.456818	695.679545	43.000000	65.000000
695.456818	695.552273	67.000000	68.000000
695.488636	695.552273	55.000000	66.000000
695.679545	695.743182	46.000000	50.000000
695.679545	695.743182	58.000000	57.000000
695.809091	695.872727	48.000000	48.000000
695.904545	695.968182	61.000000	66.000000
695.936364	696.031818	50.000000	58.000000
695.968182	696.127273	62.000000	59.000000
696.159091	696.225000	38.000000	56.000000
696.159091	696.225000	54.000000	50.000000
696.159091	696.225000	57.000000	51.000000
696.384091	696.479545	62.000000	50.000000
696.415909	696.479545	43.000000	65.000000
696.415909	696.479545	55.000000	63.000000
696.415909	696.479545	58.000000	60.000000
696.640909	696.800000	55.000000	39.000000
696.640909	696.704545	62.000000	37.000000
696.640909	696.800000	67.000000	43.000000
696.768182	696.863636	43.000000	69.000000
696.863636	696.959091	78.000000	65.000000
696.895455	696.959091	67.000000	54.000000
696.895455	696.990909	74.000000	53.000000
696.895455	696.959091	79.000000	68.000000
697.025000	697.120455	57.000000	41.000000
697.120455	697.184091	58.000000	50.000000
697.120455	697.184091	67.000000	53.000000
697.120455	697.184091	70.000000	57.000000
697.279545	697.343182	60.000000	47.000000
697.311364	697.409091	73.000000	67.000000
697.343182	697.440909	62.000000	56.000000
697.343182	697.409091	69.000000	55.000000
697.409091	697.472727	74.000000	59.000000
697.568182	697.663636	50.000000	49.000000
697.568182	697.631818	66.000000	51.000000
697.568182	697.663636	69.000000	53.000000
697.759091	697.856818	67.000000	50.000000
697.759091	697.856818	70.000000	56.000000
698.047727	698.111364	74.000000	50.000000
698.047727	698.143182	79.000000	55.000000
698.079545	698.175000	58.000000	41.000000
698.079545	698.111364	67.000000	43.000000
698.175000	698.240909	58.000000	48.000000
698.175000	698.240909	67.000000	45.000000
698.272727	698.368182	74.000000	47.000000
698.272727	698.368182	79.000000	61.000000
698.304545	698.368182	58.000000	39.000000
698.495455	698.752273	78.000000	59.000000
698.495455	698.752273	81.000000	59.000000
698.527273	698.752273	62.000000	49.000000
698.527273	698.752273	69.000000	51.000000
698.527273	698.752273	74.000000	49.000000
698.752273	698.847727	67.000000	60.000000
698.752273	698.847727	70.000000	63.000000
698.752273	698.975000	79.000000	61.000000
698.752273	698.975000	82.000000	64.000000
698.784091	698.975000	74.000000	39.000000
698.943182	699.200000	86.000000	70.000000
698.975000	699.168182	67.000000	60.000000
698.975000	699.168182	70.000000	64.000000
698.975000	699.168182	74.000000	60.000000
698.975000	699.168182	79.000000	58.000000
698.975000	699.168182	82.000000	66.000000
699.200000	699.647727	67.000000	55.000000
699.200000	699.263636	72.000000	61.000000
699.200000	699.263636	75.000000	66.000000
699.200000	699.263636	84.000000	68.000000
699.200000	699.295455	87.000000	70.000000
699.456818	699.647727	70.000000	62.000000
699.456818	699.647727	74.000000	56.000000
699.456818	699.647727	86.000000	68.000000
699.488636	699.520455	82.000000	62.000000
699.552273	699.647727	79.000000	69.000000
699.679545	699.968182	62.000000	58.000000
699.679545	699.743182	69.000000	62.000000
699.679545	699.743182	78.000000	69.000000
699.679545	699.743182	81.000000	67.000000
699.904545	699.968182	78.000000	59.000000
699.904545	699.968182	81.000000	58.000000
700.000000	700.095455	82.000000	55.000000
700.031818	700.095455	67.000000	42.000000
700.031818	700.095455	70.000000	47.000000
700.031818	700.095455	79.000000	49.000000
700.127273	700.511364	81.000000	49.000000
700.159091	700.511364	62.000000	39.000000
700.159091	700.511364	69.000000	40.000000
700.159091	700.511364	78.000000	48.000000
700.575000	700.736364	46.000000	63.000000
700.575000	700.863636	58.000000	64.000000
700.575000	700.672727	73.000000	72.000000
700.575000	700.831818	76.000000	70.000000
700.831818	701.120455	77.000000	67.000000
700.863636	701.088636	53.000000	52.000000
700.863636	701.088636	58.000000	48.000000
700.863636	701.088636	62.000000	60.000000
700.863636	701.056818	74.000000	57.000000
701.088636	701.409091	53.000000	61.000000
701.088636	701.440909	58.000000	63.000000
701.088636	701.440909	62.000000	65.000000
701.088636	701.440909	86.000000	71.000000
701.120455	701.440909	77.000000	66.000000
701.184091	701.440909	84.000000	63.000000
701.311364	701.440909	82.000000	69.000000
701.536364	701.856818	41.000000	68.000000
701.536364	701.727273	53.000000	70.000000
701.536364	701.856818	81.000000	68.000000
701.536364	701.856818	84.000000	71.000000
701.759091	701.856818	53.000000	60.000000
701.759091	701.856818	57.000000	55.000000
701.759091	701.856818	60.000000	61.000000
701.759091	702.015909	89.000000	72.000000
701.790909	701.888636	77.000000	71.000000
701.984091	702.111364	46.000000	62.000000
701.984091	702.079545	58.000000	65.000000
701.984091	702.527273	88.000000	64.000000
702.015909	702.272727	85.000000	68.000000
702.240909	702.527273	53.000000	58.000000
702.240909	702.495455	62.000000	62.000000
702.240909	702.625000	86.000000	66.000000
702.240909	702.815909	89.000000	64.000000
702.272727	702.495455	58.000000	57.000000
702.495455	702.847727	58.000000	64.000000
702.495455	702.815909	62.000000	67.000000
702.495455	702.847727	98.000000	73.000000
702.527273	702.784091	53.000000	62.000000
702.527273	702.559091	65.000000	62.000000
702.527273	702.590909	96.000000	63.000000
702.590909	702.815909	96.000000	68.000000
702.720455	702.847727	94.000000	72.000000
702.784091	702.847727	53.000000	52.000000
702.943182	703.425000	53.000000	59.000000
702.943182	703.009091	65.000000	66.000000
702.943182	703.425000	93.000000	72.000000
702.943182	703.168182	96.000000	71.000000
703.168182	703.425000	65.000000	58.000000
703.168182	703.425000	89.000000	74.000000
703.168182	703.425000	101.000000	76.000000
703.200000	703.425000	69.000000	59.000000
703.425000	703.840909	53.000000	61.000000
703.584091	704.575000	87.000000	72.000000
703.584091	704.959091	99.000000	74.000000
703.711364	704.225000	65.000000	64.000000
703.711364	704.225000	69.000000	58.000000
703.840909	704.831818	84.000000	68.000000
703.840909	704.959091	96.000000	74.000000
703.968182	704.990909	57.000000	56.000000
704.095455	704.959091	81.000000	70.000000
704.095455	704.959091	93.000000	73.000000
704.225000	704.672727	65.000000	54.000000
704.225000	704.672727	69.000000	57.000000
704.320455	704.959091	89.000000	71.000000
704.352273	704.959091	77.000000	71.000000
704.415909	704.959091	60.000000	49.000000
704.575000	704.959091	75.000000	66.000000
704.575000	704.959091	87.000000	72.000000
704.672727	704.959091	65.000000	55.000000
704.672727	704.990909	69.000000	57.000000
704.831818	704.990909	72.000000	59.000000
704.831818	704.990909	84.000000	62.000000
705.025000	705.120455	52.000000	51.000000
705.025000	705.184091	85.000000	67.000000
705.056818	705.440909	73.000000	53.000000
705.152273	705.440909	74.000000	53.000000
705.152273	705.440909	86.000000	58.000000
705.247727	705.440909	61.000000	46.000000
705.247727	705.440909	69.000000	40.000000
705.247727	705.440909	87.000000	58.000000
705.279545	705.440909	75.000000	49.000000
705.375000	705.440909	76.000000	62.000000
705.375000	705.440909	88.000000	55.000000
705.472727	706.047727	52.000000	58.000000
705.472727	705.790909	78.000000	70.000000
705.472727	705.759091	90.000000	70.000000
705.727273	706.047727	64.000000	60.000000
705.727273	706.047727	71.000000	54.000000
705.727273	706.047727	88.000000	62.000000
706.047727	706.143182	73.000000	60.000000
706.047727	706.143182	81.000000	63.000000
706.079545	706.175000	69.000000	52.000000
706.304545	706.527273	76.000000	58.000000
706.495455	707.425000	67.000000	49.000000
706.656818	707.425000	49.000000	52.000000
706.656818	707.425000	81.000000	68.000000
706.688636	707.040909	57.000000	50.000000
706.688636	707.425000	69.000000	53.000000
707.009091	707.425000	64.000000	67.000000
707.040909	707.425000	57.000000	52.000000
707.040909	707.425000	80.000000	60.000000
707.136364	707.425000	79.000000	66.000000
707.231818	707.425000	78.000000	65.000000
707.488636	707.552273	64.000000	65.000000
707.488636	707.584091	67.000000	58.000000
707.520455	707.584091	57.000000	42.000000
707.615909	707.679545	57.000000	54.000000
707.615909	707.679545	64.000000	65.000000
707.743182	707.809091	57.000000	58.000000
707.743182	707.809091	64.000000	59.000000
707.743182	707.809091	74.000000	64.000000
707.936364	708.031818	73.000000	64.000000
707.968182	708.031818	57.000000	50.000000
707.968182	708.031818	64.000000	61.000000
707.968182	708.031818	67.000000	44.000000
708.127273	708.225000	49.000000	57.000000
708.159091	708.225000	57.000000	56.000000
708.159091	708.225000	67.000000	62.000000
708.159091	708.384091	71.000000	60.000000
708.190909	708.225000	64.000000	51.000000
708.352273	708.447727	64.000000	62.000000
708.384091	708.479545	57.000000	51.000000
708.384091	708.479545	69.000000	58.000000
708.609091	708.672727	50.000000	61.000000
708.609091	708.704545	66.000000	64.000000
708.609091	708.672727	73.000000	64.000000
708.640909	708.704545	57.000000	48.000000
708.640909	708.863636	71.000000	60.000000
708.831818	708.895455	62.000000	53.000000
708.831818	708.927273	66.000000	52.000000
708.831818	708.927273	69.000000	60.000000
708.863636	708.927273	57.000000	43.000000
709.056818	709.279545	49.000000	57.000000
709.056818	709.120455	57.000000	54.000000
709.056818	709.152273	67.000000	58.000000
709.056818	709.343182	71.000000	63.000000
709.247727	709.440909	69.000000	61.000000
709.279545	709.375000	57.000000	49.000000
709.279545	709.375000	64.000000	63.000000
709.536364	710.431818	50.000000	48.000000
709.536364	709.984091	74.000000	59.000000
709.568182	709.631818	69.000000	51.000000
709.790909	709.888636	54.000000	44.000000
709.790909	709.888636	62.000000	48.000000
709.790909	710.015909	66.000000	46.000000
709.790909	709.888636	69.000000	46.000000
709.888636	709.984091	54.000000	43.000000
709.888636	710.015909	62.000000	44.000000
709.888636	710.015909	69.000000	45.000000
709.984091	710.431818	54.000000	54.000000
709.984091	710.431818	74.000000	65.000000
710.015909	710.431818	62.000000	54.000000
710.015909	710.431818	66.000000	56.000000
710.015909	710.431818	69.000000	59.000000
710.209091	710.431818	64.000000	65.000000
710.209091	710.431818	73.000000	57.000000
710.209091	710.431818	76.000000	64.000000
710.240909	710.400000	67.000000	46.000000
710.431818	710.656818	62.000000	55.000000
710.431818	710.495455	66.000000	67.000000
710.431818	710.527273	74.000000	64.000000
710.431818	710.527273	78.000000	74.000000
710.463636	710.527273	69.000000	47.000000
710.656818	710.879545	78.000000	66.000000
710.656818	710.911364	81.000000	69.000000
710.688636	710.879545	62.000000	43.000000
710.688636	710.879545	66.000000	61.000000
710.688636	710.879545	69.000000	62.000000
710.879545	711.200000	79.000000	74.000000
710.879545	711.359091	83.000000	74.000000
710.911364	711.263636	62.000000	56.000000
710.911364	711.231818	67.000000	62.000000
710.911364	711.231818	71.000000	60.000000
711.168182	711.359091	78.000000	66.000000
711.168182	711.359091	81.000000	59.000000
711.200000	711.359091	66.000000	57.000000
711.200000	711.390909	69.000000	55.000000
711.200000	711.390909	74.000000	54.000000
711.390909	711.552273	64.000000	61.000000
711.390909	711.488636	73.000000	67.000000
711.390909	711.488636	76.000000	66.000000
711.425000	711.488636	57.000000	50.000000
711.647727	711.775000	76.000000	57.000000
711.679545	711.775000	64.000000	44.000000
711.711364	711.809091	66.000000	52.000000
711.743182	711.809091	78.000000	59.000000
711.872727	712.190909	76.000000	54.000000
711.904545	712.190909	57.000000	40.000000
711.904545	712.190909	64.000000	47.000000
711.904545	712.190909	73.000000	46.000000
712.190909	712.927273	67.000000	53.000000
712.320455	712.927273	49.000000	51.000000
712.320455	712.640909	57.000000	48.000000
712.415909	712.927273	81.000000	65.000000
712.640909	713.120455	57.000000	56.000000
712.640909	713.088636	64.000000	68.000000
712.640909	712.895455	80.000000	59.000000
712.736364	712.990909	79.000000	66.000000
712.863636	713.184091	78.000000	69.000000
713.088636	713.184091	64.000000	63.000000
713.088636	713.184091	76.000000	61.000000
713.120455	713.215909	57.000000	43.000000
713.120455	713.215909	67.000000	54.000000
713.215909	713.311364	64.000000	58.000000
713.311364	713.409091	57.000000	51.000000
713.311364	713.375000	64.000000	67.000000
713.311364	713.375000	74.000000	64.000000
713.536364	713.631818	67.000000	49.000000
713.536364	713.600000	73.000000	63.000000
713.568182	713.631818	57.000000	40.000000
713.568182	713.600000	64.000000	53.000000
713.759091	714.015909	49.000000	56.000000
713.759091	713.856818	67.000000	59.000000
713.759091	714.047727	71.000000	65.000000
713.759091	713.825000	73.000000	66.000000
713.790909	713.825000	64.000000	46.000000
713.984091	714.047727	64.000000	57.000000
713.984091	714.047727	69.000000	58.000000
714.015909	714.079545	57.000000	47.000000
714.015909	714.047727	61.000000	40.000000
714.209091	714.304545	66.000000	61.000000
714.209091	714.272727	73.000000	65.000000
714.240909	714.656818	50.000000	57.000000
714.240909	714.304545	57.000000	48.000000
714.240909	714.304545	62.000000	50.000000
714.240909	714.304545	71.000000	61.000000
714.463636	714.559091	69.000000	59.000000
714.752273	714.815909	54.000000	45.000000
714.784091	714.847727	66.000000	44.000000
714.784091	714.879545	81.000000	58.000000
714.784091	714.847727	83.000000	54.000000
714.815909	714.847727	72.000000	48.000000
715.009091	715.072727	83.000000	54.000000
715.040909	715.104545	62.000000	44.000000
715.040909	715.104545	69.000000	43.000000
715.040909	715.104545	81.000000	56.000000
715.231818	715.327273	79.000000	64.000000
715.231818	715.327273	81.000000	59.000000
715.263636	715.327273	62.000000	46.000000
715.263636	715.327273	67.000000	45.000000
715.263636	715.359091	71.000000	42.000000
715.456818	715.552273	62.000000	52.000000
715.456818	715.552273	71.000000	51.000000
715.456818	715.552273	79.000000	62.000000
715.456818	715.552273	81.000000	60.000000
715.488636	715.552273	67.000000	49.000000
715.647727	715.743182	79.000000	65.000000
715.679545	715.775000	57.000000	42.000000
715.679545	715.775000	63.000000	49.000000
715.679545	715.840909	71.000000	47.000000
715.679545	715.775000	78.000000	60.000000
715.904545	716.095455	78.000000	58.000000
715.936364	716.031818	63.000000	42.000000
715.936364	716.031818	66.000000	48.000000
715.936364	716.031818	71.000000	39.000000
716.159091	716.288636	64.000000	50.000000
716.159091	716.352273	67.000000	39.000000
716.159091	716.384091	78.000000	55.000000
716.190909	716.320455	71.000000	41.000000
716.415909	716.736364	64.000000	47.000000
716.415909	716.736364	67.000000	33.000000
716.415909	716.736364	71.000000	45.000000
716.415909	717.279545	76.000000	52.000000
717.056818	717.343182	83.000000	59.000000
717.311364	718.463636	67.000000	39.000000
717.311364	718.463636	73.000000	55.000000
717.343182	718.463636	57.000000	32.000000
717.343182	718.463636	64.000000	38.000000
718.431818	719.040909	50.000000	33.000000
718.431818	719.390909	66.000000	36.000000
718.431818	719.456818	74.000000	38.000000
718.463636	719.390909	62.000000	32.000000
719.040909	719.390909	50.000000	23.000000
719.520455	720.831818	95.000000	48.000000
719.552273	720.575000	55.000000	32.000000
719.552273	719.615909	67.000000	36.000000
719.840909	720.863636	71.000000	41.000000
720.127273	720.863636	83.000000	54.000000
720.320455	721.409091	62.000000	38.000000
720.543182	720.895455	91.000000	53.000000
720.575000	721.409091	55.000000	32.000000
720.575000	720.768182	67.000000	35.000000
720.768182	721.279545	70.000000	48.000000
720.990909	721.409091	79.000000	57.000000
721.184091	721.409091	61.000000	42.000000
721.375000	722.240909	88.000000	50.000000
721.409091	722.209091	55.000000	34.000000
721.568182	722.209091	69.000000	47.000000
721.790909	722.240909	76.000000	54.000000
721.952273	722.240909	60.000000	38.000000
722.175000	723.104545	86.000000	56.000000
722.209091	723.072727	54.000000	36.000000
722.400000	723.104545	69.000000	48.000000
722.625000	723.136364	74.000000	49.000000
722.815909	723.136364	62.000000	38.000000
723.040909	723.968182	84.000000	55.000000
723.072727	724.736364	54.000000	39.000000
723.263636	723.968182	69.000000	44.000000
723.456818	723.936364	72.000000	49.000000
723.679545	723.968182	63.000000	46.000000
723.872727	724.800000	47.000000	45.000000
723.872727	724.768182	83.000000	62.000000
724.095455	724.800000	63.000000	50.000000
724.288636	724.800000	71.000000	52.000000
724.479545	724.800000	57.000000	39.000000
724.768182	725.600000	48.000000	43.000000
724.768182	725.631818	83.000000	61.000000
724.990909	725.631818	64.000000	53.000000
725.215909	725.631818	71.000000	48.000000
725.375000	725.631818	56.000000	41.000000
725.568182	726.527273	81.000000	61.000000
725.600000	726.463636	48.000000	40.000000
725.790909	726.495455	64.000000	52.000000
726.015909	726.527273	69.000000	54.000000
726.209091	726.495455	57.000000	41.000000
726.431818	727.263636	88.000000	59.000000
726.463636	727.263636	48.000000	44.000000
726.656818	727.263636	62.000000	48.000000
726.879545	727.263636	76.000000	55.000000
727.040909	727.295455	54.000000	46.000000
727.263636	727.968182	47.000000	43.000000
727.263636	728.127273	86.000000	62.000000
727.456818	728.095455	62.000000	50.000000
727.679545	728.127273	74.000000	53.000000
727.840909	728.095455	55.000000	40.000000
728.063636	729.025000	83.000000	57.000000
728.095455	729.056818	43.000000	47.000000
728.288636	729.025000	59.000000	42.000000
728.479545	729.025000	71.000000	47.000000
728.736364	729.056818	55.000000	35.000000
728.990909	730.304545	81.000000	54.000000
729.056818	730.272727	50.000000	32.000000
729.279545	730.272727	62.000000	39.000000
729.536364	730.304545	69.000000	44.000000
729.825000	730.304545	54.000000	39.000000
730.240909	730.943182	95.000000	54.000000
730.463636	731.200000	71.000000	46.000000
730.688636	731.136364	83.000000	54.000000
730.879545	731.775000	62.000000	44.000000
731.072727	731.327273	91.000000	59.000000
731.104545	731.872727	55.000000	37.000000
731.295455	732.031818	70.000000	51.000000
731.488636	731.775000	79.000000	57.000000
731.679545	732.672727	61.000000	46.000000
731.872727	732.672727	55.000000	40.000000
731.872727	732.672727	88.000000	52.000000
732.063636	732.672727	69.000000	51.000000
732.288636	732.672727	76.000000	53.000000
732.447727	732.672727	60.000000	44.000000
732.672727	733.536364	86.000000	61.000000
732.704545	733.472727	54.000000	36.000000
732.863636	733.536364	69.000000	49.000000
733.056818	733.568182	74.000000	53.000000
733.247727	733.984091	62.000000	42.000000
733.440909	734.304545	84.000000	61.000000
733.472727	734.272727	54.000000	43.000000
733.663636	734.304545	69.000000	50.000000
733.856818	734.304545	72.000000	51.000000
734.047727	734.304545	63.000000	51.000000
734.272727	735.136364	83.000000	63.000000
734.304545	735.104545	47.000000	45.000000
734.527273	735.104545	63.000000	51.000000
734.720455	735.104545	71.000000	50.000000
734.911364	735.136364	57.000000	43.000000
735.104545	735.968182	48.000000	43.000000
735.104545	736.000000	81.000000	63.000000
735.327273	736.000000	64.000000	55.000000
735.520455	736.000000	69.000000	56.000000
735.711364	736.000000	57.000000	46.000000
736.000000	736.159091	45.000000	49.000000
736.031818	736.990909	88.000000	60.000000
736.225000	736.990909	60.000000	52.000000
736.479545	736.990909	76.000000	53.000000
736.704545	736.990909	57.000000	38.000000
736.959091	737.790909	78.000000	64.000000
736.990909	737.759091	50.000000	44.000000
737.152273	737.790909	60.000000	43.000000
737.375000	737.790909	66.000000	49.000000
737.568182	737.790909	57.000000	38.000000
737.759091	738.784091	55.000000	34.000000
737.759091	737.920455	67.000000	40.000000
737.759091	738.752273	79.000000	55.000000
737.984091	738.784091	63.000000	45.000000
738.240909	740.288636	67.000000	44.000000
738.463636	738.784091	60.000000	38.000000
738.720455	739.872727	91.000000	55.000000
738.784091	740.543182	55.000000	32.000000
739.040909	740.511364	75.000000	55.000000
739.390909	740.543182	79.000000	55.000000
739.775000	740.543182	72.000000	45.000000
740.479545	740.609091	91.000000	51.000000
740.511364	741.375000	71.000000	33.000000
740.511364	741.375000	74.000000	32.000000
741.409091	742.143182	78.000000	68.000000
741.409091	742.143182	84.000000	70.000000
741.440909	742.111364	50.000000	63.000000
741.440909	741.504545	62.000000	61.000000
741.440909	742.111364	72.000000	66.000000
741.440909	742.143182	81.000000	69.000000
741.888636	742.047727	39.000000	54.000000
741.888636	742.047727	51.000000	59.000000
741.920455	742.047727	63.000000	70.000000
742.047727	742.143182	39.000000	60.000000
742.047727	742.111364	51.000000	65.000000
742.047727	742.111364	63.000000	70.000000
742.175000	742.368182	37.000000	55.000000
742.175000	742.240909	61.000000	69.000000
742.209091	742.272727	49.000000	52.000000
742.400000	742.688636	62.000000	66.000000
742.431818	742.527273	38.000000	56.000000
742.431818	742.495455	50.000000	60.000000
742.688636	742.943182	60.000000	58.000000
742.720455	742.975000	36.000000	56.000000
742.720455	742.784091	48.000000	55.000000
742.975000	743.263636	35.000000	51.000000
742.975000	743.263636	47.000000	54.000000
742.975000	743.263636	59.000000	55.000000
743.295455	743.390909	57.000000	55.000000
743.327273	743.390909	33.000000	57.000000
743.327273	744.609091	45.000000	56.000000
743.647727	743.840909	52.000000	52.000000
743.647727	743.711364	64.000000	59.000000
743.647727	743.711364	72.000000	63.000000
743.809091	743.968182	64.000000	57.000000
743.809091	744.063636	72.000000	60.000000
743.968182	744.063636	63.000000	61.000000
744.000000	744.320455	54.000000	50.000000
744.288636	744.511364	62.000000	52.000000
744.288636	744.511364	68.000000	57.000000
744.320455	744.672727	41.000000	43.000000
744.320455	744.704545	53.000000	41.000000
744.479545	744.704545	71.000000	56.000000
744.704545	745.536364	52.000000	46.000000
744.704545	745.409091	60.000000	44.000000
744.704545	745.504545	69.000000	57.000000
745.088636	745.375000	45.000000	45.000000
745.440909	745.536364	58.000000	51.000000
745.504545	746.175000	47.000000	50.000000
745.504545	747.009091	59.000000	48.000000
745.536364	746.143182	35.000000	49.000000
746.175000	746.272727	42.000000	51.000000
746.175000	746.272727	66.000000	57.000000
746.209091	746.240909	54.000000	54.000000
746.209091	747.104545	67.000000	48.000000
746.304545	747.104545	43.000000	62.000000
747.040909	747.136364	42.000000	47.000000
747.072727	747.136364	66.000000	46.000000
747.136364	748.031818	55.000000	43.000000
747.168182	748.063636	43.000000	43.000000
747.968182	748.063636	44.000000	40.000000
747.968182	748.063636	56.000000	45.000000
748.063636	749.120455	45.000000	37.000000
749.088636	749.247727	34.000000	34.000000
749.088636	749.215909	46.000000	37.000000
749.088636	749.215909	58.000000	41.000000
749.215909	750.209091	59.000000	39.000000
749.247727	750.111364	35.000000	36.000000
749.247727	749.759091	47.000000	37.000000
750.368182	750.847727	84.000000	44.000000
750.431818	751.072727	55.000000	34.000000
750.431818	751.072727	96.000000	50.000000
750.625000	751.072727	71.000000	46.000000
750.815909	751.072727	95.000000	53.000000
750.943182	751.104545	62.000000	41.000000
751.104545	751.200000	92.000000	55.000000
751.136364	751.809091	55.000000	36.000000
751.136364	751.231818	93.000000	56.000000
751.295455	751.809091	70.000000	46.000000
751.425000	751.552273	79.000000	50.000000
751.456818	751.775000	91.000000	58.000000
751.615909	751.775000	61.000000	47.000000
751.743182	751.840909	78.000000	54.000000
751.809091	752.447727	55.000000	41.000000
751.809091	751.968182	90.000000	60.000000
751.968182	752.190909	69.000000	51.000000
752.095455	752.479545	76.000000	50.000000
752.127273	752.447727	87.000000	55.000000
752.190909	752.479545	88.000000	50.000000
752.288636	752.831818	60.000000	50.000000
752.320455	752.543182	69.000000	43.000000
752.415909	752.479545	86.000000	52.000000
752.447727	752.863636	54.000000	46.000000
752.447727	752.511364	75.000000	50.000000
752.447727	752.543182	87.000000	61.000000
752.640909	752.831818	69.000000	49.000000
752.736364	752.831818	74.000000	48.000000
752.736364	752.831818	85.000000	52.000000
752.768182	752.863636	86.000000	61.000000
752.927273	753.025000	62.000000	46.000000
753.025000	753.120455	73.000000	54.000000
753.025000	753.120455	84.000000	51.000000
753.056818	753.440909	54.000000	44.000000
753.088636	753.184091	85.000000	66.000000
753.215909	753.440909	69.000000	50.000000
753.343182	753.440909	83.000000	55.000000
753.375000	753.440909	84.000000	62.000000
753.504545	753.600000	63.000000	55.000000
753.663636	753.727273	83.000000	55.000000
753.695455	754.336364	55.000000	44.000000
753.695455	754.304545	84.000000	62.000000
753.888636	754.304545	67.000000	45.000000
753.984091	754.304545	71.000000	47.000000
754.015909	754.400000	83.000000	61.000000
754.143182	754.336364	62.000000	44.000000
754.368182	755.136364	48.000000	49.000000
754.400000	755.136364	83.000000	59.000000
754.559091	755.136364	64.000000	56.000000
754.720455	755.136364	69.000000	49.000000
754.720455	755.168182	80.000000	58.000000
754.752273	755.136364	81.000000	61.000000
754.943182	755.168182	57.000000	49.000000
755.168182	756.031818	45.000000	48.000000
755.168182	756.225000	78.000000	60.000000
755.168182	756.256818	90.000000	64.000000
755.520455	756.256818	60.000000	46.000000
755.809091	756.256818	76.000000	51.000000
755.809091	756.256818	88.000000	58.000000
755.968182	756.256818	57.000000	41.000000
756.225000	756.320455	67.000000	52.000000
756.225000	756.288636	78.000000	57.000000
756.256818	756.320455	79.000000	61.000000
756.288636	757.343182	50.000000	44.000000
756.447727	757.311364	60.000000	42.000000
756.704545	757.343182	66.000000	52.000000
756.736364	756.831818	77.000000	57.000000
756.768182	757.343182	78.000000	61.000000
756.959091	757.343182	57.000000	47.000000
757.279545	758.047727	81.000000	60.000000
757.311364	758.368182	43.000000	51.000000
757.311364	758.047727	69.000000	51.000000
757.695455	758.209091	59.000000	47.000000
757.952273	758.815909	79.000000	64.000000
757.984091	758.368182	67.000000	44.000000
758.143182	758.368182	50.000000	48.000000
758.400000	759.679545	43.000000	64.000000
758.688636	759.809091	60.000000	48.000000
759.359091	760.095455	51.000000	41.000000
759.679545	760.127273	43.000000	58.000000
760.063636	761.088636	50.000000	39.000000
760.063636	760.927273	59.000000	39.000000
761.056818	761.311364	61.000000	63.000000
761.056818	761.215909	67.000000	54.000000
761.056818	761.504545	70.000000	66.000000
761.184091	761.311364	69.000000	58.000000
761.279545	761.790909	45.000000	61.000000
761.279545	761.759091	64.000000	66.000000
761.409091	762.015909	67.000000	55.000000
761.504545	762.015909	70.000000	57.000000
761.600000	761.984091	69.000000	56.000000
761.727273	761.984091	57.000000	53.000000
761.727273	762.047727	73.000000	67.000000
761.759091	761.984091	64.000000	60.000000
761.856818	762.047727	76.000000	63.000000
761.984091	762.079545	57.000000	59.000000
761.984091	762.079545	64.000000	66.000000
761.984091	762.111364	69.000000	69.000000
761.984091	762.463636	81.000000	73.000000
762.015909	762.079545	67.000000	57.000000
762.209091	762.431818	57.000000	58.000000
762.209091	762.431818	64.000000	59.000000
762.463636	762.527273	61.000000	66.000000
762.463636	762.527273	67.000000	55.000000
762.463636	762.559091	70.000000	67.000000
762.495455	762.559091	55.000000	55.000000
762.559091	762.656818	69.000000	67.000000
762.656818	763.104545	45.000000	62.000000
762.688636	763.104545	64.000000	64.000000
762.784091	763.104545	67.000000	58.000000
762.879545	763.104545	70.000000	63.000000
762.975000	763.072727	69.000000	59.000000
763.072727	763.711364	73.000000	69.000000
763.104545	763.425000	45.000000	52.000000
763.104545	763.327273	57.000000	52.000000
763.104545	763.295455	64.000000	61.000000
763.200000	763.711364	76.000000	61.000000
763.295455	763.520455	64.000000	65.000000
763.295455	763.711364	69.000000	67.000000
763.295455	763.711364	81.000000	71.000000
763.327273	763.520455	57.000000	53.000000
763.520455	763.711364	57.000000	51.000000
763.520455	763.711364	64.000000	64.000000
763.775000	764.063636	45.000000	60.000000
763.775000	764.063636	81.000000	68.000000
763.904545	764.063636	80.000000	66.000000
764.000000	764.095455	53.000000	47.000000
764.000000	764.127273	86.000000	68.000000
764.095455	764.288636	83.000000	65.000000
764.225000	764.415909	47.000000	56.000000
764.225000	764.352273	80.000000	66.000000
764.320455	764.609091	77.000000	66.000000
764.415909	764.609091	53.000000	53.000000
764.415909	764.543182	56.000000	53.000000
764.415909	764.640909	74.000000	67.000000
764.511364	764.672727	71.000000	57.000000
764.640909	765.025000	50.000000	61.000000
764.640909	764.959091	68.000000	67.000000
764.736364	764.831818	65.000000	67.000000
764.863636	765.088636	62.000000	68.000000
765.088636	765.600000	45.000000	60.000000
765.215909	765.311364	61.000000	61.000000
765.343182	765.600000	52.000000	66.000000
765.343182	765.440909	67.000000	71.000000
765.536364	765.631818	61.000000	64.000000
765.695455	765.790909	58.000000	62.000000
765.790909	765.888636	55.000000	58.000000
765.888636	766.047727	52.000000	62.000000
766.015909	766.111364	51.000000	57.000000
766.111364	766.209091	50.000000	49.000000
766.209091	766.304545	48.000000	54.000000
766.209091	766.304545	54.000000	55.000000
766.209091	766.272727	57.000000	46.000000
766.209091	766.304545	62.000000	57.000000
766.304545	766.431818	45.000000	47.000000
766.463636	766.559091	43.000000	63.000000
766.463636	766.527273	58.000000	62.000000
766.463636	766.559091	62.000000	62.000000
766.720455	766.784091	43.000000	56.000000
766.879545	766.975000	66.000000	65.000000
766.911364	766.975000	43.000000	61.000000
766.911364	766.975000	67.000000	68.000000
766.943182	766.975000	55.000000	63.000000
767.040909	767.168182	45.000000	44.000000
767.168182	767.263636	46.000000	48.000000
767.168182	767.263636	58.000000	54.000000
767.295455	767.425000	48.000000	47.000000
767.425000	767.520455	62.000000	64.000000
767.456818	767.552273	50.000000	61.000000
767.647727	767.711364	38.000000	54.000000
767.647727	767.711364	54.000000	52.000000
767.679545	767.743182	62.000000	48.000000
767.904545	767.968182	43.000000	65.000000
767.904545	767.968182	58.000000	60.000000
767.904545	768.256818	62.000000	55.000000
767.904545	767.968182	67.000000	54.000000
768.127273	768.190909	43.000000	41.000000
768.159091	768.190909	55.000000	44.000000
768.256818	768.320455	43.000000	60.000000
768.352273	768.415909	67.000000	55.000000
768.352273	768.479545	74.000000	53.000000
768.352273	768.415909	78.000000	68.000000
768.352273	768.415909	79.000000	71.000000
768.479545	768.575000	57.000000	39.000000
768.575000	768.672727	58.000000	50.000000
768.575000	768.672727	70.000000	60.000000
768.609091	768.672727	67.000000	53.000000
768.736364	768.800000	60.000000	41.000000
768.831818	768.895455	69.000000	54.000000
768.831818	768.895455	73.000000	64.000000
768.863636	769.056818	62.000000	59.000000
768.863636	768.927273	74.000000	62.000000
769.056818	769.152273	50.000000	58.000000
769.056818	769.152273	66.000000	58.000000
769.056818	769.152273	69.000000	60.000000
769.343182	769.663636	74.000000	56.000000
769.343182	769.631818	79.000000	58.000000
769.375000	769.631818	58.000000	46.000000
769.375000	769.631818	67.000000	51.000000
769.631818	769.856818	58.000000	49.000000
769.631818	769.759091	67.000000	56.000000
769.631818	769.759091	79.000000	58.000000
769.663636	769.790909	74.000000	49.000000
769.759091	769.888636	67.000000	56.000000
769.759091	769.856818	79.000000	60.000000
769.790909	769.856818	74.000000	45.000000
769.856818	770.304545	58.000000	56.000000
769.856818	770.111364	74.000000	55.000000
769.856818	770.304545	79.000000	66.000000
769.888636	770.304545	67.000000	60.000000
770.079545	770.304545	62.000000	51.000000
770.079545	770.304545	69.000000	56.000000
770.079545	770.304545	78.000000	63.000000
770.079545	770.336364	81.000000	62.000000
770.111364	770.304545	74.000000	50.000000
770.336364	770.590909	70.000000	64.000000
770.336364	770.590909	79.000000	63.000000
770.368182	770.590909	67.000000	56.000000
770.368182	770.590909	74.000000	36.000000
770.590909	771.072727	67.000000	58.000000
770.590909	771.072727	70.000000	53.000000
770.590909	771.104545	74.000000	55.000000
770.590909	771.104545	79.000000	62.000000
770.590909	771.072727	86.000000	68.000000
770.815909	771.231818	72.000000	66.000000
770.815909	771.263636	84.000000	68.000000
770.815909	771.263636	87.000000	71.000000
770.847727	771.263636	75.000000	68.000000
771.072727	771.263636	67.000000	56.000000
771.072727	771.263636	70.000000	62.000000
771.072727	771.263636	82.000000	67.000000
771.072727	771.263636	86.000000	68.000000
771.104545	771.263636	74.000000	50.000000
771.104545	771.168182	79.000000	58.000000
771.168182	771.263636	79.000000	68.000000
771.295455	771.390909	81.000000	65.000000
771.327273	771.743182	62.000000	54.000000
771.327273	771.390909	69.000000	61.000000
771.327273	771.584091	78.000000	65.000000
771.552273	771.679545	81.000000	59.000000
771.584091	771.679545	78.000000	51.000000
771.647727	771.743182	67.000000	49.000000
771.647727	771.711364	70.000000	56.000000
771.647727	771.743182	79.000000	55.000000
771.647727	771.743182	82.000000	60.000000
771.679545	771.711364	74.000000	44.000000
771.775000	772.095455	78.000000	52.000000
771.775000	772.127273	81.000000	53.000000
771.809091	772.095455	69.000000	48.000000
772.190909	772.511364	46.000000	57.000000
772.190909	772.447727	58.000000	60.000000
772.190909	772.479545	73.000000	70.000000
772.190909	772.511364	76.000000	69.000000
772.447727	772.609091	53.000000	54.000000
772.447727	772.609091	58.000000	56.000000
772.447727	772.575000	62.000000	61.000000
772.447727	772.736364	74.000000	62.000000
772.447727	772.609091	77.000000	66.000000
772.704545	773.056818	53.000000	62.000000
772.704545	773.056818	58.000000	60.000000
772.704545	773.056818	62.000000	65.000000
772.704545	773.056818	77.000000	65.000000
772.704545	773.056818	86.000000	71.000000
772.800000	773.056818	84.000000	67.000000
772.927273	773.056818	82.000000	67.000000
773.152273	773.663636	41.000000	71.000000
773.152273	773.375000	53.000000	70.000000
773.152273	773.663636	81.000000	67.000000
773.152273	773.663636	84.000000	69.000000
773.343182	773.663636	57.000000	54.000000
773.375000	773.695455	53.000000	63.000000
773.375000	773.695455	60.000000	56.000000
773.375000	773.440909	65.000000	61.000000
773.375000	773.663636	77.000000	70.000000
773.375000	773.695455	89.000000	71.000000
773.631818	773.727273	46.000000	62.000000
773.631818	773.695455	58.000000	64.000000
773.631818	773.727273	85.000000	69.000000
773.631818	773.727273	88.000000	65.000000
773.856818	774.143182	62.000000	61.000000
773.856818	774.590909	89.000000	67.000000
773.888636	774.590909	53.000000	58.000000
773.888636	774.400000	58.000000	54.000000
774.143182	774.590909	62.000000	63.000000
774.143182	774.368182	70.000000	71.000000
774.143182	774.590909	98.000000	73.000000
774.240909	774.400000	65.000000	62.000000
774.240909	774.559091	96.000000	69.000000
774.368182	774.559091	70.000000	64.000000
774.368182	774.590909	74.000000	63.000000
774.368182	774.590909	94.000000	73.000000
774.400000	774.590909	58.000000	55.000000
774.400000	774.590909	65.000000	50.000000
774.625000	775.009091	93.000000	69.000000
774.625000	774.720455	96.000000	71.000000
774.656818	775.040909	53.000000	52.000000
774.911364	775.040909	89.000000	72.000000
774.911364	775.040909	101.000000	77.000000
774.943182	775.040909	65.000000	64.000000
774.943182	775.040909	69.000000	62.000000
775.231818	775.968182	53.000000	68.000000
775.390909	776.000000	87.000000	73.000000
775.390909	775.936364	99.000000	75.000000
775.552273	775.840909	65.000000	65.000000
775.552273	775.968182	69.000000	66.000000
775.711364	776.415909	84.000000	68.000000
775.711364	776.000000	96.000000	72.000000
775.809091	776.863636	57.000000	56.000000
775.840909	775.968182	65.000000	48.000000
775.936364	776.384091	81.000000	68.000000
775.936364	776.479545	93.000000	71.000000
776.063636	776.511364	65.000000	63.000000
776.063636	776.384091	69.000000	52.000000
776.190909	776.479545	77.000000	67.000000
776.190909	776.672727	89.000000	67.000000
776.288636	776.863636	60.000000	62.000000
776.415909	776.831818	75.000000	66.000000
776.415909	776.863636	87.000000	69.000000
776.511364	776.863636	65.000000	46.000000
776.511364	776.863636	69.000000	54.000000
776.640909	776.863636	84.000000	62.000000
776.672727	776.863636	72.000000	54.000000
776.800000	776.927273	73.000000	57.000000
776.800000	776.863636	85.000000	65.000000
776.831818	776.959091	52.000000	51.000000
776.927273	776.990909	74.000000	55.000000
776.959091	777.025000	86.000000	61.000000
777.056818	777.920455	61.000000	48.000000
777.056818	777.920455	69.000000	44.000000
777.056818	777.440909	75.000000	51.000000
777.056818	777.759091	87.000000	62.000000
777.184091	777.631818	76.000000	59.000000
777.279545	777.952273	78.000000	72.000000
777.311364	777.952273	52.000000	60.000000
777.311364	777.440909	90.000000	70.000000
777.600000	777.952273	88.000000	59.000000
777.631818	777.920455	64.000000	59.000000
777.631818	777.952273	76.000000	58.000000
777.952273	778.368182	69.000000	58.000000
777.952273	778.015909	73.000000	60.000000
777.952273	778.015909	81.000000	60.000000
778.175000	778.368182	76.000000	59.000000
778.368182	778.975000	67.000000	54.000000
778.463636	778.975000	49.000000	39.000000
778.495455	778.975000	81.000000	65.000000
778.784091	779.295455	57.000000	57.000000
778.784091	779.072727	64.000000	66.000000
778.784091	778.911364	80.000000	62.000000
778.879545	779.072727	79.000000	68.000000
779.009091	779.295455	78.000000	71.000000
779.263636	779.359091	64.000000	58.000000
779.263636	779.390909	67.000000	57.000000
779.359091	779.552273	57.000000	48.000000
779.359091	779.425000	64.000000	57.000000
779.456818	779.552273	74.000000	64.000000
779.488636	779.552273	64.000000	53.000000
779.488636	779.552273	67.000000	42.000000
779.679545	779.840909	73.000000	61.000000
779.711364	779.840909	64.000000	45.000000
779.743182	779.840909	67.000000	32.000000
779.904545	780.190909	67.000000	61.000000
779.904545	780.190909	71.000000	67.000000
779.904545	779.968182	73.000000	68.000000
779.936364	780.190909	49.000000	54.000000
779.936364	780.000000	57.000000	46.000000
780.127273	780.190909	69.000000	58.000000
780.159091	780.225000	57.000000	44.000000
780.159091	780.225000	64.000000	49.000000
780.352273	780.479545	50.000000	57.000000
780.352273	780.447727	66.000000	64.000000
780.352273	780.447727	71.000000	62.000000
780.352273	780.447727	73.000000	63.000000
780.384091	780.447727	57.000000	46.000000
780.415909	780.447727	62.000000	44.000000
780.575000	780.736364	69.000000	59.000000
780.609091	780.704545	62.000000	44.000000
780.640909	780.736364	57.000000	35.000000
780.640909	780.736364	66.000000	37.000000
780.800000	781.215909	49.000000	56.000000
780.800000	781.184091	67.000000	61.000000
780.800000	781.215909	71.000000	64.000000
780.800000	781.215909	73.000000	67.000000
781.056818	781.215909	64.000000	54.000000
781.056818	781.215909	69.000000	57.000000
781.311364	782.209091	50.000000	39.000000
781.311364	781.568182	74.000000	57.000000
781.343182	781.568182	54.000000	33.000000
781.343182	781.600000	66.000000	37.000000
781.568182	781.695455	54.000000	40.000000
781.568182	781.790909	62.000000	46.000000
781.568182	781.695455	69.000000	45.000000
781.568182	781.663636	74.000000	55.000000
781.600000	781.695455	66.000000	44.000000
781.663636	781.790909	74.000000	58.000000
781.695455	782.209091	54.000000	50.000000
781.695455	782.209091	66.000000	52.000000
781.695455	781.790909	69.000000	50.000000
781.790909	782.209091	62.000000	55.000000
781.790909	782.015909	69.000000	50.000000
781.790909	782.209091	74.000000	63.000000
781.984091	782.209091	73.000000	60.000000
781.984091	782.209091	76.000000	61.000000
782.015909	782.209091	64.000000	64.000000
782.015909	782.209091	69.000000	43.000000
782.209091	782.463636	78.000000	74.000000
782.240909	782.495455	62.000000	50.000000
782.240909	782.463636	66.000000	63.000000
782.240909	782.463636	69.000000	47.000000
782.240909	782.495455	74.000000	59.000000
782.463636	782.720455	66.000000	59.000000
782.463636	782.688636	69.000000	61.000000
782.463636	782.688636	78.000000	63.000000
782.463636	782.752273	81.000000	69.000000
782.495455	782.688636	62.000000	42.000000
782.495455	782.784091	74.000000	44.000000
782.688636	782.943182	79.000000	73.000000
782.688636	783.040909	83.000000	71.000000
782.720455	782.975000	62.000000	50.000000
782.720455	782.943182	67.000000	59.000000
782.720455	782.975000	71.000000	53.000000
782.943182	783.040909	66.000000	58.000000
782.943182	783.040909	69.000000	61.000000
782.943182	783.104545	78.000000	67.000000
783.040909	783.168182	74.000000	60.000000
783.136364	783.679545	76.000000	62.000000
783.168182	783.679545	57.000000	44.000000
783.168182	783.615909	64.000000	51.000000
783.168182	783.647727	73.000000	60.000000
783.488636	783.647727	62.000000	39.000000
783.488636	783.679545	66.000000	48.000000
783.520455	783.679545	78.000000	57.000000
783.711364	783.936364	64.000000	46.000000
783.711364	783.809091	73.000000	52.000000
783.743182	783.936364	57.000000	35.000000
783.968182	785.120455	67.000000	57.000000
784.190909	785.152273	49.000000	39.000000
784.190909	784.672727	57.000000	31.000000
784.320455	785.184091	81.000000	59.000000
784.672727	785.120455	57.000000	44.000000
784.672727	785.120455	64.000000	56.000000
784.672727	785.184091	80.000000	61.000000
784.768182	785.184091	79.000000	66.000000
784.895455	785.184091	78.000000	68.000000
785.120455	785.215909	57.000000	41.000000
785.120455	785.247727	64.000000	59.000000
785.120455	785.279545	67.000000	55.000000
785.120455	785.184091	76.000000	62.000000
785.215909	785.311364	57.000000	52.000000
785.247727	785.279545	64.000000	59.000000
785.343182	785.440909	74.000000	63.000000
785.375000	785.440909	57.000000	49.000000
785.375000	785.440909	64.000000	55.000000
785.375000	785.440909	67.000000	44.000000
785.568182	785.663636	57.000000	42.000000
785.568182	785.663636	64.000000	50.000000
785.568182	785.631818	73.000000	64.000000
785.600000	785.663636	67.000000	42.000000
785.759091	785.856818	67.000000	61.000000
785.759091	785.825000	73.000000	69.000000
785.790909	786.079545	49.000000	54.000000
785.790909	786.111364	71.000000	63.000000
785.984091	786.111364	69.000000	62.000000
786.015909	786.111364	57.000000	46.000000
786.015909	786.111364	64.000000	55.000000
786.209091	786.463636	66.000000	59.000000
786.209091	786.272727	73.000000	67.000000
786.240909	786.463636	50.000000	56.000000
786.240909	786.463636	57.000000	48.000000
786.240909	786.304545	62.000000	47.000000
786.272727	786.463636	71.000000	60.000000
786.495455	786.559091	69.000000	63.000000
786.847727	786.911364	54.000000	45.000000
786.847727	786.943182	72.000000	54.000000
786.847727	786.911364	83.000000	62.000000
786.879545	786.943182	62.000000	46.000000
786.879545	786.911364	66.000000	47.000000
786.879545	786.943182	81.000000	59.000000
787.104545	787.168182	62.000000	49.000000
787.104545	787.168182	69.000000	50.000000
787.104545	787.168182	72.000000	58.000000
787.104545	787.168182	81.000000	60.000000
787.104545	787.168182	83.000000	59.000000
787.359091	787.425000	67.000000	50.000000
787.359091	787.456818	79.000000	62.000000
787.359091	787.425000	81.000000	59.000000
787.390909	787.456818	62.000000	47.000000
787.390909	787.456818	71.000000	41.000000
787.390909	787.425000	74.000000	51.000000
787.584091	787.679545	79.000000	59.000000
787.584091	787.647727	81.000000	55.000000
787.615909	787.679545	62.000000	45.000000
787.615909	787.679545	67.000000	46.000000
787.615909	787.679545	71.000000	44.000000
787.809091	787.904545	79.000000	66.000000
787.840909	787.904545	71.000000	44.000000
787.872727	787.936364	63.000000	49.000000
787.872727	787.936364	78.000000	61.000000
788.063636	788.159091	63.000000	44.000000
788.063636	788.159091	66.000000	51.000000
788.063636	788.159091	71.000000	43.000000
788.063636	788.159091	78.000000	59.000000
788.256818	788.352273	78.000000	59.000000
788.320455	788.384091	64.000000	40.000000
788.320455	788.384091	67.000000	37.000000
788.320455	788.384091	71.000000	41.000000
788.320455	788.384091	76.000000	50.000000
788.543182	788.640909	76.000000	54.000000
788.575000	788.640909	64.000000	51.000000
788.575000	788.640909	67.000000	41.000000
788.575000	788.640909	71.000000	42.000000
789.311364	789.375000	83.000000	57.000000
789.600000	791.072727	67.000000	41.000000
789.600000	791.104545	73.000000	55.000000
789.631818	791.390909	57.000000	33.000000
789.631818	791.072727	64.000000	40.000000
790.975000	793.311364	74.000000	42.000000
791.009091	793.311364	50.000000	31.000000
791.009091	793.247727	62.000000	34.000000
791.009091	793.247727	66.000000	38.000000
791.009091	793.215909	69.000000	34.000000
793.215909	793.727273	57.000000	62.000000
793.215909	793.727273	69.000000	71.000000
793.727273	794.272727	54.000000	61.000000
793.727273	794.240909	62.000000	62.000000
793.727273	794.272727	66.000000	63.000000
793.727273	794.240909	69.000000	61.000000
793.727273	794.240909	74.000000	70.000000
794.240909	794.400000	62.000000	53.000000
794.240909	794.400000	69.000000	58.000000
794.240909	794.400000	74.000000	57.000000
794.272727	794.400000	54.000000	49.000000
794.272727	794.336364	66.000000	53.000000
794.400000	794.688636	54.000000	53.000000
794.400000	794.656818	62.000000	59.000000
794.400000	794.688636	66.000000	58.000000
794.400000	794.688636	69.000000	58.000000
794.400000	794.688636	74.000000	64.000000
794.688636	795.263636	54.000000	57.000000
794.688636	794.975000	62.000000	55.000000
794.688636	795.168182	66.000000	58.000000
794.688636	794.784091	69.000000	64.000000
794.688636	795.263636	74.000000	68.000000
794.975000	795.295455	57.000000	58.000000
794.975000	795.263636	64.000000	63.000000
794.975000	795.263636	69.000000	59.000000
794.975000	795.295455	73.000000	61.000000
794.975000	795.295455	76.000000	65.000000
795.263636	795.359091	69.000000	65.000000
795.263636	795.552273	74.000000	59.000000
795.263636	795.552273	78.000000	72.000000
795.295455	795.390909	62.000000	55.000000
795.295455	795.552273	66.000000	66.000000
795.552273	795.904545	78.000000	72.000000
795.584091	795.647727	62.000000	56.000000
795.584091	795.936364	66.000000	64.000000
795.584091	795.647727	69.000000	65.000000
795.584091	795.968182	74.000000	64.000000
795.872727	796.190909	76.000000	66.000000
795.904545	796.225000	57.000000	50.000000
795.904545	796.190909	64.000000	57.000000
795.904545	796.225000	69.000000	50.000000
795.904545	796.225000	73.000000	61.000000
796.190909	796.575000	64.000000	63.000000
796.190909	796.543182	76.000000	69.000000
796.225000	796.543182	57.000000	50.000000
796.225000	796.543182	69.000000	57.000000
796.225000	796.575000	73.000000	58.000000
796.543182	797.184091	57.000000	53.000000
796.543182	797.184091	69.000000	57.000000
796.543182	797.184091	76.000000	69.000000
796.575000	797.184091	64.000000	60.000000
796.575000	797.184091	73.000000	65.000000
797.184091	797.504545	57.000000	54.000000
797.184091	797.504545	64.000000	59.000000
797.184091	797.504545	69.000000	60.000000
797.184091	797.504545	73.000000	67.000000
797.184091	797.536364	76.000000	70.000000
797.504545	797.952273	69.000000	65.000000
797.504545	797.984091	78.000000	74.000000
797.536364	797.984091	62.000000	57.000000
797.536364	797.984091	66.000000	66.000000
797.536364	797.984091	74.000000	61.000000
797.952273	798.175000	64.000000	67.000000
797.952273	798.079545	69.000000	58.000000
797.952273	798.463636	79.000000	72.000000
798.111364	798.463636	66.000000	70.000000
798.111364	798.463636	69.000000	66.000000
798.111364	798.463636	78.000000	71.000000
798.495455	798.975000	66.000000	67.000000
798.495455	798.847727	69.000000	69.000000
798.495455	798.911364	78.000000	68.000000
798.495455	798.879545	81.000000	69.000000
798.847727	799.456818	64.000000	65.000000
798.847727	799.168182	69.000000	57.000000
798.847727	799.456818	79.000000	67.000000
799.168182	799.456818	62.000000	61.000000
799.168182	799.456818	69.000000	59.000000
799.168182	799.456818	74.000000	61.000000
799.168182	799.488636	78.000000	70.000000
799.520455	799.936364	62.000000	58.000000
799.520455	799.615909	69.000000	62.000000
799.520455	799.968182	74.000000	62.000000
799.520455	799.936364	78.000000	69.000000
799.840909	800.190909	76.000000	66.000000
799.872727	800.225000	57.000000	52.000000
799.872727	800.225000	64.000000	60.000000
799.872727	800.225000	69.000000	56.000000
799.872727	800.225000	73.000000	62.000000
800.190909	800.575000	76.000000	65.000000
800.225000	800.609091	57.000000	51.000000
800.225000	800.575000	64.000000	56.000000
800.225000	800.575000	69.000000	57.000000
800.225000	800.575000	73.000000	61.000000
800.575000	801.790909	76.000000	69.000000
800.609091	801.790909	57.000000	56.000000
800.609091	801.790909	64.000000	64.000000
800.609091	801.790909	69.000000	57.000000
800.609091	801.790909	73.000000	68.000000
802.175000	802.463636	69.000000	52.000000
802.209091	802.463636	57.000000	34.000000
802.625000	803.136364	54.000000	39.000000
802.625000	803.040909	62.000000	38.000000
802.625000	803.009091	69.000000	40.000000
802.625000	803.009091	74.000000	49.000000
803.104545	803.200000	74.000000	45.000000
803.136364	803.231818	54.000000	38.000000
803.136364	803.200000	62.000000	38.000000
803.136364	803.200000	69.000000	38.000000
803.168182	803.200000	66.000000	39.000000
803.263636	803.359091	69.000000	47.000000
803.263636	803.390909	74.000000	54.000000
803.295455	803.425000	54.000000	37.000000
803.295455	803.359091	62.000000	41.000000
803.615909	803.904545	54.000000	36.000000
803.615909	803.904545	62.000000	38.000000
803.615909	803.872727	69.000000	45.000000
803.615909	803.904545	74.000000	53.000000
803.647727	803.743182	66.000000	37.000000
803.904545	804.159091	76.000000	52.000000
803.936364	804.190909	57.000000	35.000000
803.936364	804.127273	64.000000	48.000000
803.936364	804.225000	69.000000	38.000000
803.936364	804.159091	73.000000	51.000000
804.225000	804.320455	69.000000	44.000000
804.225000	804.320455	78.000000	58.000000
804.256818	804.320455	66.000000	48.000000
804.256818	804.320455	74.000000	43.000000
804.575000	804.704545	62.000000	39.000000
804.575000	804.927273	69.000000	42.000000
804.575000	804.895455	74.000000	41.000000
804.575000	805.025000	78.000000	58.000000
804.609091	804.990909	66.000000	44.000000
804.895455	804.990909	64.000000	49.000000
804.895455	804.990909	73.000000	48.000000
804.895455	804.990909	76.000000	50.000000
804.927273	805.025000	57.000000	33.000000
804.927273	804.990909	69.000000	34.000000
805.184091	805.311364	76.000000	50.000000
805.215909	805.311364	64.000000	50.000000
805.215909	805.311364	73.000000	44.000000
805.247727	805.343182	57.000000	34.000000
805.247727	805.311364	69.000000	36.000000
805.536364	805.984091	76.000000	48.000000
805.568182	806.015909	57.000000	35.000000
805.568182	805.984091	64.000000	46.000000
805.568182	805.984091	69.000000	40.000000
805.568182	805.984091	73.000000	49.000000
806.175000	806.559091	73.000000	47.000000
806.175000	806.304545	76.000000	50.000000
806.209091	806.495455	57.000000	36.000000
806.209091	806.304545	64.000000	49.000000
806.209091	806.272727	69.000000	39.000000
806.527273	806.943182	66.000000	53.000000
806.527273	806.975000	74.000000	49.000000
806.527273	806.943182	78.000000	60.000000
806.559091	806.975000	62.000000	42.000000
806.559091	806.943182	69.000000	46.000000
807.009091	807.104545	64.000000	49.000000
807.009091	807.104545	69.000000	40.000000
807.009091	807.104545	79.000000	52.000000
807.168182	807.295455	69.000000	54.000000
807.168182	807.295455	81.000000	57.000000
807.200000	807.295455	66.000000	57.000000
807.200000	807.295455	78.000000	57.000000
807.520455	807.809091	66.000000	56.000000
807.520455	807.775000	69.000000	57.000000
807.520455	807.840909	78.000000	61.000000
807.520455	807.809091	81.000000	60.000000
807.809091	808.256818	79.000000	51.000000
807.840909	807.936364	64.000000	52.000000
807.840909	808.159091	69.000000	41.000000
808.127273	808.320455	78.000000	55.000000
808.159091	808.256818	62.000000	45.000000
808.159091	808.256818	69.000000	41.000000
808.159091	808.511364	74.000000	46.000000
808.479545	808.895455	78.000000	55.000000
808.511364	808.895455	62.000000	41.000000
808.511364	808.736364	69.000000	41.000000
808.511364	808.831818	74.000000	47.000000
808.800000	808.927273	76.000000	49.000000
808.831818	808.927273	64.000000	46.000000
808.831818	808.959091	69.000000	38.000000
808.831818	808.895455	73.000000	43.000000
808.863636	808.959091	57.000000	32.000000
809.152273	809.247727	64.000000	44.000000
809.152273	809.279545	69.000000	40.000000
809.152273	809.247727	73.000000	47.000000
809.152273	809.184091	76.000000	46.000000
809.184091	809.311364	57.000000	36.000000
809.568182	810.559091	76.000000	42.000000
809.600000	810.559091	57.000000	31.000000
809.600000	810.559091	64.000000	40.000000
809.600000	810.559091	69.000000	33.000000
809.600000	810.559091	73.000000	41.000000
811.200000	811.295455	81.000000	69.000000
811.520455	811.615909	78.000000	73.000000
811.552273	811.647727	54.000000	48.000000
811.552273	811.647727	62.000000	48.000000
811.552273	811.647727	66.000000	53.000000
811.809091	811.872727	74.000000	68.000000
812.095455	812.190909	64.000000	64.000000
812.095455	812.159091	76.000000	69.000000
812.127273	812.190909	57.000000	43.000000
812.352273	812.447727	73.000000	72.000000
812.384091	812.447727	64.000000	44.000000
812.609091	812.704545	76.000000	69.000000
812.640909	812.704545	62.000000	59.000000
812.640909	812.736364	66.000000	63.000000
812.640909	812.704545	74.000000	69.000000
812.800000	812.895455	73.000000	67.000000
812.927273	812.990909	74.000000	66.000000
813.088636	813.184091	76.000000	68.000000
813.215909	813.311364	62.000000	57.000000
813.215909	813.311364	66.000000	63.000000
813.247727	813.311364	74.000000	68.000000
813.504545	813.600000	81.000000	68.000000
813.536364	813.600000	66.000000	45.000000
813.790909	813.888636	78.000000	75.000000
813.825000	813.888636	54.000000	52.000000
813.825000	813.888636	62.000000	49.000000
813.825000	813.888636	66.000000	57.000000
814.079545	814.143182	74.000000	71.000000
814.368182	814.431818	57.000000	43.000000
814.368182	814.431818	64.000000	62.000000
814.368182	814.431818	76.000000	69.000000
814.625000	814.720455	73.000000	73.000000
814.656818	814.688636	64.000000	47.000000
814.911364	815.584091	74.000000	71.000000
814.943182	815.009091	54.000000	59.000000
814.943182	815.009091	62.000000	59.000000
814.943182	815.009091	66.000000	60.000000
815.200000	815.263636	54.000000	50.000000
815.200000	815.263636	62.000000	56.000000
815.488636	815.552273	54.000000	55.000000
815.488636	815.584091	62.000000	59.000000
815.488636	815.584091	66.000000	57.000000
815.809091	815.904545	81.000000	62.000000
816.127273	816.225000	78.000000	59.000000
816.159091	816.256818	54.000000	41.000000
816.159091	816.256818	62.000000	41.000000
816.159091	816.256818	66.000000	45.000000
816.447727	816.511364	74.000000	49.000000
816.736364	816.831818	76.000000	50.000000
816.768182	816.831818	57.000000	31.000000
816.768182	816.831818	64.000000	49.000000
817.025000	817.088636	73.000000	56.000000
817.056818	817.120455	64.000000	30.000000
817.279545	817.343182	76.000000	53.000000
817.311364	817.440909	62.000000	45.000000
817.311364	817.504545	66.000000	48.000000
817.311364	817.409091	74.000000	55.000000
817.440909	817.568182	73.000000	51.000000
817.600000	817.663636	74.000000	54.000000
817.759091	817.825000	76.000000	51.000000
817.888636	817.984091	62.000000	41.000000
817.888636	817.984091	66.000000	48.000000
817.888636	817.984091	74.000000	55.000000
818.209091	818.272727	81.000000	59.000000
818.495455	818.625000	78.000000	58.000000
818.527273	818.625000	54.000000	39.000000
818.527273	818.625000	62.000000	38.000000
818.527273	818.625000	66.000000	41.000000
818.815909	818.911364	74.000000	50.000000
819.136364	819.231818	76.000000	52.000000
819.168182	819.263636	57.000000	31.000000
819.168182	819.263636	64.000000	43.000000
819.456818	819.552273	73.000000	54.000000
819.840909	819.936364	62.000000	34.000000
819.840909	821.152273	74.000000	53.000000
819.872727	819.968182	54.000000	34.000000
819.872727	819.904545	66.000000	34.000000
820.190909	820.288636	54.000000	38.000000
820.190909	820.320455	62.000000	34.000000
820.640909	821.152273	54.000000	39.000000
820.640909	821.152273	62.000000	36.000000
821.472727	821.856818	57.000000	52.000000
821.472727	821.888636	69.000000	66.000000
821.888636	822.400000	54.000000	59.000000
821.888636	822.368182	74.000000	68.000000
821.920455	822.400000	62.000000	56.000000
821.920455	822.400000	66.000000	60.000000
821.920455	822.400000	69.000000	61.000000
822.368182	822.527273	74.000000	63.000000
822.400000	822.527273	54.000000	54.000000
822.400000	822.559091	62.000000	57.000000
822.400000	822.527273	66.000000	59.000000
822.400000	822.527273	69.000000	60.000000
822.527273	822.815909	54.000000	58.000000
822.527273	822.784091	66.000000	60.000000
822.527273	822.784091	69.000000	61.000000
822.527273	822.815909	74.000000	65.000000
822.559091	822.784091	62.000000	55.000000
822.815909	823.647727	54.000000	57.000000
822.815909	823.072727	69.000000	64.000000
822.815909	823.359091	74.000000	69.000000
822.847727	823.072727	66.000000	57.000000
823.072727	823.359091	69.000000	58.000000
823.072727	823.425000	76.000000	66.000000
823.104545	823.647727	57.000000	54.000000
823.104545	823.390909	64.000000	64.000000
823.104545	823.425000	73.000000	63.000000
823.359091	823.488636	69.000000	67.000000
823.359091	823.679545	74.000000	66.000000
823.359091	823.647727	78.000000	73.000000
823.390909	823.647727	62.000000	59.000000
823.390909	823.647727	66.000000	67.000000
823.647727	824.609091	78.000000	72.000000
823.679545	824.609091	66.000000	67.000000
823.679545	823.743182	69.000000	67.000000
823.679545	823.968182	74.000000	66.000000
823.968182	824.288636	57.000000	51.000000
823.968182	824.288636	64.000000	62.000000
823.968182	824.256818	69.000000	51.000000
823.968182	824.256818	73.000000	60.000000
823.968182	824.256818	76.000000	67.000000
824.256818	824.609091	69.000000	54.000000
824.256818	824.609091	73.000000	60.000000
824.256818	824.575000	76.000000	64.000000
824.288636	824.609091	57.000000	52.000000
824.288636	824.609091	64.000000	55.000000
824.575000	825.184091	76.000000	65.000000
824.609091	825.215909	57.000000	50.000000
824.609091	825.215909	64.000000	60.000000
824.609091	824.704545	69.000000	54.000000
824.609091	825.184091	73.000000	63.000000
825.184091	825.536364	69.000000	55.000000
825.184091	825.504545	73.000000	64.000000
825.184091	825.536364	76.000000	70.000000
825.215909	825.504545	57.000000	54.000000
825.215909	825.504545	64.000000	63.000000
825.504545	826.047727	78.000000	73.000000
825.536364	826.079545	66.000000	64.000000
825.536364	825.920455	69.000000	62.000000
825.536364	826.015909	74.000000	61.000000
825.568182	826.079545	62.000000	55.000000
825.920455	826.111364	64.000000	64.000000
825.920455	826.079545	69.000000	60.000000
825.920455	826.143182	79.000000	73.000000
826.047727	826.400000	78.000000	71.000000
826.047727	826.400000	81.000000	70.000000
826.079545	826.400000	66.000000	68.000000
826.079545	826.400000	69.000000	69.000000
826.400000	827.040909	66.000000	67.000000
826.400000	826.720455	69.000000	67.000000
826.400000	826.911364	78.000000	71.000000
826.400000	826.784091	81.000000	67.000000
826.688636	827.359091	64.000000	66.000000
826.688636	827.295455	79.000000	70.000000
826.720455	827.040909	69.000000	60.000000
826.720455	827.040909	76.000000	65.000000
827.009091	827.425000	78.000000	68.000000
827.040909	827.390909	62.000000	55.000000
827.040909	827.390909	66.000000	61.000000
827.040909	827.711364	69.000000	57.000000
827.040909	827.390909	74.000000	59.000000
827.390909	828.672727	62.000000	58.000000
827.390909	828.704545	66.000000	60.000000
827.743182	828.225000	64.000000	56.000000
827.775000	828.225000	57.000000	45.000000
828.225000	828.704545	57.000000	38.000000
828.225000	828.672727	64.000000	51.000000
828.704545	830.304545	45.000000	45.000000
829.215909	829.759091	55.000000	36.000000
829.215909	829.759091	61.000000	42.000000
829.215909	829.727273	64.000000	45.000000
829.727273	830.368182	64.000000	52.000000
829.759091	830.368182	55.000000	35.000000
829.759091	830.304545	57.000000	33.000000
829.759091	830.304545	61.000000	44.000000
830.336364	831.711364	45.000000	52.000000
830.336364	831.168182	81.000000	57.000000
830.559091	831.295455	83.000000	62.000000
830.625000	830.784091	71.000000	44.000000
830.752273	831.104545	61.000000	46.000000
830.752273	831.104545	64.000000	47.000000
830.784091	831.327273	73.000000	61.000000
830.784091	831.168182	85.000000	65.000000
830.815909	831.104545	57.000000	37.000000
830.943182	831.711364	86.000000	64.000000
830.975000	831.711364	74.000000	54.000000
831.104545	831.711364	61.000000	57.000000
831.104545	831.711364	64.000000	66.000000
831.104545	831.679545	88.000000	64.000000
831.136364	831.679545	55.000000	54.000000
831.136364	831.615909	76.000000	62.000000
831.263636	831.711364	78.000000	67.000000
831.263636	831.711364	90.000000	67.000000
831.584091	832.288636	46.000000	53.000000
831.615909	831.743182	79.000000	60.000000
831.615909	831.743182	91.000000	64.000000
832.095455	832.447727	61.000000	44.000000
832.095455	832.447727	64.000000	49.000000
832.095455	832.831818	78.000000	61.000000
832.095455	832.831818	90.000000	61.000000
832.127273	832.447727	54.000000	39.000000
832.447727	832.831818	54.000000	46.000000
832.447727	832.800000	61.000000	56.000000
832.447727	832.800000	64.000000	62.000000
832.447727	832.831818	88.000000	57.000000
832.800000	833.025000	47.000000	57.000000
832.800000	833.790909	86.000000	66.000000
832.831818	833.790909	74.000000	61.000000
833.120455	833.440909	54.000000	36.000000
833.120455	833.790909	61.000000	48.000000
833.184091	833.440909	59.000000	37.000000
833.279545	833.825000	73.000000	46.000000
833.279545	833.825000	85.000000	61.000000
833.440909	833.825000	54.000000	48.000000
833.440909	833.825000	59.000000	47.000000
833.440909	833.825000	62.000000	52.000000
833.440909	833.790909	71.000000	56.000000
833.440909	833.825000	83.000000	61.000000
833.790909	834.463636	42.000000	63.000000
833.790909	834.943182	81.000000	58.000000
833.825000	834.943182	69.000000	51.000000
834.175000	834.943182	57.000000	41.000000
834.175000	834.943182	61.000000	47.000000
834.209091	834.527273	54.000000	35.000000
834.527273	834.943182	54.000000	48.000000
834.879545	835.840909	55.000000	57.000000
834.879545	835.840909	83.000000	61.000000
835.040909	835.840909	73.000000	56.000000
835.040909	835.840909	85.000000	63.000000
835.200000	835.840909	59.000000	49.000000
835.200000	835.840909	64.000000	57.000000
835.200000	835.840909	74.000000	59.000000
835.200000	835.840909	86.000000	62.000000
835.359091	835.840909	76.000000	56.000000
835.359091	835.840909	88.000000	58.000000
835.520455	835.840909	58.000000	63.000000
835.520455	835.840909	78.000000	68.000000
835.520455	835.840909	90.000000	67.000000
835.647727	835.872727	79.000000	69.000000
835.647727	835.840909	91.000000	67.000000
835.840909	837.025000	57.000000	63.000000
835.840909	836.990909	81.000000	64.000000
835.840909	836.990909	93.000000	71.000000
836.190909	837.025000	61.000000	55.000000
836.190909	836.990909	64.000000	54.000000
836.190909	836.990909	79.000000	61.000000
836.190909	836.990909	91.000000	64.000000
836.575000	836.990909	55.000000	57.000000
836.575000	836.990909	88.000000	59.000000
836.927273	837.759091	50.000000	61.000000
836.927273	837.504545	54.000000	60.000000
836.927273	837.152273	62.000000	66.000000
836.927273	837.215909	86.000000	66.000000
837.152273	837.888636	78.000000	66.000000
837.152273	838.047727	90.000000	68.000000
837.311364	838.079545	79.000000	66.000000
837.311364	838.079545	91.000000	65.000000
837.472727	837.663636	62.000000	62.000000
837.472727	838.079545	81.000000	65.000000
837.472727	838.079545	93.000000	68.000000
837.504545	837.695455	54.000000	52.000000
837.663636	838.047727	62.000000	66.000000
837.663636	838.079545	95.000000	68.000000
837.695455	838.047727	54.000000	63.000000
837.695455	838.079545	83.000000	65.000000
837.856818	838.079545	85.000000	64.000000
837.856818	838.079545	97.000000	67.000000
838.047727	839.040909	54.000000	61.000000
838.047727	838.688636	62.000000	65.000000
838.047727	839.040909	86.000000	69.000000
838.047727	839.040909	98.000000	72.000000
838.336364	839.040909	64.000000	70.000000
838.368182	839.040909	57.000000	51.000000
838.688636	839.040909	62.000000	66.000000
838.688636	839.040909	66.000000	68.000000
839.040909	839.456818	62.000000	63.000000
839.040909	839.615909	66.000000	68.000000
839.040909	839.136364	69.000000	61.000000
839.231818	839.456818	83.000000	66.000000
839.263636	839.425000	71.000000	57.000000
839.390909	839.775000	64.000000	61.000000
839.390909	839.647727	73.000000	62.000000
839.390909	840.256818	85.000000	67.000000
839.425000	839.809091	57.000000	54.000000
839.584091	840.288636	74.000000	63.000000
839.584091	840.256818	86.000000	68.000000
839.615909	840.256818	66.000000	49.000000
839.775000	840.190909	64.000000	69.000000
839.775000	840.256818	88.000000	66.000000
839.809091	840.190909	57.000000	47.000000
839.809091	840.031818	76.000000	63.000000
840.000000	840.288636	78.000000	66.000000
840.000000	840.256818	90.000000	66.000000
840.190909	840.927273	57.000000	54.000000
840.190909	840.895455	64.000000	64.000000
840.190909	840.831818	79.000000	69.000000
840.190909	840.288636	91.000000	69.000000
840.543182	841.184091	90.000000	65.000000
840.575000	841.343182	78.000000	66.000000
840.895455	841.311364	64.000000	70.000000
840.927273	841.279545	57.000000	53.000000
841.247727	842.368182	62.000000	63.000000
841.247727	841.984091	66.000000	69.000000
841.279545	841.343182	74.000000	64.000000
841.279545	841.984091	86.000000	68.000000
841.825000	842.368182	64.000000	62.000000
841.825000	842.015909	67.000000	65.000000
841.825000	842.047727	73.000000	68.000000
841.825000	842.047727	85.000000	66.000000
841.984091	842.336364	66.000000	67.000000
841.984091	842.336364	69.000000	67.000000
841.984091	842.400000	83.000000	63.000000
842.015909	842.368182	71.000000	63.000000
842.304545	843.200000	81.000000	68.000000
842.336364	843.040909	66.000000	60.000000
842.336364	843.136364	69.000000	66.000000
842.720455	843.456818	64.000000	61.000000
842.720455	843.104545	67.000000	62.000000
843.040909	843.425000	62.000000	57.000000
843.040909	843.425000	66.000000	67.000000
843.425000	844.159091	62.000000	58.000000
843.425000	844.511364	66.000000	63.000000
843.584091	844.159091	83.000000	63.000000
843.615909	843.809091	71.000000	50.000000
843.775000	844.127273	64.000000	63.000000
843.775000	844.159091	85.000000	66.000000
843.809091	844.127273	57.000000	54.000000
843.809091	844.159091	73.000000	63.000000
843.968182	844.479545	74.000000	61.000000
843.968182	844.479545	86.000000	67.000000
844.127273	844.511364	57.000000	50.000000
844.127273	844.511364	64.000000	64.000000
844.127273	844.479545	76.000000	63.000000
844.127273	844.479545	88.000000	63.000000
844.288636	844.479545	78.000000	68.000000
844.288636	844.511364	90.000000	68.000000
844.479545	845.279545	93.000000	71.000000
844.511364	844.927273	57.000000	47.000000
844.511364	845.279545	64.000000	59.000000
844.511364	845.247727	81.000000	64.000000
844.863636	845.311364	79.000000	64.000000
844.863636	845.279545	91.000000	63.000000
844.927273	845.215909	57.000000	39.000000
845.215909	845.600000	57.000000	63.000000
845.215909	845.663636	76.000000	65.000000
845.215909	845.695455	88.000000	62.000000
845.631818	846.656818	50.000000	63.000000
845.631818	845.727273	54.000000	63.000000
845.631818	846.143182	62.000000	67.000000
845.631818	845.663636	74.000000	65.000000
845.631818	846.143182	81.000000	66.000000
845.631818	845.727273	86.000000	68.000000
845.825000	846.368182	78.000000	66.000000
845.825000	846.463636	90.000000	66.000000
845.984091	846.688636	79.000000	65.000000
845.984091	846.688636	91.000000	64.000000
846.143182	846.304545	54.000000	61.000000
846.143182	846.304545	62.000000	63.000000
846.143182	846.688636	81.000000	60.000000
846.143182	846.656818	93.000000	69.000000
846.304545	846.656818	54.000000	63.000000
846.304545	846.656818	62.000000	68.000000
846.336364	846.688636	83.000000	64.000000
846.336364	846.688636	95.000000	67.000000
846.495455	846.688636	85.000000	69.000000
846.495455	846.656818	97.000000	72.000000
846.656818	847.743182	54.000000	63.000000
846.656818	847.327273	62.000000	62.000000
846.656818	847.679545	86.000000	71.000000
846.688636	847.679545	98.000000	71.000000
847.009091	847.743182	57.000000	52.000000
847.009091	847.711364	64.000000	69.000000
847.327273	847.679545	62.000000	61.000000
847.327273	847.679545	66.000000	67.000000
847.679545	848.704545	62.000000	58.000000
847.679545	849.600000	66.000000	65.000000
847.679545	847.743182	69.000000	60.000000
847.679545	847.711364	81.000000	64.000000
847.872727	848.704545	83.000000	64.000000
847.904545	848.704545	71.000000	52.000000
848.095455	848.672727	57.000000	49.000000
848.095455	848.640909	64.000000	59.000000
848.095455	848.704545	73.000000	59.000000
848.095455	848.672727	85.000000	62.000000
848.352273	849.600000	74.000000	51.000000
848.352273	848.736364	86.000000	61.000000
848.640909	849.600000	64.000000	59.000000
848.640909	849.600000	88.000000	57.000000
848.672727	849.600000	55.000000	40.000000
848.672727	849.600000	57.000000	37.000000
848.959091	849.600000	78.000000	55.000000
848.959091	849.600000	90.000000	56.000000
849.536364	849.856818	46.000000	47.000000
849.536364	849.663636	79.000000	59.000000
849.536364	850.879545	91.000000	62.000000
849.984091	850.400000	64.000000	53.000000
850.015909	850.400000	54.000000	41.000000
850.015909	850.400000	61.000000	44.000000
850.015909	850.879545	90.000000	59.000000
850.047727	850.879545	78.000000	55.000000
850.400000	850.879545	54.000000	47.000000
850.400000	850.847727	61.000000	55.000000
850.400000	850.847727	64.000000	58.000000
850.400000	850.879545	88.000000	57.000000
850.784091	850.911364	47.000000	53.000000
850.815909	851.904545	86.000000	67.000000
850.847727	851.968182	74.000000	59.000000
851.136364	851.520455	54.000000	47.000000
851.136364	851.968182	61.000000	56.000000
851.295455	851.968182	85.000000	63.000000
851.327273	851.968182	73.000000	52.000000
851.520455	852.000000	54.000000	44.000000
851.520455	851.968182	59.000000	45.000000
851.520455	851.968182	62.000000	48.000000
851.520455	851.968182	71.000000	58.000000
851.520455	851.968182	83.000000	61.000000
851.872727	853.120455	42.000000	65.000000
851.904545	853.120455	69.000000	61.000000
851.904545	853.120455	81.000000	63.000000
852.256818	852.640909	61.000000	50.000000
852.288636	852.672727	54.000000	40.000000
852.640909	853.120455	57.000000	44.000000
852.640909	853.120455	61.000000	52.000000
852.672727	853.120455	54.000000	39.000000
853.056818	854.336364	43.000000	68.000000
853.088636	853.343182	71.000000	58.000000
853.279545	854.336364	73.000000	62.000000
853.409091	854.336364	64.000000	48.000000
853.440909	853.888636	59.000000	41.000000
853.472727	854.336364	74.000000	61.000000
853.663636	854.336364	76.000000	62.000000
853.888636	854.336364	59.000000	48.000000
853.888636	854.336364	62.000000	47.000000
853.888636	854.336364	78.000000	72.000000
854.079545	854.336364	79.000000	67.000000
854.240909	855.711364	45.000000	53.000000
854.304545	854.911364	69.000000	63.000000
854.304545	854.879545	81.000000	69.000000
854.688636	855.104545	64.000000	58.000000
854.720455	855.136364	61.000000	47.000000
854.720455	855.809091	79.000000	67.000000
855.104545	855.711364	64.000000	65.000000
855.104545	855.711364	76.000000	67.000000
855.136364	855.711364	55.000000	53.000000
855.136364	855.711364	61.000000	57.000000
855.647727	857.631818	38.000000	68.000000
855.647727	857.120455	74.000000	66.000000
855.840909	857.120455	78.000000	65.000000
856.000000	857.120455	79.000000	63.000000
856.159091	856.352273	54.000000	57.000000
856.159091	856.384091	62.000000	53.000000
856.159091	857.120455	81.000000	69.000000
856.320455	857.120455	83.000000	70.000000
856.352273	856.672727	54.000000	54.000000
856.352273	856.384091	66.000000	57.000000
856.384091	856.672727	62.000000	52.000000
856.479545	857.152273	85.000000	72.000000
856.672727	859.968182	54.000000	57.000000
856.672727	857.120455	62.000000	54.000000
856.672727	857.120455	86.000000	72.000000
857.025000	857.759091	57.000000	54.000000
857.025000	857.440909	64.000000	64.000000
857.343182	857.695455	62.000000	58.000000
857.343182	857.695455	66.000000	63.000000
857.663636	857.856818	69.000000	65.000000
857.695455	859.775000	62.000000	55.000000
857.695455	858.784091	66.000000	62.000000
857.856818	858.111364	71.000000	60.000000
858.047727	858.400000	57.000000	53.000000
858.047727	858.368182	64.000000	59.000000
858.047727	860.000000	73.000000	68.000000
858.175000	858.911364	74.000000	64.000000
858.368182	858.720455	64.000000	61.000000
858.368182	859.615909	76.000000	65.000000
858.400000	858.720455	57.000000	40.000000
858.527273	859.263636	78.000000	70.000000
858.720455	859.456818	57.000000	52.000000
858.720455	859.425000	64.000000	62.000000
858.911364	859.200000	79.000000	67.000000
859.200000	860.031818	79.000000	52.000000
859.263636	860.031818	78.000000	68.000000
859.425000	860.063636	64.000000	57.000000
859.456818	860.000000	57.000000	47.000000
859.615909	860.768182	76.000000	63.000000
859.968182	861.790909	62.000000	58.000000
859.968182	860.095455	66.000000	65.000000
860.000000	862.463636	57.000000	42.000000
860.159091	860.768182	74.000000	59.000000
860.511364	860.800000	64.000000	50.000000
860.511364	860.768182	67.000000	48.000000
860.511364	860.800000	73.000000	65.000000
860.704545	860.831818	66.000000	58.000000
860.704545	861.056818	69.000000	61.000000
860.863636	861.472727	71.000000	56.000000
861.056818	861.790909	66.000000	57.000000
861.056818	861.247727	69.000000	59.000000
861.247727	864.256818	69.000000	56.000000
861.440909	862.559091	64.000000	56.000000
861.440909	864.000000	67.000000	55.000000
861.790909	862.143182	62.000000	48.000000
861.790909	862.143182	66.000000	57.000000
862.143182	865.247727	62.000000	49.000000
862.143182	865.056818	66.000000	58.000000
862.336364	862.815909	71.000000	53.000000
862.527273	862.911364	57.000000	50.000000
862.527273	864.863636	73.000000	64.000000
862.559091	862.879545	64.000000	55.000000
862.688636	864.736364	74.000000	58.000000
862.879545	863.263636	64.000000	59.000000
862.879545	862.943182	76.000000	58.000000
862.911364	863.263636	57.000000	39.000000
863.072727	864.736364	78.000000	66.000000
863.263636	864.063636	57.000000	46.000000
863.263636	865.311364	64.000000	58.000000
863.456818	864.704545	81.000000	62.000000
863.872727	865.247727	79.000000	57.000000
864.063636	866.463636	57.000000	48.000000
864.288636	867.009091	76.000000	60.000000
864.704545	865.888636	50.000000	51.000000
864.704545	865.247727	54.000000	45.000000
864.704545	865.440909	81.000000	56.000000
864.895455	866.975000	74.000000	51.000000
865.088636	867.009091	78.000000	56.000000
865.247727	865.472727	54.000000	47.000000
865.247727	865.472727	62.000000	48.000000
865.247727	867.009091	79.000000	60.000000
865.440909	867.009091	81.000000	61.000000
865.472727	865.856818	54.000000	49.000000
865.472727	865.825000	62.000000	52.000000
865.600000	867.263636	85.000000	66.000000
865.825000	866.879545	62.000000	52.000000
865.856818	867.009091	54.000000	50.000000
866.047727	867.009091	86.000000	64.000000
866.463636	867.263636	57.000000	42.000000
866.463636	867.136364	64.000000	56.000000
866.879545	867.295455	62.000000	45.000000
866.879545	867.136364	66.000000	53.000000
867.295455	870.079545	62.000000	42.000000
867.295455	869.663636	66.000000	47.000000
867.295455	870.079545	69.000000	55.000000
867.488636	869.631818	71.000000	54.000000
867.679545	868.609091	57.000000	44.000000
867.679545	868.095455	64.000000	48.000000
867.679545	870.495455	73.000000	57.000000
867.872727	870.720455	74.000000	57.000000
868.063636	870.175000	76.000000	54.000000
868.095455	868.609091	64.000000	55.000000
868.320455	871.040909	78.000000	59.000000
868.575000	871.009091	79.000000	55.000000
868.609091	869.536364	57.000000	33.000000
868.609091	869.536364	64.000000	48.000000
869.536364	872.895455	57.000000	35.000000
869.536364	871.968182	64.000000	52.000000
870.079545	872.447727	62.000000	41.000000
870.079545	870.975000	66.000000	49.000000
870.079545	870.975000	69.000000	51.000000
870.272727	871.040909	71.000000	48.000000
870.495455	872.863636	73.000000	51.000000
870.720455	873.343182	74.000000	50.000000
870.975000	871.520455	66.000000	46.000000
870.975000	871.520455	69.000000	51.000000
870.975000	873.311364	76.000000	50.000000
871.231818	873.375000	78.000000	57.000000
871.520455	872.415909	66.000000	51.000000
871.520455	872.895455	69.000000	55.000000
871.968182	873.440909	64.000000	47.000000
872.000000	873.440909	67.000000	43.000000
872.415909	872.895455	66.000000	50.000000
872.447727	872.895455	62.000000	39.000000
872.895455	873.984091	62.000000	42.000000
872.895455	873.952273	66.000000	49.000000
872.895455	876.831818	69.000000	46.000000
873.152273	873.727273	71.000000	45.000000
873.409091	873.952273	73.000000	52.000000
873.440909	873.920455	57.000000	38.000000
873.440909	873.920455	64.000000	43.000000
873.631818	875.968182	74.000000	47.000000
873.920455	874.752273	57.000000	37.000000
873.920455	874.752273	64.000000	46.000000
873.952273	877.375000	73.000000	40.000000
874.720455	878.336364	81.000000	63.000000
874.752273	876.000000	57.000000	39.000000
874.752273	877.888636	64.000000	48.000000
876.000000	878.368182	57.000000	52.000000
876.831818	878.625000	69.000000	53.000000
876.863636	877.695455	54.000000	45.000000
876.863636	877.695455	62.000000	42.000000
877.088636	878.911364	71.000000	50.000000
877.375000	878.975000	73.000000	49.000000
877.663636	878.209091	74.000000	53.000000
877.695455	878.047727	54.000000	40.000000
877.695455	878.047727	62.000000	41.000000
878.047727	878.752273	54.000000	41.000000
878.047727	878.752273	62.000000	47.000000
878.079545	878.975000	66.000000	42.000000
878.752273	881.920455	54.000000	42.000000
878.752273	879.104545	62.000000	39.000000
878.752273	881.056818	81.000000	65.000000
879.456818	881.375000	57.000000	35.000000
879.456818	880.863636	64.000000	47.000000
880.063636	880.736364	62.000000	38.000000
880.063636	880.736364	66.000000	45.000000
880.704545	884.959091	69.000000	52.000000
880.736364	881.600000	62.000000	34.000000
880.736364	881.663636	66.000000	46.000000
881.025000	881.790909	71.000000	49.000000
881.343182	882.047727	64.000000	39.000000
881.343182	883.359091	73.000000	53.000000
881.375000	882.079545	57.000000	36.000000
882.047727	882.943182	64.000000	43.000000
882.079545	882.943182	57.000000	32.000000
882.911364	886.015909	81.000000	65.000000
882.943182	884.159091	57.000000	37.000000
882.943182	884.127273	64.000000	51.000000
884.127273	885.984091	64.000000	48.000000
884.159091	890.847727	57.000000	31.000000
884.959091	886.688636	62.000000	41.000000
884.959091	886.368182	66.000000	42.000000
884.959091	886.368182	69.000000	47.000000
885.279545	886.463636	71.000000	49.000000
885.984091	888.127273	64.000000	42.000000
885.984091	887.520455	67.000000	37.000000
886.368182	887.359091	66.000000	46.000000
886.368182	887.359091	69.000000	42.000000
887.327273	892.127273	81.000000	62.000000
887.359091	888.895455	66.000000	47.000000
887.359091	889.920455	69.000000	49.000000
888.127273	890.847727	64.000000	39.000000
888.159091	895.904545	67.000000	32.000000
888.895455	896.575000	62.000000	41.000000
888.895455	897.536364	66.000000	35.000000
889.920455	893.025000	69.000000	45.000000
890.847727	891.809091	57.000000	29.000000
890.847727	891.775000	64.000000	38.000000
891.775000	893.984091	64.000000	39.000000
891.809091	893.984091	57.000000	32.000000
892.959091	898.815909	81.000000	59.000000
893.025000	896.768182	69.000000	34.000000
893.984091	894.879545	57.000000	32.000000
893.984091	894.879545	64.000000	38.000000
894.879545	901.663636	57.000000	28.000000
894.879545	897.409091	64.000000	34.000000
896.575000	897.375000	62.000000	35.000000
896.609091	897.375000	54.000000	34.000000
897.375000	900.095455	54.000000	32.000000
897.375000	900.063636	62.000000	33.000000
898.815909	908.256818	81.000000	59.000000
900.063636	901.536364	62.000000	39.000000
900.095455	901.536364	54.000000	38.000000
901.536364	908.256818	54.000000	34.000000
901.536364	908.159091	62.000000	35.000000
908.159091	909.536364	62.000000	49.000000
908.609091	908.704545	50.000000	35.000000
908.609091	908.672727	54.000000	37.000000
908.609091	908.704545	57.000000	33.000000
908.895455	908.990909	48.000000	37.000000
908.895455	908.990909	57.000000	34.000000
908.927273	908.990909	50.000000	32.000000
908.927273	908.990909	54.000000	34.000000
909.409091	909.504545	47.000000	40.000000
909.409091	909.504545	50.000000	36.000000
909.409091	909.536364	59.000000	41.000000
909.440909	909.536364	55.000000	34.000000
909.695455	909.790909	50.000000	39.000000
909.695455	909.825000	59.000000	44.000000
909.727273	909.790909	47.000000	43.000000
910.209091	910.304545	45.000000	38.000000
910.209091	910.304545	50.000000	39.000000
910.209091	910.304545	54.000000	36.000000
910.209091	910.304545	60.000000	46.000000
910.495455	910.590909	60.000000	43.000000
910.527273	910.625000	45.000000	35.000000
910.527273	910.590909	50.000000	37.000000
910.527273	910.590909	54.000000	37.000000
910.943182	911.040909	43.000000	46.000000
910.943182	911.040909	50.000000	41.000000
910.943182	911.040909	59.000000	44.000000
911.231818	911.327273	43.000000	44.000000
911.231818	911.327273	50.000000	39.000000
911.231818	911.327273	55.000000	41.000000
911.231818	911.327273	59.000000	42.000000
911.679545	912.895455	66.000000	58.000000
912.095455	912.190909	52.000000	43.000000
912.095455	912.190909	58.000000	39.000000
912.095455	912.190909	61.000000	47.000000
912.127273	912.190909	54.000000	36.000000
912.384091	912.479545	61.000000	49.000000
912.415909	912.479545	52.000000	36.000000
912.415909	912.479545	54.000000	32.000000
912.415909	912.479545	58.000000	39.000000
912.895455	912.990909	50.000000	38.000000
912.895455	912.990909	54.000000	39.000000
912.895455	912.990909	59.000000	35.000000
912.895455	912.990909	62.000000	43.000000
913.184091	913.311364	50.000000	38.000000
913.184091	913.311364	62.000000	46.000000
913.215909	913.375000	54.000000	38.000000
913.215909	913.311364	59.000000	38.000000
913.695455	913.790909	49.000000	40.000000
913.695455	913.888636	54.000000	32.000000
913.695455	913.790909	58.000000	40.000000
913.695455	913.790909	64.000000	52.000000
913.984091	914.079545	49.000000	40.000000
913.984091	914.079545	58.000000	43.000000
913.984091	914.111364	64.000000	53.000000
914.015909	914.111364	54.000000	35.000000
914.463636	914.559091	47.000000	43.000000
914.463636	914.590909	54.000000	42.000000
914.463636	914.559091	62.000000	46.000000
914.752273	914.879545	62.000000	49.000000
914.784091	914.879545	47.000000	42.000000
914.784091	914.879545	54.000000	43.000000
915.231818	915.809091	69.000000	64.000000
915.679545	915.775000	57.000000	30.000000
915.679545	915.775000	64.000000	46.000000
915.711364	915.775000	61.000000	35.000000
915.968182	916.031818	55.000000	41.000000
915.968182	916.063636	64.000000	50.000000
916.000000	916.063636	57.000000	32.000000
916.000000	916.063636	61.000000	43.000000
916.447727	916.543182	57.000000	35.000000
916.447727	916.543182	62.000000	37.000000
916.447727	916.543182	66.000000	49.000000
916.479545	916.543182	54.000000	42.000000
916.736364	916.831818	54.000000	48.000000
916.736364	916.831818	57.000000	33.000000
916.736364	916.831818	62.000000	42.000000
916.736364	916.831818	66.000000	52.000000
917.247727	917.343182	52.000000	42.000000
917.247727	917.343182	61.000000	43.000000
917.247727	917.343182	67.000000	42.000000
917.504545	917.631818	52.000000	44.000000
917.536364	917.663636	61.000000	40.000000
917.536364	917.663636	67.000000	44.000000
918.079545	918.175000	50.000000	37.000000
918.079545	918.175000	62.000000	38.000000
918.079545	918.175000	66.000000	47.000000
918.111364	918.175000	38.000000	28.000000
918.400000	918.495455	38.000000	32.000000
918.400000	918.527273	50.000000	39.000000
918.400000	918.688636	57.000000	32.000000
918.400000	918.559091	62.000000	42.000000
918.400000	918.590909	66.000000	47.000000
919.136364	919.231818	45.000000	37.000000
919.136364	919.231818	52.000000	38.000000
919.136364	919.263636	61.000000	35.000000
919.136364	919.263636	67.000000	39.000000
919.168182	919.231818	33.000000	40.000000
919.456818	919.584091	45.000000	38.000000
919.456818	919.647727	67.000000	40.000000
919.488636	919.584091	33.000000	40.000000
919.488636	919.552273	52.000000	38.000000
919.488636	919.615909	61.000000	37.000000
919.488636	919.520455	64.000000	37.000000
920.225000	920.352273	66.000000	40.000000
920.256818	920.352273	38.000000	32.000000
920.256818	920.352273	45.000000	35.000000
920.256818	920.352273	62.000000	36.000000
920.609091	921.920455	66.000000	44.000000
920.640909	920.800000	45.000000	37.000000
920.640909	921.856818	62.000000	36.000000
920.672727	920.800000	38.000000	35.000000
921.825000	921.920455	40.000000	38.000000
921.825000	921.952273	67.000000	39.000000
921.856818	921.888636	61.000000	34.000000
922.175000	922.368182	61.000000	39.000000
922.175000	922.368182	67.000000	36.000000
922.209091	922.336364	40.000000	35.000000
925.025000	926.209091	45.000000	37.000000
925.825000	935.040909	52.000000	45.000000
926.272727	926.336364	57.000000	38.000000
926.720455	932.704545	61.000000	46.000000
927.168182	934.336364	64.000000	47.000000
927.711364	935.552273	67.000000	47.000000
928.800000	935.390909	69.000000	51.000000
935.872727	936.000000	33.000000	45.000000
936.225000	936.320455	33.000000	40.000000
936.609091	936.672727	54.000000	41.000000
936.609091	937.375000	62.000000	41.000000
936.640909	936.704545	38.000000	40.000000
936.640909	936.704545	50.000000	39.000000
