# onset,offset,note,velocity
10.527273	11.231818	76.000000	53.000000
11.104545	12.159091	78.000000	60.000000
11.647727	13.504545	74.000000	58.000000
12.095455	14.143182	76.000000	62.000000
12.543182	14.047727	78.000000	69.000000
13.025000	15.615909	83.000000	70.000000
13.504545	15.425000	45.000000	53.000000
14.015909	18.815909	79.000000	72.000000
14.047727	19.647727	52.000000	54.000000
14.495455	18.815909	55.000000	54.000000
14.943182	17.504545	74.000000	67.000000
15.009091	18.815909	60.000000	49.000000
15.390909	18.815909	64.000000	55.000000
15.840909	17.727273	67.000000	62.000000
16.288636	18.815909	72.000000	61.000000
16.800000	18.815909	76.000000	67.000000
17.727273	18.815909	67.000000	53.000000
18.720455	21.504545	71.000000	58.000000
19.231818	21.472727	40.000000	50.000000
19.647727	21.472727	52.000000	54.000000
20.031818	21.472727	54.000000	57.000000
20.447727	21.504545	61.000000	54.000000
20.447727	24.320455	72.000000	67.000000
20.479545	21.504545	56.000000	50.000000
20.479545	21.472727	65.000000	52.000000
20.479545	21.472727	68.000000	55.000000
21.375000	23.231818	64.000000	66.000000
21.409091	23.263636	60.000000	53.000000
21.440909	23.263636	55.000000	48.000000
21.952273	24.320455	45.000000	48.000000
22.336364	24.320455	52.000000	57.000000
22.720455	24.320455	67.000000	58.000000
22.752273	24.320455	59.000000	48.000000
22.752273	24.320455	63.000000	52.000000
23.231818	24.320455	64.000000	60.000000
23.263636	24.320455	55.000000	50.000000
23.263636	24.320455	60.000000	54.000000
24.225000	26.336364	71.000000	66.000000
24.256818	26.431818	62.000000	43.000000
24.256818	25.727273	66.000000	56.000000
24.831818	26.336364	40.000000	53.000000
25.247727	26.336364	52.000000	62.000000
25.695455	26.336364	54.000000	62.000000
25.695455	26.272727	74.000000	73.000000
25.727273	26.240909	66.000000	63.000000
26.240909	27.584091	66.000000	68.000000
26.272727	26.336364	44.000000	54.000000
26.272727	26.336364	74.000000	64.000000
26.304545	27.584091	56.000000	55.000000
26.304545	27.584091	63.000000	56.000000
26.879545	30.527273	72.000000	65.000000
27.456818	29.663636	64.000000	61.000000
27.488636	29.695455	60.000000	54.000000
27.872727	30.559091	45.000000	51.000000
28.288636	31.200000	71.000000	67.000000
28.320455	30.527273	52.000000	56.000000
28.320455	30.590909	67.000000	54.000000
28.704545	30.431818	59.000000	56.000000
29.184091	30.431818	55.000000	50.000000
29.663636	30.400000	64.000000	60.000000
29.695455	30.559091	60.000000	51.000000
30.400000	33.790909	64.000000	62.000000
30.431818	33.856818	55.000000	48.000000
30.431818	32.127273	59.000000	53.000000
30.911364	36.800000	38.000000	51.000000
31.295455	36.800000	45.000000	50.000000
31.711364	36.800000	50.000000	49.000000
32.095455	36.800000	52.000000	55.000000
32.511364	36.800000	54.000000	50.000000
32.895455	36.768182	57.000000	52.000000
33.375000	36.800000	62.000000	47.000000
33.790909	36.800000	64.000000	47.000000
34.304545	36.800000	66.000000	49.000000
34.879545	38.143182	69.000000	51.000000
35.743182	36.831818	74.000000	49.000000
36.736364	39.390909	77.000000	49.000000
36.736364	39.359091	81.000000	51.000000
37.247727	38.495455	88.000000	55.000000
37.663636	38.495455	76.000000	54.000000
38.047727	40.095455	86.000000	65.000000
38.079545	40.127273	74.000000	49.000000
38.495455	41.375000	76.000000	58.000000
38.495455	41.343182	79.000000	57.000000
38.495455	40.575000	83.000000	61.000000
38.495455	41.311364	88.000000	59.000000
39.359091	40.959091	81.000000	61.000000
39.390909	40.990909	77.000000	47.000000
40.095455	42.815909	86.000000	59.000000
40.127273	40.990909	74.000000	47.000000
40.575000	41.343182	83.000000	63.000000
40.640909	41.375000	71.000000	43.000000
40.959091	41.790909	81.000000	67.000000
40.990909	44.095455	69.000000	56.000000
40.990909	42.847727	74.000000	49.000000
40.990909	41.825000	77.000000	49.000000
41.343182	43.390909	79.000000	68.000000
41.343182	43.968182	83.000000	68.000000
41.375000	44.000000	71.000000	60.000000
41.375000	41.825000	76.000000	60.000000
41.790909	44.127273	81.000000	70.000000
41.825000	44.095455	76.000000	61.000000
41.825000	44.095455	77.000000	68.000000
41.825000	44.000000	88.000000	65.000000
42.815909	44.095455	86.000000	59.000000
42.847727	44.095455	74.000000	50.000000
43.390909	44.127273	79.000000	61.000000
43.425000	44.511364	67.000000	41.000000
43.968182	45.088636	75.000000	47.000000
43.968182	45.088636	78.000000	60.000000
43.968182	45.088636	83.000000	56.000000
44.000000	47.390909	71.000000	46.000000
44.959091	46.590909	76.000000	50.000000
44.990909	46.815909	72.000000	46.000000
45.790909	46.943182	81.000000	56.000000
45.856818	47.872727	69.000000	40.000000
46.240909	47.009091	79.000000	61.000000
46.272727	47.040909	67.000000	37.000000
46.590909	47.390909	76.000000	62.000000
46.625000	49.440909	64.000000	53.000000
46.625000	47.904545	70.000000	49.000000
46.625000	49.311364	73.000000	60.000000
47.009091	48.768182	79.000000	73.000000
47.040909	51.390909	67.000000	63.000000
47.359091	48.352273	83.000000	71.000000
47.390909	47.840909	71.000000	65.000000
47.390909	48.800000	76.000000	71.000000
47.425000	48.095455	72.000000	59.000000
47.840909	48.384091	71.000000	55.000000
47.840909	49.279545	74.000000	67.000000
47.840909	49.311364	75.000000	68.000000
47.840909	49.311364	78.000000	73.000000
47.840909	49.311364	86.000000	72.000000
48.352273	50.209091	83.000000	66.000000
48.384091	49.311364	71.000000	53.000000
48.768182	49.311364	79.000000	67.000000
48.800000	49.215909	76.000000	53.000000
49.215909	49.759091	72.000000	54.000000
49.215909	50.720455	76.000000	60.000000
49.663636	51.456818	69.000000	58.000000
49.663636	51.425000	81.000000	67.000000
50.209091	51.552273	83.000000	65.000000
50.240909	50.752273	71.000000	54.000000
50.720455	50.879545	75.000000	57.000000
50.720455	51.488636	76.000000	59.000000
50.752273	51.456818	64.000000	55.000000
50.752273	51.488636	71.000000	52.000000
51.359091	53.663636	79.000000	62.000000
51.390909	53.695455	67.000000	50.000000
51.904545	52.959091	74.000000	50.000000
51.936364	52.863636	70.000000	43.000000
52.768182	54.847727	73.000000	55.000000
52.800000	55.072727	69.000000	40.000000
53.663636	54.879545	79.000000	55.000000
53.695455	54.431818	67.000000	40.000000
54.431818	56.127273	67.000000	47.000000
54.527273	54.943182	68.000000	48.000000
54.656818	57.440909	72.000000	57.000000
54.879545	57.440909	79.000000	74.000000
55.359091	57.504545	53.000000	45.000000
55.775000	57.440909	60.000000	48.000000
56.127273	57.440909	67.000000	56.000000
56.511364	60.031818	77.000000	64.000000
56.543182	57.440909	68.000000	53.000000
57.311364	59.009091	69.000000	59.000000
57.343182	59.040909	63.000000	40.000000
57.856818	60.031818	49.000000	42.000000
58.272727	60.031818	53.000000	48.000000
58.625000	60.031818	59.000000	45.000000
58.625000	60.031818	62.000000	47.000000
58.625000	60.000000	72.000000	61.000000
59.009091	60.031818	69.000000	59.000000
59.040909	60.031818	63.000000	51.000000
59.775000	60.031818	67.000000	54.000000
59.872727	60.031818	68.000000	56.000000
60.000000	62.240909	72.000000	56.000000
60.159091	61.790909	79.000000	72.000000
60.609091	62.784091	53.000000	48.000000
60.990909	62.784091	60.000000	52.000000
61.311364	62.815909	77.000000	71.000000
61.343182	62.784091	67.000000	52.000000
61.790909	62.784091	79.000000	69.000000
61.825000	62.784091	68.000000	57.000000
62.240909	62.784091	72.000000	65.000000
62.656818	63.904545	69.000000	66.000000
62.688636	63.936364	63.000000	55.000000
63.104545	63.904545	47.000000	53.000000
63.488636	65.888636	54.000000	53.000000
63.840909	64.479545	72.000000	66.000000
63.872727	65.888636	57.000000	45.000000
63.872727	64.479545	62.000000	50.000000
64.415909	65.790909	69.000000	54.000000
64.447727	65.856818	63.000000	45.000000
65.504545	65.888636	58.000000	44.000000
65.663636	68.000000	62.000000	46.000000
65.790909	67.584091	69.000000	66.000000
66.240909	70.911364	43.000000	58.000000
66.815909	69.409091	67.000000	65.000000
66.847727	74.400000	50.000000	49.000000
67.231818	74.368182	53.000000	55.000000
67.584091	69.984091	65.000000	70.000000
67.615909	68.479545	58.000000	53.000000
68.000000	70.463636	62.000000	65.000000
68.479545	71.520455	69.000000	69.000000
68.990909	69.952273	70.000000	61.000000
68.990909	71.743182	74.000000	58.000000
69.984091	71.840909	65.000000	68.000000
70.463636	71.520455	62.000000	71.000000
70.943182	74.400000	58.000000	66.000000
71.520455	73.279545	62.000000	67.000000
73.279545	76.895455	62.000000	65.000000
74.240909	78.143182	40.000000	51.000000
74.240909	78.143182	56.000000	57.000000
74.272727	76.479545	54.000000	54.000000
75.263636	78.175000	60.000000	65.000000
75.295455	78.047727	52.000000	59.000000
76.479545	78.143182	50.000000	45.000000
76.479545	78.143182	54.000000	48.000000
77.056818	78.047727	59.000000	65.000000
78.047727	80.768182	52.000000	54.000000
78.047727	81.152273	59.000000	63.000000
78.079545	78.975000	48.000000	42.000000
78.784091	79.936364	33.000000	53.000000
79.456818	101.279545	40.000000	55.000000
79.936364	82.079545	47.000000	51.000000
80.352273	101.247727	48.000000	55.000000
80.768182	101.247727	52.000000	58.000000
81.152273	88.288636	59.000000	55.000000
81.568182	101.215909	60.000000	53.000000
82.079545	101.279545	64.000000	52.000000
82.590909	84.672727	71.000000	57.000000
83.231818	86.336364	72.000000	61.000000
83.968182	86.368182	76.000000	62.000000
84.640909	87.552273	78.000000	63.000000
84.672727	92.640909	71.000000	52.000000
85.504545	87.584091	74.000000	52.000000
86.336364	89.343182	72.000000	49.000000
86.368182	89.343182	76.000000	52.000000
87.552273	101.247727	78.000000	57.000000
87.584091	98.815909	74.000000	51.000000
89.311364	101.215909	83.000000	58.000000
89.343182	101.247727	72.000000	38.000000
89.343182	101.184091	76.000000	40.000000
92.543182	101.215909	84.000000	46.000000
92.543182	97.759091	88.000000	46.000000
